<?xml version="1.0" encoding="utf-8"?>
<!-- Generator: Adobe Illustrator 24.1.0, SVG Export Plug-In . SVG Version: 6.00 Build 0)  -->
<svg version="1.1" id="Layer_1" xmlns="http://www.w3.org/2000/svg" xmlns:xlink="http://www.w3.org/1999/xlink" x="0px" y="0px"
	 viewBox="0 0 380 380" style="enable-background:new 0 0 380 380;" xml:space="preserve">
<style type="text/css">
	.st0{fill-rule:evenodd;clip-rule:evenodd;fill:url(#SVGID_1_);}
	.st1{fill:#FFFFFF;}
</style>
<linearGradient id="SVGID_1_" gradientUnits="userSpaceOnUse" x1="25.4277" y1="2574.9841" x2="354.5723" y2="2765.0159" gradientTransform="matrix(1 0 0 1 0 -2480)">
	<stop  offset="0" style="stop-color:#E4729F"/>
	<stop  offset="1" style="stop-color:#78104D"/>
</linearGradient>
<circle class="st0" cx="190" cy="190" r="190"/>
<g>
	<g>
		<g>
			<path class="st1" d="M238.4,130.3c-6.7,0-12.1,5.4-12.1,12.1c0,6.7,5.4,12.1,12.1,12.1s12.1-5.4,12.1-12.1
				C250.5,135.7,245.1,130.3,238.4,130.3z M238.4,146.4c-2.2,0-4-1.8-4-4c0-2.2,1.8-4,4-4s4,1.8,4,4
				C242.4,144.6,240.6,146.4,238.4,146.4z"/>
		</g>
	</g>
	<g>
		<g>
			<path class="st1" d="M292,284.4c14.9-18.5,23-41.5,23-65.5c0-36.9-18.8-70.3-50.4-89.6l-1.7-0.9c-4.8-8.4-13.8-14.1-24.1-14.2
				L256,84.4l-34.9-20.2l-21.2,36.8c-13-21.6-36.7-35.3-62.2-35.3c-40,0-72.6,32.6-72.6,72.6s32.6,72.6,72.6,72.6
				c11.6,0,23-2.8,33.2-8.1l16.1,9.3l8.1-14l7.2,4.2l18.8-37.8c4.8,3.8,10.8,6.1,17.4,6.1c2,0,3.9-0.2,5.8-0.6
				c11.7,12.3,18.4,30.1,18.4,49c0,4.2-0.4,8.3-1.1,12.4c-1-0.2-2-0.3-3-0.3c-4.1,0-7.7,1.6-10.6,4h-94.3c-6.7,0-12.1,5.4-12.1,12.1
				c0,6.7,5.4,12.1,12.1,12.1H248c0.6,0.6,1.3,1.1,2,1.5c-9.9,14.3-24.5,22.7-39.8,22.7h-76.6c-8.9,0-16.1,7.2-16.1,16.1
				c0,8.9,7.2,16.1,16.1,16.1h153.2c8.9,0,16.1-7.2,16.1-16.1C302.9,292.6,298.3,286.6,292,284.4z M243,251.2h-89.3
				c-2.2,0-4-1.8-4-4c0-2.2,1.8-4,4-4H243c-0.3,1.3-0.6,2.6-0.6,4C242.4,248.6,242.7,249.9,243,251.2z M224,75.3L245,87.4l-4,7
				L220,82.3L224,75.3z M137.6,202.8c-35.6,0-64.5-28.9-64.5-64.5s28.9-64.5,64.5-64.5c24.2,0,46.6,13.9,57.5,35.4l-2.3,3.9
				l-6.8-3.9l-40.2,60.6l7.2,4.2l-8.1,14l17.2,10C154.5,201.1,146.1,202.8,137.6,202.8z M184,201.1L156,185l4-7l27.9,16.1L184,201.1
				z M198.8,191.1l-41.5-23.9l31.3-47.1l23.1,13.3c-1,2.8-1.5,5.9-1.5,9c0,5.9,1.8,11.4,4.9,15.9L198.8,191.1z M199.8,117.2
				L216,89.3l20.9,12.1l-8.4,14.6c-5.3,2-9.9,5.6-13.1,10.2L199.8,117.2z M238.4,162.5c-11.1,0-20.2-9-20.2-20.2
				c0-11.1,9-20.2,20.2-20.2c11.1,0,20.2,9,20.2,20.2C258.5,153.5,249.5,162.5,238.4,162.5z M258.5,239.1c4.4,0,8.1,3.6,8.1,8.1
				c0,4.4-3.6,8.1-8.1,8.1c-4.4,0-8.1-3.6-8.1-8.1C250.5,242.7,254.1,239.1,258.5,239.1z M258.1,263.3c0.2,0,0.3,0,0.5,0
				c8.9,0,16.1-7.2,16.1-16.1c0-4.8-2.2-9.1-5.6-12.1c1-5.3,1.5-10.7,1.5-16.1c0-19.7-6.7-38.4-18.4-52c4.1-2.3,7.5-5.6,10-9.5
				c18.2,15.3,28.6,37.6,28.6,61.6c0,13.4-3.4,26.7-9.7,38.4l7.1,3.8c7-12.9,10.7-27.5,10.7-42.2c0-27.2-12.1-52.4-33.3-69.3
				c0.6-2.4,1-4.8,1-7.4c0-0.7-0.1-1.4-0.1-2.1c25.4,18.2,40.4,47.1,40.4,78.7c0,23.9-8.8,46.7-24.7,64.5h-44.4
				C245.7,278.7,252.6,271.8,258.1,263.3z M286.8,307.7H133.5c-4.4,0-8.1-3.6-8.1-8.1s3.6-8.1,8.1-8.1h153.2c4.4,0,8.1,3.6,8.1,8.1
				S291.2,307.7,286.8,307.7z"/>
		</g>
	</g>
	<g>
		<g>
			<path class="st1" d="M113.4,118.2c-11.1,0-20.2,9-20.2,20.2s9,20.2,20.2,20.2s20.2-9,20.2-20.2S124.5,118.2,113.4,118.2z
				 M113.4,150.4c-6.7,0-12.1-5.4-12.1-12.1c0-6.7,5.4-12.1,12.1-12.1c6.7,0,12.1,5.4,12.1,12.1C125.5,145,120.1,150.4,113.4,150.4z
				"/>
		</g>
	</g>
	<g>
		<g>
			<path class="st1" d="M125.5,85.9c0,6.7-5.4,12.1-12.1,12.1v8.1c11.1,0,20.2-9,20.2-20.2H125.5z"/>
		</g>
	</g>
	<g>
		<g>
			<path class="st1" d="M113.4,170.6h-8.1c0,11.1,9,20.2,20.2,20.2v-8.1C118.8,182.7,113.4,177.2,113.4,170.6z"/>
		</g>
	</g>
	<g>
		<g>
			<rect x="93.2" y="106.1" class="st1" width="8.1" height="8.1"/>
		</g>
	</g>
	<g>
		<g>
			<rect x="157.7" y="94" class="st1" width="8.1" height="8.1"/>
		</g>
	</g>
	<g>
		<g>
			<rect x="153.7" y="126.2" class="st1" width="8.1" height="8.1"/>
		</g>
	</g>
	<g>
		<g>
			<rect x="129.5" y="166.5" class="st1" width="8.1" height="8.1"/>
		</g>
	</g>
	<g>
		<g>
			<rect x="109.4" y="134.3" class="st1" width="8.1" height="8.1"/>
		</g>
	</g>
</g>
</svg>
