<?xml version="1.0" encoding="utf-8"?>
<!-- Generator: Adobe Illustrator 24.1.0, SVG Export Plug-In . SVG Version: 6.00 Build 0)  -->
<svg version="1.1" id="Layer_1" xmlns="http://www.w3.org/2000/svg" xmlns:xlink="http://www.w3.org/1999/xlink" x="0px" y="0px"
	 viewBox="0 0 380 380" style="enable-background:new 0 0 380 380;" xml:space="preserve">
<style type="text/css">
	.st0{fill-rule:evenodd;clip-rule:evenodd;fill:url(#SVGID_1_);}
	.st1{fill:#FFFFFF;}
</style>
<g>
	
		<linearGradient id="SVGID_1_" gradientUnits="userSpaceOnUse" x1="25.4277" y1="-4413.9844" x2="354.5723" y2="-4604.0161" gradientTransform="matrix(1 0 0 -1 0 -4319)">
		<stop  offset="0" style="stop-color:#00D8FF"/>
		<stop  offset="1" style="stop-color:#367AD8"/>
	</linearGradient>
	<circle class="st0" cx="190" cy="190" r="190"/>
</g>
<path class="st1" d="M82.4,297.4c1.2,1.2,3.3,1.2,4.5,0l37.3-37.3l1.9,1.9c2.1,2.1,5.2,2.8,8.1,1.9l10.7-3.7
	c5.5,3.9,13.3,3.4,18.3-1.6l86.7-86.7l1.2,1.2c3.2,3.2,8.4,3.2,11.5,0l2.8-2.8c3.2-3.2,3.2-8.4,0-11.5c-0.5-0.5-4-4-8.8-8.8l6.9-6.9
	c1.2-1.2,1.2-3.3,0-4.5c-1.2-1.2-3.3-1.2-4.5,0l-6.9,6.9c-5.5-5.5-11.8-11.8-17.3-17.3l23.4-23.4c6,6,13.4,13.4,17.3,17.3l-6,6
	c-1.2,1.2-1.2,3.3,0,4.5c1.2,1.2,3.3,1.2,4.5,0l6-6l1.8,1.8c3.2,3.2,8.4,3.2,11.5,0l2.8-2.8c3.2-3.2,3.2-8.4,0-11.5l-9.1-9.1
	c-1.2-1.2-3.3-1.2-4.5,0c-1.2,1.2-1.2,3.3,0,4.5l9.1,9.1c0.7,0.7,0.7,1.8,0,2.6l-2.8,2.8c-0.7,0.7-1.8,0.7-2.6,0L256.4,94
	c-0.7-0.7-0.7-1.8,0-2.6l2.8-2.8c0.7-0.7,1.8-0.7,2.6,0l10.3,10.3c1.2,1.2,3.3,1.2,4.5,0c1.2-1.2,1.2-3.3,0-4.5l-10.3-10.3
	c-3.2-3.2-8.4-3.2-11.5,0l-2.8,2.8c-3.2,3.2-3.2,8.4,0,11.5l1.8,1.8l-23.4,23.4c-4.9-4.9-8.4-8.4-8.8-8.8c-3.2-3.2-8.4-3.2-11.5,0
	l-2.8,2.8c-3.2,3.2-3.2,8.4,0,11.5l1.2,1.2c-3.2,3.2-82.5,82.5-86.7,86.7c-5.2,5.2-5.4,13.1-1.3,18.6l-3.7,10.6
	c-1,2.8-0.2,6,1.9,8.1l1.2,1.2l-37.3,37.3C81.2,294.1,81.2,296.1,82.4,297.4z M211.6,122.2l2.8-2.8c0.7-0.7,1.8-0.7,2.6,0
	c1.7,1.7,40.4,40.4,43.9,43.9c0.7,0.7,0.7,1.8,0,2.6l-2.8,2.8c-0.7,0.7-1.8,0.7-2.6,0c-1.3-1.3-41.5-41.5-43.9-43.9
	C210.9,124,210.9,122.9,211.6,122.2z M212.9,134.9l32.4,32.4l-5.4,5.4l-32.4-32.4L212.9,134.9z M126.1,221.7l76.8-76.8l32.4,32.4
	l-7.3,7.3l-5.6-5.6c-1.2-1.2-3.3-1.2-4.5,0c-1.2,1.2-1.2,3.3,0,4.5l5.6,5.6l-7.6,7.6l-5.6-5.6c-1.2-1.2-3.3-1.2-4.5,0
	c-1.2,1.2-1.2,3.3,0,4.5l5.6,5.6l-7.6,7.6l-5.6-5.6c-1.2-1.2-3.3-1.2-4.5,0c-1.2,1.2-1.2,3.3,0,4.5l5.6,5.6l-7.6,7.6l-5.6-5.6
	c-1.2-1.2-3.3-1.2-4.5,0s-1.2,3.3,0,4.5l5.6,5.6l-7.6,7.6l-5.6-5.6c-1.2-1.2-3.3-1.2-4.5,0s-1.2,3.3,0,4.5l5.6,5.6l-7.6,7.6
	l-5.6-5.6c-1.2-1.2-3.3-1.2-4.5,0c-1.2,1.2-1.2,3.3,0,4.5l5.6,5.6l-4.6,4.6c-3.1,3.1-8.1,3.1-11.2,0l-21.2-21.3
	C123,229.8,123,224.8,126.1,221.7z M122.6,248.5l2.6-7.5l14.3,14.3l-7.5,2.6c-0.5,0.2-1.1,0-1.5-0.3c-6.6-6.6-2.9-2.9-7.5-7.5
	C122.6,249.6,122.5,249,122.6,248.5z"/>
</svg>
