<?xml version="1.0" encoding="utf-8"?>
<!-- Generator: Adobe Illustrator 24.1.0, SVG Export Plug-In . SVG Version: 6.00 Build 0)  -->
<svg version="1.1" id="Layer_1" xmlns="http://www.w3.org/2000/svg" xmlns:xlink="http://www.w3.org/1999/xlink" x="0px" y="0px"
	 viewBox="0 0 380 380" style="enable-background:new 0 0 380 380;" xml:space="preserve">
<style type="text/css">
	.st0{fill:#2B79C2;}
	.st1{fill:#3B4652;}
	.st2{fill-rule:evenodd;clip-rule:evenodd;fill:url(#SVGID_1_);}
	.st3{display:none;fill:#FFFFFF;}
	.st4{fill:#FFFFFF;}
</style>
<g>
	<path class="st0" d="M6076,3150.3h116v8h-116V3150.3L6076,3150.3z M6110.3,3088.1c-2.2-2.5-1.9-6.3,0.6-8.4
		c2.5-2.2,6.3-1.9,8.4,0.6l16.3,18.5l45.5-40.7c2.5-2.2,6.2-2,8.4,0.5c2.2,2.5,2,6.2-0.5,8.4l-49.8,44.5c-2.6,2.4-6.4,2.2-8.6-0.4
		L6110.3,3088.1L6110.3,3088.1z M6134,3060.4c10.5-10.6,25.6-12.3,37.7-4.4c-2,1.9-4.1,3.8-6.2,5.6c-10-5.2-21.2-2.2-28.4,7.3
		c-1.6,2.1-4.7,2.1-6.3,0c-15.2-19.9-40.9-6.9-40.9,13c0,7.4,5.3,15.9,12.5,23.9c9.4,10.3,22,19.3,31.5,24.1
		c9.5-4.7,22.1-13.8,31.5-24.1c5.1-5.5,9.1-11.3,11.2-16.8c3.1-2.6,6.2-5.3,9.3-8.1c0.7,23.2-32.9,48.9-50.3,57
		c-1.1,0.5-2.3,0.5-3.3,0l0,0c-17.1-8-50.3-33.5-50.3-56C6082,3055.7,6113.9,3039.8,6134,3060.4L6134,3060.4z M6076,3171.3h116v8
		h-116V3171.3L6076,3171.3z"/>
	<path class="st1" d="M6054.9,2997.3h26.1v12h-26.1c-2.2,0-4.2,0.9-5.6,2.4c-1.5,1.5-2.4,3.5-2.4,5.6v188c0,4.4,3.6,8,8,8H6213
		c4.4,0,8-3.6,8-8v-188c0-2.2-0.9-4.2-2.4-5.6c-1.5-1.5-3.5-2.4-5.6-2.4h-26v-12h26.1c5.5,0,10.5,2.2,14.1,5.9
		c3.6,3.6,5.9,8.6,5.9,14.1v188c0,11-9,20-20,20H6055c-11,0-20-9-20-20v-188c0-5.5,2.2-10.5,5.9-14.1
		C6044.4,2999.5,6049.4,2997.3,6054.9,2997.3L6054.9,2997.3z M6134,2969.3c5.8,0,11,0.4,14.8,4.2s6.2,9.1,6.2,14.8l0,0h24v30h-90
		v-30h24l0,0c0-5.8,2.4-11,6.2-14.8C6123,2969.6,6128.2,2969.3,6134,2969.3L6134,2969.3z M6140.4,2981.9c-1.6-1.6-3.9-2.6-6.4-2.6
		s-4.7,1-6.4,2.6s-2.6,3.9-2.6,6.4s1,4.7,2.6,6.4c1.5,1.5,3.6,2.5,5.9,2.6h0.9c2.3-0.1,4.4-1.1,5.9-2.6c1.6-1.6,2.6-3.9,2.6-6.4
		S6142,2983.6,6140.4,2981.9L6140.4,2981.9z"/>
</g>
<g>
	<linearGradient id="SVGID_1_" gradientUnits="userSpaceOnUse" x1="94.9841" y1="25.4277" x2="285.0159" y2="354.5723">
		<stop  offset="0" style="stop-color:#71DFE7"/>
		<stop  offset="1" style="stop-color:#009DAE"/>
	</linearGradient>
	<circle class="st2" cx="190" cy="190" r="190"/>
</g>
<path class="st3" d="M184.4,127.4c-9.7-7.8-11.2-21.9-3.4-31.6s21.9-11.2,31.6-3.4c1.3,1,2.5,2.2,3.5,3.5
	c-7.7-13.5-24.8-18.1-38.3-10.4s-18.1,24.8-10.4,38.3c7.7,13.4,24.8,18.1,38.3,10.4c4.3-2.4,7.8-6,10.3-10.2
	C208.2,133.7,194.1,135.2,184.4,127.4z"/>
<g>
	<path class="st4" d="M70,248.1c1-2,2.7-2.5,4.8-2.5c12.6,0.1,25.2,0,37.7,0.1c5.8,0,11-1.5,15.8-4.9c6.1-4.3,12.6-7.8,20.2-8.8
		c6.7-0.9,13.1,0.1,19.2,2.7c7.9,3.4,15.9,6.9,23.8,10.5c1.7,0.8,3,0.8,4.7-0.2c9.1-5.2,18.2-10.4,27.3-15.4
		c8.5-4.7,19.5-1.2,22.5,7.5c0.9,2.6,0.9,5.6,1.3,8.7c3.6-1.3,7.5-2.7,11.4-4.1c3.1-1.2,6.2-1.5,9.4-0.8c6.6,1.4,11.3,6.4,12.3,12.9
		c1.1,6.7-1.8,12.9-7.9,16.4c-9.7,5.4-19.4,10.7-29.1,16.1c-11.4,6.3-22.8,12.7-34.2,18.9c-8.7,4.8-17.9,5.9-27.4,3.2
		c-11.8-3.3-23.5-6.8-35.3-10.2c-2.6-0.8-3.8-2.5-3.1-4.6c0.7-2.2,2.4-2.9,5.2-2.1c11.3,3.3,22.6,6.5,33.9,9.8
		c8.7,2.6,16.8,1.4,24.8-3.1c20.2-11.3,40.6-22.4,60.9-33.6c4.1-2.3,6-5.5,5.6-9.2c-0.8-5.9-6.4-9.2-12.2-7.1
		c-9.3,3.3-18.5,6.7-27.7,10c-4.8,1.7-9.5,3.5-14.3,5.1c-1.5,0.5-2,1.2-1.9,2.8c0.5,9.2-5.4,16.2-14.5,17.3c-1.9,0.2-3.9,0-5.8-0.4
		c-11-2.4-21.9-4.9-32.9-7.4c-0.4-0.1-0.8-0.2-1.1-0.3c-2.4-0.6-3.5-2.2-3.1-4.2c0.5-2.1,2.3-3.2,4.7-2.6c5.5,1.2,11,2.5,16.4,3.7
		c6,1.4,12,2.8,18,4c5,1.1,9.4-1.5,10.9-6.2c1.4-4.5-0.7-9.2-5.2-11.2c-13.6-6.1-27.2-12-40.9-18c-1.8-0.8-3.8-1.3-5.8-1.7
		c-7.8-1.5-14.8,0.6-21.5,4.5c-1.5,0.9-3.1,1.8-4.5,2.9c-4.7,3.4-9.9,5.6-15.8,5.9c-0.4,0-0.8,0.1-1.2,0.1c-0.1,0-0.3,0.1-0.5,0.3
		c0,10.1,0,20.3,0,29.9c5.4,1.1,10.6,2.2,15.7,3.2c0.8,0.2,1.5,0.4,2.2,0.8c1.8,0.9,2.4,2.5,1.8,4.3c-0.6,1.7-2,2.5-3.9,2.3
		c-0.2,0-0.5-0.1-0.7-0.2c-6.6-2.6-13.5-2.6-20.5-2.6c-11.5,0.1-23,0-34.4,0.1c-2.1,0-3.8-0.5-5-2.4C70,275,70,261.6,70,248.1z
		 M202.1,249.9c2,0.9,3.9,1.6,5.5,2.5c2,1.2,4,2.5,5.7,4c1,0.9,1.7,1.2,3,0.7c5.8-2.2,11.7-4.2,17.6-6.4c5.1-1.9,7.5-6.9,5.5-11.6
		c-1.8-4-7.5-5.9-11.9-3.6C219,240.2,210.7,245,202.1,249.9z M107.5,283.7c0-10.4,0-20.6,0-30.8c-4.9,0-9.6,0-14.2,0
		c0,10.4,0,20.5,0,30.8C98.1,283.7,102.6,283.7,107.5,283.7z M77.1,283.6c3,0,5.8,0,8.8,0c0-10.3,0-20.5,0-30.8c-3,0-5.8,0-8.8,0
		C77.1,263.1,77.1,273.2,77.1,283.6z"/>
	<path class="st4" d="M225.7,181.8c-0.3,1.5-0.6,2.9-1,4.4c-0.8,3.3-2.4,6.3-4.4,9c-3.5,4.8-7.7,8.8-12.2,12.7
		c-5.1,4.4-10.6,8.3-16.2,12c-0.8,0.5-1.5,0.6-2.3,0c-7.6-5-14.9-10.5-21.4-16.8c-0.7-0.7-1.3-1.3-2-2c-0.8-0.8-0.9-1.7-0.2-2.4
		c0.6-0.7,1.6-0.6,2.4,0.2c2.9,2.7,5.8,5.5,8.8,8.1c4.1,3.6,8.6,6.7,13.1,9.7c0.3,0.2,0.5,0.2,0.9,0c7.2-4.9,14.2-10.1,20.4-16.2
		c3.3-3.3,6.5-6.7,8.6-11c2.5-5.1,3.4-10.5,1-15.9c-2.4-5.7-6.7-9.2-12.8-10.4c-6.3-1.2-11.6,0.7-16,5.4c-0.1,0.2-0.3,0.3-0.4,0.5
		c-0.8,0.8-1.7,0.8-2.5,0c-1.1-1.1-2.2-2.2-3.4-3.1c-4-2.8-8.5-3.7-13.4-2.7c-7.4,1.5-12.8,7.5-13.6,15c-0.5,4.3,0.7,8.2,2.6,11.9
		c0.1,0.2,0.4,0.3,0.6,0.3c3.2,0,6.4,0,9.6,0c0.2,0,0.5-0.2,0.7-0.5c1-1.6,1.9-3.1,2.8-4.7c0.9-1.6,2.2-1.6,3.2,0
		c1.6,2.4,3.1,4.8,4.7,7.2c0.1,0.2,0.3,0.4,0.5,0.7c0.1-0.3,0.2-0.5,0.3-0.8c1.9-5,3.7-10,5.6-15c0.1-0.2,0.1-0.4,0.2-0.6
		c0.3-0.7,0.8-1.1,1.5-1c0.7,0,1.2,0.4,1.5,1.1c0.7,1.8,1.3,3.5,2,5.3c1,2.6,1.9,5.2,2.9,7.8c0.2,0.5,0.4,0.6,0.8,0.6
		c2.7,0,5.4,0,8.1,0c0.7,0,1.3,0.2,1.7,0.8c0.5,0.9,0,2.1-1.1,2.3c-0.2,0-0.5,0-0.8,0.1c-3.1,0-6.1,0-9.2,0c-1.3,0-1.6-0.3-2.1-1.4
		c-1.2-3.2-2.4-6.3-3.5-9.5c-0.1-0.2-0.2-0.4-0.3-0.7c-0.1,0.3-0.2,0.5-0.3,0.7c-1.7,4.7-3.5,9.4-5.2,14.1c-0.1,0.2-0.2,0.5-0.3,0.7
		c-0.5,1-1.8,1.1-2.6,0.3c-0.3-0.3-0.5-0.6-0.7-1c-1.6-2.5-3.2-4.9-4.8-7.4c-0.1-0.2-0.3-0.4-0.4-0.6c-0.8,1.3-1.5,2.4-2.2,3.7
		c-0.5,0.9-1.2,1.3-2.3,1.3c-5.4,0-10.7,0-16.1,0c-1.4,0-2.1-0.5-2.1-1.5c0-1,0.7-1.6,2.1-1.6c0.6,0,1.1,0,1.7,0
		c-0.5-1.7-1.1-3.4-1.6-5.1c-3-10.3,3.2-21.7,13.5-24.7c6.9-2.1,13.3-0.8,19,3.6c0.6,0.4,1.1,0.9,1.6,1.4c0.7-0.6,1.4-1.2,2.2-1.8
		c7.8-5.8,18-5.6,25.5,0.6c4.2,3.5,6.6,8,7.2,13.5c0,0.2,0.1,0.4,0.1,0.5C225.7,179.6,225.7,180.7,225.7,181.8z"/>
	<path class="st4" d="M132.8,134.1c-3.9,1.4-8,2.9-12.1,4.3c-10.1,3.5-20-2.5-21.4-13.2c-0.8-6.2,2.5-12.3,8.8-15.8
		c12.7-7,25.4-14,38.1-21c8.1-4.5,16.2-9,24.4-13.5c8.8-4.9,18.1-6,27.8-3.3c18.9,5.4,37.7,10.9,56.6,16.3c2.5,0.7,5.2,1.1,7.8,1.1
		c14.1,0.1,28.1,0,42.2,0.1c4,0,5,1.1,5,5c0,11.8,0,23.6,0,35.4c0,3.7-1.1,4.7-4.7,4.7c-12.7,0-25.5,0.1-38.2,0
		c-5.6,0-10.6,1.4-15.1,4.7c-6.2,4.4-12.7,7.9-20.4,8.9c-6.8,0.9-13.2-0.1-19.4-2.8c-8.1-3.5-16.2-7-24.2-10.7
		c-1.5-0.7-2.5-0.5-3.9,0.2c-9.2,5.3-18.4,10.5-27.7,15.6c-9,5-20.3,0.7-22.8-8.7C132.9,139.3,133,136.8,132.8,134.1z M265.3,96.9
		c-4.7-0.8-9-1.2-13.1-2.4c-18.8-5.3-37.6-10.9-56.4-16.2c-7.4-2.1-14.6-1.2-21.3,2.5c-21.1,11.6-42.1,23.2-63.1,34.8
		c-4.7,2.6-6.4,7.2-4.4,11.6c2,4.4,6.7,6.2,11.7,4.4c13.9-5,27.9-10.1,41.8-15.1c1.5-0.5,2-1.1,1.9-2.8c-0.6-11.4,8.9-19.4,20-17
		c11.3,2.5,22.5,5.1,33.8,7.7c2.8,0.6,4,2.2,3.6,4.3c-0.5,2.2-2.3,3.2-5.1,2.5c-11.2-2.5-22.4-5.1-33.5-7.6
		c-5.3-1.2-9.8,1.3-11.3,6.1c-1.5,4.6,0.8,9.2,5.7,11.4c13.2,5.8,26.4,11.7,39.6,17.5c8.1,3.5,16.3,3.5,24.2-0.5
		c3.5-1.7,6.6-4.2,10.1-5.9c3.5-1.8,7.2-3.2,10.9-4.5c1.5-0.5,3.2-0.4,5.1-0.7c0-1.4,0-2.7,0-4.1c0.1-2.4,1.5-3.9,3.5-3.9
		c2,0,3.4,1.5,3.5,3.9c0.1,1.3,0,2.6,0,4c5,0,9.7,0,14.4,0c0-10.4,0-20.5,0-30.7c-4.8,0-9.5,0-14.4,0c0,3.2,0,6.2,0,9.2
		c0,2.7-1.4,4.3-3.6,4.2c-2.1-0.1-3.3-1.5-3.4-4.2C265.3,102.6,265.3,99.6,265.3,96.9z M177.8,130.2c-0.6-0.3-1-0.6-1.4-0.8
		c-3.8-1.7-7.7-3.1-10.4-6.5c-0.3-0.4-1.4-0.3-2.1-0.1c-6,2.1-11.9,4.2-17.8,6.4c-5.1,1.8-7.4,6.7-5.5,11.4
		c1.7,4.1,7.4,6.2,11.8,3.8C160.9,139.9,169.2,135.1,177.8,130.2z M294.1,96.4c0,10.4,0,20.5,0,30.8c3,0,5.8,0,8.7,0
		c0-10.3,0-20.5,0-30.8C299.9,96.4,297.1,96.4,294.1,96.4z"/>
</g>
</svg>
