<?xml version="1.0" encoding="utf-8"?>
<!-- Generator: Adobe Illustrator 24.1.0, SVG Export Plug-In . SVG Version: 6.00 Build 0)  -->
<svg version="1.1" id="Capa_1" xmlns="http://www.w3.org/2000/svg" xmlns:xlink="http://www.w3.org/1999/xlink" x="0px" y="0px"
	 viewBox="0 0 380 380" style="enable-background:new 0 0 380 380;" xml:space="preserve">
<style type="text/css">
	.st0{fill-rule:evenodd;clip-rule:evenodd;fill:url(#SVGID_1_);}
	.st1{fill:#FFFFFF;}
</style>
<g>
	
		<linearGradient id="SVGID_1_" gradientUnits="userSpaceOnUse" x1="25.4277" y1="-4414.9844" x2="354.5723" y2="-4605.0161" gradientTransform="matrix(1 0 0 -1 0 -4320)">
		<stop  offset="0" style="stop-color:#00D8FF"/>
		<stop  offset="1" style="stop-color:#367AD8"/>
	</linearGradient>
	<circle class="st0" cx="190" cy="190" r="190"/>
</g>
<g>
	<path class="st1" d="M241.1,96.4c2.2,0,4-1.8,4-4V74l13.8,20c1.2,1.7,3.1,2.4,5,1.8c1.9-0.6,3.1-2.4,3.1-4.5l-0.3-30.2
		c0-2.2-1.8-3.9-4-3.9c0,0,0,0,0,0c-2.2,0-4,1.8-3.9,4l0.2,18.8l-14.5-21c-1-1.4-2.8-2.1-4.5-1.5c-1.7,0.5-2.8,2.1-2.8,3.8v31.2
		C237.1,94.6,238.9,96.4,241.1,96.4L241.1,96.4z"/>
	<path class="st1" d="M325.7,115.3c0-2.2-1.8-3.9-4-3.9c0,0,0,0,0,0c-2.2,0-4,1.8-3.9,4l0.2,18.8l-14.5-21c-1-1.4-2.8-2.1-4.5-1.5
		c-1.7,0.5-2.8,2.1-2.8,3.8v31.2c0,2.2,1.8,4,4,4s4-1.8,4-4v-18.4l13.8,20c1.2,1.7,3.1,2.4,5,1.8c1.9-0.6,3.1-2.4,3.1-4.5
		L325.7,115.3z"/>
	<path class="st1" d="M270.8,283.6C270.7,283.6,270.7,283.6,270.8,283.6c-2.2,0-4,1.8-4,4l0.2,18.8l-14.5-21c-1-1.4-2.8-2.1-4.5-1.5
		c-1.7,0.5-2.8,2.1-2.8,3.8v31.2c0,2.2,1.8,4,4,4c2.2,0,4-1.8,4-4v-18.4l13.8,20c1.2,1.7,3.1,2.4,5,1.8c1.9-0.6,3.1-2.4,3.1-4.5
		l-0.3-30.2C274.7,285.4,272.9,283.6,270.8,283.6L270.8,283.6z"/>
	<path class="st1" d="M88.3,275.9C88.3,275.9,88.3,275.9,88.3,275.9c-2.2,0-4,1.8-4,4l0.2,18.8l-14.5-21c-1-1.4-2.8-2.1-4.5-1.5
		c-1.7,0.5-2.8,2.1-2.8,3.8v31.2c0,2.2,1.8,4,4,4s4-1.8,4-4v-18.4l13.8,20c1.2,1.7,3.1,2.4,5,1.8c1.9-0.6,3.1-2.4,3.1-4.5l-0.3-30.2
		C92.3,277.7,90.5,275.9,88.3,275.9z"/>
	<path class="st1" d="M95.6,130.5c2.2,0,4-1.8,4-4v-18.4l13.8,20c1.2,1.7,3.1,2.4,5,1.8c1.9-0.6,3.1-2.4,3.1-4.5l-0.3-30.2
		c0-2.2-1.8-3.9-4-3.9c0,0,0,0,0,0c-2.2,0-4,1.8-3.9,4l0.2,18.8l-14.5-21c-1-1.4-2.8-2.1-4.5-1.5c-1.7,0.5-2.8,2.1-2.8,3.8v31.2
		C91.6,128.7,93.4,130.5,95.6,130.5z"/>
	<path class="st1" d="M205,96.4c2.2,0,4-1.8,4-4V80.2h13.6v12.2c0,2.2,1.8,4,4,4s4-1.8,4-4V61.1c0-2.2-1.8-4-4-4s-4,1.8-4,4v11.1
		H209V61.1c0-2.2-1.8-4-4-4s-4,1.8-4,4v31.2C201,94.6,202.8,96.4,205,96.4z"/>
	<path class="st1" d="M126.2,275.9c-2.2,0-4,1.8-4,4V291h-13.6v-11.1c0-2.2-1.8-4-4-4c-2.2,0-4,1.8-4,4v31.2c0,2.2,1.8,4,4,4
		c2.2,0,4-1.8,4-4V299h13.6v12.2c0,2.2,1.8,4,4,4c2.2,0,4-1.8,4-4v-31.2C130.1,277.7,128.4,275.9,126.2,275.9z"/>
	<path class="st1" d="M274.8,77.6c2.2,0.4,4.3-1,4.7-3.1c0.2-0.9,1-1.5,1.9-1.5c1,0,1.8,0.8,1.9,1.7l0,0.3c-0.2,0.7-0.7,1.8-1.8,3.4
		c-3.6,5.2-5.8,8-7,9.5c-1.5,2-2.5,3.3-1.9,5.4c0.4,1.3,1.4,2.3,2.6,2.7c0.5,0.2,0.9,0.3,5.5,0.3c1.8,0,4.2,0,7.5-0.1
		c2.2,0,4-1.8,3.9-4c0-2.2-1.8-3.9-4-3.9c0,0,0,0-0.1,0c-1.3,0-2.7,0-4.1,0c1.1-1.4,2.3-3.2,3.9-5.4c1.6-2.3,2.6-4.4,3.1-6.4
		c0-0.1,0.1-0.3,0.1-0.4l0.1-0.9c0-0.2,0-0.3,0-0.5c0-5.4-4.4-9.9-9.9-9.9c-4.7,0-8.8,3.3-9.7,8C271.2,75.1,272.6,77.2,274.8,77.6
		L274.8,77.6z"/>
	<path class="st1" d="M269.5,244.6l16.7-9.6c1.2-0.7,2-2,2-3.5v-58.6c0-1.4-0.8-2.7-2-3.5l-50.8-29.3c-1.2-0.7-2.8-0.7-4,0
		l-50.8,29.3c-1.2,0.7-2,2-2,3.4v58.6c0,1.4,0.8,2.7,2,3.4l50.8,29.3c0.6,0.4,1.3,0.5,2,0.5s1.4-0.2,2-0.5l20.4-11.8
		c1.9-1.1,2.6-3.5,1.5-5.4c-1.1-1.9-3.5-2.6-5.4-1.5l-18.4,10.6l-46.8-27v-54l46.8-27l46.8,27v54l-14.7,8.5
		c-1.9,1.1-2.6,3.5-1.5,5.4C265.2,245.1,267.6,245.7,269.5,244.6z"/>
	<path class="st1" d="M74,203.9l33.7,46.3c0.8,1.1,2,1.6,3.2,1.6c0.4,0,0.8-0.1,1.2-0.2l54.5-17.7c1.6-0.5,2.8-2.1,2.8-3.8V173
		c0-1.7-1.1-3.3-2.8-3.8l-54.5-17.7c-1.6-0.5-3.4,0.1-4.5,1.4L74,199.3C73,200.7,73,202.6,74,203.9L74,203.9z M112.4,159.9l49,15.9
		v51.5l-49,15.9l-30.3-41.7L112.4,159.9z"/>
	<path class="st1" d="M299.1,157L246,126.4v-11.8c0-6.9-5.6-12.6-12.6-12.6c-6.9,0-12.6,5.7-12.6,12.6v11.8l-46.9,27.1l-62.4-20.3
		c-5.2-1.7-10.9,0.1-14.1,4.6l-10.1,13.9c-1.3,1.8-0.9,4.3,0.9,5.6s4.3,0.9,5.6-0.9l10.1-13.9c1.2-1.6,3.3-2.3,5.2-1.7l64.1,20.8
		c1.1,0.3,2.2,0.2,3.2-0.3l50.4-29.1c1.2-0.7,2-2,2-3.5v-14.1c0-2.6,2.1-4.6,4.6-4.6c2.6,0,4.6,2.1,4.6,4.6v14.1
		c0,1.4,0.8,2.7,2,3.5l55.1,31.8c1.4,0.8,2.3,2.4,2.3,4v68.6c0,1.6-0.9,3.2-2.3,4l-59.4,34.3c-1.4,0.8-3.2,0.8-4.6,0L175,242.4
		c-1-0.6-2.2-0.7-3.2-0.3L109,262.5c-0.5,0.2-0.9,0.2-1.4,0.2c-1.5,0-2.9-0.7-3.7-1.9l-41-56.5c-1.2-1.6-1.2-3.8,0-5.4l21.6-29.7
		c1.3-1.8,0.9-4.3-0.9-5.6c-1.8-1.3-4.3-0.9-5.6,0.9l-21.6,29.7c-3.2,4.4-3.2,10.4,0,14.8l41,56.5c2.4,3.3,6.2,5.2,10.2,5.2
		c1.3,0,2.6-0.2,3.9-0.6l61-19.8l54.5,31.5c1.9,1.1,4.1,1.7,6.3,1.7c2.2,0,4.4-0.6,6.3-1.7l59.4-34.3c3.9-2.2,6.3-6.4,6.3-10.9
		v-68.6C305.4,163.4,303,159.3,299.1,157L299.1,157z"/>
	<path class="st1" d="M230,247.6c0.7,1.3,2.1,2,3.5,2c0.7,0,1.4-0.2,2-0.5l38.5-22.2c1.9-1.1,2.6-3.5,1.5-5.4
		c-1.1-1.9-3.5-2.6-5.4-1.5l-38.5,22.2C229.5,243.3,228.9,245.7,230,247.6z"/>
	<path class="st1" d="M231.6,162.8l37.2,21.5c0.6,0.4,1.3,0.5,2,0.5c1.4,0,2.7-0.7,3.5-2c1.1-1.9,0.4-4.3-1.5-5.4l-37.2-21.5
		c-1.9-1.1-4.3-0.4-5.4,1.5C229,159.3,229.7,161.7,231.6,162.8L231.6,162.8z"/>
	<path class="st1" d="M193.5,179v42.8c0,2.2,1.8,4,4,4s4-1.8,4-4V179c0-2.2-1.8-4-4-4S193.5,176.8,193.5,179z"/>
	<path class="st1" d="M120.8,166.8c-1.8-1.3-4.3-0.9-5.6,0.9l-24,33.1c-1.3,1.8-0.9,4.3,0.9,5.6c0.7,0.5,1.5,0.8,2.3,0.8
		c1.2,0,2.4-0.6,3.2-1.6l24-33.1C122.9,170.6,122.5,168.1,120.8,166.8z"/>
</g>
</svg>
