<?xml version="1.0" encoding="utf-8"?>
<!-- Generator: Adobe Illustrator 24.1.0, SVG Export Plug-In . SVG Version: 6.00 Build 0)  -->
<svg version="1.1" id="Layer_1_1_" xmlns="http://www.w3.org/2000/svg" xmlns:xlink="http://www.w3.org/1999/xlink" x="0px" y="0px"
	 viewBox="0 0 380 380" style="enable-background:new 0 0 380 380;" xml:space="preserve">
<style type="text/css">
	.st0{fill-rule:evenodd;clip-rule:evenodd;fill:url(#SVGID_1_);}
	.st1{fill:#FFFFFF;}
</style>
<linearGradient id="SVGID_1_" gradientUnits="userSpaceOnUse" x1="25.4277" y1="-1982.9841" x2="354.5723" y2="-2173.0159" gradientTransform="matrix(1 0 0 -1 0 -1888)">
	<stop  offset="0" style="stop-color:#E4729F"/>
	<stop  offset="1" style="stop-color:#78104D"/>
</linearGradient>
<circle class="st0" cx="190" cy="190" r="190"/>
<g>
	<path class="st1" d="M94.1,297.2c3.3,2.8,6.4,5.5,9.1,8c-0.4,3.4-0.6,6.7-0.6,10.2h8.4c0-10.6,1.9-21,5.6-30.9l15.9-42.3
		c2.5-6.6,2.7-13.9,0.6-20.6L115,163.8c-0.6-2-2.6-3.2-4.6-2.9s-3.6,2.1-3.6,4.1v75.9c0,8.4,3.1,16.3,8.8,22.4l-6.9,18.3
		c-1.7,4.5-3,9.1-3.9,13.8c-1.7-1.5-3.4-3-5.2-4.5c-9.3-8-19.9-17-24.1-26.8c-3.4-8-2.9-18.2-2.5-28c0.2-3.4,0.3-6.8,0.3-10v-82.9
		c0-14.8,10-28.1,24.4-32.2l28.3-9.4c15.9-5.3,26.7-20.1,26.7-36.9h-8.4c0,13.2-8.4,24.8-20.9,29L95.3,103
		C77.4,108.1,65,124.6,65,143.1V226c0,3.1-0.2,6.3-0.3,9.6c-0.5,10.7-1.1,21.8,3.1,31.6C72.7,278.9,84.1,288.6,94.1,297.2
		L94.1,297.2z M115.1,240.9v-48.6L125,224c1.5,4.9,1.4,10.3-0.4,15.2l-5.6,14.9C116.5,250.2,115.1,245.6,115.1,240.9z"/>
	<path class="st1" d="M303.2,210.9v-67.8c0-18.6-12.5-35.1-30.1-40.1l-28.3-9.4c-12.5-4.2-20.9-15.8-20.9-29h-8.4
		c0,16.8,10.7,31.6,26.7,36.9l28.5,9.4c14.3,4.1,24.2,17.3,24.2,32.2v67.8H303.2z"/>
	<path class="st1" d="M188.5,196.2c-4.3-18.2-5.7-36.9-4.1-55.5l1.8-21.4l-8.3-0.7L176,140c-1.6,19.5-0.2,39.1,4.3,58.1
		c6.5,27.5,6.3,56.5-0.6,83.8l-1.8,7.3l8.1,2l1.8-7.3C195,255.3,195.2,225,188.5,196.2L188.5,196.2z"/>
	<path class="st1" d="M305.3,294.5h-2.1v-41.8c0-23.3-16-42.9-37.6-48.5V190c0-2.3-1.9-4.2-4.2-4.2h-4.2v-8.4h-8.4v8.4h-4.2
		c-2.3,0-4.2,1.9-4.2,4.2v14.2c-21.6,5.6-37.6,25.2-37.6,48.5v41.8h-2.1c-5.8,0-10.4,4.7-10.4,10.4c0,5.8,4.7,10.4,10.4,10.4h104.5
		c5.8,0,10.4-4.7,10.4-10.4C315.7,299.2,311,294.5,305.3,294.5z M248.8,194.2h8.4v8.6c-1.4-0.1-2.8-0.2-4.2-0.2s-2.8,0.1-4.2,0.2
		L248.8,194.2L248.8,194.2z M248.8,211.1c1.4-0.1,2.8-0.2,4.2-0.2s2.8,0.1,4.2,0.2v8.1h-8.4L248.8,211.1L248.8,211.1z M211.2,252.7
		c0-18.7,12.3-34.5,29.3-39.9v6.4c0,4.6,3.7,8.4,8.4,8.4h8.4c4.6,0,8.4-3.7,8.4-8.4v-6.4c16.9,5.3,29.3,21.2,29.3,39.9v41.8h-83.6
		v-41.8H211.2z M305.3,307H200.8c-1.2,0-2.1-0.9-2.1-2.1s0.9-2.1,2.1-2.1h6.3H299h6.3c1.2,0,2.1,0.9,2.1,2.1S306.4,307,305.3,307z"
		/>
	<path class="st1" d="M161.4,133.4l-3.5,7.6c1.9,0.9,3.6,2.2,4.8,3.9l6.7-5C167.4,137.1,164.6,134.8,161.4,133.4z"/>
	<path class="st1" d="M165.1,150.6c0.1,0.6,0.1,1.2,0.1,1.8c0,1.5-0.3,3-0.8,4.4l7.8,2.9c0.9-2.3,1.3-4.8,1.3-7.3c0-1-0.1-2-0.2-3
		L165.1,150.6z"/>
	<path class="st1" d="M157.2,172.8c3.4-0.7,6.6-2.3,9.2-4.6l-5.5-6.3c-1.6,1.4-3.5,2.3-5.5,2.8L157.2,172.8z"/>
	<path class="st1" d="M151.2,131.5c-3.5,0.2-6.9,1.4-9.8,3.3l4.5,7c1.8-1.1,3.8-1.8,5.9-2L151.2,131.5z"/>
	<path class="st1" d="M131.8,152.4c0,2,0.3,4,0.8,5.9l8-2.3c-0.3-1.1-0.5-2.3-0.5-3.5c0-2.1,0.5-4.2,1.5-6l-7.3-4
		C132.7,145.4,131.8,148.9,131.8,152.4L131.8,152.4z"/>
	<path class="st1" d="M137.9,167.2c2.5,2.5,5.5,4.3,8.9,5.3l2.4-8c-2-0.6-3.8-1.7-5.3-3.2L137.9,167.2z"/>
	<path class="st1" d="M148,223.9l-5.9,5.9c2.5,2.5,5.5,4.3,8.9,5.3l2.4-8C151.4,226.5,149.5,225.4,148,223.9L148,223.9z"/>
	<path class="st1" d="M177.8,215.1c0-1-0.1-2-0.2-3l-8.3,1.2c0.1,0.6,0.1,1.2,0.1,1.8c0,1.5-0.3,3-0.8,4.4l7.8,2.9
		C177.4,220,177.8,217.6,177.8,215.1L177.8,215.1z"/>
	<path class="st1" d="M165.1,224.6c-1.6,1.4-3.5,2.3-5.5,2.8l1.8,8.2c3.4-0.7,6.6-2.3,9.2-4.6L165.1,224.6z"/>
	<path class="st1" d="M155.4,194.2c-3.5,0.2-6.9,1.4-9.8,3.3l4.5,7c1.8-1.1,3.8-1.8,5.9-2L155.4,194.2z"/>
	<path class="st1" d="M144.9,218.6c-0.3-1.1-0.5-2.3-0.5-3.5c0-2.1,0.5-4.2,1.5-6l-7.3-4c-1.7,3.1-2.6,6.5-2.6,10c0,2,0.3,4,0.8,5.9
		L144.9,218.6z"/>
	<path class="st1" d="M165.6,196.1l-3.5,7.6c1.9,0.9,3.6,2.2,4.8,3.9l6.7-5C171.5,199.8,168.8,197.5,165.6,196.1z"/>
	<path class="st1" d="M151.2,256.9c-3.5,0.2-6.9,1.4-9.8,3.3l4.5,7c1.8-1.1,3.8-1.8,5.9-2L151.2,256.9z"/>
	<path class="st1" d="M149.2,289.8c-2-0.6-3.8-1.7-5.3-3.2l-5.9,5.9c2.5,2.5,5.5,4.3,8.9,5.3L149.2,289.8z"/>
	<path class="st1" d="M131.8,277.8c0,2,0.3,4,0.8,5.9l8-2.3c-0.3-1.1-0.5-2.3-0.5-3.5c0-2.1,0.5-4.2,1.5-6l-7.3-4
		C132.7,270.8,131.8,274.3,131.8,277.8z"/>
	<path class="st1" d="M166.4,293.6l-5.5-6.3c-1.6,1.4-3.5,2.3-5.5,2.8l1.8,8.2C160.6,297.5,163.8,295.9,166.4,293.6z"/>
	<path class="st1" d="M172.3,285.1c0.9-2.3,1.3-4.8,1.3-7.3c0-1-0.1-2-0.2-3l-8.3,1.2c0.1,0.6,0.1,1.2,0.1,1.8c0,1.5-0.3,3-0.8,4.4
		L172.3,285.1z"/>
	<path class="st1" d="M162.8,270.3l6.7-5c-2.1-2.8-4.9-5-8-6.5l-3.5,7.6C159.8,267.2,161.5,268.6,162.8,270.3z"/>
</g>
</svg>
