<?xml version="1.0" encoding="utf-8"?>

<svg version="1.1" id="Layer_1" xmlns="http://www.w3.org/2000/svg" xmlns:xlink="http://www.w3.org/1999/xlink" x="0px" y="0px"
	 viewBox="0 0 380 380" style="enable-background:new 0 0 380 380;" xml:space="preserve">
<style type="text/css">
	.st0{fill:#2B79C2;}
	.st1{fill:#3B4652;}
	.st2{fill-rule:evenodd;clip-rule:evenodd;fill:url(#SVGID_1_);}
	.st3{fill:#FFFFFF;}
	.st4{fill-rule:evenodd;clip-rule:evenodd;fill:#FFFFFF;}
</style>
<g>
	<path class="st0" d="M6076,3150.3h116v8h-116V3150.3L6076,3150.3z M6110.3,3088.1c-2.2-2.5-1.9-6.3,0.6-8.4
		c2.5-2.2,6.3-1.9,8.4,0.6l16.3,18.5l45.5-40.7c2.5-2.2,6.2-2,8.4,0.5c2.2,2.5,2,6.2-0.5,8.4l-49.8,44.5c-2.6,2.4-6.4,2.2-8.6-0.4
		L6110.3,3088.1L6110.3,3088.1z M6134,3060.4c10.5-10.6,25.6-12.3,37.7-4.4c-2,1.9-4.1,3.8-6.2,5.6c-10-5.2-21.2-2.2-28.4,7.3
		c-1.6,2.1-4.7,2.1-6.3,0c-15.2-19.9-40.9-6.9-40.9,13c0,7.4,5.3,15.9,12.5,23.9c9.4,10.3,22,19.3,31.5,24.1
		c9.5-4.7,22.1-13.8,31.5-24.1c5.1-5.5,9.1-11.3,11.2-16.8c3.1-2.6,6.2-5.3,9.3-8.1c0.7,23.2-32.9,48.9-50.3,57
		c-1.1,0.5-2.3,0.5-3.3,0l0,0c-17.1-8-50.3-33.5-50.3-56C6082,3055.7,6113.9,3039.8,6134,3060.4L6134,3060.4z M6076,3171.3h116v8
		h-116V3171.3L6076,3171.3z"/>
	<path class="st1" d="M6054.9,2997.3h26.1v12h-26.1c-2.2,0-4.2,0.9-5.6,2.4c-1.5,1.5-2.4,3.5-2.4,5.6v188c0,4.4,3.6,8,8,8H6213
		c4.4,0,8-3.6,8-8v-188c0-2.2-0.9-4.2-2.4-5.6c-1.5-1.5-3.5-2.4-5.6-2.4h-26v-12h26.1c5.5,0,10.5,2.2,14.1,5.9
		c3.6,3.6,5.9,8.6,5.9,14.1v188c0,11-9,20-20,20H6055c-11,0-20-9-20-20v-188c0-5.5,2.2-10.5,5.9-14.1
		C6044.4,2999.5,6049.4,2997.3,6054.9,2997.3L6054.9,2997.3z M6134,2969.3c5.8,0,11,0.4,14.8,4.2s6.2,9.1,6.2,14.8l0,0h24v30h-90
		v-30h24l0,0c0-5.8,2.4-11,6.2-14.8C6123,2969.6,6128.2,2969.3,6134,2969.3L6134,2969.3z M6140.4,2981.9c-1.6-1.6-3.9-2.6-6.4-2.6
		s-4.7,1-6.4,2.6s-2.6,3.9-2.6,6.4s1,4.7,2.6,6.4c1.5,1.5,3.6,2.5,5.9,2.6h0.9c2.3-0.1,4.4-1.1,5.9-2.6c1.6-1.6,2.6-3.9,2.6-6.4
		S6142,2983.6,6140.4,2981.9L6140.4,2981.9z"/>
</g>
<g>
	<linearGradient id="SVGID_1_" gradientUnits="userSpaceOnUse" x1="25.4277" y1="94.9841" x2="354.5723" y2="285.0159">
		<stop  offset="0" style="stop-color:#E4729F"/>
		<stop  offset="1" style="stop-color:#78104D"/>
	</linearGradient>
	<circle class="st2" cx="190" cy="190" r="190"/>
	<g>
		<path class="st3" d="M156,198.6c-2.1,0.6-4.3-0.6-4.9-2.7c-0.6-2.1,0.6-4.3,2.7-4.9c2-0.6,4.2-1,6.4-1.2c2.4-0.2,4.9-0.3,7.5-0.3
			c0.5,0,1-0.2,1.4-0.5s0.6-0.8,0.6-1.4c0.6-11.6-0.6-21.1-3.4-29c0.2-4.5,1.1-8.9,2.7-13c6.5,10.6,9.7,24.3,8.7,42.4
			c-0.1,2.7-1.3,5.1-3.2,6.8c-1.8,1.7-4.3,2.7-7,2.7c-2.2,0-4.5,0-6.6,0.3C159.2,197.9,157.5,198.2,156,198.6L156,198.6z
			 M123.7,124.5c-5.5-1.6-11.4-3-17.6-4.2c-2.2-0.4-3.6-2.5-3.2-4.7s2.5-3.6,4.7-3.2c6.9,1.3,13.5,2.9,19.6,4.7
			C125.9,119.6,124.7,122,123.7,124.5L123.7,124.5z M283.4,136c2.1,0.7,3.3,2.9,2.6,5c-0.7,2.1-2.9,3.3-5,2.6
			c-14.6-4.5-28.6-6.7-42.5-5.6c-13.9,1.1-27.7,5.4-42.1,13.8c-1.9,1.1-4.3,0.5-5.5-1.5c-0.1-0.1-0.1-0.3-0.2-0.4l0,0
			c-2.8-6.4-6.6-12.2-11.1-17.5c3.6-1.9,7.5-2.2,10.7,0.7c2.2,3.1,4.1,6.3,5.9,9.6c14.2-7.6,27.9-11.7,41.7-12.8
			C252.9,128.9,267.9,131.2,283.4,136L283.4,136z M135,105.7c-5.7-1.6-11.7-2.9-17.9-3.7c-2.2-0.3-3.7-2.3-3.4-4.5
			c0.3-2.2,2.3-3.7,4.5-3.4c8.1,1.1,15.8,2.8,23.2,5.2C139.1,101.3,137,103.5,135,105.7L135,105.7z M281.5,155.5
			c2.1,0.7,3.3,2.9,2.6,5c-0.7,2.1-2.9,3.3-5,2.6c-14.6-4.5-27.9-6-40.5-4.3c-11.8,1.6-23.1,6-34.2,13.3c0.3,3.5,0.4,7,0.2,10.7
			c-0.2,4.5-0.6,9.1-1.5,13.8c-0.2,1.1,0.3,1.8,1.3,2.3c2.6,1.2,5.1,2.6,7.6,4c2.6,1.5,6,3.9,8.5,5.7c4.3,3,0,9.3-4.4,6.3
			c-0.8-0.5-2.6-1.6-3.4-2.1c1.6,6.2,1.4,12.6,0.3,18.9c-0.7,4.1-1.7,8.3-3.1,12.5c-0.4,4.7,0.6,8.8,1.6,12.9c1.5,6,2.9,12,1.2,20.1
			c-0.4,2.2-2.6,3.5-4.7,3.1c-2.2-0.4-3.5-2.6-3.1-4.7c1.3-6,0.2-11-1-15.9c-3.4,7.8-7.3,15.3-10.6,21.7l-1.1,2.1
			c-1,2-3.4,2.7-5.4,1.7s-2.7-3.4-1.7-5.4l1.1-2.1c4.9-9.6,11-21.5,15.1-33.2c-0.5,0.4-0.9,0.7-1.4,1.1
			c-8.3,6.3-19.1,11.8-27.3,14.4c-2.1,0.7-4.3-0.5-5-2.6s0.5-4.3,2.6-5c7.5-2.4,17.3-7.4,24.9-13.2c3.8-2.9,7-6,8.8-8.9
			c2.6-4.1,2.2-9.7,1.2-14.2c-0.8-4.1-2.5-7.7-5.4-10.7c-3.6-2.1-5.5-6.2-4.8-10.3c0.8-4.4,1.2-8.6,1.4-12.7c0.1-4.1,0-8.1-0.4-12
			l0,0c-0.2-1.4,0.5-2.9,1.7-3.7c12.7-8.8,25.8-14.1,39.6-16C251.3,149,265.8,150.6,281.5,155.5L281.5,155.5z"/>
		<path class="st4" d="M129.7,179.3c-8.4-31.3,3-72.9,36.6-82.3c4.7-8.1,6-20,4.3-35H194c2.2,10,2.2,23-2.9,32.7
			c8.2-8.5,15-18.1,19.9-29l26.1,5.5c-4.7,13.2-12.4,25-22.2,36.1c3.9,3.7,8,9.1,11.2,14.6L200,132c-14.4-26.9-51.8-1-42.2,43.1
			C161,189.7,132.4,189,129.7,179.3L129.7,179.3z"/>
		<path class="st3" d="M108.7,190.4c2-2.7,5.7-3.2,8.4-1.2c2.7,2,3.2,5.7,1.2,8.4c-6.3,8.5-7.7,18.4-5.8,28.2
			c2.3,11.3,9,22.3,18.2,30.3c13.8,12,46.3,50.8,60.7,50.1c2.1-0.1,4.4-0.7,6.7-1.7c22.4-9.8,40.8-43.4,39.5-67.3
			c-0.3-5.3-1.4-10.5-3.5-15.3c-0.8-1.9-0.1-0.4-0.4-0.8c-2.8-6.3-3.2-7.2,2.4-13.6c1.1-1.3,2.2-2.7,3.2-4.2
			c3.6-5.6,5.6-12.3,4.8-19.2c-0.6-4.8-2.6-9.8-6.4-14.7c0.7-0.1,1.4-0.2,2.2-0.3c3.8-0.5,7.7-0.7,11.5-0.6c2.6,4.7,4,9.5,4.6,14.2
			c1.2,9.9-1.6,19.3-6.6,27.1c-1.3,2-2.7,3.8-4.2,5.6c-0.6,0.7-0.6,0.7-0.5,0.9c0.4,1-0.1-0.4,0.4,0.9c2.7,6.2,4.1,12.8,4.5,19.5
			c1.5,28.9-19.7,67.1-46.7,78.9c-3.7,1.6-7.3,2.5-10.9,2.7c-22.1,1.2-51.2-37.3-69.2-53c-11.1-9.6-19.3-23-22.1-37
			c-1.3-6.7-1.4-13.5,0-20c-1.4-1.9-2.6-3.9-3.5-6c-4.6-9.8-4.3-20.4-0.9-30.2c3.3-9.4,9.6-18.1,17.3-24.5c1.5-1.3,3.1-2.5,4.7-3.6
			c-0.9,5.5-1.3,11.2-1.2,16.8c-4.1,4.5-7.5,9.7-9.4,15.3c-2,5.8-2.6,11.9-0.9,17.6C107.3,192.3,108,191.3,108.7,190.4L108.7,190.4z
			"/>
	</g>
</g>
</svg>
