<?xml version="1.0" encoding="utf-8"?>

<svg version="1.1" id="Layer_1" xmlns="http://www.w3.org/2000/svg" xmlns:xlink="http://www.w3.org/1999/xlink" x="0px" y="0px"
	 viewBox="0 0 256 256" style="enable-background:new 0 0 256 256;" xml:space="preserve">
<style type="text/css">
	.st0{fill-rule:evenodd;clip-rule:evenodd;fill:url(#SVGID_1_);}
	.st1{fill:#FFFFFF;}
	.st2{fill-rule:evenodd;clip-rule:evenodd;fill:#FFFFFF;}
</style>
<g>
	<linearGradient id="SVGID_1_" gradientUnits="userSpaceOnUse" x1="17.1276" y1="63.9878" x2="238.8725" y2="192.0122">
		<stop  offset="0" style="stop-color:#E4729F"/>
		<stop  offset="1" style="stop-color:#78104D"/>
	</linearGradient>
	<path class="st0" d="M128,0c70.7,0,128,57.3,128,128s-57.3,128-128,128S0,198.7,0,128S57.3,0,128,0L128,0z"/>
	<path class="st1" d="M126.6,169.6L108,197.1c-6.4,9.4-19.3,13.8-30.4,13.8H45.1L88,162l13,2.6l-16.4,18.7c-2,2.2-1.7,5.6,0.5,7.6
		s5.6,1.7,7.6-0.5l20.5-23.3L126.6,169.6z"/>
	<path class="st2" d="M204.1,210.9h-89.5c1.7-1.7,3.2-3.5,4.6-5.6l1.7-2.5h83.2V210.9z M93.7,148.4l90.7-103.5
		c7.6-8.6,19.2-8.1,26.5-1.9c8,6.9,8.9,18.7,1.9,26.7l-79.5,90.7c-1.1,1.2-2.7,1.6-4.2,1.3L96,155.2
		C92.9,154.7,91.6,150.8,93.7,148.4z M127,130.9c-1.8-0.4-3-2.1-2.7-3.9c0.4-1.8,2.1-3,3.9-2.7l16.2,3.2c1.8,0.4,3,2.1,2.7,3.9
		c-0.4,1.8-2.1,3-3.9,2.7L127,130.9z M117.4,141.8c-1.8-0.4-3-2.1-2.7-3.9c0.4-1.8,2.1-3,3.9-2.7l16.2,3.2c1.8,0.4,3,2.1,2.7,3.9
		c-0.4,1.8-2.1,3-3.9,2.7L117.4,141.8z"/>
</g>
</svg>
