<?xml version="1.0" encoding="utf-8"?>
<!-- Generator: Adobe Illustrator 24.1.0, SVG Export Plug-In . SVG Version: 6.00 Build 0)  -->
<svg version="1.1" id="Layer_1" xmlns="http://www.w3.org/2000/svg" xmlns:xlink="http://www.w3.org/1999/xlink" x="0px" y="0px"
	 viewBox="0 0 380 380" style="enable-background:new 0 0 380 380;" xml:space="preserve">
<style type="text/css">
	.st0{fill-rule:evenodd;clip-rule:evenodd;fill:url(#SVGID_1_);}
	.st1{fill:#FFFFFF;}
</style>
<linearGradient id="SVGID_1_" gradientUnits="userSpaceOnUse" x1="25.4277" y1="-1982.9841" x2="354.5723" y2="-2173.0159" gradientTransform="matrix(1 0 0 -1 0 -1888)">
	<stop  offset="0" style="stop-color:#E4729F"/>
	<stop  offset="1" style="stop-color:#78104D"/>
</linearGradient>
<circle class="st0" cx="190" cy="190" r="190"/>
<g>
	<path class="st1" d="M151.6,108.4c3.3,0.5,6.7,0.4,10.1-0.3l6.6,113.9c-1.4,0.1-2.8,0.5-4.1,1.4c-0.8,0.3-1.5,0.8-2,1.5l-29.5,39.5
		c-9.7,13-7,31.5,6,41.3c0.9,0.7,2.1,1,3.2,0.8c1.1-0.2,2.1-0.7,2.8-1.7l18.5-24.8l1.7,30.9c0.1,1.2,0.6,2.2,1.4,2.9
		c0.8,0.8,1.9,1.1,3.1,1.1c16.2-0.9,28.7-14.9,27.7-31.1l-3.4-58.9l65.2-87.5c2.4,2.4,5.2,4.3,8.2,5.8c13.9,6.5,30.6,1.3,38.2-12.1
		s3.6-30.4-9.2-39c-2.4-1.6-5-2.8-7.7-3.6c-12.2-3.5-25.4,1.1-32.9,11.3l-17,22.8l-10.1-7.6c-1.9-1.3-4.5-0.9-5.8,0.9
		c-1.3,1.9-1,4.5,0.8,5.9l10.1,7.6l-42,56.4l-4-70.2l12.6-0.7c2.3-0.2,4-2.2,3.8-4.4c-0.1-2.3-2.1-4-4.4-4l-12.6,0.7l-1.6-28.4
		C184.7,66,176.2,55,164,51.2c-2.7-0.8-5.6-1.2-8.4-1.2c-15.4,0.1-28.1,12-29.1,27.4C125.3,92.6,136.3,106.2,151.6,108.4
		L151.6,108.4z M140.6,295.9c-6.7-7.5-7.2-18.6-1.2-26.6l21.4-28.7l1.5,26.1L140.6,295.9z M262.2,104.6c6.8-9.2,19.5-11.8,29.2-5.7
		c9.2,6.1,12,18.3,6.6,27.8c-5.4,9.6-17.3,13.4-27.3,8.6c-3.4-1.6-6.4-4.2-8.5-7.3c-0.8-1.1-2.1-1.8-3.4-1.9
		c-1.4-0.1-2.7,0.6-3.5,1.7l-62.4,83.7l-0.8-13.1L262.2,104.6z M139.6,65.7c3.9-4.7,9.8-7.6,16-7.5c11.4,0.3,20.7,9.4,21.2,20.9
		l1.9,32.6v0.1v0.1l10,172.4c0.6,10-6,19-15.7,21.6l-4.3-75.3c4.7-0.2,8.2-4.2,8-8.9l-6.9-119.2c-0.1-1.3-0.8-2.6-1.9-3.4
		c-1.2-0.7-2.6-0.9-3.9-0.3c-3.5,1.5-7.4,2-11.1,1.4c-7.6-1.1-13.9-6.2-16.6-13.3C133.3,79.7,134.7,71.6,139.6,65.7L139.6,65.7z"/>
	<path class="st1" d="M270.4,114.7c0.9,0.7,2.1,1,3.2,0.8s2.1-0.7,2.8-1.7c1.4-1.8,4.1-2.3,5.9-0.8s2.3,4.1,0.8,5.9
		c-1.4,1.8-4.1,2.3-5.9,0.8c-1.2-0.9-2.8-1.1-4.2-0.5c-1.4,0.6-2.4,1.9-2.5,3.4c-0.2,1.5,0.5,3,1.7,3.9c5.6,4.2,13.5,3,17.7-2.6
		c4.2-5.6,3-13.5-2.6-17.7s-13.5-3-17.7,2.6c-0.7,0.9-1,2.1-0.8,3.2C268.9,113.1,269.5,114.1,270.4,114.7z"/>
	<path class="st1" d="M147.5,83.9c2.3-0.2,4.1-2.1,3.9-4.5c-0.2-2.3,1.6-4.3,3.9-4.5c2.3-0.2,4.3,1.6,4.5,3.9
		c0.1,1.2-0.3,2.2-1.1,3.1c-0.8,0.8-1.8,1.4-2.9,1.4c-1.5,0.1-2.9,1-3.6,2.3s-0.6,2.9,0.3,4.2c0.8,1.3,2.3,2,3.9,1.9
		c7-0.4,12.3-6.4,11.9-13.3c-0.4-7-6.4-12.3-13.3-11.9c-7,0.4-12.3,6.4-11.9,13.3C143.3,82.3,145.3,84,147.5,83.9z"/>
</g>
</svg>
