<?xml version="1.0" encoding="utf-8"?>

<svg version="1.1" id="Layer_1" xmlns="http://www.w3.org/2000/svg" xmlns:xlink="http://www.w3.org/1999/xlink" x="0px" y="0px"
	 viewBox="0 0 256 256" style="enable-background:new 0 0 256 256;" xml:space="preserve">
<style type="text/css">
	.st0{fill-rule:evenodd;clip-rule:evenodd;fill:url(#SVGID_1_);}
	.st1{fill-rule:evenodd;clip-rule:evenodd;fill:#FFFFFF;}
</style>
<g>
	<linearGradient id="SVGID_1_" gradientUnits="userSpaceOnUse" x1="37.4875" y1="37.4875" x2="218.5125" y2="218.5125">
		<stop  offset="0" style="stop-color:#00D8FF"/>
		<stop  offset="1" style="stop-color:#367AD8"/>
	</linearGradient>
	<path class="st0" d="M128,0c70.7,0,128,57.3,128,128s-57.3,128-128,128S0,198.7,0,128S57.3,0,128,0L128,0z"/>
	<path class="st1" d="M200.8,126.8c7.4,0,13.5,6.1,13.5,13.5v1.8c-4.1,1.8-8.2-0.7-11-2.7c-7.2-4.8-10-4.1-17.3,1.2
		c-5.9,4.3-6.1,4.4-10.9,0.3c-0.4-0.4-0.9-0.7-1.3-1.1c-1.6-4.5-3.2-8.3-0.7-11.2c1.1-1.2,2.5-1.9,4.1-1.9L200.8,126.8L200.8,126.8z
		 M214.2,147.7v42.7c0,3.8-2.5,7-6.2,7.9c-51.3,12.4-108.8,12.4-160.1,0c-3.7-0.9-6.2-4.1-6.2-7.9v-41.6c9.5,3.9,14.7-7.5,18-7.3
		c1.4,0.1,3,1.6,4.5,3.2c2.8,2.7,5.6,5.5,10.1,4.9c6.7-0.8,10.3-8.4,14.3-8.1c0.6,0.1,1.2,0.4,1.8,0.9c-2,5.6-4.3,9.5-4.3,16.2
		c0,9.7,5.3,19.9,15.2,22.5c3.1,0.8,6.4,0.8,9.5-0.2c12.7-4,17-19.9,12.8-31.5c8.5,1.9,13.8-8,17.7-7.8c0.8,0,1.6,0.3,2.3,0.7
		c-3.2,9.8,0.9,22.5,11.6,25.3c11.6,3.1,20.3-7.6,20.3-18.5c0-0.3,0-0.7,0-1c5.1,2.9,8.8,0.3,13.5-3.1c5.4-4,6-4.5,11.1-1.1
		C203.7,146.2,208.8,149.1,214.2,147.7z M41.8,142.7v-2.4c0-7.4,6.1-13.5,13.5-13.5h30.5c2.5,0,4.7,1,6.3,3c1.4,1.8,0.9,4.7,0.2,7.4
		c-0.9-0.5-1.9-0.9-3.1-1c-7.2-0.6-10.8,7.5-15.4,8.1c-4.2,0.5-7.3-7.6-13.6-8.1c-6.2-0.5-9.9,8-14.3,8.1
		C44.4,144.3,43.1,143.6,41.8,142.7z M121,141.8c-1.5-4.8-2.5-10.3-0.6-12.4c1.6-1.7,3.6-2.6,6-2.6h15.2c3.5,0,6.1,3.3,5.2,6.7
		l-1.2,3.7c-9.4-4.3-14.3,7.1-19.7,7.1C124.1,144.3,122.5,143.1,121,141.8z M74.1,159.1c2.6,0,4.7,2.1,4.7,4.7
		c0,2.6-2.1,4.7-4.7,4.7s-4.7-2.1-4.7-4.7C69.4,161.2,71.5,159.1,74.1,159.1z M56.6,171.2c3,0,5.4,2.4,5.4,5.4s-2.4,5.4-5.4,5.4
		s-5.4-2.4-5.4-5.4C51.2,173.6,53.6,171.2,56.6,171.2z M144.2,180.7c3.3,0,6.1,2.7,6.1,6.1c0,3.3-2.7,6.1-6.1,6.1
		c-3.3,0-6.1-2.7-6.1-6.1C138.1,183.4,140.8,180.7,144.2,180.7z M82.9,182c2.6,0,4.7,2.1,4.7,4.7c0,2.6-2.1,4.7-4.7,4.7
		s-4.7-2.1-4.7-4.7C78.1,184.1,80.3,182,82.9,182z M134.7,160.4c2.6,0,4.7,2.1,4.7,4.7c0,2.6-2.1,4.7-4.7,4.7
		c-2.6,0-4.7-2.1-4.7-4.7C130,162.6,132.1,160.4,134.7,160.4z M200.1,159.1c2.6,0,4.7,2.1,4.7,4.7c0,2.6-2.1,4.7-4.7,4.7
		c-2.6,0-4.7-2.1-4.7-4.7C195.4,161.2,197.5,159.1,200.1,159.1z M194.7,175.9c3,0,5.4,2.4,5.4,5.4s-2.4,5.4-5.4,5.4
		s-5.4-2.4-5.4-5.4C189.3,178.4,191.7,175.9,194.7,175.9z M173.8,167.2c2.6,0,4.7,2.1,4.7,4.7c0,2.6-2.1,4.7-4.7,4.7
		c-2.6,0-4.7-2.1-4.7-4.7S171.2,167.2,173.8,167.2z"/>
	<path class="st1" d="M166.7,54.3c0,8.8-0.9,24-1.6,32.5c-0.7,8.7-1.3,33.6-1.6,42.3c-0.4,10.3,4.1,14,4.1,20
		c0,6.3-4.4,12.2-10.1,10.7c-5.8-1.5-8-9.6-5.9-15.4c0.8-2.1,1.7-4,2.3-6.1c1-3.2,1.6-6.4,1.9-9.8C157,110.8,159.6,70.7,166.7,54.3
		L166.7,54.3z M116.2,34.9c-0.3,11.8-1.5,30-2.5,41.6c-1.1,12.4-1.9,41-2.3,53.5c-0.3,8.7,1.6,14.1,4.6,21.9
		c4.2,11.2-3.2,23.9-12.5,21.5c-6.1-1.6-9.2-8.7-9.2-14.7c0-5.7,2.6-9.7,4.5-15.3c1.5-4.6,2.4-9.3,2.7-14.1
		c0.9-12.4,2.3-40.9,4.4-53.1C108,64.3,110.8,45.9,116.2,34.9z"/>
</g>
</svg>
