<?xml version="1.0" encoding="utf-8"?>

<svg version="1.1" id="Layer_1" xmlns="http://www.w3.org/2000/svg" xmlns:xlink="http://www.w3.org/1999/xlink" x="0px" y="0px"
	 viewBox="0 0 380 380" style="enable-background:new 0 0 380 380;" xml:space="preserve">
<style type="text/css">
	.st0{fill:#2B79C2;}
	.st1{fill:#3B4652;}
	.st2{fill-rule:evenodd;clip-rule:evenodd;fill:url(#SVGID_1_);}
	.st3{fill:#FFFFFF;}
	.st4{fill-rule:evenodd;clip-rule:evenodd;fill:#FFFFFF;}
</style>
<g>
	<path class="st0" d="M6076,3150.3h116v8h-116V3150.3L6076,3150.3z M6110.3,3088.1c-2.2-2.5-1.9-6.3,0.6-8.4
		c2.5-2.2,6.3-1.9,8.4,0.6l16.3,18.5l45.5-40.7c2.5-2.2,6.2-2,8.4,0.5c2.2,2.5,2,6.2-0.5,8.4l-49.8,44.5c-2.6,2.4-6.4,2.2-8.6-0.4
		L6110.3,3088.1L6110.3,3088.1z M6134,3060.4c10.5-10.6,25.6-12.3,37.7-4.4c-2,1.9-4.1,3.8-6.2,5.6c-10-5.2-21.2-2.2-28.4,7.3
		c-1.6,2.1-4.7,2.1-6.3,0c-15.2-19.9-40.9-6.9-40.9,13c0,7.4,5.3,15.9,12.5,23.9c9.4,10.3,22,19.3,31.5,24.1
		c9.5-4.7,22.1-13.8,31.5-24.1c5.1-5.5,9.1-11.3,11.2-16.8c3.1-2.6,6.2-5.3,9.3-8.1c0.7,23.2-32.9,48.9-50.3,57
		c-1.1,0.5-2.3,0.5-3.3,0l0,0c-17.1-8-50.3-33.5-50.3-56C6082,3055.7,6113.9,3039.8,6134,3060.4L6134,3060.4z M6076,3171.3h116v8
		h-116V3171.3L6076,3171.3z"/>
	<path class="st1" d="M6054.9,2997.3h26.1v12h-26.1c-2.2,0-4.2,0.9-5.6,2.4c-1.5,1.5-2.4,3.5-2.4,5.6v188c0,4.4,3.6,8,8,8H6213
		c4.4,0,8-3.6,8-8v-188c0-2.2-0.9-4.2-2.4-5.6c-1.5-1.5-3.5-2.4-5.6-2.4h-26v-12h26.1c5.5,0,10.5,2.2,14.1,5.9
		c3.6,3.6,5.9,8.6,5.9,14.1v188c0,11-9,20-20,20H6055c-11,0-20-9-20-20v-188c0-5.5,2.2-10.5,5.9-14.1
		C6044.4,2999.5,6049.4,2997.3,6054.9,2997.3L6054.9,2997.3z M6134,2969.3c5.8,0,11,0.4,14.8,4.2s6.2,9.1,6.2,14.8l0,0h24v30h-90
		v-30h24l0,0c0-5.8,2.4-11,6.2-14.8C6123,2969.6,6128.2,2969.3,6134,2969.3L6134,2969.3z M6140.4,2981.9c-1.6-1.6-3.9-2.6-6.4-2.6
		s-4.7,1-6.4,2.6s-2.6,3.9-2.6,6.4s1,4.7,2.6,6.4c1.5,1.5,3.6,2.5,5.9,2.6h0.9c2.3-0.1,4.4-1.1,5.9-2.6c1.6-1.6,2.6-3.9,2.6-6.4
		S6142,2983.6,6140.4,2981.9L6140.4,2981.9z"/>
</g>
<g>
	<linearGradient id="SVGID_1_" gradientUnits="userSpaceOnUse" x1="55.6497" y1="55.6497" x2="324.3503" y2="324.3503">
		<stop  offset="0" style="stop-color:#00D8FF"/>
		<stop  offset="1" style="stop-color:#367AD8"/>
	</linearGradient>
	<circle class="st2" cx="190" cy="190" r="190"/>
	<g>
		<path class="st3" d="M97.3,285.5c0.1,3.3-2.5,6.1-5.8,6.2s-6.1-2.5-6.2-5.8c-0.3-8.6,1.8-16.2,5.3-21.5c1.7-2.6,3.7-4.7,6-6.1
			c2.5-1.7,5.3-2.6,8.2-2.7h0.1c3.2-0.1,6.4,0.8,9.5,2.8c4,2.6,7.5,4.2,11.4,4.9c4.2,0.7,9.2,0.5,16-0.4c1.8-0.2,3.4,0.3,4.7,1.4
			l0,0c4.6,3.9,9.8,7.2,15.6,9.8c18.2,8.2,41.2,9.9,63.5,5.2c22.3-4.7,43.7-15.8,58.6-33.2c5.1-5.9,9.4-12.6,12.7-20
			c10.8-24.1,11.5-49.3,5.2-70.9c-3.5-12-9.1-22.8-16.3-31.8c-7.1-8.9-15.8-15.9-25.4-20.2c-11.9-5.3-25.3-6.7-39.3-2.6
			c-5.7,1.7-10.5,4.3-14.5,7.7c-4.3,3.6-7.5,8.1-9.9,13c-1.1,2.4-3.5,3.7-6,3.4c-9.3-0.3-17.3-3.2-23.8-7.9
			c-7-5.1-12.3-12.2-15.4-20.5c-1.2-3.1,0.4-6.6,3.5-7.8c3.1-1.2,6.6,0.4,7.8,3.5c2.4,6.2,6.1,11.4,11.2,15
			c3.8,2.8,8.5,4.6,13.8,5.3c2.9-5,6.5-9.5,11.1-13.4c5.2-4.4,11.5-7.9,19-10.1c17-5,33.3-3.3,47.7,3.2
			c11.4,5.1,21.6,13.3,29.9,23.7c8.2,10.2,14.6,22.5,18.5,36c7.1,24.2,6.3,52.4-5.8,79.3c-3.8,8.5-8.7,16.1-14.5,22.9
			c-16.7,19.6-40.5,32-65.3,37.2c-24.7,5.2-50.4,3.2-70.9-6c-5.9-2.7-11.5-6-16.4-9.9c-6.7,0.8-12,0.8-16.9,0
			c-5.7-1-10.6-3.1-16.1-6.7c-0.9-0.6-1.7-0.9-2.5-0.8l0,0c-0.6,0-1.3,0.3-1.9,0.7c-0.9,0.6-1.8,1.5-2.5,2.7
			C98.4,274.4,97,279.4,97.3,285.5L97.3,285.5z M74.4,285.2c0.3,3.3-2.1,6.3-5.4,6.6c-3.3,0.3-6.3-2.1-6.6-5.4
			c-1.3-13.4,0.7-25.4,5.4-35.2c3.8-8,9.3-14.6,16.1-19.4c6.8-4.8,14.9-7.8,24-8.7c10.4-1,22,0.8,34.1,6.1
			c6.7-3.5,12.3-6.1,18.2-7.8c5.8-1.6,11.8-2.4,19-2.2c2-3.4,4.4-6.6,7-9.3c2.8-2.9,5.8-5.4,8.8-7.4c-0.7-3.8-1-7.1-1.1-10.5
			c-0.1-3.7,0.3-7.3,1-11.6c-3-3-5.5-6.4-7.6-10c-2.2-3.8-3.8-7.8-5.1-12.1c-1.3-0.4-2.8-0.9-4.3-1.4c-22.8-7.2-42.7-13.5-56-49.3
			c-1.2-3.1,0.4-6.6,3.5-7.8c3.1-1.2,6.6,0.4,7.8,3.5c11.2,30.2,28.5,35.7,48.4,42c2,0.6,4,1.3,7.4,2.4c2,0.6,3.6,2.3,4.1,4.4
			c1,4.2,2.5,8.3,4.7,12.1c2,3.6,4.6,6.8,7.6,9.4l0,0c1.6,1.4,2.4,3.5,1.9,5.7c-1,4.8-1.4,8.6-1.4,12.3c0.1,3.6,0.6,7.5,1.7,12.4
			l0,0c0.6,2.6-0.6,5.3-3.1,6.6c-3.1,1.6-6.5,4.2-9.6,7.4c-2.6,2.7-4.9,5.9-6.5,9.4c-0.9,2.4-3.3,4-6,3.8c-7.6-0.5-13.4,0.1-19,1.6
			c-5.6,1.6-11.2,4.2-18.1,8c-1.7,1-3.8,1.2-5.7,0.3c-11.1-5.2-21.5-7.1-30.6-6.2c-6.9,0.7-13,3-18.2,6.6
			c-5.1,3.6-9.3,8.6-12.1,14.7C74.9,264.2,73.3,274,74.4,285.2L74.4,285.2z"/>
		<path class="st4" d="M146.6,251.3c46.3,39.6,119.8,18.6,139.6-36.3c-12.9-3.6-59-6.8-67.4,2.3c-4.1,4.5-9,7-12.6,10.5
			c-10,9.9-6.8,19.3-25.1,17.4C162.4,242.7,158.9,247.8,146.6,251.3L146.6,251.3z"/>
	</g>
</g>
</svg>
