<?xml version="1.0" encoding="utf-8"?>

<svg version="1.1" id="Layer_1" xmlns="http://www.w3.org/2000/svg" xmlns:xlink="http://www.w3.org/1999/xlink" x="0px" y="0px"
	 viewBox="0 0 380 380" style="enable-background:new 0 0 380 380;" xml:space="preserve">
<style type="text/css">
	.st0{fill:#2B79C2;}
	.st1{fill:#3B4652;}
	.st2{fill-rule:evenodd;clip-rule:evenodd;fill:url(#SVGID_1_);}
	.st3{display:none;fill-rule:evenodd;clip-rule:evenodd;fill:#FFFFFF;}
	.st4{fill:#FFFFFF;}
</style>
<g>
	<path class="st0" d="M6076,3150.3h116v8h-116V3150.3L6076,3150.3z M6110.3,3088.1c-2.2-2.5-1.9-6.3,0.6-8.4
		c2.5-2.2,6.3-1.9,8.4,0.6l16.3,18.5l45.5-40.7c2.5-2.2,6.2-2,8.4,0.5c2.2,2.5,2,6.2-0.5,8.4l-49.8,44.5c-2.6,2.4-6.4,2.2-8.6-0.4
		L6110.3,3088.1L6110.3,3088.1z M6134,3060.4c10.5-10.6,25.6-12.3,37.7-4.4c-2,1.9-4.1,3.8-6.2,5.6c-10-5.2-21.2-2.2-28.4,7.3
		c-1.6,2.1-4.7,2.1-6.3,0c-15.2-19.9-40.9-6.9-40.9,13c0,7.4,5.3,15.9,12.5,23.9c9.4,10.3,22,19.3,31.5,24.1
		c9.5-4.7,22.1-13.8,31.5-24.1c5.1-5.5,9.1-11.3,11.2-16.8c3.1-2.6,6.2-5.3,9.3-8.1c0.7,23.2-32.9,48.9-50.3,57
		c-1.1,0.5-2.3,0.5-3.3,0l0,0c-17.1-8-50.3-33.5-50.3-56C6082,3055.7,6113.9,3039.8,6134,3060.4L6134,3060.4z M6076,3171.3h116v8
		h-116V3171.3L6076,3171.3z"/>
	<path class="st1" d="M6054.9,2997.3h26.1v12h-26.1c-2.2,0-4.2,0.9-5.6,2.4c-1.5,1.5-2.4,3.5-2.4,5.6v188c0,4.4,3.6,8,8,8H6213
		c4.4,0,8-3.6,8-8v-188c0-2.2-0.9-4.2-2.4-5.6c-1.5-1.5-3.5-2.4-5.6-2.4h-26v-12h26.1c5.5,0,10.5,2.2,14.1,5.9
		c3.6,3.6,5.9,8.6,5.9,14.1v188c0,11-9,20-20,20H6055c-11,0-20-9-20-20v-188c0-5.5,2.2-10.5,5.9-14.1
		C6044.4,2999.5,6049.4,2997.3,6054.9,2997.3L6054.9,2997.3z M6134,2969.3c5.8,0,11,0.4,14.8,4.2s6.2,9.1,6.2,14.8l0,0h24v30h-90
		v-30h24l0,0c0-5.8,2.4-11,6.2-14.8C6123,2969.6,6128.2,2969.3,6134,2969.3L6134,2969.3z M6140.4,2981.9c-1.6-1.6-3.9-2.6-6.4-2.6
		s-4.7,1-6.4,2.6s-2.6,3.9-2.6,6.4s1,4.7,2.6,6.4c1.5,1.5,3.6,2.5,5.9,2.6h0.9c2.3-0.1,4.4-1.1,5.9-2.6c1.6-1.6,2.6-3.9,2.6-6.4
		S6142,2983.6,6140.4,2981.9L6140.4,2981.9z"/>
</g>
<g>
	
		<linearGradient id="SVGID_1_" gradientUnits="userSpaceOnUse" x1="25.4277" y1="4794.9844" x2="354.5723" y2="4985.0161" gradientTransform="matrix(1 0 0 1 0 -4700)">
		<stop  offset="0" style="stop-color:#00D8FF"/>
		<stop  offset="1" style="stop-color:#367AD8"/>
	</linearGradient>
	<circle class="st2" cx="190" cy="190" r="190"/>
</g>
<path class="st3" d="M100.7,181.1c-0.4,2.2,0.4,4.8,2.2,6.7c12.3,13,25.7,20.5,39.9,22.4h0.7V250c0,33.9,29.5,61.1,65.7,61.1
	s65.6-27.3,65.6-61.1v-35.1c17.1-2.6,30.2-16.4,30.2-33.1c0-18.3-16.4-33.6-36.2-33.6s-36.2,15.2-36.2,33.6
	c0,16.7,13,30.6,30.2,33.1v35c0,27.6-24.2,50-53.6,50c-29.5,0-53.3-22.4-53.3-50l-0.4-39.9c13.8-1.9,26.8-9.3,39.1-22.4
	c1.5-1.9,2.2-4.5,1.9-6.3c16-19.8,26.1-46.6,26.1-67.1c0-31.7-15.3-35-40.6-40.3c-1.5-2.9-4.9-5.3-8.6-5.3c-5.3,0-9.7,4.1-9.7,9.4
	c0,4.8,4.5,8.6,9.7,8.6c2.2,0,4.1-0.7,6-1.9c24.6,5.3,30.9,6.7,30.9,29.5c0,17.9-9.4,42.1-23.2,59.7c-2.2,0.4-4.8,1.2-6.3,2.9
	c-7.1,7.5-18.6,16.7-32.1,16.7c-13.8,0-24.9-9.4-32.4-16.7c-1.5-1.9-3.7-2.9-6.3-2.9c-13.8-17.5-23.2-41.8-23.2-59.7
	c0-22.7,6.7-24.2,31.3-29.5c1.5,1.2,3.7,1.9,5.6,1.9c5.6,0,9.7-3.7,9.7-8.6c0-5.3-4.1-9.4-9.7-9.4c-3.7,0-6.7,2.2-8.2,5.3h-0.4
	C90.3,79.3,75,82.6,75,114.3C75,134.9,84.7,161.7,100.7,181.1z M268.8,204.5c-13.1,0-23.9-10.1-23.9-22.7
	c0-12.3,10.8-22.4,23.9-22.4c13.5,0,23.9,10.1,23.9,22.4C292.7,194.4,282.3,204.5,268.8,204.5z"/>
<g>
	<path class="st4" d="M117.5,116.8h12.1c10.9,0,19.9-8.9,19.9-19.9s-8.9-19.9-19.9-19.9s-19.9,8.9-19.9,19.9v8.7
		c-16.1,7.1-24.8,20.2-24.7,37.2c0.3,32.8,34,74,64.4,79.6v20.9c0,32.8,26.7,59.6,59.6,59.6s59.6-26.7,59.6-59.6v-7.7
		c15.1-3.1,26.5-16.4,26.5-32.4c0-18.2-14.8-33.1-33.1-33.1s-33.1,14.8-33.1,33.1c0,16,11.4,29.3,26.5,32.4v7.7
		c0,25.5-20.8,46.3-46.3,46.3s-46.3-20.8-46.3-46.3v-20.9c28.4-5.1,58.5-40.7,63.6-70.7c3.6-21.1-5.1-37.6-23.9-46v-8.8
		c0-10.9-8.9-19.9-19.9-19.9s-19.9,8.9-19.9,19.9s8.9,19.9,19.9,19.9h11.9c15.2,5.7,21.5,16.7,18.8,32.8
		c-5,29.5-36.7,60.3-57.1,60.3c-23.6,0-57.5-38.4-57.8-67.1C98.1,130.3,104.6,121.6,117.5,116.8z M122.9,96.9c0-3.6,3-6.6,6.6-6.6
		s6.6,3,6.6,6.6c0,3.6-3,6.6-6.6,6.6h-6.6V96.9z M242.1,203.2c0-10.9,8.9-19.9,19.9-19.9c10.9,0,19.9,8.9,19.9,19.9
		s-8.9,19.9-19.9,19.9C251,223.1,242.1,214.2,242.1,203.2z M189.1,103.5h-6.6c-3.6,0-6.6-3-6.6-6.6c0-3.6,3-6.6,6.6-6.6
		s6.6,3,6.6,6.6V103.5z"/>
	<path class="st4" d="M255.3,196.6h13.2v13.2h-13.2V196.6z"/>
</g>
</svg>
