<?xml version="1.0" encoding="utf-8"?>

<svg version="1.1" id="Layer_1" xmlns="http://www.w3.org/2000/svg" xmlns:xlink="http://www.w3.org/1999/xlink" x="0px" y="0px"
	 viewBox="0 0 256 256" style="enable-background:new 0 0 256 256;" xml:space="preserve">
<style type="text/css">
	.st0{fill-rule:evenodd;clip-rule:evenodd;fill:url(#SVGID_1_);}
	.st1{fill-rule:evenodd;clip-rule:evenodd;fill:#FFFFFF;}
</style>
<g>
	<linearGradient id="SVGID_1_" gradientUnits="userSpaceOnUse" x1="37.4875" y1="37.4875" x2="218.5125" y2="218.5125">
		<stop  offset="0" style="stop-color:#00D8FF"/>
		<stop  offset="1" style="stop-color:#367AD8"/>
	</linearGradient>
	<path class="st0" d="M128,0c70.7,0,128,57.3,128,128s-57.3,128-128,128S0,198.7,0,128S57.3,0,128,0L128,0z"/>
	<path class="st1" d="M169.6,120.7c15.3,0,27.7-12.4,27.7-27.7c0-14.2-19.3-37.6-26.7-48c-0.2-0.3-0.6-0.5-1-0.5s-0.8,0.2-1,0.5
		c-7.4,10.4-26.7,33.8-26.7,48C141.9,108.3,154.3,120.7,169.6,120.7L169.6,120.7z M162.2,64.9c1.3-1.8,3.8-2.3,5.6-1
		c1.8,1.3,2.3,3.8,1,5.6c-3.2,4.6-6.4,9.4-8.7,13.8c-2.2,4-3.6,7.5-3.6,9.7s-1.8,4-4,4s-4-1.8-4-4c0-3.7,1.8-8.4,4.6-13.5
		C155.5,74.8,158.8,69.7,162.2,64.9z M108,211.5c-27.2,0-49.3-21.8-49.3-48.6c0-23.6,31-62,45.3-81.3c2-2.7,6-2.7,7.9,0
		c14.3,19.4,45.3,57.7,45.3,81.3C157.2,189.8,135.2,211.5,108,211.5z M96.6,109.8c1.3-1.8,3.8-2.2,5.6-0.9c1.8,1.3,2.2,3.8,0.9,5.6
		c-4.1,5.7-10.6,15-16.1,24.3c-5.3,9-9.6,18.2-9.6,24.1c0,2.2-1.8,4-4,4s-4-1.8-4-4c0-7.6,4.8-18.1,10.7-28.2
		C85.8,124.9,92.5,115.5,96.6,109.8z"/>
</g>
</svg>
