<?xml version="1.0" encoding="utf-8"?>
<!-- Generator: Adobe Illustrator 24.1.0, SVG Export Plug-In . SVG Version: 6.00 Build 0)  -->
<svg version="1.1" id="Layer_1" xmlns="http://www.w3.org/2000/svg" xmlns:xlink="http://www.w3.org/1999/xlink" x="0px" y="0px"
	 viewBox="0 0 380 380" style="enable-background:new 0 0 380 380;" xml:space="preserve">
<style type="text/css">
	.st0{fill:#2B79C2;}
	.st1{fill:#3B4652;}
	.st2{fill-rule:evenodd;clip-rule:evenodd;fill:#005A8D;}
	.st3{fill:#005A8D;}
	.st4{fill:#FFFFFF;}
	.st5{display:none;fill:#FFFFFF;}
	.st6{fill-rule:evenodd;clip-rule:evenodd;fill:#FFFFFF;}
</style>
<g>
	<path class="st0" d="M6076,3150.3h116v8h-116V3150.3L6076,3150.3z M6110.3,3088.1c-2.2-2.5-1.9-6.3,0.6-8.4
		c2.5-2.2,6.3-1.9,8.4,0.6l16.3,18.5l45.5-40.7c2.5-2.2,6.2-2,8.4,0.5c2.2,2.5,2,6.2-0.5,8.4l-49.8,44.5c-2.6,2.4-6.4,2.2-8.6-0.4
		L6110.3,3088.1L6110.3,3088.1z M6134,3060.4c10.5-10.6,25.6-12.3,37.7-4.4c-2,1.9-4.1,3.8-6.2,5.6c-10-5.2-21.2-2.2-28.4,7.3
		c-1.6,2.1-4.7,2.1-6.3,0c-15.2-19.9-40.9-6.9-40.9,13c0,7.4,5.3,15.9,12.5,23.9c9.4,10.3,22,19.3,31.5,24.1
		c9.5-4.7,22.1-13.8,31.5-24.1c5.1-5.5,9.1-11.3,11.2-16.8c3.1-2.6,6.2-5.3,9.3-8.1c0.7,23.2-32.9,48.9-50.3,57
		c-1.1,0.5-2.3,0.5-3.3,0l0,0c-17.1-8-50.3-33.5-50.3-56C6082,3055.7,6113.9,3039.8,6134,3060.4L6134,3060.4z M6076,3171.3h116v8
		h-116V3171.3L6076,3171.3z"/>
	<path class="st1" d="M6054.9,2997.3h26.1v12h-26.1c-2.2,0-4.2,0.9-5.6,2.4c-1.5,1.5-2.4,3.5-2.4,5.6v188c0,4.4,3.6,8,8,8H6213
		c4.4,0,8-3.6,8-8v-188c0-2.2-0.9-4.2-2.4-5.6c-1.5-1.5-3.5-2.4-5.6-2.4h-26v-12h26.1c5.5,0,10.5,2.2,14.1,5.9
		c3.6,3.6,5.9,8.6,5.9,14.1v188c0,11-9,20-20,20H6055c-11,0-20-9-20-20v-188c0-5.5,2.2-10.5,5.9-14.1
		C6044.4,2999.5,6049.4,2997.3,6054.9,2997.3L6054.9,2997.3z M6134,2969.3c5.8,0,11,0.4,14.8,4.2s6.2,9.1,6.2,14.8l0,0h24v30h-90
		v-30h24l0,0c0-5.8,2.4-11,6.2-14.8C6123,2969.6,6128.2,2969.3,6134,2969.3L6134,2969.3z M6140.4,2981.9c-1.6-1.6-3.9-2.6-6.4-2.6
		s-4.7,1-6.4,2.6s-2.6,3.9-2.6,6.4s1,4.7,2.6,6.4c1.5,1.5,3.6,2.5,5.9,2.6h0.9c2.3-0.1,4.4-1.1,5.9-2.6c1.6-1.6,2.6-3.9,2.6-6.4
		S6142,2983.6,6140.4,2981.9L6140.4,2981.9z"/>
</g>
<g>
	<circle class="st2" cx="190" cy="190" r="190"/>
</g>
<g>
	<g>
		<g>
			<g>
				<path class="st3" d="M71.6,312.3h44.8V145.8H82.5c-8.2,0-14.8,6.6-14.8,14.8v147.8C67.7,310.5,69.5,312.3,71.6,312.3z"/>
			</g>
			<g>
				<path class="st3" d="M116.4,167.9H93.8c-2.2,0-3.9,1.8-3.9,4l0.1,18.2c0,2.2,1.8,3.9,3.9,3.9h22.5V167.9z"/>
				<path class="st3" d="M116.4,216.1H93.8c-2.2,0-3.9,1.8-3.9,4l0.1,18.2c0,2.2,1.8,3.9,3.9,3.9h22.5V216.1z"/>
				<path class="st3" d="M116.4,264.1H93.8c-2.2,0-3.9,1.8-3.9,4l0.1,18.2c0,2.2,1.8,3.9,3.9,3.9h22.5V264.1z"/>
			</g>
		</g>
		<path class="st3" d="M263.6,312.3h-36.9l-36.7-7.4l-36.7,7.4h-37.1V126c0-8.2,6.6-14.8,14.8-14.8h117.9c8.2,0,14.8,6.6,14.8,14.8
			V312.3z"/>
		<g>
			<circle class="st3" cx="190" cy="111.3" r="43.6"/>
		</g>
		<path class="st3" d="M153.3,239.9h73.4v72.4h-73.4L153.3,239.9z"/>
		<path class="st3" d="M175,203h-32.7c-2.2,0-3.9-1.8-3.9-4l0.1-18.2c0-2.2,1.8-3.9,3.9-3.9H175c2.2,0,3.9,1.8,3.9,3.9v18.2
			C178.9,201.2,177.2,203,175,203L175,203z"/>
		<path class="st3" d="M205,177h32.6c2.2,0,3.9,1.8,3.9,4l-0.1,18.2c0,2.2-1.8,3.9-3.9,3.9H205c-2.2,0-3.9-1.8-3.9-3.9v-18.2
			C201.1,178.7,202.8,177,205,177z"/>
		<g>
			<g>
				<path class="st3" d="M308.4,312.3h-44.8V145.8h33.9c8.2,0,14.8,6.6,14.8,14.8v147.8C312.3,310.5,310.5,312.3,308.4,312.3z"/>
			</g>
			<g>
				<path class="st3" d="M263.6,167.9h22.6c2.2,0,3.9,1.8,3.9,4l-0.1,18.2c0,2.2-1.8,3.9-3.9,3.9h-22.5"/>
				<path class="st3" d="M263.6,216.1h22.6c2.2,0,3.9,1.8,3.9,4l-0.1,18.2c0,2.2-1.8,3.9-3.9,3.9h-22.5V216.1z"/>
				<path class="st3" d="M263.6,264.1h22.6c2.2,0,3.9,1.8,3.9,4l-0.1,18.2c0,2.2-1.8,3.9-3.9,3.9h-22.5V264.1z"/>
			</g>
		</g>
		<path class="st3" d="M231.1,225.2h-82.2c-1.6,0-3,1.3-3,3v8.9c0,1.6,1.3,3,3,3h82.2c1.6,0,3-1.3,3-3v-8.9
			C234.1,226.5,232.7,225.2,231.1,225.2z"/>
	</g>
	<path class="st4" d="M297.5,142.1h-16.7c-2,0-3.7,1.7-3.7,3.7c0,2,1.7,3.7,3.7,3.7h16.7c6.1,0,11.1,5,11.1,11.1v147.8
		c0,0.1-0.1,0.2-0.2,0.2h-41.1v-14.8h18.9c4.2,0,7.6-3.4,7.6-7.6l0.1-18.2c0-4.2-3.5-7.7-7.6-7.7h-18.9v-14.6h18.9
		c4.2,0,7.6-3.4,7.6-7.6l0.1-18.2c0-4.2-3.5-7.7-7.6-7.7h-18.9v-14.8h18.9c4.2,0,7.6-3.4,7.6-7.6l0.1-18.2c0-4.2-3.5-7.7-7.6-7.7
		h-18.9V126c0-10.2-8.3-18.5-18.5-18.5h-11.7C235.2,83.2,214.8,64,190,64s-45.2,19.2-47.1,43.6h-12c-10.2,0-18.5,8.3-18.5,18.5v16.1
		h-30c-10.2,0-18.5,8.3-18.5,18.5v147.8c0,4.2,3.4,7.6,7.6,7.6h236.7c4.2,0,7.6-3.4,7.6-7.6V160.5
		C316,150.4,307.7,142.1,297.5,142.1L297.5,142.1z M267.3,171.6h18.9c0,0,0.1,0,0.2,0.1c0.1,0.1,0.1,0.1,0.1,0.2l-0.1,18.2
		c0,0.1-0.1,0.2-0.2,0.2h-18.9V171.6z M267.3,219.8h18.9c0,0,0.1,0,0.2,0.1c0.1,0.1,0.1,0.1,0.1,0.2l-0.1,18.2
		c0,0.1-0.1,0.2-0.2,0.2h-18.9V219.8z M267.3,267.8h18.9c0,0,0.1,0,0.2,0.1c0.1,0.1,0.1,0.1,0.1,0.2l-0.1,18.2
		c0,0.1-0.1,0.2-0.2,0.2h-18.9V267.8z M112.5,286.5H93.9c-0.1,0-0.2-0.1-0.2-0.2L93.5,268c0,0,0-0.1,0.1-0.2
		c0.1-0.1,0.1-0.1,0.2-0.1h18.7V286.5z M112.5,238.5H93.9c-0.1,0-0.2-0.1-0.2-0.2l-0.1-18.2c0,0,0-0.1,0.1-0.2
		c0.1-0.1,0.1-0.1,0.2-0.1h18.7V238.5z M112.5,190.3H93.9c-0.1,0-0.2-0.1-0.2-0.2l-0.1-18.2c0,0,0-0.1,0.1-0.2
		c0.1-0.1,0.1-0.1,0.2-0.1h18.7V190.3z M112.5,164.2H93.8c-4.2,0-7.7,3.5-7.6,7.7l0.1,18.2c0,4.2,3.4,7.6,7.6,7.6h18.6v14.8H93.8
		c-4.2,0-7.7,3.5-7.6,7.7l0.1,18.2c0,4.2,3.4,7.6,7.6,7.6h18.6v14.6H93.8c-4.2,0-7.7,3.5-7.6,7.7l0.1,18.2c0,4.2,3.4,7.6,7.6,7.6
		h18.6v14.8H71.6c-0.1,0-0.2-0.1-0.2-0.2V160.5c0-6.1,5-11.1,11.1-11.1h30V164.2z M190,71.4c22,0,39.9,17.9,39.9,39.9
		S212,151.1,190,151.1s-39.9-17.9-39.9-39.9S168,71.4,190,71.4z M223,308.6h-29.3v-65H223V308.6z M149.6,236.2v-7.4h80.7v7.4H149.6z
		 M259.9,308.6h-29.5v-65c3.9,0.2,7.4-2.6,7.4-6.6v-8.9c0-3.7-3-6.6-6.6-6.6h-82.2c-3.7,0-6.6,3-6.6,6.6v8.9c0,3.9,3.5,7,7.4,6.6
		v26.1c0,2,1.7,3.7,3.7,3.7c2,0,3.7-1.7,3.7-3.7v-26.1h29.3v65H157V287c0-2-1.7-3.7-3.7-3.7c-2,0-3.7,1.7-3.7,3.7v21.6h-29.8V126
		c0-6.1,5-11.1,11.1-11.1h12c1.9,24.3,22.3,43.6,47.1,43.6s45.2-19.2,47.1-43.6h11.7c6.1,0,11.1,5,11.1,11.1V308.6z M175.2,283.6
		c2,0,3.7-1.7,3.7-3.7v-7.6c0-2-1.7-3.7-3.7-3.7c-2,0-3.7,1.7-3.7,3.7v7.6C171.5,281.9,173.2,283.6,175.2,283.6z M175,173.3h-32.6
		c-4.2,0-7.6,3.4-7.6,7.6l-0.1,18.2c0,4.2,3.5,7.7,7.6,7.7H175c4.2,0,7.6-3.4,7.6-7.6v-18.2C182.6,176.7,179.2,173.3,175,173.3
		L175,173.3z M175.2,199.1c0,0.1-0.1,0.2-0.2,0.2h-32.7c-0.1,0-0.3-0.1-0.2-0.2l0.1-18.2c0-0.1,0.1-0.2,0.2-0.2H175
		c0.1,0,0.2,0.1,0.2,0.2V199.1z M204.8,283.6c2,0,3.7-1.7,3.7-3.7v-7.6c0-2-1.7-3.7-3.7-3.7s-3.7,1.7-3.7,3.7v7.6
		C201.1,281.9,202.7,283.6,204.8,283.6z M237.6,173.3H205c-4.2,0-7.6,3.4-7.6,7.6v18.2c0,4.2,3.4,7.6,7.6,7.6h32.5
		c4.2,0,7.6-3.4,7.6-7.6l0.1-18.2C245.3,176.8,241.8,173.2,237.6,173.3z M237.8,199.1c0,0.1-0.1,0.2-0.2,0.2H205
		c-0.1,0-0.2-0.1-0.2-0.2v-18.2c0-0.1,0.1-0.2,0.2-0.2h32.6c0,0,0.1,0,0.2,0.1c0.1,0.1,0.1,0.1,0.1,0.2L237.8,199.1z"/>
</g>
<path class="st5" d="M184.4,127.4c-9.7-7.8-11.2-21.9-3.4-31.6c7.8-9.7,21.9-11.2,31.6-3.4c1.3,1,2.5,2.2,3.5,3.5
	c-7.7-13.5-24.8-18.1-38.3-10.4c-13.5,7.7-18.1,24.8-10.4,38.3c7.7,13.4,24.8,18.1,38.3,10.4c4.3-2.4,7.8-6,10.3-10.2
	C208.2,133.7,194.1,135.2,184.4,127.4z"/>
<path class="st6" d="M197.4,86.1c0-0.6,0.2-1.1,0.6-1.3c0.4-0.2,0.9-0.3,1.6-0.3h8c0.7,0,1.2,0.1,1.6,0.3c0.4,0.2,0.6,0.7,0.6,1.3
	v50.1c0,1.2-0.7,1.7-2.2,1.7h-8c-1.4,0-2.2-0.6-2.2-1.7v-18.1c0-0.6-0.2-1.2-0.5-1.6c-0.3-0.4-0.9-0.6-1.7-0.6l-10.5,0
	c-1,0-1.7,0.2-1.9,0.6c-0.2,0.4-0.3,0.9-0.3,1.5v18.2c0,1.2-0.7,1.7-2.2,1.7h-8c-1.4,0-2.2-0.6-2.2-1.7V86.1c0-0.6,0.2-1.1,0.6-1.3
	c0.4-0.2,0.9-0.3,1.6-0.3h8c0.6,0,1.2,0.1,1.6,0.3c0.4,0.2,0.6,0.6,0.6,1.3v16.6c0,0.9,0.1,1.5,0.3,1.8c0.2,0.3,0.7,0.4,1.5,0.4
	l11.2,0c0.8,0,1.3-0.2,1.6-0.5c0.2-0.3,0.3-0.9,0.3-1.8V86.1z"/>
</svg>
