<?xml version="1.0" encoding="utf-8"?>
<!-- Generator: Adobe Illustrator 24.1.0, SVG Export Plug-In . SVG Version: 6.00 Build 0)  -->
<svg version="1.1" id="Layer_1" xmlns="http://www.w3.org/2000/svg" xmlns:xlink="http://www.w3.org/1999/xlink" x="0px" y="0px"
	 viewBox="0 0 380 380" style="enable-background:new 0 0 380 380;" xml:space="preserve">
<style type="text/css">
	.st0{fill:#2B79C2;}
	.st1{fill:#3B4652;}
	.st2{fill-rule:evenodd;clip-rule:evenodd;fill:url(#SVGID_1_);}
	.st3{fill:#FFFFFF;}
	.st4{display:none;fill:#FFFFFF;}
	.st5{fill-rule:evenodd;clip-rule:evenodd;fill:#FFFFFF;}
	.st6{fill-rule:evenodd;clip-rule:evenodd;fill:#8D2828;}
	.st7{fill-rule:evenodd;clip-rule:evenodd;fill:#D54C4C;}
</style>
<g>
	<path class="st0" d="M6076,3150.3h116v8h-116V3150.3L6076,3150.3z M6110.3,3088.1c-2.2-2.5-1.9-6.3,0.6-8.4
		c2.5-2.2,6.3-1.9,8.4,0.6l16.3,18.5l45.5-40.7c2.5-2.2,6.2-2,8.4,0.5c2.2,2.5,2,6.2-0.5,8.4l-49.8,44.5c-2.6,2.4-6.4,2.2-8.6-0.4
		L6110.3,3088.1L6110.3,3088.1z M6134,3060.4c10.5-10.6,25.6-12.3,37.7-4.4c-2,1.9-4.1,3.8-6.2,5.6c-10-5.2-21.2-2.2-28.4,7.3
		c-1.6,2.1-4.7,2.1-6.3,0c-15.2-19.9-40.9-6.9-40.9,13c0,7.4,5.3,15.9,12.5,23.9c9.4,10.3,22,19.3,31.5,24.1
		c9.5-4.7,22.1-13.8,31.5-24.1c5.1-5.5,9.1-11.3,11.2-16.8c3.1-2.6,6.2-5.3,9.3-8.1c0.7,23.2-32.9,48.9-50.3,57
		c-1.1,0.5-2.3,0.5-3.3,0l0,0c-17.1-8-50.3-33.5-50.3-56C6082,3055.7,6113.9,3039.8,6134,3060.4L6134,3060.4z M6076,3171.3h116v8
		h-116V3171.3L6076,3171.3z"/>
	<path class="st1" d="M6054.9,2997.3h26.1v12h-26.1c-2.2,0-4.2,0.9-5.6,2.4c-1.5,1.5-2.4,3.5-2.4,5.6v188c0,4.4,3.6,8,8,8H6213
		c4.4,0,8-3.6,8-8v-188c0-2.2-0.9-4.2-2.4-5.6c-1.5-1.5-3.5-2.4-5.6-2.4h-26v-12h26.1c5.5,0,10.5,2.2,14.1,5.9
		c3.6,3.6,5.9,8.6,5.9,14.1v188c0,11-9,20-20,20H6055c-11,0-20-9-20-20v-188c0-5.5,2.2-10.5,5.9-14.1
		C6044.4,2999.5,6049.4,2997.3,6054.9,2997.3L6054.9,2997.3z M6134,2969.3c5.8,0,11,0.4,14.8,4.2s6.2,9.1,6.2,14.8l0,0h24v30h-90
		v-30h24l0,0c0-5.8,2.4-11,6.2-14.8C6123,2969.6,6128.2,2969.3,6134,2969.3L6134,2969.3z M6140.4,2981.9c-1.6-1.6-3.9-2.6-6.4-2.6
		s-4.7,1-6.4,2.6s-2.6,3.9-2.6,6.4s1,4.7,2.6,6.4c1.5,1.5,3.6,2.5,5.9,2.6h0.9c2.3-0.1,4.4-1.1,5.9-2.6c1.6-1.6,2.6-3.9,2.6-6.4
		S6142,2983.6,6140.4,2981.9L6140.4,2981.9z"/>
</g>
<g>
	<linearGradient id="SVGID_1_" gradientUnits="userSpaceOnUse" x1="94.9841" y1="25.4277" x2="285.0159" y2="354.5723">
		<stop  offset="0" style="stop-color:#D54C4C"/>
		<stop  offset="1" style="stop-color:#8D2828"/>
	</linearGradient>
	<circle class="st2" cx="190" cy="190" r="190"/>
</g>
<g>
	<path class="st3" d="M297.5,142.1h-16.7c-2,0-3.7,1.7-3.7,3.7s1.7,3.7,3.7,3.7h16.7c6.1,0,11.1,5,11.1,11.1v147.8
		c0,0.1-0.1,0.2-0.2,0.2h-41.1v-14.8h18.9c4.2,0,7.6-3.4,7.6-7.6l0.1-18.2c0-4.2-3.5-7.7-7.6-7.7h-18.9v-14.6h18.9
		c4.2,0,7.6-3.4,7.6-7.6l0.1-18.2c0-4.2-3.5-7.7-7.6-7.7h-18.9v-14.8h18.9c4.2,0,7.6-3.4,7.6-7.6l0.1-18.2c0-4.2-3.5-7.7-7.6-7.7
		h-18.9V126c0-10.2-8.3-18.5-18.5-18.5h-11.7C235.2,83.2,214.8,64,190,64s-45.2,19.2-47.1,43.6h-12c-10.2,0-18.5,8.3-18.5,18.5v16.1
		h-30c-10.2,0-18.5,8.3-18.5,18.5v147.8c0,4.2,3.4,7.6,7.6,7.6h236.7c4.2,0,7.6-3.4,7.6-7.6v-148C316,150.4,307.7,142.1,297.5,142.1
		L297.5,142.1z M267.3,171.6h18.9c0,0,0.1,0,0.2,0.1s0.1,0.1,0.1,0.2l-0.1,18.2c0,0.1-0.1,0.2-0.2,0.2h-18.9V171.6z M267.3,219.8
		h18.9c0,0,0.1,0,0.2,0.1s0.1,0.1,0.1,0.2l-0.1,18.2c0,0.1-0.1,0.2-0.2,0.2h-18.9V219.8z M267.3,267.8h18.9c0,0,0.1,0,0.2,0.1
		s0.1,0.1,0.1,0.2l-0.1,18.2c0,0.1-0.1,0.2-0.2,0.2h-18.9V267.8z M112.5,286.5H93.9c-0.1,0-0.2-0.1-0.2-0.2L93.5,268
		c0,0,0-0.1,0.1-0.2s0.1-0.1,0.2-0.1h18.7V286.5z M112.5,238.5H93.9c-0.1,0-0.2-0.1-0.2-0.2l-0.1-18.2c0,0,0-0.1,0.1-0.2
		c0.1-0.1,0.1-0.1,0.2-0.1h18.7v18.7H112.5z M112.5,190.3H93.9c-0.1,0-0.2-0.1-0.2-0.2l-0.1-18.2c0,0,0-0.1,0.1-0.2
		c0.1-0.1,0.1-0.1,0.2-0.1h18.7v18.7H112.5z M112.5,164.2H93.8c-4.2,0-7.7,3.5-7.6,7.7l0.1,18.2c0,4.2,3.4,7.6,7.6,7.6h18.6v14.8
		H93.8c-4.2,0-7.7,3.5-7.6,7.7l0.1,18.2c0,4.2,3.4,7.6,7.6,7.6h18.6v14.6H93.8c-4.2,0-7.7,3.5-7.6,7.7l0.1,18.2
		c0,4.2,3.4,7.6,7.6,7.6h18.6v14.8H71.6c-0.1,0-0.2-0.1-0.2-0.2V160.5c0-6.1,5-11.1,11.1-11.1h30V164.2z M190,71.4
		c22,0,39.9,17.9,39.9,39.9S212,151.1,190,151.1s-39.9-17.9-39.9-39.9S168,71.4,190,71.4z M223,308.6h-29.3v-65H223V308.6z
		 M149.6,236.2v-7.4h80.7v7.4H149.6z M259.9,308.6h-29.5v-65c3.9,0.2,7.4-2.6,7.4-6.6v-8.9c0-3.7-3-6.6-6.6-6.6H149
		c-3.7,0-6.6,3-6.6,6.6v8.9c0,3.9,3.5,7,7.4,6.6v26.1c0,2,1.7,3.7,3.7,3.7s3.7-1.7,3.7-3.7v-26.1h29.3v65H157V287
		c0-2-1.7-3.7-3.7-3.7s-3.7,1.7-3.7,3.7v21.6h-29.8V126c0-6.1,5-11.1,11.1-11.1h12c1.9,24.3,22.3,43.6,47.1,43.6
		s45.2-19.2,47.1-43.6h11.7c6.1,0,11.1,5,11.1,11.1V308.6z M175.2,283.6c2,0,3.7-1.7,3.7-3.7v-7.6c0-2-1.7-3.7-3.7-3.7
		s-3.7,1.7-3.7,3.7v7.6C171.5,281.9,173.2,283.6,175.2,283.6z M175,173.3h-32.6c-4.2,0-7.6,3.4-7.6,7.6l-0.1,18.2
		c0,4.2,3.5,7.7,7.6,7.7H175c4.2,0,7.6-3.4,7.6-7.6V181C182.6,176.7,179.2,173.3,175,173.3L175,173.3z M175.2,199.1
		c0,0.1-0.1,0.2-0.2,0.2h-32.7c-0.1,0-0.3-0.1-0.2-0.2l0.1-18.2c0-0.1,0.1-0.2,0.2-0.2H175c0.1,0,0.2,0.1,0.2,0.2V199.1z
		 M204.8,283.6c2,0,3.7-1.7,3.7-3.7v-7.6c0-2-1.7-3.7-3.7-3.7s-3.7,1.7-3.7,3.7v7.6C201.1,281.9,202.7,283.6,204.8,283.6z
		 M237.6,173.3H205c-4.2,0-7.6,3.4-7.6,7.6v18.2c0,4.2,3.4,7.6,7.6,7.6h32.5c4.2,0,7.6-3.4,7.6-7.6l0.1-18.2
		C245.3,176.8,241.8,173.2,237.6,173.3z M237.8,199.1c0,0.1-0.1,0.2-0.2,0.2H205c-0.1,0-0.2-0.1-0.2-0.2v-18.2
		c0-0.1,0.1-0.2,0.2-0.2h32.6c0,0,0.1,0,0.2,0.1c0.1,0.1,0.1,0.1,0.1,0.2L237.8,199.1z"/>
</g>
<path class="st4" d="M184.4,127.4c-9.7-7.8-11.2-21.9-3.4-31.6s21.9-11.2,31.6-3.4c1.3,1,2.5,2.2,3.5,3.5
	c-7.7-13.5-24.8-18.1-38.3-10.4s-18.1,24.8-10.4,38.3c7.7,13.4,24.8,18.1,38.3,10.4c4.3-2.4,7.8-6,10.3-10.2
	C208.2,133.7,194.1,135.2,184.4,127.4z"/>
<path class="st5" d="M197.2,86.9c0-0.6,0.2-1.1,0.6-1.3s0.9-0.3,1.6-0.3h7.8c0.7,0,1.2,0.1,1.6,0.3c0.4,0.2,0.6,0.7,0.6,1.3v48.6
	c0,1.2-0.7,1.6-2.1,1.6h-7.8c-1.4,0-2.1-0.6-2.1-1.6v-17.6c0-0.6-0.2-1.2-0.5-1.6c-0.3-0.4-0.9-0.6-1.6-0.6h-10.2
	c-1,0-1.6,0.2-1.8,0.6s-0.3,0.9-0.3,1.5v17.6c0,1.2-0.7,1.6-2.1,1.6h-7.8c-1.4,0-2.1-0.6-2.1-1.6V86.9c0-0.6,0.2-1.1,0.6-1.3
	s0.9-0.3,1.6-0.3h7.8c0.6,0,1.2,0.1,1.6,0.3c0.4,0.2,0.6,0.6,0.6,1.3V103c0,0.9,0.1,1.5,0.3,1.7c0.2,0.3,0.7,0.4,1.5,0.4h10.9
	c0.8,0,1.3-0.2,1.6-0.5c0.2-0.3,0.3-0.9,0.3-1.7L197.2,86.9L197.2,86.9z"/>
<rect x="-254.5" y="75.5" class="st6" width="45" height="45"/>
<rect x="-254.5" y="132.4" class="st7" width="45" height="45"/>
</svg>
