<?xml version="1.0" encoding="utf-8"?>
<!-- Generator: Adobe Illustrator 24.1.0, SVG Export Plug-In . SVG Version: 6.00 Build 0)  -->
<svg version="1.1" id="Layer_1" xmlns="http://www.w3.org/2000/svg" xmlns:xlink="http://www.w3.org/1999/xlink" x="0px" y="0px"
	 viewBox="0 0 380 380" style="enable-background:new 0 0 380 380;" xml:space="preserve">
<style type="text/css">
	.st0{fill-rule:evenodd;clip-rule:evenodd;fill:url(#SVGID_1_);}
	.st1{display:none;}
	.st2{display:inline;fill:#FFFFFF;}
	.st3{fill:#FFFFFF;}
</style>
<linearGradient id="SVGID_1_" gradientUnits="userSpaceOnUse" x1="25.4277" y1="2148.0234" x2="354.5723" y2="2338.0552" gradientTransform="matrix(1 0 0 1 0 -2053.0393)">
	<stop  offset="0" style="stop-color:#E4729F"/>
	<stop  offset="1" style="stop-color:#78104D"/>
</linearGradient>
<circle class="st0" cx="190" cy="190" r="190"/>
<g class="st1">
	<path class="st2" d="M191.6,80c13.3,10.7,26.5,21.4,40.1,32.3c0-2.3,0-4.1,0-6c0.1-3.3,1.9-5.2,5.2-5.2c8.9,0,17.8,0,26.7,0
		c3.4,0,5.1,1.8,5.1,5.2c0,11.3,0,22.7,0,34c0,1.4,0.4,2.4,1.5,3.3c8.4,6.7,16.7,13.4,25,20.1c3.2,2.6,3.4,4.9,0.9,8.1
		c-3.5,4.3-7,8.6-10.5,12.8c-2.5,3-4.7,3.2-7.8,0.7c-2.9-2.3-5.8-4.6-9-7.2c0,37.8,0,75.1,0,112.8c4.6,0,9.1,0,13.7,0
		c0,3.2,0,6.1,0,9.1c-61.8,0-123.5,0-185.3,0c0-3,0-5.9,0-9.1c4.5,0,9,0,13.6,0c0-37.6,0-75,0-112.7c-3,2.4-5.8,4.6-8.5,6.9
		c-3.4,2.8-5.6,2.6-8.4-0.8c-3.4-4.2-6.8-8.3-10.2-12.5c-2.6-3.2-2.3-5.5,0.9-8.1c33.9-27.4,67.8-54.7,101.6-82.1
		c0.7-0.6,1.5-1.1,2.2-1.6C189.6,80,190.6,80,191.6,80z M190.1,114.4c-0.6,0.5-1.2,0.9-1.8,1.3c-22.1,17.9-44.2,35.7-66.3,53.5
		c-1.2,1-1.6,2-1.6,3.4c0,38.6,0,77.1,0,115.7c0,0.8,0,1.5,0,2.4c46.5,0,92.7,0,139.2,0c0-0.8,0-1.4,0-2.1c0-38.7,0-77.4,0-116.1
		c0-1.4-0.5-2.3-1.6-3.2c-13.3-10.7-26.6-21.4-39.9-32.2C208.9,129.6,199.5,122,190.1,114.4z M280.9,175.8c2-2.5,3.9-4.7,5.8-7.2
		c-32.3-26.1-64.5-52.1-96.7-78.1c-32.3,26.1-64.5,52.1-96.7,78.2c2,2.5,3.9,4.8,5.8,7.1c0.7-0.6,1.3-1,1.9-1.4
		c28.3-22.9,56.6-45.7,84.9-68.6c3.4-2.7,4.9-2.8,8.3,0c22.3,18,44.6,36.1,67,54.1C267.6,165.1,274.2,170.4,280.9,175.8z
		 M241.1,110.5c0,2.6,0.1,5.1,0,7.5c-0.1,1.3,0.4,2.2,1.4,3.1c5.3,4.2,10.5,8.5,15.8,12.7c0.4,0.3,0.8,0.5,1.2,0.7
		c0-8.1,0-16,0-23.9C253.3,110.5,247.3,110.5,241.1,110.5z"/>
	<path class="st2" d="M231.6,179.8c-3,0-5.9,0-8.9,0c0-3,0-5.9,0-8.9c0.1-0.1,0.3-0.2,0.5-0.2c4.5,0,8.9-0.1,13.4,0
		c2.6,0.1,4.5,1.7,4.5,4.3c0,10.3,0.4,20.7-0.4,30.9c-0.8,9.7-6.7,16.1-15.9,19.1c-1.8,0.6-2.2,1.4-2.2,3.1c0.1,9.7-0.1,19.4,0.1,29
		c0.2,9.2-6.6,15.7-15.3,15.3c-4.1-0.2-8.2,0-12.3,0c-8.4-0.1-14.2-5.9-14.2-14.3c0-14.8,0-29.5,0-44.3c0-4.7-1.5-6.2-6.2-6.2
		c-2.5,0-5,0-7.5,0c-3,0.1-4.8,1.8-4.8,4.9c0,10.4,0,20.8-0.1,31.2c0,1.6,0.9,1.8,2,2.3c8.3,3.2,13.3,11.8,11.7,20.3
		c-1.7,9.1-9.2,15.5-18.2,15.5c-9.1,0-16.6-6.3-18.3-15.4c-1.6-8.5,3.3-17.2,11.5-20.3c1.7-0.6,2.1-1.4,2.1-3.1
		c-0.1-9.8,0-19.6,0-29.5c0-9.5,5.8-15.2,15.3-15.2c2.4,0,4.9,0,7.3,0c8.5,0.1,14.4,5.9,14.4,14.3c0.1,14.6,0,29.2,0,43.9
		c0,5.2,1.4,6.7,6.6,6.7c3.8,0,7.6,0,11.4,0c3.4,0,5.2-1.8,5.2-5.2c0-10.2,0-20.4,0-30.5c0-1.3-0.3-1.8-1.6-2.2
		c-10.3-3.1-16.9-11.8-16.9-22.5c-0.1-8.8,0-17.6,0-26.4c0-3.9,1.6-5.6,5.4-5.6c4.3,0,8.6,0,13,0c0,3.1,0,6,0,9.2
		c-2.9,0-5.9,0-8.8,0c-0.1,0.5-0.3,0.7-0.3,1c0,7.7-0.1,15.5,0.1,23.2c0.2,7.3,6.5,13,14,12.9c7.3-0.1,13.5-5.9,13.6-13.1
		c0.2-7.6,0.1-15.2,0.1-22.8C231.7,180.6,231.6,180.4,231.6,179.8z M157.6,272.4c5.2,0,9.3-4.2,9.2-9.3c-0.1-5-4.1-9.1-9.2-9.2
		c-5.1-0.1-9.3,4.1-9.3,9.2C148.3,268.3,152.4,272.4,157.6,272.4z"/>
</g>
<g>
	<path class="st3" d="M78.9,181.8c1.4-1.6,2.6-3.4,4.2-4.8c34-29.6,68-59.2,102-88.8c3.4-3,6.5-2.9,10,0.2
		c12.5,10.9,25.1,21.8,37.6,32.7c0.8,0.7,1.6,1.4,2.7,2.3c0.1-0.9,0.1-1.5,0.1-2.1c0-5.1,0-10.1,0-15.2c0-4.4,2.7-7,7-7.1
		c8.3,0,16.6,0,24.9,0c4.4,0,7.1,2.7,7.1,7.2c0,16.4,0,32.8,0,49.1c0,1.5,0.4,2.5,1.6,3.5c6.9,5.9,13.8,11.9,20.6,17.9
		c1.6,1.4,2.9,3.3,4.3,5c0,1.2,0,2.3,0,3.5c-0.2,0.2-0.4,0.4-0.5,0.7c-2.2,4.4-6.8,5.4-10.6,2.2c-0.5-0.4-1.1-0.9-1.9-1.5
		c0,1.1,0,1.9,0,2.7c0,32.2,0,64.4,0,96.6c0,5.8-2.3,8.1-8.1,8.1c-59.9,0-119.9,0-179.8,0c-5.8,0-8.2-2.3-8.2-8.1
		c0-32.2,0-64.4,0-96.6c0-0.8,0-1.6,0-2.8c-1.1,0.9-1.7,1.5-2.4,2c-3.1,2.3-7.1,1.8-9.3-1.1c-0.5-0.7-0.9-1.4-1.3-2.2
		C78.9,184.1,78.9,182.9,78.9,181.8z M190,101.2c-0.4,0.3-0.7,0.5-0.9,0.7c-27.5,23.9-54.9,47.8-82.4,71.6c-1.3,1.2-1.8,2.3-1.8,4
		c0.1,33.6,0,67.1,0,100.7c0,0.8,0,1.7,0,2.6c56.8,0,113.4,0,170.1,0c0-0.7,0-1.2,0-1.8c0-34.1,0-68.1,0-102.2
		c0-1.4-0.6-2.2-1.6-3.1c-21-18.2-42-36.5-63-54.7C203.8,113.1,197,107.2,190,101.2z M261.5,112.2c-4.4,0-8.6,0-12.9,0
		c0,7.3,0,14.4,0.1,21.6c0,0.7,0.6,1.6,1.1,2.1c2.4,2.2,4.9,4.3,7.3,6.4c1.4,1.2,2.8,2.4,4.4,3.8
		C261.5,134.5,261.5,123.4,261.5,112.2z"/>
	<path class="st3" d="M203,242.1c-4.5,0-8.6,0-13,0c0,6.4,0,12.6,0,18.9c0,2.6-0.9,4.7-3.2,6c-4.2,2.6-9.8-0.3-9.8-5.2
		c0.1-12.4,0.5-24.8,0.7-37.2c0-0.6-0.1-1.5-0.5-1.9c-2.6-2.6-5.3-5.1-8-7.7c-2.3,4.5-4.4,9.4-4.7,14.7c-0.4,6.2-0.4,12.4-0.5,18.6
		c-0.1,4.4,0,8.8,0,13.2c-0.1,3.7-3,6.5-6.5,6.5c-3.5,0-6.4-2.8-6.5-6.5c-0.1-5.6,0-11.3,0-16.9c0-0.8,0-1.6,0-2.5
		c-4.3,0-8.5,0-13,0c0,0.7,0,1.4,0,2.2c0,5.6,0,11.1,0,16.7c0,4-2.7,6.9-6.4,7c-3.8,0-6.6-2.9-6.6-7.1c0-8.7,0-17.3,0-26
		c0.1-11.4,2.5-22.3,7.1-32.7c2-4.5,4.1-8.9,5.9-13.5c2.6-6.5,6.3-11.8,13.2-14.1c-0.4-13.3,5.2-21.3,16.4-23.3
		c9.1-1.6,18.4,4.1,21.5,13.1c2.7,7.9,0.4,19.5-12.2,24.8c0.4,6.7-0.7,13.8,4.6,19.5c1.7-4,3.4-7.8,5.1-11.7
		c1.4-3.1,2.8-6.2,4.1-9.3c2.4-6.1,6.3-10.8,12.8-13.1c-1-6.3,0.3-11.9,4.5-16.8c3.2-3.8,7.4-5.9,12.3-6.6
		c8.8-1.3,17.9,4.4,20.9,13.1c3.4,10-0.8,18.6-11.8,24.7c0,3.4-0.4,6.7,0.1,9.9c1.3,9.9,9,16.7,19,17.1c2.9,0.1,5,1.3,6.2,3.9
		c1.1,2.5,0.8,5-1.1,6.8c-1.2,1.1-3,2-4.7,2.2c-4.2,0.6-6.6,3-6.6,7.1c0,8.4,0,16.7,0,25.1c0,2.9-1.3,5-3.9,6.2
		c-2.5,1.1-5,0.9-6.8-1.1c-1.2-1.3-2.2-3.2-2.2-4.9c-0.2-8.9-0.3-17.8,0-26.6c0.1-3.4,1.6-6.8,2.4-10c-3.3-3.1-6.8-6.4-10.4-9.7
		c-3.1,6-5.1,12.5-5.2,19.6c-0.1,8.9,0,17.8,0,26.6c0,5.3-5.4,8.4-9.8,5.8c-2.2-1.3-3.2-3.4-3.2-6c0-5.6,0-11.1,0-16.7
		C203,243.7,203,243,203,242.1z M203.4,228.9c0.7-7.7,3.7-14.5,6.8-21.4c1.9-4.1,3.7-8.1,5.3-12.3c1.3-3.3-0.3-6.9-3.6-8.2
		c-3.1-1.3-6.8-0.1-8.2,3.1c-3.6,8.1-7.2,16.2-10.3,24.4c-1.7,4.5-2.3,9.4-3.5,14.3C194.8,228.9,198.9,228.9,203.4,228.9z
		 M151.3,228.9c0.8-6.9,3.1-13.1,5.9-19.2c2.1-4.6,4.2-9.3,6.2-14c1.4-3.3-0.1-7.1-3.3-8.6c-3.2-1.5-6.9-0.1-8.6,3.3
		c-0.8,1.6-1.5,3.3-2.2,4.9c-3,7.5-6.2,14.9-9,22.4c-1.3,3.5-1.6,7.3-2.3,11.2C142.7,228.9,146.9,228.9,151.3,228.9z M170.4,177
		c3.5,0,6.5-2.9,6.5-6.4c0-3.5-2.9-6.5-6.4-6.6c-3.6-0.1-6.7,2.9-6.6,6.5C164,174,166.9,177,170.4,177z M222.5,177
		c3.5,0,6.5-2.9,6.5-6.4c0-3.5-2.9-6.5-6.4-6.6c-3.6-0.1-6.6,2.9-6.6,6.5C216.1,174.1,219,177,222.5,177z"/>
</g>
</svg>
