<?xml version="1.0" encoding="utf-8"?>
<!-- Generator: Adobe Illustrator 24.1.0, SVG Export Plug-In . SVG Version: 6.00 Build 0)  -->
<svg version="1.1" id="Layer_1" xmlns="http://www.w3.org/2000/svg" xmlns:xlink="http://www.w3.org/1999/xlink" x="0px" y="0px"
	 viewBox="0 0 380 380" style="enable-background:new 0 0 380 380;" xml:space="preserve">
<style type="text/css">
	.st0{fill:#2B79C2;}
	.st1{fill:#3B4652;}
	.st2{fill-rule:evenodd;clip-rule:evenodd;fill:url(#SVGID_1_);}
	.st3{display:none;fill-rule:evenodd;clip-rule:evenodd;fill:#FFFFFF;}
	.st4{fill:#FFFFFF;}
</style>
<g>
	<path class="st0" d="M6076,3150.3h116v8h-116V3150.3L6076,3150.3z M6110.3,3088.1c-2.2-2.5-1.9-6.3,0.6-8.4
		c2.5-2.2,6.3-1.9,8.4,0.6l16.3,18.5l45.5-40.7c2.5-2.2,6.2-2,8.4,0.5c2.2,2.5,2,6.2-0.5,8.4l-49.8,44.5c-2.6,2.4-6.4,2.2-8.6-0.4
		L6110.3,3088.1L6110.3,3088.1z M6134,3060.4c10.5-10.6,25.6-12.3,37.7-4.4c-2,1.9-4.1,3.8-6.2,5.6c-10-5.2-21.2-2.2-28.4,7.3
		c-1.6,2.1-4.7,2.1-6.3,0c-15.2-19.9-40.9-6.9-40.9,13c0,7.4,5.3,15.9,12.5,23.9c9.4,10.3,22,19.3,31.5,24.1
		c9.5-4.7,22.1-13.8,31.5-24.1c5.1-5.5,9.1-11.3,11.2-16.8c3.1-2.6,6.2-5.3,9.3-8.1c0.7,23.2-32.9,48.9-50.3,57
		c-1.1,0.5-2.3,0.5-3.3,0l0,0c-17.1-8-50.3-33.5-50.3-56C6082,3055.7,6113.9,3039.8,6134,3060.4L6134,3060.4z M6076,3171.3h116v8
		h-116V3171.3L6076,3171.3z"/>
	<path class="st1" d="M6054.9,2997.3h26.1v12h-26.1c-2.2,0-4.2,0.9-5.6,2.4c-1.5,1.5-2.4,3.5-2.4,5.6v188c0,4.4,3.6,8,8,8H6213
		c4.4,0,8-3.6,8-8v-188c0-2.2-0.9-4.2-2.4-5.6c-1.5-1.5-3.5-2.4-5.6-2.4h-26v-12h26.1c5.5,0,10.5,2.2,14.1,5.9
		c3.6,3.6,5.9,8.6,5.9,14.1v188c0,11-9,20-20,20H6055c-11,0-20-9-20-20v-188c0-5.5,2.2-10.5,5.9-14.1
		C6044.4,2999.5,6049.4,2997.3,6054.9,2997.3L6054.9,2997.3z M6134,2969.3c5.8,0,11,0.4,14.8,4.2s6.2,9.1,6.2,14.8l0,0h24v30h-90
		v-30h24l0,0c0-5.8,2.4-11,6.2-14.8C6123,2969.6,6128.2,2969.3,6134,2969.3L6134,2969.3z M6140.4,2981.9c-1.6-1.6-3.9-2.6-6.4-2.6
		s-4.7,1-6.4,2.6s-2.6,3.9-2.6,6.4s1,4.7,2.6,6.4c1.5,1.5,3.6,2.5,5.9,2.6h0.9c2.3-0.1,4.4-1.1,5.9-2.6c1.6-1.6,2.6-3.9,2.6-6.4
		S6142,2983.6,6140.4,2981.9L6140.4,2981.9z"/>
</g>
<g>
	
		<linearGradient id="SVGID_1_" gradientUnits="userSpaceOnUse" x1="25.4277" y1="-4415.9448" x2="354.5723" y2="-4605.9766" gradientTransform="matrix(1 0 0 -1 0 -4320.9604)">
		<stop  offset="0" style="stop-color:#00D8FF"/>
		<stop  offset="1" style="stop-color:#367AD8"/>
	</linearGradient>
	<circle class="st2" cx="190" cy="190" r="190"/>
</g>
<path class="st3" d="M100.7,181.1c-0.4,2.2,0.4,4.8,2.2,6.7c12.3,13,25.7,20.5,39.9,22.4h0.7V250c0,33.9,29.5,61.1,65.7,61.1
	s65.6-27.3,65.6-61.1v-35.1c17.1-2.6,30.2-16.4,30.2-33.1c0-18.3-16.4-33.6-36.2-33.6s-36.2,15.2-36.2,33.6
	c0,16.7,13,30.6,30.2,33.1v35c0,27.6-24.2,50-53.6,50c-29.5,0-53.3-22.4-53.3-50l-0.4-39.9c13.8-1.9,26.8-9.3,39.1-22.4
	c1.5-1.9,2.2-4.5,1.9-6.3c16-19.8,26.1-46.6,26.1-67.1c0-31.7-15.3-35-40.6-40.3c-1.5-2.9-4.9-5.3-8.6-5.3c-5.3,0-9.7,4.1-9.7,9.4
	c0,4.8,4.5,8.6,9.7,8.6c2.2,0,4.1-0.7,6-1.9c24.6,5.3,30.9,6.7,30.9,29.5c0,17.9-9.4,42.1-23.2,59.7c-2.2,0.4-4.8,1.2-6.3,2.9
	c-7.1,7.5-18.6,16.7-32.1,16.7c-13.8,0-24.9-9.4-32.4-16.7c-1.5-1.9-3.7-2.9-6.3-2.9c-13.8-17.5-23.2-41.8-23.2-59.7
	c0-22.7,6.7-24.2,31.3-29.5c1.5,1.2,3.7,1.9,5.6,1.9c5.6,0,9.7-3.7,9.7-8.6c0-5.3-4.1-9.4-9.7-9.4c-3.7,0-6.7,2.2-8.2,5.3h-0.4
	C90.3,79.3,75,82.6,75,114.3C75,134.9,84.7,161.7,100.7,181.1z M268.8,204.5c-13.1,0-23.9-10.1-23.9-22.7
	c0-12.3,10.8-22.4,23.9-22.4c13.5,0,23.9,10.1,23.9,22.4C292.7,194.4,282.3,204.5,268.8,204.5z"/>
<g>
	<path class="st4" d="M78.9,182.2c1.4-1.6,2.6-3.4,4.2-4.8c34-29.6,68-59.2,102-88.8c3.4-3,6.5-2.9,10,0.2
		c12.5,10.9,25.1,21.8,37.6,32.7c0.8,0.7,1.6,1.4,2.7,2.3c0.1-0.9,0.1-1.5,0.1-2.1c0-5.1,0-10.1,0-15.2c0-4.4,2.7-7,7-7.1
		c8.3,0,16.6,0,24.9,0c4.4,0,7.1,2.7,7.1,7.2c0,16.4,0,32.8,0,49.1c0,1.5,0.4,2.5,1.6,3.5c6.9,5.9,13.8,11.9,20.6,17.9
		c1.6,1.4,2.9,3.3,4.3,5c0,1.2,0,2.3,0,3.5c-0.2,0.2-0.4,0.4-0.5,0.7c-2.2,4.4-6.8,5.4-10.6,2.2c-0.5-0.4-1.1-0.9-1.9-1.5
		c0,1.1,0,1.9,0,2.7c0,32.2,0,64.4,0,96.6c0,5.8-2.3,8.1-8.1,8.1c-59.9,0-119.9,0-179.8,0c-5.8,0-8.2-2.3-8.2-8.1
		c0-32.2,0-64.4,0-96.6c0-0.8,0-1.6,0-2.8c-1.1,0.9-1.7,1.5-2.4,2c-3.1,2.3-7.1,1.8-9.3-1.1c-0.5-0.7-0.9-1.4-1.3-2.2
		C78.9,184.5,78.9,183.3,78.9,182.2z M190,101.6c-0.4,0.3-0.7,0.5-0.9,0.7c-27.5,23.9-54.9,47.8-82.4,71.6c-1.3,1.2-1.8,2.3-1.8,4
		c0.1,33.6,0,67.1,0,100.7c0,0.8,0,1.7,0,2.6c56.8,0,113.4,0,170.1,0c0-0.7,0-1.2,0-1.8c0-34.1,0-68.1,0-102.2
		c0-1.4-0.6-2.2-1.6-3.1c-21-18.2-42-36.5-63-54.7C203.8,113.5,197,107.6,190,101.6z M261.5,112.6c-4.4,0-8.6,0-12.9,0
		c0,7.3,0,14.4,0.1,21.6c0,0.7,0.6,1.6,1.1,2.1c2.4,2.2,4.9,4.3,7.3,6.4c1.4,1.2,2.8,2.4,4.4,3.8
		C261.5,134.9,261.5,123.8,261.5,112.6z"/>
	<path class="st4" d="M203,242.5c-4.5,0-8.6,0-13,0c0,6.4,0,12.6,0,18.9c0,2.6-0.9,4.7-3.2,6c-4.2,2.6-9.8-0.3-9.8-5.2
		c0.1-12.4,0.5-24.8,0.7-37.2c0-0.6-0.1-1.5-0.5-1.9c-2.6-2.6-5.3-5.1-8-7.7c-2.3,4.5-4.4,9.4-4.7,14.7c-0.4,6.2-0.4,12.4-0.5,18.6
		c-0.1,4.4,0,8.8,0,13.2c-0.1,3.7-3,6.5-6.5,6.5c-3.5,0-6.4-2.8-6.5-6.5c-0.1-5.6,0-11.3,0-16.9c0-0.8,0-1.6,0-2.5
		c-4.3,0-8.5,0-13,0c0,0.7,0,1.4,0,2.2c0,5.6,0,11.1,0,16.7c0,4-2.7,6.9-6.4,7c-3.8,0-6.6-2.9-6.6-7.1c0-8.7,0-17.3,0-26
		c0.1-11.4,2.5-22.3,7.1-32.7c2-4.5,4.1-8.9,5.9-13.5c2.6-6.5,6.3-11.8,13.2-14.1c-0.4-13.3,5.2-21.3,16.4-23.3
		c9.1-1.6,18.4,4.1,21.5,13.1c2.7,7.9,0.4,19.5-12.2,24.8c0.4,6.7-0.7,13.8,4.6,19.5c1.7-4,3.4-7.8,5.1-11.7
		c1.4-3.1,2.8-6.2,4.1-9.3c2.4-6.1,6.3-10.8,12.8-13.1c-1-6.3,0.3-11.9,4.5-16.8c3.2-3.8,7.4-5.9,12.3-6.6
		c8.8-1.3,17.9,4.4,20.9,13.1c3.4,10-0.8,18.6-11.8,24.7c0,3.4-0.4,6.7,0.1,9.9c1.3,9.9,9,16.7,19,17.1c2.9,0.1,5,1.3,6.2,3.9
		c1.1,2.5,0.8,5-1.1,6.8c-1.2,1.1-3,2-4.7,2.2c-4.2,0.6-6.6,3-6.6,7.1c0,8.4,0,16.7,0,25.1c0,2.9-1.3,5-3.9,6.2
		c-2.5,1.1-5,0.9-6.8-1.1c-1.2-1.3-2.2-3.2-2.2-4.9c-0.2-8.9-0.3-17.8,0-26.6c0.1-3.4,1.6-6.8,2.4-10c-3.3-3.1-6.8-6.4-10.4-9.7
		c-3.1,6-5.1,12.5-5.2,19.6c-0.1,8.9,0,17.8,0,26.6c0,5.3-5.4,8.4-9.8,5.8c-2.2-1.3-3.2-3.4-3.2-6c0-5.6,0-11.1,0-16.7
		C203,244.1,203,243.4,203,242.5z M203.4,229.3c0.7-7.7,3.7-14.5,6.8-21.4c1.9-4.1,3.7-8.1,5.3-12.3c1.3-3.3-0.3-6.9-3.6-8.2
		c-3.1-1.3-6.8-0.1-8.2,3.1c-3.6,8.1-7.2,16.2-10.3,24.4c-1.7,4.5-2.3,9.4-3.5,14.3C194.8,229.3,198.9,229.3,203.4,229.3z
		 M151.3,229.3c0.8-6.9,3.1-13.1,5.9-19.2c2.1-4.6,4.2-9.3,6.2-14c1.4-3.3-0.1-7.1-3.3-8.6c-3.2-1.5-6.9-0.1-8.6,3.3
		c-0.8,1.6-1.5,3.3-2.2,4.9c-3,7.5-6.2,14.9-9,22.4c-1.3,3.5-1.6,7.3-2.3,11.2C142.7,229.3,146.9,229.3,151.3,229.3z M170.4,177.4
		c3.5,0,6.5-2.9,6.5-6.4c0-3.5-2.9-6.5-6.4-6.6c-3.6-0.1-6.7,2.9-6.6,6.5C164,174.4,166.9,177.4,170.4,177.4z M222.5,177.4
		c3.5,0,6.5-2.9,6.5-6.4c0-3.5-2.9-6.5-6.4-6.6c-3.6-0.1-6.6,2.9-6.6,6.5C216.1,174.5,219,177.4,222.5,177.4z"/>
</g>
</svg>
