<?xml version="1.0" encoding="utf-8"?>

<svg version="1.1" id="Layer_1" xmlns="http://www.w3.org/2000/svg" xmlns:xlink="http://www.w3.org/1999/xlink" x="0px" y="0px"
	 viewBox="0 0 380 380" style="enable-background:new 0 0 380 380;" xml:space="preserve">
<style type="text/css">
	.st0{fill:#2B79C2;}
	.st1{fill:#3B4652;}
	.st2{fill-rule:evenodd;clip-rule:evenodd;fill:url(#SVGID_1_);}
	.st3{clip-path:url(#SVGID_3_);}
	.st4{fill:#FFFFFF;}
</style>
<g>
	<path class="st0" d="M6076,3150.3h116v8h-116V3150.3L6076,3150.3z M6110.3,3088.1c-2.2-2.5-1.9-6.3,0.6-8.4
		c2.5-2.2,6.3-1.9,8.4,0.6l16.3,18.5l45.5-40.7c2.5-2.2,6.2-2,8.4,0.5c2.2,2.5,2,6.2-0.5,8.4l-49.8,44.5c-2.6,2.4-6.4,2.2-8.6-0.4
		L6110.3,3088.1L6110.3,3088.1z M6134,3060.4c10.5-10.6,25.6-12.3,37.7-4.4c-2,1.9-4.1,3.8-6.2,5.6c-10-5.2-21.2-2.2-28.4,7.3
		c-1.6,2.1-4.7,2.1-6.3,0c-15.2-19.9-40.9-6.9-40.9,13c0,7.4,5.3,15.9,12.5,23.9c9.4,10.3,22,19.3,31.5,24.1
		c9.5-4.7,22.1-13.8,31.5-24.1c5.1-5.5,9.1-11.3,11.2-16.8c3.1-2.6,6.2-5.3,9.3-8.1c0.7,23.2-32.9,48.9-50.3,57
		c-1.1,0.5-2.3,0.5-3.3,0l0,0c-17.1-8-50.3-33.5-50.3-56C6082,3055.7,6113.9,3039.8,6134,3060.4L6134,3060.4z M6076,3171.3h116v8
		h-116V3171.3L6076,3171.3z"/>
	<path class="st1" d="M6054.9,2997.3h26.1v12h-26.1c-2.2,0-4.2,0.9-5.6,2.4c-1.5,1.5-2.4,3.5-2.4,5.6v188c0,4.4,3.6,8,8,8H6213
		c4.4,0,8-3.6,8-8v-188c0-2.2-0.9-4.2-2.4-5.6c-1.5-1.5-3.5-2.4-5.6-2.4h-26v-12h26.1c5.5,0,10.5,2.2,14.1,5.9
		c3.6,3.6,5.9,8.6,5.9,14.1v188c0,11-9,20-20,20H6055c-11,0-20-9-20-20v-188c0-5.5,2.2-10.5,5.9-14.1
		C6044.4,2999.5,6049.4,2997.3,6054.9,2997.3L6054.9,2997.3z M6134,2969.3c5.8,0,11,0.4,14.8,4.2s6.2,9.1,6.2,14.8l0,0h24v30h-90
		v-30h24l0,0c0-5.8,2.4-11,6.2-14.8C6123,2969.6,6128.2,2969.3,6134,2969.3L6134,2969.3z M6140.4,2981.9c-1.6-1.6-3.9-2.6-6.4-2.6
		s-4.7,1-6.4,2.6s-2.6,3.9-2.6,6.4s1,4.7,2.6,6.4c1.5,1.5,3.6,2.5,5.9,2.6h0.9c2.3-0.1,4.4-1.1,5.9-2.6c1.6-1.6,2.6-3.9,2.6-6.4
		S6142,2983.6,6140.4,2981.9L6140.4,2981.9z"/>
</g>
<g>
	
		<linearGradient id="SVGID_1_" gradientUnits="userSpaceOnUse" x1="25.4277" y1="-4414.9844" x2="354.5723" y2="-4605.0161" gradientTransform="matrix(1 0 0 -1 0 -4320)">
		<stop  offset="0" style="stop-color:#00D8FF"/>
		<stop  offset="1" style="stop-color:#367AD8"/>
	</linearGradient>
	<circle class="st2" cx="190" cy="190" r="190"/>
</g>
<g>
	<g>
		<defs>
			<ellipse id="SVGID_2_" cx="190" cy="185" rx="153.9" ry="160"/>
		</defs>
		<clipPath id="SVGID_3_">
			<use xlink:href="#SVGID_2_"  style="overflow:visible;"/>
		</clipPath>
		<g class="st3">
			<path class="st4" d="M131.5,346c5.3-32.3,1.9-63.9-5.6-95.3c-0.9,9.6-1.8,19.2-2.6,28.9c-1,11.7-3,23.2-5.5,34.6
				c-1.3,6-1.4,12.1-0.8,18.2c0.4,3.8,0.3,7.7-0.1,11.6c-0.2,1.6-0.7,2.1-2.4,2.1c-12.6-0.1-25.1-0.1-37.7,0c-2.4,0-3.1-0.8-3.3-3.1
				c-0.5-8.3,0.2-16.6,2.7-24.5c3.4-10.9,2.8-21.8,2.1-32.8c-0.9-14.8-1-29.6,3.8-43.9c0.9-2.7-0.6-5.3-0.7-7.9
				c-0.5-14.4,0.8-28.4,8.7-40.8c6.7-10.4,17.1-15.9,28.4-19.9c7.5-2.7,15.4-3.8,23-5.9c7.2-1.9,14-4.9,19.9-9.5
				c5.5-4.3,8.2-14.6,5.7-21c-0.7-1.8-2.1-2.6-3.9-3c-3.9-0.9-7.9-0.7-11.9-0.8c-8-0.1-11.5-4.5-9.9-12.3c0.3-1.3,0.3-2.5-0.9-3.5
				c-1-0.8-1.5-1.8-0.8-3.1c0.1-0.3,0.4-0.8,0.4-0.8c-3-2.5-0.5-5.3-0.5-8c0-1.6-0.5-2.4-2.2-2.5c-0.8,0-1.7-0.3-2.5-0.6
				c-2.8-1-3.7-3.2-2.1-5.8c2.8-4.5,5.6-8.9,8.5-13.3c1.1-1.6,1.5-3,0.1-4.6c-0.8-1-1.2-2.3-1.1-3.6c0.4-10,3.1-18.8,11.2-25.7
				C166.2,37.1,183,34.7,201,37.1c15.3,2,26.4,10.1,32.7,24.4c4.7,10.6,4.2,21.5,1.2,32.4c-2.7,9.7-7.4,18.3-14.1,25.7
				c-8.3,9.1-10.4,19.6-7.4,31.4c0.8,3.4,3.1,5.6,5.7,7.5c6.7,4.9,14.2,7.8,22.3,9.6c8.6,1.9,17.1,3.7,25.3,7.1
				c17.9,7.3,28.5,20.2,31,39.6c1.1,8.2,2,16.4,0.1,24.6c-0.2,0.7-0.1,1.5,0.1,2.2c4.7,13.5,5.1,27.4,4,41.3
				c-1,13.8-0.8,27.3,3.1,40.8c1.8,6.3,1.9,12.9,1.6,19.5c-0.1,2.1-0.7,3-3,2.9c-12.4-0.1-24.9-0.1-37.3,0c-2,0-2.9-0.5-2.8-2.6
				c0.1-1.8-0.1-3.7,0-5.5c0.8-11.7-0.6-23.1-3.1-34.4c-3.2-14.2-3.9-28.7-5.2-43.1c-0.3-3.1-0.5-6.2-0.8-9.5
				c-3.4,11.7-5.8,23.3-6.8,35.2c-1.2,13.6-1.9,27.2-1.4,40.8c0.2,5.6,0.6,11.2,2.5,16.5c0.7,2.2,0.2,2.7-2,2.6
				c-18.2-0.1-36.5-0.1-54.7-0.1c-13.5,0-27-0.1-40.6,0c-2.5,0-3.2-0.8-3-3.1c0.2-2.3,0-4.7,0.1-7.1c0-3.9,0.6-4.5,4.5-4.5
				c19.5,0,39.1,0,58.6,0c5.4,0,10.7,0.1,16.1,0c7.5-0.1,11.7-4.7,12.2-12.1c0.7-11.9-4.7-16.4-16-16.1c-23.8,0.5-47.6,0.1-71.5,0.1
				c-4.5,0-4.8-0.3-4.8-4.8c0-3,0-6,0-9c0-2.1,1.1-3.2,3.1-3.2c8.7-0.2,17.4-0.6,26.1,0.2c3.8,0.4,7.1,2.2,9.3,5.2
				c4.9,6.9,11.6,7.8,19.1,6.3c16.5-3.3,30.8-25.4,26.3-40.8c-3.4-11.7-15.5-17.2-26.5-12c-6.1,2.8-11.5-0.8-11.6-8.1
				c-0.1-10.7-0.1-21.5-0.1-32.2c0-2.1,0.2-4.3,0-6.4c-0.2-2.5,0.5-3.2,3-2.8c8.2,1.3,8.3,1.2,8.2,9.6c0,5.3-0.3,10.5,0,15.8
				c0.4,7.2,2.6,10.5,10.5,10c6.1-0.4,12.1,1.5,18.2,2c10.1,0.8,13.3-2.5,11-12.3c-4.1-17.2-11.6-32.9-22.7-46.7
				c-2.7-3.3-5.8-6.8-10.9-5.2c-4.9,1.5-5.5,6-5.9,10.1c-0.3,3.3-0.1,6.6-0.1,10.1c-3.3-0.6-6.2-1.3-9-1.5c-2.1-0.1-2.3-1.1-2.3-2.8
				c0-17.7,0-35.4,0-53.1c0-1.1,0.9-3-1.1-3.1c-2.3-0.2-4.7-0.6-6.9,0.4c-0.4,0.2-0.3,1.8-0.3,2.7c0,17.5,0,35,0,52.5
				c0,2.2-0.2,3.5-3,3.5c-2.5,0-5.8,1.8-7.4,0.8c-1.8-1.1-0.4-4.7-0.9-7.3c-0.4-2.2-0.7-4.4-1.8-6.5c-2-3.7-6.2-4.9-9.9-2.9
				c-2,1.1-3.7,2.6-5.1,4.4c-11.3,14.4-19.1,30.4-23.1,48.3c-1.7,7.9,1.7,11.8,9.9,11c8-0.7,15.9-2.4,24-2.5c3.5-0.1,5-2.9,5.7-6.1
				c0.9-4,0.7-8.1,0.6-12.2c0-5-0.1-10.1-0.2-15.1c0-1.7,0.5-2.4,2.2-2.8c9-2.4,8.9-2.5,8.9,6.6c-0.1,13.6,0,27.3-0.2,40.9
				c-0.1,8.5,2.5,15.6,9.8,20.4c2.4,1.6,3.3,4,2.6,6.7c-0.9,3.6-3.3,6-6.7,7.2c-1.8,0.7-3.7,0.6-5.7,0.3c-11.9-1.9-24-0.9-36-0.8
				c-5.1,0-9.4,4.8-9.6,10c-0.2,4.5-0.2,9,0,13.5c0.3,5.7,5.2,9.9,11.4,10c17.2,0,34.3,0,51.5,0c8.3,0,16.5,0,24.8,0
				c3.5,0,4.3,0.8,4.3,4.4c0,0.9,0,1.7,0,2.6c0,3.7-0.8,4.5-4.6,4.5c-24.8,0-49.6,0-74.4,0c-7.9,0-12.3,4.4-12.3,12.4
				c0,2.9-0.1,5.8,0,8.7c0,1.4-0.4,1.9-1.8,1.9C135.8,345.9,133.4,346,131.5,346z"/>
		</g>
	</g>
</g>
</svg>
