<?xml version="1.0" encoding="utf-8"?>

<svg version="1.1" id="Layer_1" xmlns="http://www.w3.org/2000/svg" xmlns:xlink="http://www.w3.org/1999/xlink" x="0px" y="0px"
	 viewBox="0 0 256 256" style="enable-background:new 0 0 256 256;" xml:space="preserve">
<style type="text/css">
	.st0{fill-rule:evenodd;clip-rule:evenodd;fill:url(#SVGID_1_);}
	.st1{fill:#FFFFFF;}
	.st2{fill-rule:evenodd;clip-rule:evenodd;fill:#FFFFFF;}
</style>
<g>
	<linearGradient id="SVGID_1_" gradientUnits="userSpaceOnUse" x1="17.1276" y1="63.9878" x2="238.8725" y2="192.0122">
		<stop  offset="0" style="stop-color:#E4729F"/>
		<stop  offset="1" style="stop-color:#78104D"/>
	</linearGradient>
	<path class="st0" d="M128,0c70.7,0,128,57.3,128,128s-57.3,128-128,128S0,198.7,0,128S57.3,0,128,0L128,0z"/>
	<path class="st1" d="M111.3,214.2l9.6-35c2.7-9.9,10.1-12,18.8-14.5c6-1.7,12.7-3.6,18-9.3c0.2,0.2,0.4,0.5,0.6,0.7
		c1.8,1.8,4.1,3,6.6,3.4c-6.7,8.4-15.4,10.8-23,13c-6.3,1.8-11.8,3.4-13.3,8.8l-9,32.9L111.3,214.2L111.3,214.2z M155.4,151.6h-48.1
		l-4.8,15c-2-1.5-4.6-2.5-7.3-2.5c-0.1,0-0.3,0-0.4,0l4-12.6H75c0.7-2.6,0.7-5.4,0-8.1h26.4l4.4-14c2.3,1.3,4.9,2.2,7.7,2.4
		l-3.7,11.5h43.9l-25.4-16.8c1.9-1.9,3.5-4.2,4.5-6.7l26.8,17.8c-0.5,0.4-0.9,0.7-1.4,1.2C154.9,142.2,153.8,147.2,155.4,151.6z
		 M106.3,171.4c0.4-0.1,5-0.9,5-0.9c2.9-0.6,5.5,2.1,4.7,5l-10.3,38.7h-8.4l8.7-32.5c0.8-1.7,1.3-3.5,1.3-5.5
		C107.3,174.5,107,172.9,106.3,171.4z M83.4,178.9c-9.2-2.2-16.9-7-22.7-14.6c2.9-0.3,5.6-1.4,7.9-3.1c4.3,4.9,9.6,8,15.9,9.7
		C83.1,173.3,82.8,176.1,83.4,178.9z M49.3,133.5c-1.1-10-0.1-20.1,3-29.7c2.1,1.7,4.6,2.9,7.4,3.5c-2.3,7.6-3.2,15.5-2.5,23.4
		C54.3,131,51.6,131.9,49.3,133.5z M72.4,72c11-10.5,24.7-17.8,39.6-21c-0.4,2.7,0,5.5,0.9,8.1c-12.7,2.9-24.6,9.1-34.2,18
		C77,75,74.8,73.2,72.4,72z M145.4,50.9c8,1.6,16.3,4.4,24.3,8.1c-1.9,1.9-3.3,4.3-4.2,6.9c-6.9-3.2-14-5.5-20.9-7
		C145.4,56.4,145.7,53.6,145.4,50.9z M199.5,81.6c3.7,4.5,6.7,9.4,8.9,14.7c-2.8-0.1-5.5,0.6-8,1.8c-1.7-3.8-3.9-7.3-6.5-10.6
		C196.3,86,198.2,84,199.5,81.6z M210.2,129.9c-4.9,14.4-17.7,19.9-31.8,21.3c0.4-1.2,0.6-2.4,0.6-3.7c0-1.5-0.3-3-0.8-4.4
		c10-1.1,19.5-4.4,23.8-14.3C204.5,129.9,207.4,130.2,210.2,129.9z M165.4,135.5c1.3-6,2.6-12.1,4-18.3h-35.7c0.6-2.6,0.6-5.4,0-8.1
		h37.5c1.5-6.6,3-13.2,4.4-19.8c2.5,1.1,5.1,1.6,7.9,1.6c-1.3,6-2.7,12.1-4,18.2h12.4c-0.3,1.3-0.5,2.6-0.5,4s0.2,2.7,0.5,4h-14.2
		c-1.5,6.7-3,13.4-4.4,20C170.9,135.7,168.2,135.1,165.4,135.5z M96.8,108.9l-17.9-8.5c1.6-2.1,2.8-4.6,3.5-7.3l17.9,8.5
		C98.6,103.8,97.4,106.2,96.8,108.9z M70,135.1l27.3-16c0.9,2.6,2.3,5,4.1,6.9l-26.9,15.8C73.6,139.3,72,136.9,70,135.1z
		 M115.5,94.3l2.1-8.9l-34.8,4.9c0-0.5,0.1-0.9,0.1-1.4c0-2.3-0.4-4.5-1.2-6.6l37.9-5.3l2-8.5c2.2,1,4.6,1.6,7.1,1.6
		c0.3,0,0.5,0,0.8,0l-1.4,5.8l36.3-5.1c-0.2,2.7,0.2,5.4,1.1,8l-39.4,5.6l-2.8,11.9C121,95,118.3,94.4,115.5,94.3z"/>
	<path class="st2" d="M166.8,140.8c3.7,0,6.7,3,6.7,6.7s-3,6.7-6.7,6.7s-6.7-3-6.7-6.7S163.1,140.8,166.8,140.8L166.8,140.8z
		 M95.2,169.5c3.7,0,6.7,3,6.7,6.7s-3,6.7-6.7,6.7s-6.7-3-6.7-6.7S91.5,169.5,95.2,169.5z M115.2,99.7c7.4,0,13.5,6,13.5,13.5
		c0,7.4-6,13.5-13.5,13.5c-7.4,0-13.5-6-13.5-13.5S107.8,99.7,115.2,99.7z M64,75.5c7.4,0,13.5,6,13.5,13.5c0,7.4-6,13.5-13.5,13.5
		c-7.4,0-13.5-6-13.5-13.5S56.6,75.5,64,75.5z M58.6,136c6.3,0,11.5,5.1,11.5,11.5c0,6.3-5.1,11.5-11.5,11.5
		c-6.3,0-11.5-5.1-11.5-11.5C47.2,141.2,52.3,136,58.6,136z M128.7,41.8c6.3,0,11.5,5.1,11.5,11.5c0,6.3-5.1,11.5-11.5,11.5
		c-6.3,0-11.5-5.1-11.5-11.5S122.4,41.8,128.7,41.8z M183.2,58.6c7.4,0,13.5,6,13.5,13.5c0,7.4-6,13.5-13.5,13.5
		c-7.4,0-13.5-6-13.5-13.5C169.8,64.6,175.8,58.6,183.2,58.6z M208.2,101.7c6.3,0,11.5,5.1,11.5,11.5c0,6.3-5.1,11.5-11.5,11.5
		c-6.3,0-11.4-5.1-11.4-11.5C196.7,106.9,201.8,101.7,208.2,101.7z"/>
</g>
</svg>
