<?xml version="1.0" encoding="utf-8"?>
<!-- Generator: Adobe Illustrator 24.1.0, SVG Export Plug-In . SVG Version: 6.00 Build 0)  -->
<svg version="1.1" id="Layer_1" xmlns="http://www.w3.org/2000/svg" xmlns:xlink="http://www.w3.org/1999/xlink" x="0px" y="0px"
	 viewBox="0 0 380 380" style="enable-background:new 0 0 380 380;" xml:space="preserve">
<style type="text/css">
	.st0{fill:#2B79C2;}
	.st1{fill:#3B4652;}
	.st2{fill-rule:evenodd;clip-rule:evenodd;fill:url(#SVGID_1_);}
	.st3{fill:#FFFFFF;}
</style>
<g>
	<path class="st0" d="M6076,3150.3h116v8h-116V3150.3L6076,3150.3z M6110.3,3088.1c-2.2-2.5-1.9-6.3,0.6-8.4
		c2.5-2.2,6.3-1.9,8.4,0.6l16.3,18.5l45.5-40.7c2.5-2.2,6.2-2,8.4,0.5c2.2,2.5,2,6.2-0.5,8.4l-49.8,44.5c-2.6,2.4-6.4,2.2-8.6-0.4
		L6110.3,3088.1L6110.3,3088.1z M6134,3060.4c10.5-10.6,25.6-12.3,37.7-4.4c-2,1.9-4.1,3.8-6.2,5.6c-10-5.2-21.2-2.2-28.4,7.3
		c-1.6,2.1-4.7,2.1-6.3,0c-15.2-19.9-40.9-6.9-40.9,13c0,7.4,5.3,15.9,12.5,23.9c9.4,10.3,22,19.3,31.5,24.1
		c9.5-4.7,22.1-13.8,31.5-24.1c5.1-5.5,9.1-11.3,11.2-16.8c3.1-2.6,6.2-5.3,9.3-8.1c0.7,23.2-32.9,48.9-50.3,57
		c-1.1,0.5-2.3,0.5-3.3,0l0,0c-17.1-8-50.3-33.5-50.3-56C6082,3055.7,6113.9,3039.8,6134,3060.4L6134,3060.4z M6076,3171.3h116v8
		h-116V3171.3L6076,3171.3z"/>
	<path class="st1" d="M6054.9,2997.3h26.1v12h-26.1c-2.2,0-4.2,0.9-5.6,2.4c-1.5,1.5-2.4,3.5-2.4,5.6v188c0,4.4,3.6,8,8,8H6213
		c4.4,0,8-3.6,8-8v-188c0-2.2-0.9-4.2-2.4-5.6c-1.5-1.5-3.5-2.4-5.6-2.4h-26v-12h26.1c5.5,0,10.5,2.2,14.1,5.9
		c3.6,3.6,5.9,8.6,5.9,14.1v188c0,11-9,20-20,20H6055c-11,0-20-9-20-20v-188c0-5.5,2.2-10.5,5.9-14.1
		C6044.4,2999.5,6049.4,2997.3,6054.9,2997.3L6054.9,2997.3z M6134,2969.3c5.8,0,11,0.4,14.8,4.2s6.2,9.1,6.2,14.8l0,0h24v30h-90
		v-30h24l0,0c0-5.8,2.4-11,6.2-14.8C6123,2969.6,6128.2,2969.3,6134,2969.3L6134,2969.3z M6140.4,2981.9c-1.6-1.6-3.9-2.6-6.4-2.6
		s-4.7,1-6.4,2.6s-2.6,3.9-2.6,6.4s1,4.7,2.6,6.4c1.5,1.5,3.6,2.5,5.9,2.6h0.9c2.3-0.1,4.4-1.1,5.9-2.6c1.6-1.6,2.6-3.9,2.6-6.4
		S6142,2983.6,6140.4,2981.9L6140.4,2981.9z"/>
</g>
<g>
	<linearGradient id="SVGID_1_" gradientUnits="userSpaceOnUse" x1="55.6497" y1="55.6497" x2="324.3503" y2="324.3503">
		<stop  offset="0" style="stop-color:#00D8FF"/>
		<stop  offset="1" style="stop-color:#367AD8"/>
	</linearGradient>
	<circle class="st2" cx="190" cy="190" r="190"/>
	<g>
		<path class="st3" d="M143.3,157.7c0.1,0.3,0.1,0.6,0.1,0.9c0.1,0.4,0.3,0.7,0.5,1c0.6,0.9,1.5,1.6,2.6,2.1
			c0.6,0.3,1.2,0.5,1.9,0.6c1.7,0.3,3.6,0.1,5.5-0.3c1.9-0.4,3.7-1.1,5.3-1.8c0.5-1.4,1.2-2.7,1.9-3.8c1-1.6,1.9-2.8,2.7-3.8
			c1.6-2,4.5-4.5,8.2-5.5c1.9-0.5,3.9-0.6,6.1-0.2c1.7-2.1,3.8-4.1,6.5-5.6c3.2-1.9,7.2-3.1,12.4-3.3c2-3.4,5.7-6.6,10.5-8.5
			c4.7-1.9,10.6-2.5,16.9-0.9c2.1,0.6,3.4,2.7,2.8,4.9c-0.6,2.1-2.7,3.4-4.9,2.8c-4.5-1.2-8.6-0.7-11.9,0.6c-3.8,1.5-6.4,4-7.1,6.2
			l0,0c-0.5,1.7-2.1,2.8-3.9,2.8c-4.9-0.1-8.3,0.8-10.9,2.3c-2.4,1.4-4.1,3.4-5.5,5.5c-1,1.9-3.4,2.6-5.3,1.6
			c-1.4-0.7-2.6-0.8-3.7-0.5c-1.8,0.5-3.3,1.9-4.2,3c-0.7,0.8-1.4,1.8-2,2.8c-0.5,0.8-0.9,1.7-1.3,2.7l0.2,0.9
			c0.5,2.4,0.9,4.2,2.1,5.6c1.6,1.7,3.8,3,6.5,3.8c2.8,0.9,6.2,1.2,9.8,1c1-0.1,2.2-1.1,3.9-2.7l0.1-0.1c1.6-1.5,4.2-1.4,5.6,0.3
			c0.4,0.5,0.7,1,0.9,1.5c0.5,1.4,1,2.1,1.7,2.3c1,0.3,2.6-0.1,4.6-0.9c1.4-0.6,3-0.3,4.1,0.7c3.1,2.5,8.6,7.5,14,13.4
			c1.1,1.2,2.2,2.5,3.3,3.8c0.1-0.8,0.2-1.5,0.3-2.2s0.2-1.4,0.3-2c-0.3,0-0.6-0.1-1-0.1c-2.2-0.3-3.7-2.4-3.3-4.6
			c0.3-2.2,2.4-3.7,4.6-3.3c1.1,0.2,2.2,0.3,3.3,0.2c0.1,0,0.1,0,0.2,0c2.1-0.1,4.1-0.5,6.1-1.2c3.3-1.3,6.4-3.4,9.1-6.3
			c1.4-1.4,2.7-4,3.4-6.6c0.5-1.9,0.7-3.6,0.4-4.2l0,0v-0.1l-0.1-0.1c-0.8-1.2-2-2.1-3.4-2.6c-0.1,0-0.2-0.1-0.4-0.1
			c-2.7-0.8-6.4-0.7-10.3,0.1c-7.5,1.4-15.6,4.9-21.3,8.2c-0.1,0-0.1,0.1-0.2,0.1l-0.2,0.1c-1.9,1.1-4.3,0.5-5.5-1.4
			c-1.1-1.9-0.5-4.3,1.4-5.5l0.2-0.1c0.1,0,0.1-0.1,0.2-0.1c6.3-3.7,15.4-7.6,23.8-9.1c4.6-0.9,9-1,12.8-0.2c2.7-1.4,4.9-2.9,6-4.9
			c1.2-2.1,1.2-5.1-0.5-9.3c-0.5-1.3-1.2-2.3-1.9-3c-0.6-0.6-1.3-1-2-1.1c-1.5-0.3-2.8-1.5-3.1-3.1c-1.5-7.2-5.3-10.4-9-13.5
			c-0.3-0.3-0.7-0.6-1.2-1.1c-7.2-6.2-16.3-8.5-25.5-10.9c-1.8-0.5-3.6-0.9-5.3-1.4c-6.3-1.7-11.9-2-16.6-1.3
			c-5.4,0.8-9.8,2.8-13,5.4l0,0c-0.6,0.4-1.3,0.7-2,0.8c-5.9,0.7-11.4,2-15.8,4.5c-4.1,2.4-7.4,5.9-9.2,11.2
			c-0.3,1.1-1.2,2.1-2.4,2.6c-1.9,0.7-3.6,2.6-5,5.1c-1.3,2.4-2.2,5.3-2.5,8.2s0,5.9,1,8.5c0.4,1,0.9,2,1.6,2.9c1.1-1.3,3-1.8,4.7-1
			c2,0.9,2.9,3.3,2,5.3c-0.2,0.4-0.3,0.9-0.4,1.3C143.3,157.2,143.3,157.5,143.3,157.7L143.3,157.7z M135.9,161.2
			c-3.8-2.6-6.3-6-7.8-9.9s-1.9-8.1-1.4-12.2c0.4-4,1.7-8,3.5-11.2c1.9-3.4,4.4-6.2,7.4-7.9c2.6-6.5,6.9-11,12.2-14.1
			c5.2-3,11.3-4.6,17.8-5.4c4.1-3,9.5-5.4,15.9-6.3c5.7-0.8,12.3-0.5,19.8,1.5c1.8,0.5,3.5,0.9,5.2,1.4c10.2,2.6,20.2,5.2,28.8,12.6
			c0.2,0.2,0.7,0.6,1.2,1c4.3,3.7,8.8,7.5,11.1,15.8c1.2,0.6,2.3,1.4,3.4,2.4c1.5,1.5,2.8,3.4,3.8,5.8c2.7,6.8,2.4,12,0,16.2
			c-1.2,2.1-2.9,3.9-4.9,5.4c0.6,0.6,1.1,1.3,1.6,2.1c0.1,0.1,0.1,0.2,0.2,0.2v0.1l0,0l0,0c1.6,2.7,1.5,6.6,0.4,10.4
			c-1,3.8-3.1,7.7-5.3,10c-3.6,3.7-7.6,6.5-12.1,8.2c-1.5,0.6-3.1,1-4.7,1.3c-0.1,1.1-0.3,2.3-0.5,3.5c-0.4,2.8-1,6.2-0.1,12.1
			c1.1,4,1.4,8.2,1.1,12.5c-0.3,4.2-1,8.5-2,12.6c-2.7,11.4-4.8,23.5-4.8,34.9c0.1,11.1,2.2,21.7,7.9,30.3c1.2,1.8,0.7,4.3-1.1,5.5
			s-4.3,0.7-5.5-1.1c-6.7-10.1-9.2-22.2-9.3-34.7c-0.1-12.3,2.2-25,5-36.8c0.9-3.8,1.6-7.6,1.8-11.3c0.2-3.3,0-6.5-0.8-9.5
			c-2.6-4-6.1-8.2-9.7-12.1c-4.3-4.7-8.6-8.8-11.5-11.3c-2.6,0.8-5.1,1-7.4,0.3c-1.7-0.5-3.2-1.4-4.5-2.7c-1.4,0.9-3,1.5-5,1.7
			c-4.7,0.3-9-0.2-12.7-1.3c-4-1.3-7.4-3.3-10-6c-2-2.1-2.9-4.2-3.5-6.5c-1.3,0.5-2.7,0.9-4.1,1.2c-2.8,0.6-5.7,0.8-8.4,0.4
			c-1.4-0.2-2.7-0.6-3.9-1.2c-2.5-1.1-4.6-2.9-6-5.1C136.7,163,136.2,162.2,135.9,161.2L135.9,161.2z"/>
		<path class="st3" d="M282.3,303.9c1.6,2.9,0.6,6.6-2.3,8.3c-2.9,1.6-6.6,0.6-8.3-2.3c-0.8-1.5-1.8-3.1-3-5
			c-8.5-13.8-26.5-43-22.6-64.4c2.7-14.7,8.8-25.8,15.1-37.3c8-14.7,16.3-29.8,16.3-53.2c0-22.1-9-40.6-23.6-53.8
			c-15.4-13.9-36.9-21.9-60.8-21.9c-5.1,0-10.1,0.5-15,1.4c-19.3,3.7-37.3,14.2-50.5,28c-13,13.6-21.2,30.3-21.2,46.7
			c0,3,0.3,6,0.8,8.9c1.3,6.9-6.7,20.4-15.2,34.6c-3.2,5.3-6.4,10.8-9.3,16.1c-0.1,0.1-0.1,0.2-0.1,0.4c0,0.1,0,0.2,0,0.3
			c0.1,0.2,0.3,0.4,0.7,0.6c0.2,0.1,0.4,0.2,0.7,0.3c2.7,0.8,7.5,1.7,11.4,2.5c1.7,0.3,3.3,0.6,4.4,0.9c3.3,0.7,5.4,3.9,4.7,7.2
			c-0.1,0.4-0.2,0.7-0.3,1c-0.3,1-0.7,2-1,3c-0.6,2-1.3,4-2.1,6.2c0.6,0.1,1.3,0.3,2,0.4c2.9,0.6,5.9,1.1,7.9,1.1
			c3.4,0.1,6,2.9,5.9,6.2c-0.1,3.4-2.9,6-6.2,5.9c-2,0-4.4-0.3-6.9-0.8c5.5,4.3,3.9,9.7,2.1,16.3c-0.9,3-1.8,6.4-0.7,9.7
			c4.1,6.3,25.3,9.1,39.4,11.1c2.2,0.3,4.3,0.6,5,0.7c7.2,1,12.2,3,16.7,7.5c4,4,7.2,9.8,11.3,19c1.4,3.1,0,6.7-3.1,8
			c-3.1,1.4-6.7,0-8-3.1c-3.5-7.8-6.1-12.6-8.8-15.4c-2.3-2.3-5.2-3.3-9.8-4c-2.3-0.3-3.6-0.5-4.9-0.7c-16.7-2.3-41.7-5.6-48.5-17.1
			l0,0c-0.1-0.2-0.2-0.4-0.3-0.7c-3.2-7.4-1.5-13.3-0.1-18.3c0.7-2.4,1.2-4.2-2.5-5.4c-3.2-1-5-4.4-4-7.6c0.5-1.5,1.5-2.7,2.7-3.4
			c-0.1,0-0.2-0.1-0.2-0.1c-3-1.5-4.2-5.1-2.8-8.1c1.6-3.2,2.6-5.8,3.4-8.1c-3.6-0.7-7.5-1.5-10-2.2c-1.1-0.3-2.1-0.7-3.1-1.3
			c-2.6-1.4-4.6-3.5-5.8-6.1c-1.3-2.7-1.6-5.8-0.7-8.9c0.3-0.9,0.7-1.9,1.2-2.8c2.8-5.1,6.2-10.8,9.6-16.5
			c7.2-12.2,14.1-23.7,13.7-26.1c-0.7-3.7-1.1-7.5-1.1-11.2c0-19.6,9.5-39.3,24.6-55.1c14.8-15.6,35.2-27.4,57-31.6
			c5.7-1.1,11.5-1.7,17.3-1.7c26.9,0,51.4,9.2,69,25.1c17.1,15.5,27.7,37.2,27.7,62.8c0,26.4-9,43-17.8,59
			c-5.8,10.6-11.4,20.9-13.8,33.6c-3.1,16.8,13.2,43.3,21,55.8C280.5,300.8,281.7,302.8,282.3,303.9L282.3,303.9z"/>
	</g>
</g>
</svg>
