<?xml version="1.0" encoding="utf-8"?>
<!-- Generator: Adobe Illustrator 24.1.0, SVG Export Plug-In . SVG Version: 6.00 Build 0)  -->
<svg version="1.1" id="Layer_1" xmlns="http://www.w3.org/2000/svg" xmlns:xlink="http://www.w3.org/1999/xlink" x="0px" y="0px"
	 viewBox="0 0 380 380" style="enable-background:new 0 0 380 380;" xml:space="preserve">
<style type="text/css">
	.st0{fill-rule:evenodd;clip-rule:evenodd;fill:url(#SVGID_1_);}
	.st1{fill:#FFFFFF;}
</style>
<linearGradient id="SVGID_1_" gradientUnits="userSpaceOnUse" x1="25.4277" y1="-1768.984" x2="354.5723" y2="-1959.0157" gradientTransform="matrix(1 0 0 -1 0 -1673.9999)">
	<stop  offset="0" style="stop-color:#E4729F"/>
	<stop  offset="1" style="stop-color:#78104D"/>
</linearGradient>
<circle class="st0" cx="190" cy="190" r="190"/>
<g>
	<path class="st1" d="M172.7,98.9c1.3,1.4,2.9,3.2,4.6,5c-4,4-8.3,8.2-12.5,12.5c15.9,15.9,31.6,31.6,47.2,47.2
		c-16.3,16.3-32.2,32.2-48.1,48.1c-6.6-6.6-13.5-13.6-20.5-20.5c5.9-5.8,11.8-11.8,17.8-17.7c-2-2-3.7-3.7-5.4-5.4
		c-5.9,5.9-11.9,11.8-17.8,17.8c-7.1-7.1-14-14.1-21-21.1c-4.6,4.6-8.8,8.9-13.1,13.3c-2-2.1-3.6-3.8-5-5.2
		C123.3,148.2,148,123.6,172.7,98.9z"/>
	<path class="st1" d="M217.6,170.1c16.5,16.5,33.1,33.1,49.4,49.4c-15.8,15.8-31.8,31.8-47.6,47.6c-7.5-7.5-15.3-15.3-23.2-23.2
		c5.8-5.8,11.8-11.7,17.9-17.8c-2.1-1.8-4-3.4-5.8-5c-5.6,5.6-11.5,11.5-17.3,17.3c-7.1-7.2-14.1-14.1-20.9-21
		C185.8,201.9,201.7,186,217.6,170.1z"/>
	<path class="st1" d="M80,131.1c17-17,34-34,51.1-51c1.5,1.5,3.2,3.2,4.9,4.9c-5.4,5.4-10.9,10.7-16.4,16.1
		c6.8,6.7,13.1,13.1,19.4,19.3c-6.3,6.3-12.4,12.3-18.4,18.3c-6.1-6.1-12.5-12.5-19-19c-5.7,5.7-11,11.1-16.5,16.6
		C83.2,134.5,81.6,132.8,80,131.1z"/>
	<path class="st1" d="M269.3,229.8c1.4,8.6,2.5,17.5,4.3,26.3c1,4.5-0.1,7.4-3.5,10.1c-2.6,2.1-4.8,4.8-7.3,7.1
		c-0.6,0.6-1.7,1-2.4,0.9c-10.4-1.6-20.7-3.2-30.8-4.8C242.8,256.3,256.1,243.1,269.3,229.8z"/>
	<path class="st1" d="M300,295.4c-1.5,1.5-3.2,3.1-4.7,4.5c-7.9-7.9-15.9-15.9-24-24c1.4-1.4,3.2-3,4.7-4.5
		C283.9,279.3,291.9,287.3,300,295.4z"/>
</g>
</svg>
