<?xml version="1.0" encoding="utf-8"?>
<!-- Generator: Adobe Illustrator 24.1.0, SVG Export Plug-In . SVG Version: 6.00 Build 0)  -->
<svg version="1.1" id="Layer_1" xmlns="http://www.w3.org/2000/svg" xmlns:xlink="http://www.w3.org/1999/xlink" x="0px" y="0px"
	 viewBox="0 0 380 380" style="enable-background:new 0 0 380 380;" xml:space="preserve">
<style type="text/css">
	.st0{fill:#2B79C2;}
	.st1{fill:#3B4652;}
	.st2{fill-rule:evenodd;clip-rule:evenodd;fill:url(#SVGID_1_);}
	.st3{fill:#FFFFFF;}
</style>
<g>
	<path class="st0" d="M6076,3150.3h116v8h-116V3150.3L6076,3150.3z M6110.3,3088.1c-2.2-2.5-1.9-6.3,0.6-8.4
		c2.5-2.2,6.3-1.9,8.4,0.6l16.3,18.5l45.5-40.7c2.5-2.2,6.2-2,8.4,0.5c2.2,2.5,2,6.2-0.5,8.4l-49.8,44.5c-2.6,2.4-6.4,2.2-8.6-0.4
		L6110.3,3088.1L6110.3,3088.1z M6134,3060.4c10.5-10.6,25.6-12.3,37.7-4.4c-2,1.9-4.1,3.8-6.2,5.6c-10-5.2-21.2-2.2-28.4,7.3
		c-1.6,2.1-4.7,2.1-6.3,0c-15.2-19.9-40.9-6.9-40.9,13c0,7.4,5.3,15.9,12.5,23.9c9.4,10.3,22,19.3,31.5,24.1
		c9.5-4.7,22.1-13.8,31.5-24.1c5.1-5.5,9.1-11.3,11.2-16.8c3.1-2.6,6.2-5.3,9.3-8.1c0.7,23.2-32.9,48.9-50.3,57
		c-1.1,0.5-2.3,0.5-3.3,0l0,0c-17.1-8-50.3-33.5-50.3-56C6082,3055.7,6113.9,3039.8,6134,3060.4L6134,3060.4z M6076,3171.3h116v8
		h-116V3171.3L6076,3171.3z"/>
	<path class="st1" d="M6054.9,2997.3h26.1v12h-26.1c-2.2,0-4.2,0.9-5.6,2.4c-1.5,1.5-2.4,3.5-2.4,5.6v188c0,4.4,3.6,8,8,8H6213
		c4.4,0,8-3.6,8-8v-188c0-2.2-0.9-4.2-2.4-5.6c-1.5-1.5-3.5-2.4-5.6-2.4h-26v-12h26.1c5.5,0,10.5,2.2,14.1,5.9
		c3.6,3.6,5.9,8.6,5.9,14.1v188c0,11-9,20-20,20H6055c-11,0-20-9-20-20v-188c0-5.5,2.2-10.5,5.9-14.1
		C6044.4,2999.5,6049.4,2997.3,6054.9,2997.3L6054.9,2997.3z M6134,2969.3c5.8,0,11,0.4,14.8,4.2s6.2,9.1,6.2,14.8l0,0h24v30h-90
		v-30h24l0,0c0-5.8,2.4-11,6.2-14.8C6123,2969.6,6128.2,2969.3,6134,2969.3L6134,2969.3z M6140.4,2981.9c-1.6-1.6-3.9-2.6-6.4-2.6
		s-4.7,1-6.4,2.6s-2.6,3.9-2.6,6.4s1,4.7,2.6,6.4c1.5,1.5,3.6,2.5,5.9,2.6h0.9c2.3-0.1,4.4-1.1,5.9-2.6c1.6-1.6,2.6-3.9,2.6-6.4
		S6142,2983.6,6140.4,2981.9L6140.4,2981.9z"/>
</g>
<g>
	
		<linearGradient id="SVGID_1_" gradientUnits="userSpaceOnUse" x1="94.9841" y1="27.4277" x2="285.0159" y2="356.5723" gradientTransform="matrix(1 0 0 -1 0 382)">
		<stop  offset="0" style="stop-color:#334257"/>
		<stop  offset="1" style="stop-color:#476072"/>
	</linearGradient>
	<circle class="st2" cx="190" cy="190" r="190"/>
</g>
<g>
	<g>
		<path class="st3" d="M62.8,204.5c-2.7,0-5.5-1.2-7.4-3.4c-3.5-4.1-3-10.2,1.1-13.6L184.1,79.2c3.6-3.1,8.9-3.1,12.5,0l126.8,108.2
			c4.1,3.5,4.5,9.6,1.1,13.6c-3.5,4.1-9.6,4.5-13.6,1.1L190.3,99.3L69.1,202.2C67.2,203.8,65,204.5,62.8,204.5z"/>
	</g>
	<g>
		<path class="st3" d="M287.1,303.1h-12.2v-98.2L190,133.3l-84.9,70.9v98.9H92.9V201.3c0-1.8,0.8-3.5,2.2-4.7l91-76
			c2.3-1.9,5.6-1.9,7.8,0l91,76.7c1.4,1.2,2.2,2.9,2.2,4.7V303.1z"/>
	</g>
	<g>
		<path class="st3" d="M165.5,235.7h2.3v7.5c0,3.5,0.7,7,2,10.2c0.5-0.1,1-0.1,1.6-0.1h1.5c-1.4-3.1-2.2-6.6-2.2-10v-7.5h2.4
			c0.8,0,1.4-0.6,1.4-1.4v-11.6c0-0.8-0.6-1.4-1.4-1.4h-2.4v-2.2c0-0.3,0.3-0.6,0.6-0.6h5.5v34.7h4.3v-44.4c0-1.2-1-2.2-2.2-2.2
			c-1.2,0-2.2,1-2.2,2.2v6.7h-5.5c-1.9,0-3.4,1.5-3.4,3.4v2.2h-2.3c-0.8,0-1.4,0.6-1.4,1.4v11.6C164.1,235,164.7,235.7,165.5,235.7
			L165.5,235.7z"/>
		<path class="st3" d="M245.9,229.9c-2.7,0-4.8,2.1-4.8,4.8c0,1.5,0,36.1,0.1,44.6c0,1.6-1.3,2.9-2.9,2.9H165
			c-1.6,0-2.9-1.3-2.9-2.9v-4.7c-1.3-0.4-2.5-1.1-3.4-2.1H156c0.8-1.9-0.1-4.1-2-4.9l-5.5-2.4c0.7,0.2,1.4,0.3,2.1,0.3
			c5,0,9.1-4.1,9.1-9.1c0-5-4.1-9.1-9.1-9.1s-9.1,4.1-9.1,9.1c0,3.1,1.6,5.9,4,7.5l-6.6-2.9v-26.3c0-2.7-2.1-4.8-4.8-4.8
			s-4.8,2.1-4.8,4.8v63.6c0,2.7,2.1,4.8,4.8,4.8s4.8-2.1,4.8-4.8v-8.7h102.3v8.7c0,2.7,2.1,4.8,4.8,4.8c2.7,0,4.8-2.1,4.8-4.8v-63.6
			C250.7,232,248.6,229.9,245.9,229.9L245.9,229.9z"/>
		<path class="st3" d="M165.3,260.5h34.2c4,0,7.2,3.2,7.2,7.2s-3.2,7.2-7.2,7.2H165v4.4h73.3v-16.8c0-3.5-2.8-6.4-6.4-6.4h-60.6
			C168.5,256.1,166.1,258,165.3,260.5L165.3,260.5z"/>
		<path class="st3" d="M164.1,272.2h35.5c2.5,0,4.5-2,4.5-4.5s-2-4.5-4.5-4.5h-35.5c-2.5,0-4.5,2-4.5,4.5
			C159.5,270.2,161.6,272.2,164.1,272.2L164.1,272.2z"/>
	</g>
</g>
</svg>
