<?xml version="1.0" encoding="utf-8"?>
<!-- Generator: Adobe Illustrator 24.1.0, SVG Export Plug-In . SVG Version: 6.00 Build 0)  -->
<svg version="1.1" id="Capa_1" xmlns="http://www.w3.org/2000/svg" xmlns:xlink="http://www.w3.org/1999/xlink" x="0px" y="0px"
	 viewBox="0 0 380 380" style="enable-background:new 0 0 380 380;" xml:space="preserve">
<style type="text/css">
	.st0{fill-rule:evenodd;clip-rule:evenodd;fill:url(#SVGID_1_);}
	.st1{fill:#FFFFFF;}
</style>
<g>
	
		<linearGradient id="SVGID_1_" gradientUnits="userSpaceOnUse" x1="25.4277" y1="-4413.9844" x2="354.5723" y2="-4604.0161" gradientTransform="matrix(1 0 0 -1 0 -4319)">
		<stop  offset="0" style="stop-color:#00D8FF"/>
		<stop  offset="1" style="stop-color:#367AD8"/>
	</linearGradient>
	<circle class="st0" cx="190" cy="190" r="190"/>
</g>
<g>
	<path class="st1" d="M189.6,160.5h8.9c3.7,0,6.7-3,6.7-6.7s-3-6.7-6.7-6.7h-8.9c-3.7,0-6.7,3-6.7,6.7S185.8,160.5,189.6,160.5
		L189.6,160.5z"/>
	<path class="st1" d="M162.7,147.1H109c-3.7,0-6.7,3-6.7,6.7s3,6.7,6.7,6.7h53.7c3.7,0,6.7-3,6.7-6.7S166.4,147.1,162.7,147.1z"/>
	<path class="st1" d="M189.6,187.3h8.9c3.7,0,6.7-3,6.7-6.7c0-3.7-3-6.7-6.7-6.7h-8.9c-3.7,0-6.7,3-6.7,6.7
		C182.8,184.3,185.8,187.3,189.6,187.3L189.6,187.3z"/>
	<path class="st1" d="M162.7,173.9H109c-3.7,0-6.7,3-6.7,6.7c0,3.7,3,6.7,6.7,6.7h53.7c3.7,0,6.7-3,6.7-6.7
		C169.4,176.9,166.4,173.9,162.7,173.9z"/>
	<path class="st1" d="M162.7,200.7H109c-3.7,0-6.7,3-6.7,6.7s3,6.7,6.7,6.7h53.7c3.7,0,6.7-3,6.7-6.7S166.4,200.7,162.7,200.7z"/>
	<path class="st1" d="M162.7,227.6H109c-3.7,0-6.7,3-6.7,6.7c0,3.7,3,6.7,6.7,6.7h53.7c3.7,0,6.7-3,6.7-6.7
		C169.4,230.6,166.4,227.6,162.7,227.6z"/>
	<path class="st1" d="M162.7,254.4H109c-3.7,0-6.7,3-6.7,6.7c0,3.7,3,6.7,6.7,6.7h53.7c3.7,0,6.7-3,6.7-6.7
		C169.4,257.4,166.4,254.4,162.7,254.4z"/>
	<path class="st1" d="M283.9,201.9c-1.2-0.7-2.5-1.3-3.8-1.9c4.3-6.3,6.8-13.8,6.8-22v-5.5c0-3.7-3-6.7-6.7-6.7h-5.5
		c-13.5,0-25.4,6.9-32.4,17.3c-2.6-2.9-5.8-5.4-9.5-7c-0.2-0.1-0.5-0.2-0.7-0.3v-62.3c0-3.7-3-6.7-6.7-6.7h-30.7
		c-3.9-5.6-9.6-9.9-16.2-12.1V82.2c0-3.7-3-6.7-6.7-6.7h-35.8c-3.7,0-6.7,3-6.7,6.7v12.5c-6.6,2.2-12.3,6.4-16.2,12.1H82.2
		c-3.7,0-6.7,3-6.7,6.7v184.3c0,3.7,3,6.7,6.7,6.7h146.3c4.3,0,8.7-1.4,12.3-4.3l1.6-1.2l1.6,1.3c7.5,6,18.2,5.7,25.3-0.7l3.1-2.8
		c16.1-14.4,27.1-33.1,31.8-54.2c0-0.2,0.1-0.4,0.1-0.7C306.1,225.7,298.2,210,283.9,201.9L283.9,201.9z M273.4,179.3
		c-0.6,13.2-11.2,23.7-24.4,24.4C249.7,190.5,260.3,179.9,273.4,179.3z M232,191.9c1.9,2.2,3.2,4.9,3.5,7.9
		c-1.2-0.4-2.3-0.8-3.5-1.2V191.9z M136.7,106.8c3.4-0.4,5.9-3.3,5.9-6.7V88.9H165v11.2c0,3.4,2.5,6.2,5.9,6.7
		c6.7,0.8,12.2,5.2,14.7,11.2H122C124.5,111.9,130.1,107.6,136.7,106.8z M88.9,291.1V120.2h18.7l-0.6,3.2c-0.4,2,0.1,4,1.4,5.6
		c1.3,1.6,3.2,2.5,5.2,2.5H194c2,0,3.9-0.9,5.2-2.5c1.3-1.6,1.8-3.6,1.4-5.6l-0.6-3.2h18.7v76.7c-6.3,0.2-12.5,1.9-17.9,5.1
		c-14.2,8.1-22.1,23.8-20.2,39.9c0,0.2,0.1,0.4,0.1,0.7c4.1,18.4,13,35,25.9,48.5L88.9,291.1L88.9,291.1z M290.9,240
		c-4.1,18.2-13.6,34.3-27.5,46.7l-3.1,2.8c-2.3,2-5.6,2.1-8,0.2l-1.7-1.4c-4.9-3.9-11.6-3.9-16.5,0l-1.7,1.4c-2.4,1.9-5.8,1.8-8-0.2
		l-3.1-2.8c-13.9-12.4-23.4-28.6-27.5-46.7c-1.1-10.7,4.2-21,13.6-26.4c7.7-4.4,17.9-4.4,26.7,0.1c3.1,1.6,5.3,2.7,5.3,2.7l0,0
		c0.9,0.5,1.9,0.7,3,0.7h5.5c7.8,0,15.2-2.3,21.3-6.3c3,0.5,5.7,1.4,8.2,2.8C286.7,219,292.1,229.3,290.9,240z"/>
</g>
</svg>
