<?xml version="1.0" encoding="utf-8"?>

<svg version="1.1" id="Layer_1" xmlns="http://www.w3.org/2000/svg" xmlns:xlink="http://www.w3.org/1999/xlink" x="0px" y="0px"
	 viewBox="0 0 380 380" style="enable-background:new 0 0 380 380;" xml:space="preserve">
<style type="text/css">
	.st0{fill:#2B79C2;}
	.st1{fill:#3B4652;}
	.st2{fill-rule:evenodd;clip-rule:evenodd;fill:url(#SVGID_1_);}
	.st3{fill:#FFFFFF;}
</style>
<g>
	<path class="st0" d="M6076,3150.3h116v8h-116V3150.3L6076,3150.3z M6110.3,3088.1c-2.2-2.5-1.9-6.3,0.6-8.4
		c2.5-2.2,6.3-1.9,8.4,0.6l16.3,18.5l45.5-40.7c2.5-2.2,6.2-2,8.4,0.5c2.2,2.5,2,6.2-0.5,8.4l-49.8,44.5c-2.6,2.4-6.4,2.2-8.6-0.4
		L6110.3,3088.1L6110.3,3088.1z M6134,3060.4c10.5-10.6,25.6-12.3,37.7-4.4c-2,1.9-4.1,3.8-6.2,5.6c-10-5.2-21.2-2.2-28.4,7.3
		c-1.6,2.1-4.7,2.1-6.3,0c-15.2-19.9-40.9-6.9-40.9,13c0,7.4,5.3,15.9,12.5,23.9c9.4,10.3,22,19.3,31.5,24.1
		c9.5-4.7,22.1-13.8,31.5-24.1c5.1-5.5,9.1-11.3,11.2-16.8c3.1-2.6,6.2-5.3,9.3-8.1c0.7,23.2-32.9,48.9-50.3,57
		c-1.1,0.5-2.3,0.5-3.3,0l0,0c-17.1-8-50.3-33.5-50.3-56C6082,3055.7,6113.9,3039.8,6134,3060.4L6134,3060.4z M6076,3171.3h116v8
		h-116V3171.3L6076,3171.3z"/>
	<path class="st1" d="M6054.9,2997.3h26.1v12h-26.1c-2.2,0-4.2,0.9-5.6,2.4c-1.5,1.5-2.4,3.5-2.4,5.6v188c0,4.4,3.6,8,8,8H6213
		c4.4,0,8-3.6,8-8v-188c0-2.2-0.9-4.2-2.4-5.6c-1.5-1.5-3.5-2.4-5.6-2.4h-26v-12h26.1c5.5,0,10.5,2.2,14.1,5.9
		c3.6,3.6,5.9,8.6,5.9,14.1v188c0,11-9,20-20,20H6055c-11,0-20-9-20-20v-188c0-5.5,2.2-10.5,5.9-14.1
		C6044.4,2999.5,6049.4,2997.3,6054.9,2997.3L6054.9,2997.3z M6134,2969.3c5.8,0,11,0.4,14.8,4.2s6.2,9.1,6.2,14.8l0,0h24v30h-90
		v-30h24l0,0c0-5.8,2.4-11,6.2-14.8C6123,2969.6,6128.2,2969.3,6134,2969.3L6134,2969.3z M6140.4,2981.9c-1.6-1.6-3.9-2.6-6.4-2.6
		s-4.7,1-6.4,2.6s-2.6,3.9-2.6,6.4s1,4.7,2.6,6.4c1.5,1.5,3.6,2.5,5.9,2.6h0.9c2.3-0.1,4.4-1.1,5.9-2.6c1.6-1.6,2.6-3.9,2.6-6.4
		S6142,2983.6,6140.4,2981.9L6140.4,2981.9z"/>
</g>
<g>
	<linearGradient id="SVGID_1_" gradientUnits="userSpaceOnUse" x1="55.6497" y1="55.6497" x2="324.3503" y2="324.3503">
		<stop  offset="0" style="stop-color:#00D8FF"/>
		<stop  offset="1" style="stop-color:#367AD8"/>
	</linearGradient>
	<circle class="st2" cx="190" cy="190" r="190"/>
	<g>
		<path class="st3" d="M287,185.1c2.3,2.5,2,6.3-0.5,8.6c-2.5,2.2-6.3,2-8.6-0.5c-16.9-18.7-33-32.4-48.7-40.8
			C239,162,245,175.3,245,190c0,29.2-23.7,52.9-52.9,52.9s-52.9-23.7-52.9-52.9c0-1.7,0.1-3.4,0.2-5c0.1-0.9,0.8-1.7,1.7-1.8
			s1.8,0.3,2.2,1.2c3.8,8.6,12.4,14.6,22.4,14.6c13.5,0,24.5-11,24.5-24.5S179.3,150,165.7,150c-2.7,0-5.3,0.4-7.8,1.3
			c-16.5,8.3-33.8,22.5-52.1,42.9c-2.2,2.5-6.1,2.7-8.6,0.4c-2.5-2.2-2.7-6.1-0.4-8.6c34.3-38,65.5-56.1,96.6-55.8
			C224.6,130.6,254.8,149.3,287,185.1L287,185.1z"/>
		<path class="st3" d="M297.7,214.5c-36.1,37.8-70.4,57.3-105.1,57.7c-34.1,0.3-67.9-17.8-103.4-55.3c-4.9,3.3-10,3.9-14.4,2.6
			c-5.8-1.7-10.1-6.4-11.8-12.1c-2-6.4-0.9-14.6,5-22c5.2-6.5,11.1-13.1,16.8-19.1c37.6-40.1,74.1-59.6,110.9-58.4
			c40,1.3,79.7,27.1,121,77.4c2.1,2.6,1.8,6.4-0.8,8.5c-2.6,2.1-6.4,1.8-8.5-0.8c-39-47.5-75.7-71.8-112-73
			c-33.1-1.1-66.6,17.2-101.8,54.7c-5.4,5.7-11.1,12.1-16.1,18.3c-3.2,3.9-3.8,7.9-2.9,10.9c0.5,1.7,1.7,3.4,3.5,3.9
			c1.5,0.4,3.5-0.1,5.7-2c2.1-1.9,4.4-2.4,6.5-2.2c2.6,0.2,4.6,1.6,5.9,3c33.8,36.2,65.2,53.8,96.3,53.5c29-0.3,58.1-16.3,89.4-46.8
			C286.5,208.8,304.3,207.5,297.7,214.5L297.7,214.5z"/>
	</g>
</g>
</svg>
