<?xml version="1.0" encoding="utf-8"?>

<svg version="1.1" id="Layer_1" xmlns="http://www.w3.org/2000/svg" xmlns:xlink="http://www.w3.org/1999/xlink" x="0px" y="0px"
	 viewBox="0 0 380 380" style="enable-background:new 0 0 380 380;" xml:space="preserve">
<style type="text/css">
	.st0{fill:#2B79C2;}
	.st1{fill:#3B4652;}
	.st2{fill-rule:evenodd;clip-rule:evenodd;fill:url(#SVGID_1_);}
	.st3{fill:#FFFFFF;}
	.st4{fill-rule:evenodd;clip-rule:evenodd;fill:#FFFFFF;}
</style>
<g>
	<path class="st0" d="M6076,3150.3h116v8h-116V3150.3L6076,3150.3z M6110.3,3088.1c-2.2-2.5-1.9-6.3,0.6-8.4
		c2.5-2.2,6.3-1.9,8.4,0.6l16.3,18.5l45.5-40.7c2.5-2.2,6.2-2,8.4,0.5c2.2,2.5,2,6.2-0.5,8.4l-49.8,44.5c-2.6,2.4-6.4,2.2-8.6-0.4
		L6110.3,3088.1L6110.3,3088.1z M6134,3060.4c10.5-10.6,25.6-12.3,37.7-4.4c-2,1.9-4.1,3.8-6.2,5.6c-10-5.2-21.2-2.2-28.4,7.3
		c-1.6,2.1-4.7,2.1-6.3,0c-15.2-19.9-40.9-6.9-40.9,13c0,7.4,5.3,15.9,12.5,23.9c9.4,10.3,22,19.3,31.5,24.1
		c9.5-4.7,22.1-13.8,31.5-24.1c5.1-5.5,9.1-11.3,11.2-16.8c3.1-2.6,6.2-5.3,9.3-8.1c0.7,23.2-32.9,48.9-50.3,57
		c-1.1,0.5-2.3,0.5-3.3,0l0,0c-17.1-8-50.3-33.5-50.3-56C6082,3055.7,6113.9,3039.8,6134,3060.4L6134,3060.4z M6076,3171.3h116v8
		h-116V3171.3L6076,3171.3z"/>
	<path class="st1" d="M6054.9,2997.3h26.1v12h-26.1c-2.2,0-4.2,0.9-5.6,2.4c-1.5,1.5-2.4,3.5-2.4,5.6v188c0,4.4,3.6,8,8,8H6213
		c4.4,0,8-3.6,8-8v-188c0-2.2-0.9-4.2-2.4-5.6c-1.5-1.5-3.5-2.4-5.6-2.4h-26v-12h26.1c5.5,0,10.5,2.2,14.1,5.9
		c3.6,3.6,5.9,8.6,5.9,14.1v188c0,11-9,20-20,20H6055c-11,0-20-9-20-20v-188c0-5.5,2.2-10.5,5.9-14.1
		C6044.4,2999.5,6049.4,2997.3,6054.9,2997.3L6054.9,2997.3z M6134,2969.3c5.8,0,11,0.4,14.8,4.2s6.2,9.1,6.2,14.8l0,0h24v30h-90
		v-30h24l0,0c0-5.8,2.4-11,6.2-14.8C6123,2969.6,6128.2,2969.3,6134,2969.3L6134,2969.3z M6140.4,2981.9c-1.6-1.6-3.9-2.6-6.4-2.6
		s-4.7,1-6.4,2.6s-2.6,3.9-2.6,6.4s1,4.7,2.6,6.4c1.5,1.5,3.6,2.5,5.9,2.6h0.9c2.3-0.1,4.4-1.1,5.9-2.6c1.6-1.6,2.6-3.9,2.6-6.4
		S6142,2983.6,6140.4,2981.9L6140.4,2981.9z"/>
</g>
<g>
	<linearGradient id="SVGID_1_" gradientUnits="userSpaceOnUse" x1="55.6497" y1="55.6497" x2="324.3503" y2="324.3503">
		<stop  offset="0" style="stop-color:#00D8FF"/>
		<stop  offset="1" style="stop-color:#367AD8"/>
	</linearGradient>
	<circle class="st2" cx="190" cy="190" r="190"/>
	<g>
		<path class="st3" d="M274.3,233.3c-0.5,20.2-11.2,42.8-21.8,56.4c-3.1,4-6.3,7.3-9.2,9.6c-3.7,2.9-7.3,4.4-10.7,4.3
			c-2.2-0.1-4.2-0.7-5.9-2.1c-5.9-4.6-4.5-14.2-2.6-26.9c1.5-10,3.3-22.3,2.3-34.5c-1.2-13.4-5.6-26.9-12.4-36.5
			c-5.5-7.9-12.5-13.1-20.3-13.1c-0.7,0-1.4,0.1-1.9,0.2c-6.8,1.2-13.8,8.3-19.3,19.1c-6,11.7-9.9,27.4-9.9,44.9
			c0,6.8,0.6,13.7,1.9,20.7c0.1,0.6,0.1,0.7,0.4,2c0.7,3.4,1.5,7.6,1.5,11.6c0,8.6-3,16-14.7,16c-7.1,0-16.4-11.3-24.1-26.5
			c-7-13.7-13.3-31-15.6-45c-3.5-21.9-1.7-34.6-0.2-44.8c1.1-7.3,1.9-13.2,0.1-20.4c-1.3-5-3-10.1-4.7-15.3
			c-7.4-22.1-15.4-45.9,4.6-62.9c25.6-21.8,44.4-15.5,62.6-9.4c6.5,2.2,12.9,4.3,19.2,4.7c7,0.5,15.9-1.6,25.1-3.6
			c23.4-5.3,47.9-10.8,58.9,15.4c5,12,4.3,27.9,1.7,42.8c-2.6,14.4-6.9,28-9.6,36.1c-2.6,7.8-1.1,14.1,0.8,22.2
			C272.2,207,274.7,217.4,274.3,233.3L274.3,233.3z M243,282.4c9.4-12,18.8-31.9,19.3-49.4c0.4-14.4-1.9-24-3.7-31.9
			c-2.3-10-4.1-17.6-0.5-28.6c2.6-7.8,6.7-20.9,9.2-34.5c2.3-13.1,3.1-26.6-0.9-36.2c-7.1-16.9-26.6-12.5-45.2-8.4
			c-10.1,2.3-19.9,4.5-28.5,3.9c-7.8-0.5-15-2.9-22.2-5.3c-15.1-5-30.6-10.2-51.1,7.2c-13.8,11.7-7.2,31.5-1,50
			c1.9,5.6,3.7,11.1,5,16.1c2.4,9.5,1.4,16.5,0.1,25.1c-1.4,9.5-3.1,21.1,0.1,41.2c2.1,12.8,7.9,28.7,14.4,41.5
			c5.8,11.4,11.2,19.9,13.4,19.9c2.1,0,2.7-1.8,2.7-4c0-2.9-0.7-6.4-1.3-9.3c0-0.1-0.1-0.3-0.4-2.2c-1.4-7.9-2.1-15.5-2.1-22.8
			c0-19.4,4.5-37,11.3-50.3c7.2-14.1,17.3-23.5,27.9-25.5c1.4-0.3,2.8-0.4,4.1-0.4c12.1,0,22.4,7.2,30.1,18.2
			c8,11.4,13.2,27,14.5,42.4c1.2,13.5-0.8,26.6-2.4,37.2c-1.1,7.1-1.9,12.8-2,14.9c0.5-0.3,1.2-0.8,2-1.4
			C238,288.2,240.5,285.6,243,282.4L243,282.4z"/>
		<path class="st4" d="M140.8,256.1c-0.3-57,21.2-99.8,53.2-99.8c30.9,0,51.7,41.2,54,97.4c12.5-39.4-12.9-64.6-6.1-88.7
			c11.1-39.5,8.7-61.9-20.1-50.1c-24,9.8-28.9,5.8-52.4-2.1c-22-9.3-44.6,1.5-31.1,35.1C154.5,188.2,122.2,210.4,140.8,256.1
			L140.8,256.1z"/>
	</g>
</g>
</svg>
