<?xml version="1.0" encoding="utf-8"?>

<svg version="1.1" id="Layer_1" xmlns="http://www.w3.org/2000/svg" xmlns:xlink="http://www.w3.org/1999/xlink" x="0px" y="0px"
	 viewBox="0 0 380 380" style="enable-background:new 0 0 380 380;" xml:space="preserve">
<style type="text/css">
	.st0{fill:#2B79C2;}
	.st1{fill:#3B4652;}
	.st2{fill-rule:evenodd;clip-rule:evenodd;fill:url(#SVGID_1_);}
	.st3{fill:#FFFFFF;}
	.st4{fill-rule:evenodd;clip-rule:evenodd;fill:#FFFFFF;}
</style>
<g>
	<path class="st0" d="M6076,3150.3h116v8h-116V3150.3L6076,3150.3z M6110.3,3088.1c-2.2-2.5-1.9-6.3,0.6-8.4
		c2.5-2.2,6.3-1.9,8.4,0.6l16.3,18.5l45.5-40.7c2.5-2.2,6.2-2,8.4,0.5c2.2,2.5,2,6.2-0.5,8.4l-49.8,44.5c-2.6,2.4-6.4,2.2-8.6-0.4
		L6110.3,3088.1L6110.3,3088.1z M6134,3060.4c10.5-10.6,25.6-12.3,37.7-4.4c-2,1.9-4.1,3.8-6.2,5.6c-10-5.2-21.2-2.2-28.4,7.3
		c-1.6,2.1-4.7,2.1-6.3,0c-15.2-19.9-40.9-6.9-40.9,13c0,7.4,5.3,15.9,12.5,23.9c9.4,10.3,22,19.3,31.5,24.1
		c9.5-4.7,22.1-13.8,31.5-24.1c5.1-5.5,9.1-11.3,11.2-16.8c3.1-2.6,6.2-5.3,9.3-8.1c0.7,23.2-32.9,48.9-50.3,57
		c-1.1,0.5-2.3,0.5-3.3,0l0,0c-17.1-8-50.3-33.5-50.3-56C6082,3055.7,6113.9,3039.8,6134,3060.4L6134,3060.4z M6076,3171.3h116v8
		h-116V3171.3L6076,3171.3z"/>
	<path class="st1" d="M6054.9,2997.3h26.1v12h-26.1c-2.2,0-4.2,0.9-5.6,2.4c-1.5,1.5-2.4,3.5-2.4,5.6v188c0,4.4,3.6,8,8,8H6213
		c4.4,0,8-3.6,8-8v-188c0-2.2-0.9-4.2-2.4-5.6c-1.5-1.5-3.5-2.4-5.6-2.4h-26v-12h26.1c5.5,0,10.5,2.2,14.1,5.9
		c3.6,3.6,5.9,8.6,5.9,14.1v188c0,11-9,20-20,20H6055c-11,0-20-9-20-20v-188c0-5.5,2.2-10.5,5.9-14.1
		C6044.4,2999.5,6049.4,2997.3,6054.9,2997.3L6054.9,2997.3z M6134,2969.3c5.8,0,11,0.4,14.8,4.2s6.2,9.1,6.2,14.8l0,0h24v30h-90
		v-30h24l0,0c0-5.8,2.4-11,6.2-14.8C6123,2969.6,6128.2,2969.3,6134,2969.3L6134,2969.3z M6140.4,2981.9c-1.6-1.6-3.9-2.6-6.4-2.6
		s-4.7,1-6.4,2.6s-2.6,3.9-2.6,6.4s1,4.7,2.6,6.4c1.5,1.5,3.6,2.5,5.9,2.6h0.9c2.3-0.1,4.4-1.1,5.9-2.6c1.6-1.6,2.6-3.9,2.6-6.4
		S6142,2983.6,6140.4,2981.9L6140.4,2981.9z"/>
</g>
<g>
	<linearGradient id="SVGID_1_" gradientUnits="userSpaceOnUse" x1="25.4277" y1="94.9841" x2="354.5723" y2="285.0159">
		<stop  offset="0" style="stop-color:#E4729F"/>
		<stop  offset="1" style="stop-color:#78104D"/>
	</linearGradient>
	<circle class="st2" cx="190" cy="190" r="190"/>
	<g>
		<path class="st3" d="M98.1,138.2c8.4,5.7,17.7,11.5,27,16.9c10.2,5.9,20.6,11.5,30.2,16.3c9.3,4.6,14.5,10.4,17.4,17.6
			c2.7,6.8,3,14.4,2.5,23.1c-1.9,34.3,5.9,62.6,14,92l0.4,1.5h-12.4c-8.2-29.8-16-58.6-14-94.1c0.4-7.2,0.2-13.3-1.7-18.1
			c-1.8-4.4-5.2-8.1-11.6-11.3c-9.9-4.9-20.5-10.6-30.9-16.6c-10-5.8-19.8-11.9-28.7-18l-1-0.7L98.1,138.2L98.1,138.2z M165.7,71
			c-0.1-0.1-0.2-0.2-0.2-0.2l8.5-8.5c13.1,11.8,25.5,24,36.9,36.7c11.5,12.8,22.3,26.3,32,40.6c0.4,0.6,1.6,2.3,2.8,4
			c7.2,10.2,15,21.2,15.8,41.3c0.9,20.8,2.1,40.5,3.7,61.5c1.5,18.8,3.3,37.9,5.3,59.2h-12c-2.1-21.5-3.9-40.5-5.3-58.3
			c-1.6-20.6-2.9-40.4-3.7-61.9c-0.7-16.5-7.4-26.1-13.7-34.9c-0.7-1-1.5-2.1-2.9-4.2c-9.3-13.7-19.7-26.7-31-39.3
			S178.5,82.5,165.7,71L165.7,71z"/>
		<path class="st4" d="M220,164c4.8,9.2,5.6,12.6,5,21.2c-0.5,7.3,9.1,7.1,10.7,1.4c2.2-7.8,2.7-16.1-3.1-25
			C228.4,155.1,217,158.1,220,164L220,164z M214.4,234.4c0.4,7.9,0.8,15.8,1.3,23.5L204.6,269c-1-12.4-1.8-25-2.3-37.8
			c-6.4-1-12.1-2.5-11.7-10.2c0.6-11.5,44.4-31.5,50.6-1.5c1.2,5.8,2,14.8,2.8,26.1L224.6,265c-1.6-11.8-4-21.7-7.4-27.8
			C216.6,236,215.6,235.1,214.4,234.4L214.4,234.4z M216.6,268.4c0.3,3.1,0.5,6.1,0.8,9.2c1.3,13.8,3.1,27.2,5.5,40h-12.2
			c-2.2-12.3-3.9-25-5.2-38.2L216.6,268.4L216.6,268.4z M244.9,256.2c0.3,4.1,0.6,8.4,0.9,12.9c1.1,15,2,32.3,2.4,48.5h-21.1
			c0.3-13.9-0.1-28.9-1.3-42.4L244.9,256.2L244.9,256.2z M116.7,86c25.5,20.3,63.3,57.2,70.5,78.6c3.7,10.9-14.5,20.8-3.4,30.9
			c22.1,20,44.8-9.8,34.6-31.9c-4.5-9.8-18.1-23.4-33.5-40.3c-15.7-17.2-36.8-38.3-52.4-53.1L116.7,86L116.7,86z"/>
	</g>
</g>
</svg>
