<?xml version="1.0" encoding="utf-8"?>
<!-- Generator: Adobe Illustrator 24.1.0, SVG Export Plug-In . SVG Version: 6.00 Build 0)  -->
<svg version="1.1" id="Layer_1" xmlns="http://www.w3.org/2000/svg" xmlns:xlink="http://www.w3.org/1999/xlink" x="0px" y="0px"
	 viewBox="0 0 380 380" style="enable-background:new 0 0 380 380;" xml:space="preserve">
<style type="text/css">
	.st0{fill:#2B79C2;}
	.st1{fill:#3B4652;}
	.st2{fill-rule:evenodd;clip-rule:evenodd;fill:url(#SVGID_1_);}
	.st3{fill-rule:evenodd;clip-rule:evenodd;fill:#289672;}
	.st4{fill-rule:evenodd;clip-rule:evenodd;fill:#006233;}
	.st5{fill-rule:evenodd;clip-rule:evenodd;fill:#D21034;}
</style>
<g>
	<path class="st0" d="M6076,3150.3h116v8h-116V3150.3L6076,3150.3z M6110.3,3088.1c-2.2-2.5-1.9-6.3,0.6-8.4
		c2.5-2.2,6.3-1.9,8.4,0.6l16.3,18.5l45.5-40.7c2.5-2.2,6.2-2,8.4,0.5c2.2,2.5,2,6.2-0.5,8.4l-49.8,44.5c-2.6,2.4-6.4,2.2-8.6-0.4
		L6110.3,3088.1L6110.3,3088.1z M6134,3060.4c10.5-10.6,25.6-12.3,37.7-4.4c-2,1.9-4.1,3.8-6.2,5.6c-10-5.2-21.2-2.2-28.4,7.3
		c-1.6,2.1-4.7,2.1-6.3,0c-15.2-19.9-40.9-6.9-40.9,13c0,7.4,5.3,15.9,12.5,23.9c9.4,10.3,22,19.3,31.5,24.1
		c9.5-4.7,22.1-13.8,31.5-24.1c5.1-5.5,9.1-11.3,11.2-16.8c3.1-2.6,6.2-5.3,9.3-8.1c0.7,23.2-32.9,48.9-50.3,57
		c-1.1,0.5-2.3,0.5-3.3,0l0,0c-17.1-8-50.3-33.5-50.3-56C6082,3055.7,6113.9,3039.8,6134,3060.4L6134,3060.4z M6076,3171.3h116v8
		h-116V3171.3L6076,3171.3z"/>
	<path class="st1" d="M6054.9,2997.3h26.1v12h-26.1c-2.2,0-4.2,0.9-5.6,2.4c-1.5,1.5-2.4,3.5-2.4,5.6v188c0,4.4,3.6,8,8,8H6213
		c4.4,0,8-3.6,8-8v-188c0-2.2-0.9-4.2-2.4-5.6c-1.5-1.5-3.5-2.4-5.6-2.4h-26v-12h26.1c5.5,0,10.5,2.2,14.1,5.9
		c3.6,3.6,5.9,8.6,5.9,14.1v188c0,11-9,20-20,20H6055c-11,0-20-9-20-20v-188c0-5.5,2.2-10.5,5.9-14.1
		C6044.4,2999.5,6049.4,2997.3,6054.9,2997.3L6054.9,2997.3z M6134,2969.3c5.8,0,11,0.4,14.8,4.2s6.2,9.1,6.2,14.8l0,0h24v30h-90
		v-30h24l0,0c0-5.8,2.4-11,6.2-14.8C6123,2969.6,6128.2,2969.3,6134,2969.3L6134,2969.3z M6140.4,2981.9c-1.6-1.6-3.9-2.6-6.4-2.6
		s-4.7,1-6.4,2.6s-2.6,3.9-2.6,6.4s1,4.7,2.6,6.4c1.5,1.5,3.6,2.5,5.9,2.6h0.9c2.3-0.1,4.4-1.1,5.9-2.6c1.6-1.6,2.6-3.9,2.6-6.4
		S6142,2983.6,6140.4,2981.9L6140.4,2981.9z"/>
</g>
<g>
	<linearGradient id="SVGID_1_" gradientUnits="userSpaceOnUse" x1="94.9841" y1="25.4277" x2="285.0159" y2="354.5723">
		<stop  offset="0" style="stop-color:#FFFFFF"/>
		<stop  offset="1" style="stop-color:#E1E5EA"/>
	</linearGradient>
	<circle class="st2" cx="190" cy="190" r="190"/>
</g>
<rect x="-133" y="300" class="st3" width="44" height="25"/>
<g>
	<path class="st4" d="M183.8,165.5h12.4v101.7c0,8.3,5.7,15.2,13.8,16.8c16.4,3.3,27.7,10.4,27.7,18.6c0,0.4,0,0.8-0.1,1.2h-96.2
		c-0.1-0.4-0.1-0.8-0.1-1.2c0-8.4,11.7-15.5,28.6-18.7c8.2-1.6,14-8.5,14-16.9L183.8,165.5z"/>
	<path class="st5" d="M180.9,74.5c-4.1,11.7-20.1,29.9-34.1,27.1c-13.2-2.6-14.2-25.5,16.9-40.7c5.6-1.7,11.1-3.6,16.6-5.5
		c47.8-17.7,105.5,9.5,95.9,64.2c-3.7,21.1-14.6,38-32.3,52.2c-12.7,8.9-24.9,14.3-38.6,21.3c-2.9,1.5-5.8,2.9-8.7,4.4
		c-6.8,4.3-10.3,5.5-15.1,11.9c-5.9,8.8-9.3,13.7-6.5,24.6c1.7,6.4,2,6.3,6,11.6c10.7,10.7,27.4,16.6,31.2,30.5
		c2.9,10.8-6.2,24.6-16.2,32.9c-1.8,1.5-3.6,2.8-5.4,3.9c-5.7,3.6-13,6.5-16.2,12.7c-0.6,1.1-1.8,4.5-2.9,4.3
		c-2.4-0.4-0.9-3.4,1-6.1c1.7-2.4,3.3-4.2,5.5-5.9c2.9-2.3,5.9-4.1,7.4-5.1c7.1-4.8,16.1-12.6,19.7-20.2c9.1-19.4-20.6-30.4-33-42.7
		c-8.9-8.9-14.1-19.2-10.6-32.3c5.8-22,37-34,55.8-45.6c4.6-3.2,9.2-6.5,13.8-9.7c15.6-12.2,26.2-21.4,29.5-39.1
		c1.3-6.9,1.3-12-0.1-18.9C255.9,82,241,66,217.6,63.7c-4.5-0.4-8.4,0.1-12.9,0.7C196,65.6,189.3,67.8,180.9,74.5z"/>
	<path class="st5" d="M140.4,96.7c0.9-0.5,2.1-0.2,2.6,0.8c0.5,0.9,0.2,2.1-0.8,2.6c-1.5,0.8-1.5,1.8-1.5,2.9c0,1.6,0,3.3-1.4,5.4
		c-0.6,0.8-1.4,1.4-2.3,1.9c-0.8,0.4-1.5,0.7-2.2,0.9c-1,0.4-2.1-0.2-2.5-1.2c-0.4-1,0.2-2.1,1.2-2.5c0.5-0.2,1.2-0.4,1.7-0.7
		c0.4-0.2,0.8-0.4,0.9-0.7c0.7-1,0.7-2.1,0.7-3.1C136.8,100.7,136.8,98.6,140.4,96.7z"/>
	<path class="st4" d="M92,114.1H288c2.5,0,4.5,2,4.5,4.5c0,2.5-2,4.5-4.5,4.5l-1.1,0c-1.8,22.1-44.5,39.8-96.9,39.8
		c-52.4,0-95.1-17.7-96.9-39.8l-1.1,0c-2.5,0-4.5-2-4.5-4.5C87.4,116.1,89.5,114.1,92,114.1z"/>
	<rect x="183.8" y="180.3" class="st4" width="12.4" height="57.8"/>
</g>
</svg>
