<?xml version="1.0" encoding="utf-8"?>

<svg version="1.1" id="Layer_1" xmlns="http://www.w3.org/2000/svg" xmlns:xlink="http://www.w3.org/1999/xlink" x="0px" y="0px"
	 viewBox="0 0 256 256" style="enable-background:new 0 0 256 256;" xml:space="preserve">
<style type="text/css">
	.st0{fill:url(#SVGID_1_);}
	.st1{fill:#FFFFFF;}
</style>
<g>
	<linearGradient id="SVGID_1_" gradientUnits="userSpaceOnUse" x1="37.4875" y1="37.4875" x2="218.5125" y2="218.5125">
		<stop  offset="0" style="stop-color:#00D8FF"/>
		<stop  offset="1" style="stop-color:#367AD8"/>
	</linearGradient>
	<path class="st0" d="M128,0c70.7,0,128,57.3,128,128s-57.3,128-128,128S0,198.7,0,128S57.3,0,128,0L128,0z"/>
	<path class="st1" d="M197.2,133.3l-35.4,4.3l-14.1,13.2l0.2,1.1l57.3,2.4c5.2,0.2,9.2,4.6,9,9.8s-4.6,9-9.8,9h-67.7H91.6
		c-6.5,0-11-6.4-8.9-12.4l3-8.6c3.6-10.4,13.2-17.2,24.2-17.2h23l8.3-6.8l6.6,2.9c6.8,3,14.8-0.1,17.7-6.9c1-2.3,1.3-4.7,1-7
		l28.7-2.5c5.2-0.4,9.7,3.4,10.2,8.6C205.9,128.2,202.2,132.7,197.2,133.3L197.2,133.3z M59.9,130c-10,0-18.2,8.1-18.2,18.2
		c0,10,8.1,18.2,18.2,18.2c10,0,18.2-8.1,18.2-18.2C78.1,138.2,70,130,59.9,130z"/>
	<path class="st1" d="M72.6,171.8c1.6,0,3.2,0.6,4.5,1.7l5.6,5h124.9c3.7,0,6.7,3,6.7,6.7v13.5h-8.1v-1.3c0-3-2.4-5.4-5.4-5.4h-28
		c-3,0-5.4,2.4-5.4,5.4v7.4h-8.1v-7.4c0-3-2.4-5.4-5.4-5.4H102c-3,0-5.4,2.4-5.4,5.4v1.3h-8.1v-1.3c0-3-2.4-5.4-5.4-5.4h-28
		c-3,0-5.4,2.4-5.4,5.4v7.4h-8.1v-19.5c0-0.6,0.1-1.3,0.3-1.9l1.9-6.4c0.9-2.9,3.4-5.2,6.6-5.2H72.6z M190.5,89.6
		c4.4-0.2,8.2,3.2,8.4,7.7c0.2,4.4-3.2,8.2-7.7,8.4l-28.4,1.4c-1.8,0.1-3.6-0.5-5-1.4l-16.9-11l-2,8.9l17.4,7.7
		c4.1,1.8,5.9,6.6,4.1,10.6c-1.8,4.1-6.6,5.9-10.6,4.1l-14.5-6.4l-0.7,3.2l-4.8,3.9h-20.2c-7,0-13.8,2.1-19.6,6.2
		c-0.9,0.6-1.7,1.3-2.5,2l8.8-50.8c0.5-3.1,2-5.6,3.7-7.5c1.8-2,4.3-3.4,6.4-4.1c2.8-0.9,5.8-0.4,8.1,1.6l8.3,7.4l6.9-5.8
		c3.4-2.9,6.9-3.1,10.6-0.7l24.2,15.8L190.5,89.6z M125.3,32.3c-10,0-18.2,8.1-18.2,18.2c0,10,8.1,18.2,18.2,18.2
		c10,0,18.2-8.1,18.2-18.2C143.5,40.5,135.4,32.3,125.3,32.3z"/>
</g>
</svg>
