<?xml version="1.0" encoding="utf-8"?>

<svg version="1.1" id="Layer_1" xmlns="http://www.w3.org/2000/svg" xmlns:xlink="http://www.w3.org/1999/xlink" x="0px" y="0px"
	 viewBox="0 0 380 380" style="enable-background:new 0 0 380 380;" xml:space="preserve">
<style type="text/css">
	.st0{fill:#2B79C2;}
	.st1{fill:#3B4652;}
	.st2{fill-rule:evenodd;clip-rule:evenodd;fill:url(#SVGID_1_);}
	.st3{fill:#FFFFFF;}
</style>
<g>
	<path class="st0" d="M6076,3150.3h116v8h-116V3150.3L6076,3150.3z M6110.3,3088.1c-2.2-2.5-1.9-6.3,0.6-8.4
		c2.5-2.2,6.3-1.9,8.4,0.6l16.3,18.5l45.5-40.7c2.5-2.2,6.2-2,8.4,0.5c2.2,2.5,2,6.2-0.5,8.4l-49.8,44.5c-2.6,2.4-6.4,2.2-8.6-0.4
		L6110.3,3088.1L6110.3,3088.1z M6134,3060.4c10.5-10.6,25.6-12.3,37.7-4.4c-2,1.9-4.1,3.8-6.2,5.6c-10-5.2-21.2-2.2-28.4,7.3
		c-1.6,2.1-4.7,2.1-6.3,0c-15.2-19.9-40.9-6.9-40.9,13c0,7.4,5.3,15.9,12.5,23.9c9.4,10.3,22,19.3,31.5,24.1
		c9.5-4.7,22.1-13.8,31.5-24.1c5.1-5.5,9.1-11.3,11.2-16.8c3.1-2.6,6.2-5.3,9.3-8.1c0.7,23.2-32.9,48.9-50.3,57
		c-1.1,0.5-2.3,0.5-3.3,0l0,0c-17.1-8-50.3-33.5-50.3-56C6082,3055.7,6113.9,3039.8,6134,3060.4L6134,3060.4z M6076,3171.3h116v8
		h-116V3171.3L6076,3171.3z"/>
	<path class="st1" d="M6054.9,2997.3h26.1v12h-26.1c-2.2,0-4.2,0.9-5.6,2.4c-1.5,1.5-2.4,3.5-2.4,5.6v188c0,4.4,3.6,8,8,8H6213
		c4.4,0,8-3.6,8-8v-188c0-2.2-0.9-4.2-2.4-5.6c-1.5-1.5-3.5-2.4-5.6-2.4h-26v-12h26.1c5.5,0,10.5,2.2,14.1,5.9
		c3.6,3.6,5.9,8.6,5.9,14.1v188c0,11-9,20-20,20H6055c-11,0-20-9-20-20v-188c0-5.5,2.2-10.5,5.9-14.1
		C6044.4,2999.5,6049.4,2997.3,6054.9,2997.3L6054.9,2997.3z M6134,2969.3c5.8,0,11,0.4,14.8,4.2s6.2,9.1,6.2,14.8l0,0h24v30h-90
		v-30h24l0,0c0-5.8,2.4-11,6.2-14.8C6123,2969.6,6128.2,2969.3,6134,2969.3L6134,2969.3z M6140.4,2981.9c-1.6-1.6-3.9-2.6-6.4-2.6
		s-4.7,1-6.4,2.6s-2.6,3.9-2.6,6.4s1,4.7,2.6,6.4c1.5,1.5,3.6,2.5,5.9,2.6h0.9c2.3-0.1,4.4-1.1,5.9-2.6c1.6-1.6,2.6-3.9,2.6-6.4
		S6142,2983.6,6140.4,2981.9L6140.4,2981.9z"/>
</g>
<g>
	<linearGradient id="SVGID_1_" gradientUnits="userSpaceOnUse" x1="55.6497" y1="55.6497" x2="324.3503" y2="324.3503">
		<stop  offset="0" style="stop-color:#00D8FF"/>
		<stop  offset="1" style="stop-color:#367AD8"/>
	</linearGradient>
	<circle class="st2" cx="190" cy="190" r="190"/>
	<g>
		<path class="st3" d="M142.7,123.7c0.4-1,0.8-1.9,1.1-2.9c1.8-5.4,2.4-11.3,1.3-16.7c-1.1-5.2-3.8-10-8.5-13.7
			c-2.4-1.8-5.4-3.4-8.9-4.6c-2.6-0.9-5.1-1.4-7.7-1.6c-9.1-0.7-17.8,2.7-25,8.9c-7.6,6.5-13.6,15.9-17.2,26.6
			c-1.7,5.2-2.9,10.7-3.4,16.4c-1,12.4,1,25.7,5.3,37.6c3.7,10.4,9.1,19.8,15.7,26.7c6.1,6.4,13.1,10.6,20.5,11.2
			c3.3,0.3,6.7-0.2,10.1-1.4c8.7-3.1,14-8.4,16.4-14.2c1-2.4,1.5-4.9,1.6-7.3c0.1-2.4-0.3-4.8-1.1-6.9c-0.8-2.3-2.1-4.3-3.8-6
			c1.6-1,3.3-1.8,4.9-2.4c2.2-0.7,4.9-1.2,7-0.1c0.3,0.2,0.6,0.4,0.9,0.6c0.6,1,1.3,2.1,1.9,3.2c0.1,0.2,0.2,0.5,0.3,0.7
			c1.3,3.5,1.9,7.4,1.8,11.2c-0.1,3.9-0.9,7.8-2.5,11.6c-3.6,8.6-11.1,16.4-23.4,20.8c-5.2,1.9-10.2,2.5-15.1,2.1
			c-10.5-0.9-20.2-6.4-28.2-15c-7.6-8.1-13.9-18.9-18.2-30.8c-4.9-13.5-7.2-28.5-6-42.6c0.5-6.6,1.9-13.1,4-19.2
			c4.3-12.7,11.6-24,20.8-31.9c9.6-8.2,21.2-12.8,33.7-11.8c3.4,0.3,7,1,10.5,2.2c4.9,1.6,9,3.9,12.5,6.5
			c7.2,5.6,11.3,12.9,12.9,20.8c1.6,7.6,0.8,15.6-1.7,22.9c-0.5,1.4-1,2.7-1.6,4.1c-3.2-1.5-6.5-2.9-9.7-4.4
			C143.5,124.1,143.1,123.9,142.7,123.7L142.7,123.7z M226.4,128.6c-0.6-1.3-1.1-2.7-1.6-4.1c-2.4-7.3-3.2-15.3-1.7-22.9
			c1.6-7.9,5.7-15.2,12.9-20.8c3.4-2.6,7.6-4.9,12.5-6.5c3.6-1.2,7.1-1.9,10.5-2.2c12.5-1,24.1,3.6,33.7,11.8
			c9.2,7.9,16.5,19.2,20.8,31.9c2.1,6.2,3.4,12.6,4,19.2c1.1,14-1.2,29-6,42.6c-4.3,11.9-10.6,22.8-18.2,30.8
			c-8.1,8.5-17.7,14.1-28.2,15c-4.9,0.4-9.9-0.2-15.1-2.1c-12.3-4.4-19.8-12.2-23.4-20.8c-1.6-3.8-2.4-7.7-2.5-11.6
			c-0.1-3.9,0.5-7.7,1.8-11.2c0.1-0.3,0.2-0.5,0.3-0.7c0.6-1.1,1.2-2.1,1.9-3.2c0.3-0.2,0.6-0.4,0.9-0.6c2.1-1.2,4.9-0.7,7,0.1
			c1.7,0.6,3.4,1.4,4.9,2.4c-1.7,1.7-2.9,3.8-3.8,6c-0.8,2.2-1.2,4.5-1.1,6.9c0.1,2.4,0.6,4.9,1.6,7.3c2.4,5.7,7.7,11,16.4,14.2
			c3.4,1.2,6.8,1.7,10.1,1.4c7.4-0.6,14.4-4.8,20.5-11.2c6.5-6.9,11.9-16.3,15.7-26.7c4.3-12,6.4-25.2,5.3-37.6
			c-0.5-5.6-1.6-11.2-3.4-16.4c-3.6-10.7-9.6-20.1-17.2-26.6c-7.2-6.2-15.9-9.7-25-8.9c-2.5,0.2-5.1,0.7-7.7,1.6
			c-3.6,1.2-6.5,2.8-8.9,4.6c-4.8,3.7-7.5,8.5-8.5,13.7c-1.1,5.5-0.5,11.3,1.3,16.7c0.3,1,0.7,2,1.1,2.9c-0.4,0.2-0.8,0.4-1.2,0.5
			C232.9,125.7,229.6,127.1,226.4,128.6L226.4,128.6z M154.2,280.2c0.8,4.6,3.1,8.2,6.7,11.1c5.5,4.4,13.4,6.8,20.3,8
			c3.3,0.6,6.4,2.1,8.9,4.3c2.5-2.2,5.5-3.7,8.9-4.3c6.9-1.2,14.8-3.6,20.3-8c3.6-2.9,5.9-6.5,6.7-11.1H154.2L154.2,280.2z"/>
		<path class="st3" d="M91.5,124.6c-1.3-1.8-0.8-4.3,1-5.6c1.8-1.3,4.3-0.8,5.6,1c10,14.2,22,18.6,33,22.5c3.6,1.3,7.1,2.6,10.4,4.1
			c6.5,3,14,6.7,20,13.4c6.1,6.8,10.6,16.4,10.6,31c0,31.9,0,22.7,0,27.8c0,14.8,0,31,0,38.5c0,2-1.4,3.6-3.3,3.9l0,0
			c-9.7,1.6-15.8,4.4-19.3,8c-3,3.2-3.9,7.3-3.2,11.8c1,7,4.6,12.4,9.7,16.5c6.2,4.9,14.6,8,23.9,9.7c2.4,0.4,4.5,1.7,5.9,3.4
			c1.5,1.8,2.3,4,2.3,6.4l0,0v6.9c0,2.2-1.8,4-4,4s-4-1.8-4-4V317l0,0c0-0.5-0.2-1-0.5-1.3s-0.7-0.6-1.2-0.7
			c-10.5-1.9-20.2-5.5-27.5-11.3c-6.6-5.3-11.2-12.4-12.6-21.5c-1-7,0.4-13.3,5.3-18.5c4.1-4.3,10.7-7.7,20.4-9.7
			c0-8.4,0-22.4,0-35.2c0-29.8,0-4.3,0-27.8c0-10-2.4-17.2-6-22.4c-1-0.9-2-1.7-3.1-2.3c-4.2-2.3-9-2.1-13.5-0.5
			c-4.9,1.7-9.4,4.8-12.6,8c-1.5,1.5-2.6,2.9-3.3,4.2c-1.1,1.9-3.5,2.6-5.4,1.5s-2.6-3.5-1.5-5.4s2.7-4,4.7-6
			c3.9-3.9,9.5-7.8,15.7-9.9c1.7-0.6,3.5-1,5.3-1.3c-0.7-0.4-1.4-0.8-2.1-1.1c-4.2-2.1-12.1-1.8-20.2,0.1c-8.6,2-17.2,5.6-22.2,10.1
			c-1.6,1.5-4.2,1.3-5.6-0.3c-1.5-1.6-1.3-4.2,0.3-5.6c6-5.3,16-9.7,25.7-11.9c0.6-0.1,1.3-0.3,1.9-0.4
			C111.7,143.7,101,138.1,91.5,124.6L91.5,124.6z M200,324c0,2.2-1.8,4-4,4s-4-1.8-4-4v-6.9l0,0c0-2.4,0.9-4.7,2.3-6.4
			c1.5-1.8,3.5-3,5.9-3.4c9.3-1.6,17.7-4.7,23.9-9.7c5.1-4.1,8.6-9.5,9.6-16.5c0.7-4.6-0.2-8.6-3.2-11.8c-3.4-3.6-9.6-6.4-19.3-8
			c-2-0.3-3.4-2.1-3.3-4.1c0-7.6,0-23.7,0-38.3c0-5.1,0,4.1,0-27.8c0-14.5,4.4-24.2,10.6-31c6-6.7,13.5-10.4,20-13.4
			c3.3-1.5,6.8-2.8,10.4-4.1c11-4,22.9-8.3,33-22.5c1.3-1.8,3.8-2.2,5.6-1c1.8,1.3,2.2,3.8,1,5.6c-9.5,13.5-20.2,19.1-30.5,23.1
			c0.6,0.1,1.3,0.3,1.9,0.4c9.8,2.2,19.7,6.6,25.7,11.9c1.6,1.5,1.8,4,0.3,5.6s-4,1.8-5.6,0.3c-5-4.5-13.6-8.1-22.2-10.1
			c-8.1-1.9-16-2.2-20.2-0.1c-0.7,0.4-1.4,0.7-2.1,1.1c1.8,0.3,3.6,0.7,5.3,1.3c6.1,2.1,11.7,6,15.7,9.9c2,2,3.6,4.1,4.7,6
			s0.4,4.4-1.5,5.4c-1.9,1.1-4.4,0.4-5.4-1.5c-0.7-1.3-1.9-2.7-3.3-4.2c-3.2-3.2-7.7-6.3-12.6-8c-4.5-1.5-9.4-1.8-13.5,0.5
			c-1.1,0.6-2.1,1.3-3.1,2.3c-3.6,5.3-6,12.4-6,22.4c0,23.5,0-1.9,0,27.8c0,12.9,0,26.9,0,35.2c9.7,2,16.3,5.4,20.4,9.7
			c5,5.2,6.4,11.5,5.3,18.5c-1.4,9.2-6,16.3-12.6,21.5c-7.3,5.9-17,9.4-27.5,11.3c-0.5,0.1-0.9,0.3-1.2,0.7
			c-0.3,0.3-0.5,0.8-0.5,1.3l0,0L200,324L200,324z M111.7,116.5c-0.8-2,0.2-4.4,2.2-5.2c2-0.8,4.4,0.2,5.2,2.2
			c4.2,10.4,14.4,14.9,25.1,19.7c2.4,1.1,4.8,2.1,7.1,3.3c2.5-0.2,4.6-1,6.2-2.1c1.9-1.3,3.2-2.9,3.5-4.3c0.5-2.1,2.7-3.5,4.8-3
			s3.5,2.7,3,4.8c-0.8,3.3-3.2,6.7-6.9,9.1c-0.3,0.2-0.7,0.4-1,0.6c12.8,8.1,23,21.1,23,49.3l0,0v12.7c0,14.6,0,36.4,0,48.3h12
			c0-12,0-34,0-48.6v-12.4l0,0c0-28.3,10.3-41.2,23-49.3c-0.4-0.2-0.7-0.4-1-0.6c-3.6-2.4-6.1-5.8-6.9-9.1c-0.5-2.1,0.8-4.3,3-4.8
			c2.1-0.5,4.3,0.8,4.8,3c0.3,1.4,1.6,3,3.5,4.3c1.7,1.1,3.8,1.9,6.2,2.1c2.4-1.1,4.8-2.2,7.1-3.3c10.7-4.8,20.9-9.3,25.1-19.7
			c0.8-2,3.2-3,5.2-2.2s3,3.2,2.2,5.2c-5.4,13.4-17,18.6-29.2,24c-16.8,7.5-35,15.6-35,50.5l0,0v12.4c0,16.3,0,41.7,0,52.2
			c0,0.1,0,0.2,0,0.3c0,2.2-1.8,4-4,4h-20l0,0c-2.2,0-4-1.8-4-4c0-10.3,0-35.9,0-52.3v-12.7l0,0c0-34.9-18.2-43-35-50.5
			C128.7,135,117.2,129.8,111.7,116.5L111.7,116.5z"/>
	</g>
</g>
</svg>
