<svg width="24" height="24" viewBox="0 0 24 24" fill="none" xmlns="http://www.w3.org/2000/svg">
<g clip-path="url(#clip0_250_3144)">
<path d="M12 0H24V24H12V0Z" fill="white"/>
<path d="M0 0H12V24H0V0Z" fill="#006233"/>
<path d="M17.204 9C16.5436 7.85615 15.5242 6.96218 14.3039 6.45673C13.0836 5.95127 11.7307 5.8626 10.4549 6.20445C9.1791 6.5463 8.05175 7.29957 7.24769 8.34743C6.44364 9.3953 6.00781 10.6792 6.00781 12C6.00781 13.3208 6.44364 14.6047 7.24769 15.6526C8.05175 16.7004 9.1791 17.4537 10.4549 17.7956C11.7307 18.1374 13.0836 18.0487 14.3039 17.5433C15.5242 17.0378 16.5436 16.1439 17.204 15C16.5824 15.7763 15.7351 16.3404 14.7791 16.6143C13.8231 16.8882 12.8056 16.8585 11.8672 16.5291C10.9289 16.1997 10.116 15.5871 9.54093 14.7757C8.96585 13.9644 8.65697 12.9945 8.65697 12C8.65697 11.0055 8.96585 10.0356 9.54093 9.22427C10.116 8.41294 10.9289 7.80026 11.8672 7.4709C12.8056 7.14154 13.8231 7.11176 14.7791 7.38568C15.7351 7.6596 16.5824 8.22369 17.204 9ZM17.4008 12L12.0008 10.2375L15.3618 14.8406V9.15938L12.0008 13.7625L17.4008 12Z" fill="#D21034"/>
</g>
<defs>
<clipPath id="clip0_250_3144">
<rect width="24" height="24" rx="12" fill="white"/>
</clipPath>
</defs>
</svg>
