<svg width="32" height="32" viewBox="0 0 32 32" fill="none" xmlns="http://www.w3.org/2000/svg">
<path d="M6.66667 17.1667H10.1667V19.5H6.66667V17.1667ZM12.5 19.5H16V17.1667H12.5V19.5ZM6.66667 24.1667H10.1667V21.8333H6.66667V24.1667ZM12.5 24.1667H16V21.8333H12.5V24.1667ZM6.66667 10.1667H10.1667V7.83333H6.66667V10.1667ZM12.5 10.1667H16V7.83333H12.5V10.1667ZM6.66667 14.8333H10.1667V12.5H6.66667V14.8333ZM12.5 14.8333H16V12.5H12.5V14.8333ZM30 11.3333V30H2V5.5C2 4.57174 2.36875 3.6815 3.02513 3.02513C3.6815 2.36875 4.57174 2 5.5 2H17.1667C18.0949 2 18.9852 2.36875 19.6415 3.02513C20.2979 3.6815 20.6667 4.57174 20.6667 5.5V7.83333H26.5C27.4283 7.83333 28.3185 8.20208 28.9749 8.85846C29.6313 9.51484 30 10.4051 30 11.3333ZM18.3333 5.5C18.3333 5.19058 18.2104 4.89383 17.9916 4.67504C17.7728 4.45625 17.4761 4.33333 17.1667 4.33333H5.5C5.19058 4.33333 4.89383 4.45625 4.67504 4.67504C4.45625 4.89383 4.33333 5.19058 4.33333 5.5V27.6667H18.3333V5.5ZM27.6667 11.3333C27.6667 11.0239 27.5438 10.7272 27.325 10.5084C27.1062 10.2896 26.8094 10.1667 26.5 10.1667H20.6667V27.6667H27.6667V11.3333ZM23 19.5H25.3333V17.1667H23V19.5ZM23 24.1667H25.3333V21.8333H23V24.1667ZM23 14.8333H25.3333V12.5H23V14.8333Z" fill="#0094DA"/>
</svg>
