<svg width="32" height="32" viewBox="0 0 32 32" fill="none" xmlns="http://www.w3.org/2000/svg">
<circle cx="16" cy="16" r="16" fill="#FF6551"/>
<path fill-rule="evenodd" clip-rule="evenodd" d="M22.1538 13.2638C22.498 13.2921 22.7547 13.593 22.7272 13.9371C22.7222 13.9938 22.2705 19.5863 22.0105 21.9321C21.8488 23.388 20.8872 24.2738 19.4355 24.3005C18.3247 24.3196 17.253 24.3305 16.2055 24.3305C15.0763 24.3305 13.9755 24.318 12.8863 24.2955C11.493 24.268 10.5288 23.3646 10.3713 21.938C10.1088 19.5713 9.65967 13.993 9.6555 13.9371C9.62717 13.593 9.88383 13.2913 10.228 13.2638C10.5672 13.2546 10.8738 13.493 10.9013 13.8363C10.904 13.8725 11.0876 16.1505 11.2877 18.4044L11.3279 18.8542C11.4287 19.9745 11.5309 21.051 11.6138 21.8005C11.703 22.6113 12.1405 23.0296 12.9122 23.0455C14.9955 23.0896 17.1213 23.0921 19.413 23.0505C20.233 23.0346 20.6763 22.6246 20.768 21.7946C21.0263 19.4663 21.4763 13.893 21.4813 13.8363C21.5088 13.493 21.813 13.253 22.1538 13.2638ZM17.9545 7.66406C18.7195 7.66406 19.392 8.1799 19.5895 8.91906L19.8012 9.9699C19.8696 10.3144 20.1719 10.5659 20.5219 10.5715L23.2567 10.5716C23.6017 10.5716 23.8817 10.8516 23.8817 11.1966C23.8817 11.5416 23.6017 11.8216 23.2567 11.8216L20.5463 11.8214C20.5421 11.8215 20.5379 11.8216 20.5337 11.8216L20.5133 11.8207L11.868 11.8215C11.8613 11.8215 11.8546 11.8216 11.8478 11.8216L11.835 11.8207L9.125 11.8216C8.78 11.8216 8.5 11.5416 8.5 11.1966C8.5 10.8516 8.78 10.5716 9.125 10.5716L11.8592 10.5707L11.9434 10.5654C12.2569 10.5247 12.5175 10.2866 12.5812 9.9699L12.7837 8.95656C12.9895 8.1799 13.662 7.66406 14.427 7.66406H17.9545ZM17.9545 8.91406H14.427C14.227 8.91406 14.0512 9.04823 14.0003 9.24073L13.8062 10.2157C13.7815 10.3392 13.7456 10.4582 13.6996 10.5718H18.6822C18.6361 10.4582 18.6001 10.3392 18.5753 10.2157L18.3728 9.2024C18.3303 9.04823 18.1545 8.91406 17.9545 8.91406Z" fill="white"/>
</svg>
