<svg width="28" height="28" viewBox="0 0 28 28" fill="none" xmlns="http://www.w3.org/2000/svg">
<path fill-rule="evenodd" clip-rule="evenodd" d="M19.7787 0.667969C24.2974 0.667969 27.3334 3.83863 27.3334 8.55597V19.4466C27.3334 24.164 24.2974 27.3346 19.7774 27.3346H8.22008C3.70141 27.3346 0.666748 24.164 0.666748 19.4466V8.55597C0.666748 3.83863 3.70141 0.667969 8.22008 0.667969H19.7787ZM19.7787 2.66797H8.22008C4.84675 2.66797 2.66675 4.97863 2.66675 8.55597V19.4466C2.66675 23.024 4.84675 25.3346 8.22008 25.3346H19.7774C23.1521 25.3346 25.3334 23.024 25.3334 19.4466V8.55597C25.3334 4.97863 23.1521 2.66797 19.7787 2.66797ZM11.5074 10.0848L13.9974 12.5746L16.4861 10.0876C16.8767 9.6969 17.5087 9.6969 17.8994 10.0876C18.2901 10.4782 18.2901 11.1102 17.8994 11.5009L15.4107 13.988L17.9021 16.4808C18.2927 16.8714 18.2927 17.5034 17.9021 17.8941C17.7074 18.0901 17.4501 18.1874 17.1954 18.1874C16.9394 18.1874 16.6834 18.0901 16.4887 17.8941L13.9974 15.4013L11.5101 17.8902C11.3154 18.0862 11.0594 18.1836 10.8034 18.1836C10.5474 18.1836 10.2914 18.0862 10.0967 17.8902C9.70608 17.4996 9.70608 16.8676 10.0967 16.4769L12.5841 13.988L10.0941 11.4981C9.70341 11.1074 9.70341 10.4754 10.0941 10.0848C10.4861 9.6941 11.1181 9.6941 11.5074 10.0848Z" fill="#1C2126"/>
</svg>
