<svg width="32" height="32" viewBox="0 0 32 32" fill="none" xmlns="http://www.w3.org/2000/svg">
<path d="M7.36168 25.4001H24.6284C26.788 25.4001 27.8929 24.3153 27.8929 22.1758V12.332C27.8929 10.2026 26.788 9.1077 24.6284 9.1077H22.0871V8.31417C22.0871 6.41574 21.0626 5.51172 19.1641 5.51172H12.8159C11.0079 5.51172 9.90297 6.41574 9.90297 8.31417V9.1077H7.36168C5.21212 9.1077 4.09717 10.2026 4.09717 12.332V22.1758C4.09717 24.3153 5.21212 25.4001 7.36168 25.4001ZM11.7411 8.23382C11.7411 7.56083 12.1429 7.17913 12.8461 7.17913H19.144C19.8472 7.17913 20.2389 7.56083 20.2389 8.23382V9.1077H11.7411V8.23382ZM7.44203 23.4715C6.56815 23.4715 6.09605 23.0296 6.09605 22.1155V12.3923C6.09605 11.4883 6.56815 11.0363 7.44203 11.0363H24.5481C25.4219 11.0363 25.894 11.4883 25.894 12.3923V22.1155C25.894 23.0296 25.4219 23.4715 24.5481 23.4715H7.44203ZM11.1284 18.1479C11.1284 18.7405 11.5402 19.1423 12.1329 19.1423H14.1117V21.1211C14.1117 21.7137 14.5034 22.1155 15.0961 22.1155H16.884C17.4766 22.1155 17.8784 21.7137 17.8784 21.1211V19.1423H19.8572C20.4498 19.1423 20.8516 18.7405 20.8516 18.1479V16.3599C20.8516 15.7673 20.4498 15.3756 19.8572 15.3756H17.8784V13.3968C17.8784 12.8041 17.4766 12.4023 16.884 12.4023H15.0961C14.5034 12.4023 14.1117 12.8041 14.1117 13.3968V15.3756H12.1329C11.5302 15.3756 11.1284 15.7673 11.1284 16.3599V18.1479Z" fill="#0094DA"/>
</svg>
