<svg width="20" height="20" viewBox="0 0 20 20" fill="none" xmlns="http://www.w3.org/2000/svg">
<path fill-rule="evenodd" clip-rule="evenodd" d="M10.0115 2.5C10.8615 2.5 11.6223 2.94083 12.044 3.67917L18.0323 14.1492C18.4515 14.8817 18.449 15.7558 18.0248 16.4867C17.6007 17.2183 16.8432 17.655 15.999 17.655H4.01318C3.16818 17.655 2.41068 17.2183 1.98652 16.4867C1.56235 15.7558 1.55985 14.8817 1.97902 14.1492L7.97902 3.6775C8.40068 2.94 9.15985 2.5 10.0107 2.5H10.0115ZM10.0107 3.75C9.61402 3.75 9.26068 3.955 9.06235 4.29917L3.06402 14.77C2.86901 15.1117 2.87068 15.5192 3.06818 15.86C3.26568 16.2008 3.61902 16.405 4.01318 16.405H15.999C16.3923 16.405 16.7457 16.2008 16.9432 15.86C17.1415 15.5192 17.1432 15.1117 16.9465 14.77L10.959 4.29917C10.7615 3.955 10.4082 3.75 10.0107 3.75ZM10.005 12.9158C10.4658 12.9158 10.8383 13.2883 10.8383 13.7492C10.8383 14.21 10.4658 14.5825 10.005 14.5825C9.54418 14.5825 9.16752 14.21 9.16752 13.7492C9.16752 13.2883 9.53668 12.9158 9.99668 12.9158H10.005ZM10.0033 7.97C10.3483 7.97 10.6283 8.25 10.6283 8.595V11.1783C10.6283 11.5233 10.3483 11.8033 10.0033 11.8033C9.65835 11.8033 9.37835 11.5233 9.37835 11.1783V8.595C9.37835 8.25 9.65835 7.97 10.0033 7.97Z" fill="#FF6666"/>
</svg>
