<svg width="25" height="28" viewBox="0 0 25 28" fill="none" xmlns="http://www.w3.org/2000/svg">
<path fill-rule="evenodd" clip-rule="evenodd" d="M17.2115 0.667969C21.4035 0.667969 24.2195 3.53864 24.2195 7.81064V20.072C24.2195 24.3813 21.4902 27.184 17.2662 27.2106L7.00885 27.2146C2.81685 27.2146 -0.000488281 24.344 -0.000488281 20.072V7.81064C-0.000488281 3.49997 2.72885 0.698635 6.95285 0.673302L17.2102 0.667969H17.2115ZM17.2115 2.66797L6.95951 2.6733C3.85551 2.69197 1.99951 4.61197 1.99951 7.81064V20.072C1.99951 23.292 3.87285 25.2146 7.00751 25.2146L17.2595 25.2106C20.3635 25.192 22.2195 23.2693 22.2195 20.072V7.81064C22.2195 4.59064 20.3475 2.66797 17.2115 2.66797ZM16.9543 18.6329C17.5063 18.6329 17.9543 19.0809 17.9543 19.6329C17.9543 20.1849 17.5063 20.6329 16.9543 20.6329H7.32765C6.77565 20.6329 6.32765 20.1849 6.32765 19.6329C6.32765 19.0809 6.77565 18.6329 7.32765 18.6329H16.9543ZM16.9543 13.0509C17.5063 13.0509 17.9543 13.4989 17.9543 14.0509C17.9543 14.6029 17.5063 15.0509 16.9543 15.0509H7.32765C6.77565 15.0509 6.32765 14.6029 6.32765 14.0509C6.32765 13.4989 6.77565 13.0509 7.32765 13.0509H16.9543ZM11.0006 7.48184C11.5526 7.48184 12.0006 7.92984 12.0006 8.48184C12.0006 9.03384 11.5526 9.48184 11.0006 9.48184H7.32725C6.77525 9.48184 6.32725 9.03384 6.32725 8.48184C6.32725 7.92984 6.77525 7.48184 7.32725 7.48184H11.0006Z" fill="#0094DA"/>
</svg>
