<svg width="15" height="13" viewBox="0 0 15 13" fill="none" xmlns="http://www.w3.org/2000/svg">
<path fill-rule="evenodd" clip-rule="evenodd" d="M7.65656 0.692669C8.74056 0.00733582 10.1806 -0.181998 11.4246 0.216669C14.1306 1.08934 14.9706 4.03934 14.2192 6.38667C13.0599 10.0733 8.10856 12.8233 7.89856 12.9387C7.82389 12.98 7.74122 13.0007 7.65856 13.0007C7.57589 13.0007 7.49389 12.9807 7.41922 12.94C7.21056 12.826 2.29522 10.1167 1.09722 6.38734C1.09656 6.38734 1.09656 6.38667 1.09656 6.38667C0.344556 4.03867 1.18189 1.088 3.88522 0.216669C5.15456 -0.193998 6.53789 -0.0133309 7.65656 0.692669ZM4.19189 1.16867C2.00456 1.874 1.45522 4.22667 2.04922 6.082C2.98389 8.99 6.67656 11.3413 7.65789 11.9233C8.64256 11.3353 12.3619 8.958 13.2666 6.08467C13.8606 4.22734 13.3092 1.87467 11.1186 1.16867C10.0572 0.828002 8.81922 1.03534 7.96456 1.69667C7.78589 1.834 7.53789 1.83667 7.35789 1.70067C6.45256 1.02 5.26989 0.820669 4.19189 1.16867ZM10.4786 2.4926C11.3872 2.7866 12.0239 3.59127 12.1019 4.5426C12.1239 4.81794 11.9192 5.05927 11.6439 5.08127C11.6299 5.0826 11.6166 5.08327 11.6026 5.08327C11.3446 5.08327 11.1259 4.88527 11.1046 4.62394C11.0606 4.07594 10.6939 3.61327 10.1719 3.4446C9.90856 3.35927 9.76456 3.07727 9.84922 2.81527C9.93522 2.5526 10.2146 2.40994 10.4786 2.4926Z" fill="#1C2126"/>
</svg>
