<svg width="80" height="80" viewBox="0 0 80 80" fill="none" xmlns="http://www.w3.org/2000/svg">
<circle cx="40" cy="40" r="40" fill="#C0C5CE"/>
<path fill-rule="evenodd" clip-rule="evenodd" d="M47.1673 23.332C52.809 23.332 56.6007 27.2837 56.6007 33.1637V46.7504C56.6007 52.6304 52.809 56.582 47.1673 56.582H32.7507C27.1173 56.582 23.334 52.6304 23.334 46.7504V33.1637C23.334 27.2837 27.1173 23.332 32.7507 23.332H47.1673ZM47.1673 25.832H32.7507C28.549 25.832 25.834 28.7104 25.834 33.1637V46.7504C25.834 51.2054 28.549 54.082 32.7507 54.082H47.1673C51.379 54.082 54.1007 51.2054 54.1007 46.7504V33.1637C54.1007 28.7104 51.379 25.832 47.1673 25.832ZM48.2323 40.1644C48.2429 40.1729 48.2533 40.1815 48.275 40.2018L48.3072 40.2325C48.3137 40.2388 48.3208 40.2458 48.3287 40.2535L48.4218 40.3459C48.7223 40.6468 49.5531 41.4953 52.029 44.0377C52.5107 44.531 52.5023 45.3227 52.0073 45.8044C51.514 46.2894 50.7207 46.2744 50.239 45.781C50.239 45.781 46.824 42.276 46.5807 42.0394C46.3223 41.8277 45.9073 41.7044 45.499 41.7444C45.084 41.786 44.7107 41.9844 44.4457 42.306C40.5723 47.0044 40.5257 47.0494 40.4623 47.111C39.0323 48.5144 36.724 48.491 35.319 47.0577C35.319 47.0577 33.769 45.4844 33.7423 45.4527C33.3573 45.096 32.6707 45.1194 32.259 45.5544L29.709 48.2427C29.4623 48.5027 29.1323 48.6327 28.8023 48.6327C28.4923 48.6327 28.184 48.5194 27.9423 48.2894C27.4407 47.816 27.4207 47.0227 27.8957 46.5244L30.4423 43.836C31.7907 42.4044 34.0657 42.3344 35.504 43.6844L37.1007 45.3044C37.5457 45.7544 38.269 45.7627 38.7157 45.3227C38.884 45.1244 42.514 40.716 42.514 40.716C43.204 39.8794 44.1773 39.3627 45.259 39.256C46.3423 39.161 47.394 39.476 48.2323 40.1644ZM34.2643 31.0469C36.5677 31.0485 38.4393 32.9219 38.4393 35.2202C38.4393 37.5219 36.566 39.3952 34.2643 39.3952C31.9627 39.3952 30.091 37.5219 30.091 35.2202C30.091 32.9185 31.9627 31.0469 34.2643 31.0469ZM34.2627 33.5469C33.341 33.5469 32.591 34.2969 32.591 35.2202C32.591 36.1435 33.341 36.8952 34.2643 36.8952C35.1877 36.8952 35.9393 36.1435 35.9393 35.2202C35.9393 34.2985 35.1877 33.5485 34.2627 33.5469Z" fill="#65737E"/>
</svg>
