<svg width="40" height="40" viewBox="0 0 40 40" fill="none" xmlns="http://www.w3.org/2000/svg">
<path fill-rule="evenodd" clip-rule="evenodd" d="M27.1673 3.33203C32.809 3.33203 36.6007 7.2837 36.6007 13.1637V26.7504C36.6007 32.6304 32.809 36.582 27.1673 36.582H12.7507C7.11732 36.582 3.33398 32.6304 3.33398 26.7504V13.1637C3.33398 7.2837 7.11732 3.33203 12.7507 3.33203H27.1673ZM27.1673 5.83203H12.7507C8.54899 5.83203 5.83398 8.71036 5.83398 13.1637V26.7504C5.83398 31.2054 8.54899 34.082 12.7507 34.082H27.1673C31.379 34.082 34.1007 31.2054 34.1007 26.7504V13.1637C34.1007 8.71036 31.379 5.83203 27.1673 5.83203ZM28.2323 20.1644C28.2429 20.1729 28.2533 20.1815 28.275 20.2018L28.3072 20.2325C28.3137 20.2388 28.3208 20.2458 28.3287 20.2535L28.4218 20.3459C28.7223 20.6468 29.5531 21.4953 32.029 24.0377C32.5107 24.531 32.5023 25.3227 32.0073 25.8044C31.514 26.2894 30.7207 26.2744 30.239 25.781C30.239 25.781 26.824 22.276 26.5807 22.0394C26.3223 21.8277 25.9073 21.7044 25.499 21.7444C25.084 21.786 24.7107 21.9844 24.4457 22.306C20.5723 27.0044 20.5257 27.0494 20.4623 27.111C19.0323 28.5144 16.724 28.491 15.319 27.0577C15.319 27.0577 13.769 25.4844 13.7423 25.4527C13.3573 25.096 12.6707 25.1194 12.259 25.5544L9.70898 28.2427C9.46232 28.5027 9.13232 28.6327 8.80232 28.6327C8.49232 28.6327 8.18398 28.5194 7.94232 28.2894C7.44065 27.816 7.42065 27.0227 7.89565 26.5244L10.4423 23.836C11.7907 22.4044 14.0657 22.3344 15.504 23.6844L17.1007 25.3044C17.5457 25.7544 18.269 25.7627 18.7157 25.3227C18.884 25.1244 22.514 20.716 22.514 20.716C23.204 19.8794 24.1773 19.3627 25.259 19.256C26.3423 19.161 27.394 19.476 28.2323 20.1644ZM14.2643 11.0469C16.5677 11.0485 18.4393 12.9219 18.4393 15.2202C18.4393 17.5219 16.566 19.3952 14.2643 19.3952C11.9627 19.3952 10.091 17.5219 10.091 15.2202C10.091 12.9185 11.9627 11.0469 14.2643 11.0469ZM14.2627 13.5469C13.341 13.5469 12.591 14.2969 12.591 15.2202C12.591 16.1435 13.341 16.8952 14.2643 16.8952C15.1877 16.8952 15.9393 16.1435 15.9393 15.2202C15.9393 14.2985 15.1877 13.5485 14.2627 13.5469Z" fill="#65737E"/>
</svg>
