<svg width="32" height="32" viewBox="0 0 32 32" fill="none" xmlns="http://www.w3.org/2000/svg">
<path d="M6.05573 19.8128C6.05573 21.3798 7.02002 22.786 8.70752 23.8206V24.7849C8.15507 24.9657 7.81355 25.4479 7.81355 26.1108V28.8128C7.81355 29.6666 8.37605 30.2291 9.22984 30.2291H9.65172C10.5055 30.2291 11.068 29.6666 11.068 28.8128V26.1108C11.068 25.4579 10.7365 24.9657 10.1941 24.7849V24.5539C11.7711 25.1867 13.7499 25.5583 15.9899 25.5583C21.8961 25.5583 25.9341 23.007 25.9341 19.8128V15.3128L28.7868 14.007C29.4999 13.6755 29.8917 13.0427 29.8917 12.3597C29.8917 11.6867 29.4999 11.0438 28.7868 10.7224L18.8526 6.18223C17.7577 5.69005 16.8738 5.45902 15.9899 5.46906C15.116 5.45902 14.2321 5.69005 13.1272 6.18223L3.20306 10.7224C2.47984 11.0438 2.09814 11.6867 2.09814 12.3597C2.09814 13.0427 2.47984 13.6755 3.20306 14.007L6.05573 15.3128V19.8128ZM15.9899 17.2816C15.347 17.2816 14.7343 17.1209 13.9006 16.7291L11.2287 15.5238L15.0557 13.5148C15.3571 13.5952 15.6885 13.6454 16.0301 13.6454C17.1752 13.6454 18.2801 13.113 18.2801 12.3597C18.2801 11.6264 17.1752 11.1041 16.0301 11.1041C14.8749 11.1041 13.76 11.6264 13.76 12.3597C13.76 12.4601 13.7801 12.5505 13.8102 12.6309L9.63163 14.7905L4.95082 12.661C4.79011 12.5907 4.70975 12.4903 4.70975 12.3597C4.70975 12.2392 4.79011 12.1287 4.95082 12.0584L13.9006 7.99027C14.7343 7.60857 15.347 7.43781 15.9899 7.43781C16.6327 7.43781 17.2455 7.60857 18.0892 7.99027L27.039 12.0584C27.1897 12.1287 27.27 12.2392 27.27 12.3597C27.27 12.4903 27.1897 12.5907 27.039 12.661L18.0892 16.7291C17.2455 17.1209 16.6327 17.2816 15.9899 17.2816ZM7.99435 19.8128V16.1967L8.70752 16.5182V21.4501C8.23542 20.9378 7.99435 20.3854 7.99435 19.8128ZM15.9899 19.2604C16.8738 19.2704 17.7577 19.0394 18.8526 18.5371L23.9955 16.1967V19.8128C23.9955 21.8519 20.8214 23.7302 15.9899 23.7302C13.5892 23.7302 11.5903 23.2581 10.1941 22.5349V17.2012L13.1272 18.5371C14.2321 19.0394 15.116 19.2704 15.9899 19.2604Z" fill="#0094DA"/>
</svg>
