<svg width="21" height="20" viewBox="0 0 21 20" fill="none" xmlns="http://www.w3.org/2000/svg">
<path fill-rule="evenodd" clip-rule="evenodd" d="M10.2345 1.03912C11.8605 0.0111182 14.0205 -0.272882 15.8865 0.325118C19.9455 1.63412 21.2055 6.05912 20.0785 9.58012C18.3395 15.1101 10.9125 19.2351 10.5975 19.4081C10.4855 19.4701 10.3615 19.5011 10.2375 19.5011C10.1135 19.5011 9.99047 19.4711 9.87847 19.4101C9.56547 19.2391 2.19247 15.1751 0.395468 9.58112C0.394468 9.58112 0.394468 9.58012 0.394468 9.58012C-0.733532 6.05812 0.522469 1.63212 4.57747 0.325118C6.48147 -0.290882 8.55647 -0.0198818 10.2345 1.03912ZM5.03747 1.75312C1.75647 2.81112 0.932468 6.34012 1.82347 9.12312C3.22547 13.4851 8.76447 17.0121 10.2365 17.8851C11.7135 17.0031 17.2925 13.4371 18.6495 9.12712C19.5405 6.34112 18.7135 2.81212 15.4275 1.75312C13.8355 1.24212 11.9785 1.55312 10.6965 2.54512C10.4285 2.75112 10.0565 2.75512 9.78647 2.55112C8.42847 1.53012 6.65447 1.23112 5.03747 1.75312ZM14.4675 3.73902C15.8305 4.18002 16.7855 5.38702 16.9025 6.81402C16.9355 7.22702 16.6285 7.58902 16.2155 7.62202C16.1945 7.62402 16.1745 7.62502 16.1535 7.62502C15.7665 7.62502 15.4385 7.32802 15.4065 6.93602C15.3405 6.11402 14.7905 5.42002 14.0075 5.16702C13.6125 5.03902 13.3965 4.61602 13.5235 4.22302C13.6525 3.82902 14.0715 3.61502 14.4675 3.73902Z" fill="#0094DA"/>
</svg>
