<svg width="56" height="56" viewBox="0 0 56 56" fill="none" xmlns="http://www.w3.org/2000/svg">
<path d="M28 16.5667C31.7333 16.5667 32.2 16.5667 33.7167 16.6833C37.5667 16.8 39.3167 18.6667 39.4333 22.4C39.55 23.9167 39.55 24.2667 39.55 28C39.55 31.7333 39.55 32.2 39.4333 33.6C39.3167 37.3333 37.45 39.2 33.7167 39.3167C32.2 39.4333 31.85 39.4333 28 39.4333C24.2667 39.4333 23.8 39.4333 22.4 39.3167C18.55 39.2 16.8 37.3333 16.6833 33.6C16.5667 32.0833 16.5667 31.7333 16.5667 28C16.5667 24.2667 16.5667 23.8 16.6833 22.4C16.8 18.6667 18.6667 16.8 22.4 16.6833C23.8 16.5667 24.2667 16.5667 28 16.5667ZM28 14C24.15 14 23.6833 14 22.2833 14.1167C17.15 14.35 14.35 17.15 14.1167 22.2833C14 23.6833 14 24.15 14 28C14 31.85 14 32.3167 14.1167 33.7167C14.35 38.85 17.15 41.65 22.2833 41.8833C23.6833 42 24.15 42 28 42C31.85 42 32.3167 42 33.7167 41.8833C38.85 41.65 41.65 38.85 41.8833 33.7167C42 32.3167 42 31.85 42 28C42 24.15 42 23.6833 41.8833 22.2833C41.65 17.15 38.85 14.35 33.7167 14.1167C32.3167 14 31.85 14 28 14ZM28 20.7667C24.0333 20.7667 20.7667 24.0333 20.7667 28C20.7667 31.9667 24.0333 35.2333 28 35.2333C31.9667 35.2333 35.2333 31.9667 35.2333 28C35.2333 24.0333 31.9667 20.7667 28 20.7667ZM28 32.6667C25.4333 32.6667 23.3333 30.5667 23.3333 28C23.3333 25.4333 25.4333 23.3333 28 23.3333C30.5667 23.3333 32.6667 25.4333 32.6667 28C32.6667 30.5667 30.5667 32.6667 28 32.6667ZM35.4667 18.9C34.5333 18.9 33.8333 19.6 33.8333 20.5333C33.8333 21.4667 34.5333 22.1667 35.4667 22.1667C36.4 22.1667 37.1 21.4667 37.1 20.5333C37.1 19.6 36.4 18.9 35.4667 18.9Z" fill="#0094DA"/>
<rect x="0.5" y="0.5" width="55" height="55" rx="27.5" stroke="#0094DA"/>
</svg>
