<svg width="32" height="32" viewBox="0 0 32 32" fill="none" xmlns="http://www.w3.org/2000/svg">
<g clip-path="url(#clip0_148_2364)">
<path d="M14.9396 21.0572C13.8809 22.155 12.1567 22.2563 10.9768 21.2899C10.2741 20.6815 9.91519 19.7667 10.0166 18.8428C10.1045 18.1616 10.4229 17.531 10.9188 17.0558L12.8365 15.1368C13.227 14.7462 13.227 14.1131 12.8365 13.7225C12.4459 13.3321 11.8128 13.3321 11.4222 13.7225L9.54524 15.6002C8.68964 16.4253 8.15007 17.524 8.02027 18.7054C7.77782 21.3665 9.73847 23.7203 12.3995 23.9627C13.8286 24.0929 15.2417 23.582 16.2571 22.5681L18.2628 20.5631C18.6533 20.1725 18.6533 19.5394 18.2628 19.1488C17.8723 18.7584 17.2392 18.7584 16.8486 19.1488L14.9396 21.0572Z" fill="#1C2126"/>
<path d="M22.1075 8.97667C20.1163 7.51371 17.3512 7.74307 15.6283 9.51411L13.7406 11.4025C13.3501 11.793 13.3501 12.4262 13.7406 12.8167C14.1312 13.2072 14.7643 13.2072 15.1549 12.8167L17.0726 10.901C18.1081 9.82999 19.7836 9.70934 20.9619 10.621C22.1748 11.6155 22.3518 13.4048 21.3573 14.6177C21.2991 14.6886 21.2375 14.7567 21.1726 14.8218L19.1669 16.8275C18.7765 17.2181 18.7765 17.8512 19.1669 18.2417C19.5575 18.6322 20.1906 18.6322 20.5812 18.2417L22.5869 16.236C24.4752 14.3417 24.4703 11.2754 22.576 9.38712C22.4288 9.24041 22.2723 9.10332 22.1075 8.97667Z" fill="#1C2126"/>
<path d="M13.7407 16.8302L16.8483 13.7226C17.2389 13.332 17.8722 13.332 18.2628 13.7226C18.6534 14.1132 18.6534 14.7465 18.2628 15.1371L15.1552 18.2447C14.7646 18.6353 14.1313 18.6353 13.7407 18.2447C13.3501 17.8541 13.3501 17.2209 13.7407 16.8302Z" fill="#1C2126"/>
</g>
<rect x="0.5" y="0.5" width="31" height="31" rx="15.5" stroke="#1C2126"/>
<defs>
<clipPath id="clip0_148_2364">
<rect width="16" height="16" fill="white" transform="translate(8 8)"/>
</clipPath>
</defs>
</svg>
