<svg width="24" height="24" viewBox="0 0 24 24" fill="none" xmlns="http://www.w3.org/2000/svg">
<path d="M11.6458 14.8285L12.7984 13.6608C11.9095 13.5855 11.2691 13.2917 10.8096 12.8321C9.53641 11.559 9.53641 9.75848 10.802 8.50038L13.3032 5.99174C14.5763 4.72611 16.3693 4.71858 17.6424 5.99174C18.9231 7.27243 18.9081 9.0654 17.65 10.331L16.3693 11.6042C16.6104 12.1617 16.6932 12.8397 16.5576 13.4273L18.7122 11.2802C20.5654 9.43454 20.573 6.79782 18.7047 4.92951C16.8288 3.05368 14.2072 3.06874 12.3539 4.92198L9.73228 7.54363C7.87905 9.39687 7.87151 12.0261 9.73982 13.8944C10.1768 14.3388 10.7794 14.6703 11.6458 14.8285ZM12.3464 8.46272L11.1938 9.63041C12.0827 9.71327 12.7231 9.99955 13.1826 10.4591C14.4633 11.7322 14.4558 13.5328 13.1902 14.7984L10.689 17.2995C9.41588 18.5726 7.62291 18.5726 6.35728 17.2995C5.07659 16.0188 5.08412 14.2334 6.34975 12.9677L7.62291 11.687C7.38184 11.1371 7.3065 10.4591 7.43457 9.86394L5.27999 12.0185C3.42676 13.8642 3.41922 16.4934 5.28753 18.3617C7.16336 20.2375 9.78502 20.2225 11.6383 18.3768L14.2599 15.7476C16.1131 13.8944 16.1207 11.2652 14.2524 9.39687C13.8154 8.95993 13.2203 8.62845 12.3464 8.46272Z" fill="#0094DA"/>
</svg>
