<svg width="21" height="20" viewBox="0 0 21 20" fill="none" xmlns="http://www.w3.org/2000/svg">
<path fill-rule="evenodd" clip-rule="evenodd" d="M9.3083 0C11.7543 0 13.7443 1.99 13.7443 4.436V5.368C13.7443 5.782 13.4083 6.118 12.9943 6.118C12.5803 6.118 12.2443 5.782 12.2443 5.368V4.436C12.2443 2.816 10.9273 1.5 9.3083 1.5H4.43331C2.81631 1.5 1.50031 2.816 1.50031 4.436V15.565C1.50031 17.184 2.81631 18.5 4.43331 18.5H9.3193C10.9313 18.5 12.2443 17.188 12.2443 15.576V14.633C12.2443 14.219 12.5803 13.883 12.9943 13.883C13.4083 13.883 13.7443 14.219 13.7443 14.633V15.576C13.7443 18.016 11.7583 20 9.3193 20H4.43331C1.98931 20 0.000305176 18.011 0.000305176 15.565V4.436C0.000305176 1.99 1.98931 0 4.43331 0H9.3083ZM17.3884 6.554L20.3164 9.469C20.3425 9.49492 20.3659 9.52187 20.3873 9.55039L20.3164 9.469C20.3518 9.50393 20.3833 9.5421 20.4107 9.5828C20.4227 9.60125 20.4343 9.62032 20.4451 9.63992C20.4538 9.65523 20.4618 9.67122 20.4693 9.68746C20.4756 9.70182 20.4817 9.71618 20.4873 9.73077C20.4948 9.74977 20.5014 9.76931 20.5072 9.78911C20.5116 9.8047 20.5156 9.82026 20.5191 9.836C20.5236 9.8551 20.5271 9.87432 20.5298 9.89368C20.5314 9.90627 20.5329 9.91947 20.5341 9.93276C20.5364 9.95557 20.5374 9.97774 20.5374 10L20.5323 10.062L20.5303 10.1017C20.53 10.1034 20.5298 10.1051 20.5295 10.1068L20.5374 10C20.5374 10.0555 20.5313 10.1105 20.5193 10.1639C20.5156 10.1797 20.5116 10.1953 20.5071 10.2107C20.5014 10.2307 20.4948 10.2502 20.4874 10.2695C20.4817 10.2838 20.4756 10.2982 20.4691 10.3123C20.4618 10.3288 20.4538 10.3448 20.4452 10.3605C20.4343 10.3797 20.4227 10.3988 20.4103 10.4172C20.4033 10.4282 20.3956 10.439 20.3876 10.4497C20.3638 10.481 20.3378 10.5104 20.3098 10.5377L17.3884 13.447C17.2424 13.593 17.0504 13.666 16.8594 13.666C16.6674 13.666 16.4744 13.593 16.3284 13.445C16.0364 13.151 16.0374 12.677 16.3304 12.385L17.9703 10.75H7.74611C7.33211 10.75 6.99611 10.414 6.99611 10C6.99611 9.586 7.33211 9.25 7.74611 9.25H17.9723L16.3304 7.616C16.0374 7.324 16.0354 6.85 16.3284 6.556C16.6204 6.262 17.0944 6.262 17.3884 6.554Z" fill="#FF6551"/>
</svg>
