<svg width="166" height="168" viewBox="0 0 166 168" fill="none" xmlns="http://www.w3.org/2000/svg">
<g clip-path="url(#clip0_135_4571)">
<path fill-rule="evenodd" clip-rule="evenodd" d="M95.8152 4.05827C104.978 6.80205 113.012 12.4258 118.727 20.0955C124.442 27.7653 127.533 37.0726 127.541 46.6373C127.541 50.0336 126.817 53.6491 125.649 57.4372C124.537 55.9333 121.585 56.2089 120.25 57.5468C116.296 61.4976 113.959 66.8428 109.899 70.5147L109.842 70.5712C109.763 70.1668 109.632 69.7741 109.454 69.4025C109.035 68.5151 108.355 67.7771 107.505 67.2877C111.731 62.522 114.469 56.6226 115.38 50.3184C116.291 44.0141 115.335 37.581 112.631 31.8139C109.926 26.0467 105.592 21.1981 100.162 17.867C94.733 14.5359 88.4468 12.8682 82.0802 13.0699C75.7137 13.2716 69.5456 15.3339 64.3381 19.002C59.1305 22.6701 55.1115 27.7834 52.7776 33.7101C50.4436 39.6369 49.897 46.1175 51.2051 52.3515C52.5133 58.5855 55.6189 64.2997 60.1385 68.7883C55.0273 64.0076 51.3369 57.9073 49.4747 51.1611C47.6125 44.4148 47.651 37.2852 49.5859 30.5595C51.5209 23.8338 55.2769 17.7737 60.4394 13.0484C65.6018 8.32312 71.9698 5.11652 78.84 3.78271C79.7862 3.61339 80.7889 3.45071 81.7351 3.33783H81.9011C86.5467 2.79683 91.2503 3.04037 95.8152 4.05827Z" fill="#93C01F"/>
<path fill-rule="evenodd" clip-rule="evenodd" d="M102.644 43.5598C104.075 44.3879 105.263 45.5779 106.088 47.0104C106.913 48.4428 107.347 50.0673 107.346 51.7204V57.8126V58.2176C107.347 58.5983 107.254 58.9733 107.077 59.3099C105.919 61.4293 104.476 63.3798 102.787 65.1066C102.677 65.2178 102.543 65.3028 102.395 65.3556C100.696 66.0739 99.0529 66.9207 97.4818 67.8888C97.4818 63.2408 97.5316 59.0543 97.5316 54.2004C97.532 51.8137 96.8192 49.4813 95.4846 47.5026C94.1501 45.5238 92.2547 43.989 90.0417 43.095C90.2446 42.938 90.4345 42.7648 90.6094 42.5771C91.3674 42.3737 92.1486 42.2699 92.9334 42.2684H95.4666C94.1623 42.2893 92.871 42.0063 91.6951 41.4417C93.3093 39.438 94.185 36.9398 94.1751 34.3668C94.1666 32.8278 93.8463 31.3065 93.2335 29.8948C92.6206 28.483 91.728 27.2102 90.6094 26.1531C92.0585 25.2199 93.743 24.7178 95.4666 24.7056C97.7956 24.7056 100.029 25.6307 101.676 27.2776C103.323 28.9244 104.248 31.158 104.248 33.487C104.248 35.8159 103.323 38.0495 101.676 39.6964C100.029 41.3432 97.7956 42.2684 95.4666 42.2684H97.94C99.0919 42.2115 100.241 42.4241 101.297 42.8892M67.9405 42.358L70.3043 42.2684H72.7843C73.5868 42.2664 74.3861 42.3703 75.1615 42.5771C75.3244 42.7766 75.5157 42.9511 75.7292 43.095C73.5108 43.9868 71.6086 45.5197 70.2656 47.4978C68.9226 49.476 68.1998 51.8095 68.1895 54.2004V60.193C68.1813 60.4519 68.198 60.7109 68.2393 60.9666V68.7653C65.8885 67.1867 63.7974 65.2524 62.0408 63.0316C60.3773 61.1363 58.8987 59.0863 57.6252 56.9096C57.4379 56.5894 57.3404 56.2247 57.343 55.8538V55.4919H57.3928L57.343 49.7583C57.7049 44.9542 59.8728 42.8892 65.6065 42.5771L67.9405 42.358ZM64.8396 46.5545L66.4 53.0119L64.8396 46.5545ZM64.232 47.0724L58.7573 53.2708V53.4236M65.0653 34.0547C65.7259 34.2381 66.4231 34.2437 67.0865 34.0709C67.7499 33.8982 68.3559 33.5533 68.8432 33.0711C69.3304 32.5889 69.6816 31.9866 69.8612 31.325C70.0409 30.6634 70.0425 29.9662 69.8661 29.3038C69.6192 30.4789 69.0327 31.5556 68.1792 32.4002C67.3257 33.2448 66.243 33.8201 65.0653 34.0547ZM61.4299 47.328C61.586 50.067 61.1212 53.636 59.6737 55.389C61.0875 54.5965 62.5972 53.9884 64.1656 53.5796C63.1862 51.9196 62.6683 50.17 63.5481 48.6726C63.3461 49.537 63.3995 50.4414 63.7018 51.276C64.0042 52.1106 64.5425 52.8394 65.2513 53.3738L65.3542 53.4269C65.4073 53.4269 65.4571 53.4767 65.56 53.5298C65.6131 53.5796 65.6629 53.5796 65.7161 53.6327C65.7692 53.6858 65.8721 53.6825 65.9219 53.7356C65.9717 53.7888 66.0281 53.7854 66.0779 53.8386C66.1177 53.8394 66.1568 53.8491 66.1924 53.8669C66.228 53.8847 66.2592 53.9102 66.2838 53.9415C66.3369 53.9415 66.4398 53.9946 66.4896 53.9946C66.5151 54.0257 66.547 54.0509 66.5831 54.0687C66.6191 54.0864 66.6586 54.0963 66.6988 54.0975C66.7486 54.1473 66.8017 54.1473 66.8548 54.2004C66.9577 54.2004 67.0075 54.2502 67.0607 54.2502L67.2665 54.3034V41.8401C67.3694 41.8401 67.4192 41.8401 67.4723 41.8932C67.5753 41.8932 67.6284 41.9463 67.6782 41.9463C67.7844 41.9463 67.8342 41.9961 67.8873 41.9961C67.9903 41.9961 68.0401 42.0492 68.0932 42.0492C68.1961 42.0492 68.2459 42.099 68.3488 42.099C68.4019 42.099 68.4551 42.1522 68.558 42.1522H68.7638C68.8252 42.1908 68.8974 42.2083 68.9697 42.202C69.0726 42.202 69.1257 42.202 69.1755 42.2551H71.0347L71.0878 42.202H71.3468L71.4497 42.1522H71.7087L71.8116 42.099H71.9643L72.0705 42.0492H72.376L72.4258 41.9961H72.5287L72.6349 41.9463H72.7877L72.8906 41.8932H72.9437L73.04 41.8401L73.0931 41.7903H73.196L73.2989 41.7372H73.372L73.4749 41.6874H73.528L73.6309 41.6342L73.7339 41.5844H73.787L73.8899 41.5313L73.9397 41.4815H74.036L74.0858 41.4284C72.3144 39.2122 71.4425 36.4102 71.6437 33.5802C71.8448 30.7502 73.1043 28.0997 75.1714 26.1564H75.1183C75.0685 26.1066 75.0685 26.1066 75.0154 26.1066C75.0154 26.0535 74.9656 26.0535 74.9125 26.0535C74.9125 26.0469 74.9112 26.0405 74.9087 26.0344C74.9062 26.0284 74.9025 26.0229 74.8979 26.0183C74.8932 26.0136 74.8878 26.01 74.8817 26.0075C74.8757 26.005 74.8692 26.0037 74.8627 26.0037L74.7564 25.8974C74.7066 25.8974 74.7066 25.8974 74.6535 25.8476C74.6137 25.8435 74.577 25.8245 74.5506 25.7945C74.544 25.7945 74.5376 25.7932 74.5315 25.7907C74.5255 25.7882 74.52 25.7846 74.5154 25.7799C74.5107 25.7753 74.5071 25.7698 74.5046 25.7638C74.5021 25.7577 74.5008 25.7513 74.5008 25.7447H74.3945L74.2916 25.6916C74.2418 25.6418 74.2418 25.6418 74.1887 25.6418C74.1389 25.5887 74.1389 25.5887 74.0858 25.5887C74.0858 25.5389 74.036 25.5389 73.9829 25.5389L73.9297 25.4858C73.8911 25.4802 73.8552 25.4628 73.8268 25.436C73.777 25.436 73.7239 25.436 73.7239 25.3828H73.621C73.5679 25.3297 73.5679 25.3297 73.5181 25.3297C73.4649 25.3297 73.4649 25.2766 73.4151 25.2766C73.362 25.2766 73.362 25.2766 73.3122 25.2268H73.2093L73.1064 25.1737L73.0001 25.1239H72.8972C72.8972 25.0708 72.8474 25.0708 72.7943 25.0708H72.6914C72.6914 25.021 72.6416 25.021 72.5885 25.021C72.5353 25.021 72.5353 25.021 72.4855 24.9678H72.376C72.3229 24.9678 72.3229 24.9678 72.2731 24.918H72.0639C72.0141 24.8649 72.0141 24.8649 71.961 24.8649H71.8581C71.8049 24.8649 71.7551 24.8649 71.7551 24.8151H71.5493C71.521 24.8186 71.4922 24.8156 71.4652 24.8064C71.4382 24.7972 71.4136 24.7821 71.3933 24.762H70.9816C70.9285 24.762 70.8787 24.762 70.8787 24.7089H69.8428C69.793 24.7089 69.6901 24.762 69.637 24.762H69.2253L69.1722 24.8151H68.9165C68.8634 24.8151 68.8136 24.8649 68.7605 24.8649H68.6045C68.5841 24.885 68.5595 24.9002 68.5325 24.9094C68.5055 24.9186 68.4767 24.9215 68.4484 24.918H68.392C68.3389 24.918 68.2891 24.9678 68.2359 24.9678H68.1861C68.133 24.9678 68.0832 25.021 68.0301 25.021H67.9803C66.2284 25.5087 64.6695 26.5245 63.5158 27.9301C62.3621 29.3357 61.6696 31.0628 61.5328 32.8761V33.2878V33.4936V33.7526V34.1642C61.525 34.2535 61.5423 34.3432 61.5827 34.4232V34.629C61.5827 34.6822 61.5826 34.7884 61.6358 34.8349L61.4299 47.328Z" fill="#0094DA"/>
<path fill-rule="evenodd" clip-rule="evenodd" d="M68.5447 76.1921C61.1929 72.533 55.1735 66.6608 51.3335 59.4019C47.4935 52.1429 46.0262 43.8626 47.1382 35.7262C48.2502 27.5897 51.8854 20.0068 57.5323 14.0444C63.1793 8.08197 70.5536 4.04027 78.6176 2.48804C79.6469 2.2677 80.6877 2.10477 81.7351 2C79.2146 2.07026 76.7031 2.33107 74.2219 2.7802C68.5315 3.87954 63.1134 6.0891 58.277 9.28268C53.4407 12.4763 49.2808 16.5913 46.035 21.3928C42.7892 26.1943 40.5211 31.5881 39.3601 37.2663C38.1992 42.9445 38.1682 48.7957 39.269 54.4859C40.0416 58.6518 41.4291 62.6798 43.3858 66.4379C45.9177 71.3132 49.3307 75.6773 53.452 79.3095L53.8405 79.6415H53.8969V79.688L54.3418 80.02C54.6432 80.2965 54.9591 80.557 55.288 80.8002C60.9315 85.2284 67.5684 88.2157 74.6251 89.504C81.6818 90.7924 88.9462 90.343 95.7903 88.1948C102.634 86.0466 108.853 82.2641 113.907 77.1742C118.962 72.0843 122.701 65.8401 124.802 58.9812C124.859 57.1452 122.076 57.5901 121.187 58.4799C116.011 65.9366 107.329 82.2444 87.9036 81.69C91.466 81.0758 110.612 74.8441 108.272 69.9471C107.975 69.3755 107.539 68.8874 107.005 68.5272C106.471 68.1671 105.855 67.9465 105.214 67.8854C101.539 67.7194 95.6957 76.1223 83.7271 72.6164C77.1037 70.1696 72.0407 71.3349 68.5348 76.1788L68.5447 76.1921Z" fill="#0094DA"/>
<path fill-rule="evenodd" clip-rule="evenodd" d="M77.9536 121.958C77.7458 121.694 77.5583 121.414 77.3926 121.122L59.6472 91.2417C59.4184 90.9095 59.3047 90.5116 59.3234 90.1087C59.3422 89.7059 59.4923 89.3202 59.751 89.0108C60.0096 88.7013 60.3625 88.4851 60.7556 88.3951C61.1487 88.3052 61.5605 88.3464 61.928 88.5126C68.724 91.5404 76.0847 93.0929 83.5246 93.0677C91.4195 93.0677 100.028 89.917 105.672 87.3871C106.039 87.223 106.449 87.183 106.841 87.2731C107.232 87.3633 107.583 87.5786 107.841 87.8865C108.099 88.1945 108.25 88.5781 108.27 88.9793C108.29 89.3805 108.179 89.7773 107.953 90.1095L89.6633 121.102C89.4936 121.403 89.3004 121.691 89.0856 121.962C88.4119 122.788 87.5628 123.453 86.6 123.91C85.6371 124.367 84.5846 124.604 83.5188 124.604C82.453 124.603 81.4007 124.366 80.4381 123.908C79.4755 123.451 78.6268 122.785 77.9536 121.958Z" fill="#93C01F"/>
<path d="M83 43.6827C87.9983 43.6827 92.0503 39.6307 92.0503 34.6323C92.0503 29.634 87.9983 25.582 83 25.582C78.0016 25.582 73.9496 29.634 73.9496 34.6323C73.9496 39.6307 78.0016 43.6827 83 43.6827Z" fill="#0094DA"/>
<path fill-rule="evenodd" clip-rule="evenodd" d="M85.7888 43.7057C86.201 44.108 86.5286 44.5887 86.7521 45.1195C86.9756 45.6504 87.0906 46.2206 87.0903 46.7966V49.1438C87.2575 49.2147 87.3945 49.3419 87.4777 49.5033C87.5608 49.6647 87.5848 49.8502 87.5454 50.0274C87.5061 50.2047 87.4059 50.3626 87.2622 50.4736C87.1186 50.5847 86.9406 50.642 86.7591 50.6354C86.5777 50.6289 86.4042 50.559 86.2689 50.438C86.1336 50.3169 86.045 50.1522 86.0185 49.9726C85.9919 49.793 86.0292 49.6097 86.1237 49.4547C86.2182 49.2996 86.364 49.1826 86.5358 49.1239V46.78C86.5361 46.1744 86.3905 45.5777 86.1114 45.0402C85.8322 44.5028 85.4278 44.0405 84.9323 43.6924H80.676C80.1805 44.0405 79.7761 44.5028 79.497 45.0402C79.2178 45.5777 79.0722 46.1744 79.0725 46.78V48.5197C80.1539 48.6098 81.1617 49.104 81.8951 49.9039C82.6285 50.7037 83.0337 51.7505 83.0299 52.8357C83.0315 53.8574 82.6663 54.8459 82.0007 55.6211C82.0831 55.7488 82.1269 55.8975 82.1269 56.0494C82.1275 56.2191 82.0778 56.3852 81.9839 56.5265C81.89 56.6679 81.7563 56.7782 81.5997 56.8435C81.443 56.9087 81.2705 56.9259 81.104 56.893C80.9376 56.86 80.7846 56.7784 80.6646 56.6584C80.5447 56.5384 80.463 56.3855 80.4301 56.219C80.3971 56.0526 80.4144 55.8801 80.4796 55.7234C80.5448 55.5668 80.6552 55.433 80.7965 55.3392C80.9379 55.2453 81.104 55.1955 81.2736 55.1962C81.3824 55.191 81.4907 55.2127 81.589 55.2593C81.9804 54.7964 82.2541 54.2459 82.3871 53.6545C82.5201 53.0631 82.5083 52.4484 82.3527 51.8626C82.1972 51.2767 81.9025 50.7371 81.4938 50.2896C81.085 49.842 80.5742 49.4998 80.0048 49.292C79.4354 49.0841 78.8243 49.0169 78.2233 49.0959C77.6223 49.1748 77.0493 49.3978 76.553 49.7457C76.0566 50.0936 75.6516 50.5562 75.3724 51.0941C75.0931 51.6321 74.9479 52.2295 74.949 52.8357C74.9459 53.7377 75.2717 54.61 75.8654 55.2891C75.9888 55.2268 76.1254 55.1949 76.2638 55.1962C76.4324 55.1968 76.597 55.2474 76.7369 55.3416C76.8768 55.4357 76.9856 55.5692 77.0497 55.7252C77.1138 55.8812 77.1302 56.0526 77.0969 56.2179C77.0636 56.3832 76.9821 56.5349 76.8626 56.6539C76.7431 56.7729 76.5911 56.8538 76.4257 56.8865C76.2603 56.9191 76.0889 56.9021 75.9332 56.8374C75.7774 56.7727 75.6444 56.6633 75.5508 56.5231C75.4572 56.3829 75.4072 56.218 75.4072 56.0494C75.41 55.929 75.4371 55.8105 75.4869 55.7008C74.9482 55.0906 74.593 54.3405 74.4624 53.5371C74.3317 52.7337 74.431 51.9097 74.7486 51.1603C75.0662 50.4108 75.5893 49.7665 76.2574 49.3016C76.9256 48.8367 77.7116 48.5702 78.5247 48.5329V46.8065C78.524 46.2379 78.6357 45.6748 78.8534 45.1495C79.071 44.6242 79.3903 44.147 79.7929 43.7455C77.3473 43.9558 75.0695 45.0759 73.4097 46.8844C71.75 48.6929 70.829 51.0583 70.8289 53.5129V69.0638C70.8289 69.0638 70.8289 69.2398 70.8555 69.2564C71.1961 69.43 71.5743 69.5168 71.9565 69.5093C72.3387 69.5018 72.7132 69.4001 73.0467 69.2132C76.2903 67.4769 80.1282 67.6561 84.1255 69.0605C87.7899 70.1023 91.7045 69.8154 95.1778 68.2504V53.503C95.1775 50.9745 94.2008 48.5439 92.4513 46.7184C90.7019 44.8928 88.315 43.8135 85.7888 43.7057Z" fill="#0094DA"/>
<path d="M50.4806 162.801C50.1365 162.787 49.7929 162.842 49.4706 162.963C49.1483 163.085 48.8538 163.27 48.6048 163.508C48.3622 163.752 48.1729 164.043 48.0488 164.364C47.9248 164.684 47.8688 165.027 47.8844 165.371C47.8708 165.718 47.9276 166.065 48.0514 166.391C48.1752 166.716 48.3635 167.013 48.6048 167.263C49.113 167.734 49.7795 167.997 50.4724 168C51.1653 168.003 51.8341 167.746 52.3465 167.28C52.5852 167.025 52.7704 166.724 52.8913 166.396C53.0122 166.069 53.0662 165.72 53.0503 165.371C53.0717 165.028 53.0199 164.684 52.8983 164.363C52.7767 164.041 52.5882 163.749 52.3451 163.506C52.1021 163.263 51.8102 163.075 51.4887 162.953C51.1673 162.832 50.8236 162.78 50.4806 162.801Z" fill="#0094DA"/>
<path d="M44.8466 162.801C44.5019 162.786 44.1578 162.842 43.835 162.963C43.5121 163.085 43.217 163.27 42.9674 163.508C42.7248 163.752 42.5355 164.043 42.4115 164.364C42.2874 164.684 42.2314 165.027 42.247 165.371C42.2334 165.718 42.2902 166.065 42.414 166.39C42.5378 166.715 42.7261 167.012 42.9674 167.263C43.2126 167.509 43.5062 167.702 43.8296 167.829C44.1531 167.956 44.4994 168.014 44.8466 168C45.19 168.015 45.5328 167.959 45.8534 167.835C46.174 167.711 46.4654 167.522 46.7091 167.28C46.9484 167.025 47.1341 166.725 47.255 166.397C47.3759 166.069 47.4296 165.72 47.4129 165.371C47.4342 165.028 47.3825 164.684 47.2611 164.363C47.1397 164.042 46.9515 163.75 46.7088 163.507C46.4662 163.264 46.1747 163.076 45.8536 162.954C45.5326 162.832 45.1893 162.78 44.8466 162.801Z" fill="#0094DA"/>
<path d="M66.068 138.253C66.4114 138.268 66.7543 138.212 67.0749 138.088C67.3955 137.964 67.6868 137.775 67.9305 137.532C68.1699 137.277 68.3555 136.977 68.4764 136.649C68.5973 136.321 68.6511 135.972 68.6344 135.623C68.6562 135.28 68.6049 134.937 68.4837 134.615C68.3625 134.294 68.1743 134.002 67.9315 133.759C67.6887 133.516 67.397 133.327 67.0757 133.206C66.7544 133.084 66.4109 133.032 66.068 133.054C65.7236 133.039 65.3799 133.094 65.0572 133.215C64.7345 133.336 64.4392 133.52 64.1889 133.757C63.9463 134.002 63.7571 134.294 63.6331 134.615C63.5091 134.936 63.453 135.279 63.4684 135.623C63.4553 135.971 63.5122 136.318 63.636 136.643C63.7598 136.968 63.9478 137.265 64.1889 137.516C64.434 137.762 64.7276 137.954 65.0511 138.081C65.3745 138.208 65.7208 138.267 66.068 138.253Z" fill="#0094DA"/>
<path d="M67.6317 141.175L63.2559 143.482V148.618C63.2559 149.159 63.163 149.524 62.9737 149.714C62.7845 149.903 62.4226 149.996 61.8781 149.996H51.9547L49.7635 154.216C49.7207 154.298 49.6999 154.39 49.7031 154.483C49.7063 154.576 49.7334 154.667 49.7818 154.746C49.8302 154.826 49.8982 154.891 49.9793 154.937C50.0604 154.982 50.1519 155.006 50.2448 155.006H52.2368C51.5463 155.838 49.9804 156.255 47.5391 156.257C43.9468 156.257 42.1518 154.609 42.154 151.311C42.1542 150.191 42.366 149.081 42.7782 148.04C42.8156 147.95 42.8277 147.851 42.8132 147.754C42.7987 147.657 42.758 147.565 42.6956 147.49C42.6332 147.414 42.5514 147.357 42.4589 147.324C42.3664 147.291 42.2668 147.284 42.1706 147.303L38.3327 148.117C37.6291 149.367 37.2726 150.783 37.3002 152.217C37.2449 154.287 37.9715 156.302 39.3353 157.861C41.1503 159.93 43.8848 160.964 47.5391 160.962C50.1486 160.962 52.3298 160.513 54.0828 159.614C56.1279 158.552 57.3176 157.018 57.6518 155.012H62.3496C64.0583 155.012 65.4571 154.522 66.546 153.542C67.7988 152.413 68.4241 150.857 68.4218 148.874V141.653C68.4224 141.56 68.3988 141.468 68.3533 141.387C68.3078 141.306 68.2421 141.238 68.1624 141.189C68.0828 141.141 67.992 141.115 67.899 141.112C67.806 141.109 67.7139 141.131 67.6317 141.175Z" fill="#0094DA"/>
<path d="M60.424 138.253C60.7675 138.268 61.1104 138.212 61.431 138.088C61.7516 137.964 62.043 137.775 62.2865 137.532C62.5265 137.278 62.7127 136.978 62.8342 136.65C62.9557 136.322 63.01 135.973 62.9937 135.623C63.0151 135.28 62.9633 134.937 62.8417 134.615C62.7201 134.294 62.5316 134.002 62.2885 133.759C62.0455 133.516 61.7536 133.327 61.4321 133.206C61.1107 133.084 60.767 133.032 60.424 133.054C60.0797 133.04 59.736 133.095 59.4133 133.216C59.0906 133.336 58.7953 133.521 58.5449 133.757C58.303 134.002 58.1142 134.294 57.9902 134.615C57.8663 134.936 57.8098 135.279 57.8245 135.623C57.812 135.971 57.8694 136.317 57.9931 136.642C58.1169 136.967 58.3045 137.264 58.5449 137.516C58.7903 137.762 59.0839 137.954 59.4073 138.081C59.7307 138.208 60.0769 138.266 60.424 138.253Z" fill="#0094DA"/>
<path d="M71.5559 155.006L74.1522 149.996H78.5047C78.7475 149.999 78.9821 149.907 79.1578 149.74C79.3336 149.572 79.4364 149.342 79.4442 149.099C79.4619 147.284 78.5124 145.829 76.5957 144.734L78.8566 140.859C78.8925 140.796 78.9407 140.742 78.9983 140.698C79.0558 140.654 79.1216 140.623 79.1916 140.605C79.2616 140.588 79.3345 140.584 79.4058 140.595C79.4772 140.606 79.5456 140.632 79.6069 140.67C82.9446 142.768 84.6135 145.585 84.6135 149.119C84.6135 151.268 84.0491 152.844 82.9203 153.847C82.0637 154.622 80.9161 155.008 79.4774 155.006H71.5559Z" fill="#0094DA"/>
<path d="M106.094 157.542C105.75 157.527 105.406 157.582 105.083 157.703C104.76 157.824 104.465 158.008 104.215 158.246C103.972 158.489 103.783 158.781 103.659 159.101C103.535 159.422 103.479 159.765 103.494 160.108C103.481 160.456 103.538 160.804 103.662 161.129C103.785 161.455 103.974 161.753 104.215 162.004C104.723 162.475 105.39 162.738 106.082 162.741C106.775 162.744 107.444 162.487 107.957 162.02C108.195 161.765 108.381 161.464 108.501 161.135C108.622 160.807 108.676 160.458 108.66 160.108C108.682 159.766 108.63 159.422 108.509 159.101C108.387 158.78 108.199 158.489 107.956 158.246C107.713 158.003 107.422 157.815 107.101 157.694C106.78 157.572 106.437 157.52 106.094 157.542Z" fill="#0094DA"/>
<path d="M100.457 157.542C100.112 157.527 99.7683 157.582 99.4455 157.703C99.1227 157.824 98.8275 158.008 98.5774 158.246C98.335 158.489 98.1457 158.781 98.0217 159.101C97.8977 159.422 97.8416 159.765 97.857 160.108C97.8435 160.456 97.9004 160.804 98.0242 161.129C98.148 161.455 98.3361 161.753 98.5774 162.004C99.0856 162.475 99.7521 162.738 100.445 162.741C101.138 162.744 101.807 162.487 102.319 162.02C102.558 161.765 102.743 161.464 102.864 161.135C102.985 160.807 103.039 160.458 103.023 160.108C103.044 159.766 102.993 159.422 102.871 159.101C102.75 158.78 102.561 158.489 102.319 158.246C102.076 158.003 101.784 157.815 101.463 157.694C101.142 157.572 100.799 157.52 100.457 157.542Z" fill="#0094DA"/>
<path d="M123.066 149.996C120.852 149.996 119.746 149.11 119.746 147.34C119.746 145.817 120.497 145.035 122 144.993H122.156C123.909 144.993 125.59 145.878 127.199 147.649V143.409C127.201 143.29 127.164 143.173 127.093 143.077C125.665 141.107 123.811 140.123 121.529 140.125C119.87 140.106 118.259 140.684 116.99 141.752C115.383 143.111 114.58 144.906 114.58 147.137C114.567 148.108 114.726 149.073 115.048 149.989H109.255C109.063 150.045 108.861 150.048 108.668 149.998C108.475 149.948 108.299 149.848 108.159 149.707C108.018 149.567 107.917 149.391 107.868 149.198C107.818 149.005 107.821 148.802 107.877 148.611V141.639C107.877 141.546 107.854 141.455 107.808 141.373C107.763 141.292 107.697 141.224 107.617 141.176C107.538 141.128 107.447 141.101 107.354 141.099C107.261 141.096 107.169 141.118 107.087 141.161L102.711 143.469V148.605C102.711 149.146 102.618 149.511 102.429 149.7C102.111 149.926 101.721 150.026 101.333 149.982H96.134C95.9428 150.038 95.7402 150.041 95.5474 149.991C95.3547 149.942 95.1787 149.841 95.038 149.701C94.8972 149.56 94.7968 149.384 94.7473 149.191C94.6977 148.998 94.7008 148.796 94.7562 148.605V135.69C94.7567 135.597 94.7331 135.505 94.6876 135.424C94.6421 135.343 94.5764 135.275 94.4967 135.227C94.4171 135.178 94.3264 135.152 94.2333 135.149C94.1403 135.147 94.0482 135.168 93.966 135.212L89.5902 137.536V148.87C89.5902 150.603 90.0805 152.023 91.061 153.13C92.1677 154.383 93.7026 155.009 95.6658 155.009H101.801C103.037 155.026 104.253 154.696 105.31 154.056C106.354 154.699 107.561 155.026 108.786 154.996H128.707V149.996H123.066Z" fill="#0094DA"/>
</g>
<defs>
<clipPath id="clip0_135_4571">
<rect width="166" height="168" fill="white"/>
</clipPath>
</defs>
</svg>
