<svg width="56" height="56" viewBox="0 0 56 56" fill="none" xmlns="http://www.w3.org/2000/svg">
<path fill-rule="evenodd" clip-rule="evenodd" d="M27.9998 14C20.113 14 13.9995 19.7775 13.9995 27.5803C13.9995 31.6614 15.6726 35.1895 18.3968 37.6255C18.6255 37.8297 18.7631 38.1167 18.7736 38.4236L18.8495 40.9133C18.874 41.7078 19.6941 42.2247 20.421 41.9038L23.2001 40.6776C23.4357 40.5738 23.6994 40.5551 23.9479 40.6228C25.2243 40.974 26.5835 41.1606 27.9998 41.1606C35.8867 41.1606 42.0002 35.3832 42.0002 27.5803C42.0002 19.7775 35.8867 14 27.9998 14ZM36.407 24.4489L32.2944 30.9742C31.6399 32.0126 30.2387 32.2704 29.2575 31.5342L25.9861 29.0807C25.6863 28.8555 25.2733 28.8567 24.9746 29.0842L20.5563 32.4361C19.9672 32.8829 19.1971 32.1783 19.5915 31.5517L23.7041 25.0264C24.3586 23.9881 25.7598 23.7302 26.741 24.4664L30.0124 26.92C30.3122 27.1451 30.7252 27.144 31.0239 26.9165L35.4422 23.5646C36.0325 23.1177 36.8014 23.8224 36.407 24.4489Z" fill="#0094DA"/>
<rect x="0.5" y="0.5" width="55" height="55" rx="27.5" stroke="#0094DA"/>
</svg>
