<svg width="17" height="16" viewBox="0 0 17 16" fill="none" xmlns="http://www.w3.org/2000/svg">
<path fill-rule="evenodd" clip-rule="evenodd" d="M11.4574 0.666672C13.8754 0.666672 15.5001 2.364 15.5001 4.89V10.7767C15.5001 13.3027 13.8754 15 11.4574 15H5.20941C2.79141 15 1.16675 13.3027 1.16675 10.7767V4.89C1.16675 2.364 2.79141 0.666672 5.20941 0.666672H11.4574ZM11.4574 1.66667H5.20941C3.36141 1.66667 2.16675 2.93134 2.16675 4.89V10.7767C2.16675 12.7353 3.36141 14 5.20941 14H11.4574C13.3061 14 14.5001 12.7353 14.5001 10.7767V4.89C14.5001 2.93134 13.3061 1.66667 11.4574 1.66667ZM8.33341 4.88487C8.60941 4.88487 8.83341 5.10887 8.83341 5.38487V7.32667L10.7777 7.3268C11.0537 7.3268 11.2777 7.5508 11.2777 7.8268C11.2777 8.1028 11.0537 8.3268 10.7777 8.3268L8.83341 8.32667V10.2695C8.83341 10.5455 8.60941 10.7695 8.33341 10.7695C8.05741 10.7695 7.83341 10.5455 7.83341 10.2695V8.32667L5.88908 8.3268C5.61241 8.3268 5.38908 8.1028 5.38908 7.8268C5.38908 7.5508 5.61241 7.3268 5.88908 7.3268L7.83341 7.32667V5.38487C7.83341 5.10887 8.05741 4.88487 8.33341 4.88487Z" fill="#1C2126"/>
</svg>
