<svg width="80" height="80" viewBox="0 0 80 80" fill="none" xmlns="http://www.w3.org/2000/svg">
<circle cx="40" cy="40" r="40" fill="#C0C5CE"/>
<path fill-rule="evenodd" clip-rule="evenodd" d="M53.0665 50.321C53.0665 55.8144 45.5332 56.4494 39.8682 56.4494L39.4628 56.449C35.8535 56.4403 26.6665 56.2124 26.6665 50.2877C26.6665 44.9065 33.8971 44.1873 39.519 44.1602L40.2736 44.1597C43.8826 44.1685 53.0665 44.3964 53.0665 50.321ZM39.8682 46.6594C32.7665 46.6594 29.1665 47.8794 29.1665 50.2877C29.1665 52.7177 32.7665 53.9494 39.8682 53.9494C46.9682 53.9494 50.5665 52.7294 50.5665 50.321C50.5665 47.891 46.9682 46.6594 39.8682 46.6594ZM39.8682 23.332C44.7482 23.332 48.7165 27.302 48.7165 32.182C48.7165 37.062 44.7482 41.0304 39.8682 41.0304H39.8148C34.9448 41.0154 30.9998 37.0437 31.0165 32.177C31.0165 27.302 34.9865 23.332 39.8682 23.332ZM39.8682 25.712C36.2998 25.712 33.3965 28.6137 33.3965 32.182C33.3848 35.7387 36.2665 38.6387 39.8198 38.652L39.8682 39.842V38.652C43.4348 38.652 46.3365 35.7487 46.3365 32.182C46.3365 28.6137 43.4348 25.712 39.8682 25.712Z" fill="#65737E"/>
</svg>
