<svg width="11" height="14" viewBox="0 0 11 14" fill="none" xmlns="http://www.w3.org/2000/svg">
<path fill-rule="evenodd" clip-rule="evenodd" d="M10.7265 11.1287C10.7265 13.3261 7.71317 13.5801 5.44717 13.5801L5.28501 13.5799C3.84131 13.5764 0.166504 13.4853 0.166504 11.1154C0.166504 8.96291 3.05874 8.67524 5.30749 8.6644L5.60932 8.6642C7.05293 8.66771 10.7265 8.75886 10.7265 11.1287ZM5.44717 9.66406C2.6065 9.66406 1.1665 10.1521 1.1665 11.1154C1.1665 12.0874 2.6065 12.5801 5.44717 12.5801C8.28717 12.5801 9.7265 12.0921 9.7265 11.1287C9.7265 10.1567 8.28717 9.66406 5.44717 9.66406ZM5.44717 0.33313C7.39917 0.33313 8.9865 1.92113 8.9865 3.87313C8.9865 5.82513 7.39917 7.41246 5.44717 7.41246H5.42584C3.47784 7.40646 1.89984 5.8178 1.90648 3.87113C1.90648 1.92113 3.4945 0.33313 5.44717 0.33313ZM5.44717 1.28513C4.01984 1.28513 2.85849 2.4458 2.85849 3.87313C2.85384 5.2958 4.0065 6.4558 5.42784 6.46113L5.44717 6.93713V6.46113C6.87384 6.46113 8.0345 5.2998 8.0345 3.87313C8.0345 2.4458 6.87384 1.28513 5.44717 1.28513Z" fill="#1C2126"/>
</svg>
