<svg width="56" height="56" viewBox="0 0 56 56" fill="none" xmlns="http://www.w3.org/2000/svg">
<g clip-path="url(#clip0_129_6383)">
<path d="M37.3333 46.668L46.6667 46.668C49.142 46.668 51.516 45.6846 53.2663 43.9343C55.0167 42.184 56 39.81 56 37.3346L56 28.0013C56 26.7636 55.5083 25.5766 54.6332 24.7015C53.758 23.8263 52.571 23.3346 51.3333 23.3346L39.6667 23.3346C39.6704 20.2416 40.9007 17.2763 43.0878 15.0891C45.275 12.902 48.2403 11.6717 51.3333 11.668C52.2616 11.668 53.1518 11.2992 53.8082 10.6428C54.4646 9.98646 54.8333 9.09623 54.8333 8.16797C54.8333 7.23971 54.4646 6.34948 53.8082 5.6931C53.1518 5.03672 52.2616 4.66797 51.3333 4.66797C46.3843 4.67353 41.6396 6.64198 38.1401 10.1415C34.6407 13.6409 32.6722 18.3856 32.6667 23.3346L32.6667 42.0013C32.6667 43.239 33.1583 44.426 34.0335 45.3011C34.9087 46.1763 36.0957 46.668 37.3333 46.668V46.668Z" fill="white"/>
<path d="M4.66666 46.668L14 46.668C16.4753 46.668 18.8493 45.6846 20.5997 43.9343C22.35 42.184 23.3333 39.81 23.3333 37.3346L23.3333 28.0013C23.3333 26.7636 22.8417 25.5766 21.9665 24.7015C21.0913 23.8263 19.9043 23.3346 18.6667 23.3346L6.99999 23.3346C7.0037 20.2416 8.23405 17.2763 10.4212 15.0891C12.6083 12.902 15.5736 11.6717 18.6667 11.668C19.5949 11.668 20.4852 11.2992 21.1415 10.6428C21.7979 9.98646 22.1667 9.09623 22.1667 8.16797C22.1667 7.23971 21.7979 6.34948 21.1415 5.6931C20.4852 5.03672 19.5949 4.66797 18.6667 4.66797C13.7177 4.67353 8.97295 6.64198 5.47347 10.1415C1.974 13.6409 0.0055491 18.3856 -8.71558e-06 23.3346L-7.08369e-06 42.0013C-6.97549e-06 43.239 0.491659 44.426 1.36683 45.3011C2.242 46.1763 3.42898 46.668 4.66666 46.668V46.668Z" fill="white"/>
</g>
<defs>
<clipPath id="clip0_129_6383">
<rect width="56" height="56" fill="white" transform="translate(56 56) rotate(180)"/>
</clipPath>
</defs>
</svg>
