<svg width="14" height="15" viewBox="0 0 14 15" fill="currentColor" xmlns="http://www.w3.org/2000/svg">
<path fill-rule="evenodd" clip-rule="evenodd" d="M6.8258 0.333344C10.4058 0.333344 13.3178 3.24534 13.3178 6.82534C13.3178 8.51437 12.6696 10.0549 11.6089 11.211L13.6961 13.2938C13.8914 13.4891 13.8921 13.8051 13.6967 14.0005C13.5994 14.0991 13.4707 14.1478 13.3427 14.1478C13.2154 14.1478 13.0874 14.0991 12.9894 14.0018L10.877 11.8953C9.76584 12.7852 8.35691 13.318 6.8258 13.318C3.2458 13.318 0.33313 10.4053 0.33313 6.82534C0.33313 3.24534 3.2458 0.333344 6.8258 0.333344ZM6.8258 1.33334C3.79713 1.33334 1.33313 3.79668 1.33313 6.82534C1.33313 9.85401 3.79713 12.318 6.8258 12.318C9.8538 12.318 12.3178 9.85401 12.3178 6.82534C12.3178 3.79668 9.8538 1.33334 6.8258 1.33334Z" fill="currentColor"/>
</svg>
