<svg width="40" height="40" viewBox="0 0 40 40" fill="none" xmlns="http://www.w3.org/2000/svg">
<path d="M16.2896 28.126C23.8368 28.126 27.9648 21.8732 27.9648 16.4508C27.9648 16.2732 27.9648 16.0964 27.9528 15.9204C28.7559 15.3396 29.4491 14.6203 30 13.7964C29.2512 14.1284 28.4567 14.3461 27.6432 14.442C28.4998 13.9293 29.141 13.1227 29.4472 12.1724C28.6417 12.6504 27.7605 12.9873 26.8416 13.1684C26.2229 12.5106 25.4047 12.075 24.5135 11.929C23.6223 11.783 22.7078 11.9349 21.9116 12.361C21.1154 12.7871 20.4819 13.4638 20.109 14.2862C19.7361 15.1087 19.6446 16.0312 19.8488 16.9108C18.2174 16.829 16.6215 16.405 15.1645 15.6664C13.7076 14.9279 12.4223 13.8912 11.392 12.6236C10.8673 13.527 10.7066 14.5963 10.9426 15.614C11.1786 16.6317 11.7936 17.5211 12.6624 18.1012C12.0094 18.0821 11.3705 17.9059 10.8 17.5876V17.6396C10.8003 18.587 11.1282 19.5051 11.7282 20.2383C12.3282 20.9714 13.1634 21.4745 14.092 21.662C13.4879 21.8268 12.8541 21.8509 12.2392 21.7324C12.5015 22.5477 13.012 23.2606 13.6994 23.7716C14.3867 24.2825 15.2165 24.5658 16.0728 24.582C15.222 25.2508 14.2478 25.7452 13.2057 26.037C12.1637 26.3289 11.0743 26.4124 10 26.2828C11.8765 27.487 14.0599 28.1258 16.2896 28.1228" fill="#0094DA"/>
<rect x="0.5" y="0.5" width="39" height="39" rx="19.5" stroke="#0094DA"/>
</svg>
