<svg width="558" height="436" viewBox="0 0 558 436" fill="none" xmlns="http://www.w3.org/2000/svg">
<path d="M288.856 114.538H247.808V61.8418H278.288L288.856 71.8818V114.538Z" fill="#EBEBEB"/>
<path d="M278.288 61.8418L288.856 71.8818H278.288V61.8418Z" fill="#DBDBDB"/>
<path d="M251.816 72.041H274.64V70.689H251.816V72.041Z" fill="#DBDBDB"/>
<path d="M251.816 75.457H274.64V74.105H251.816V75.457Z" fill="#DBDBDB"/>
<path d="M251.816 78.873H274.64V77.521H251.816V78.873Z" fill="#DBDBDB"/>
<path d="M251.816 82.291H285.256V80.939H251.816V82.291Z" fill="#DBDBDB"/>
<path d="M251.816 85.7051H285.256V84.3531H251.816V85.7051Z" fill="#DBDBDB"/>
<path d="M251.816 89.1133H285.256V87.7613H251.816V89.1133Z" fill="#DBDBDB"/>
<path d="M251.816 92.5293H285.256V91.1773H251.816V92.5293Z" fill="#DBDBDB"/>
<path d="M251.816 95.9473H285.256V94.5953H251.816V95.9473Z" fill="#DBDBDB"/>
<path d="M251.816 99.3613H285.256V98.0093H251.816V99.3613Z" fill="#DBDBDB"/>
<path d="M251.816 102.777H285.256V101.425H251.816V102.777Z" fill="#DBDBDB"/>
<path d="M251.816 106.193H285.256V104.841H251.816V106.193Z" fill="#DBDBDB"/>
<path d="M251.816 109.611H285.256V108.259H251.816V109.611Z" fill="#DBDBDB"/>
<path d="M291.631 119.337C295.302 117.807 297.037 113.592 295.507 109.921C293.977 106.251 289.761 104.516 286.09 106.046C282.42 107.576 280.685 111.792 282.215 115.462C283.745 119.132 287.961 120.867 291.631 119.337Z" fill="#C7C7C7"/>
<path d="M292.424 110.865H285.288V117.345H292.424V110.865Z" fill="white"/>
<path d="M291.712 112.866H291V110.002C291.018 109.712 290.976 109.42 290.877 109.146C290.778 108.872 290.624 108.621 290.424 108.408C290.224 108.196 289.983 108.027 289.716 107.911C289.448 107.795 289.16 107.736 288.868 107.736C288.577 107.736 288.288 107.795 288.021 107.911C287.753 108.027 287.512 108.196 287.312 108.408C287.112 108.621 286.958 108.872 286.859 109.146C286.76 109.42 286.718 109.712 286.736 110.002V112.89H286.008V110.002C286.008 109.245 286.309 108.519 286.845 107.983C287.38 107.447 288.107 107.146 288.864 107.146C289.621 107.146 290.348 107.447 290.884 107.983C291.419 108.519 291.72 109.245 291.72 110.002L291.712 112.866Z" fill="white"/>
<path d="M289.16 114.186L289.456 115.602H288.192L288.488 114.186C288.398 114.128 288.323 114.049 288.272 113.955C288.22 113.862 288.193 113.757 288.192 113.65C288.192 113.482 288.259 113.321 288.377 113.203C288.496 113.084 288.656 113.018 288.824 113.018C288.992 113.018 289.152 113.084 289.271 113.203C289.389 113.321 289.456 113.482 289.456 113.65C289.455 113.757 289.428 113.862 289.376 113.955C289.325 114.049 289.25 114.128 289.16 114.186Z" fill="#C7C7C7"/>
<path d="M342.28 135.985L342.384 176.985C342.386 177.53 342.281 178.07 342.074 178.575C341.867 179.079 341.563 179.538 341.179 179.925C340.795 180.312 340.339 180.62 339.836 180.831C339.333 181.041 338.793 181.151 338.248 181.153L273.224 181.321C272.679 181.322 272.139 181.215 271.634 181.008C271.13 180.8 270.672 180.495 270.286 180.11C269.899 179.726 269.593 179.268 269.383 178.765C269.174 178.262 269.065 177.722 269.064 177.177L268.96 136.177C268.958 135.67 269.056 135.167 269.248 134.698C269.441 134.229 269.723 133.802 270.081 133.443C270.438 133.083 270.863 132.797 271.331 132.602C271.799 132.407 272.301 132.306 272.808 132.305L338.408 132.137C338.915 132.135 339.418 132.233 339.887 132.425C340.356 132.617 340.782 132.9 341.142 133.258C341.502 133.615 341.787 134.04 341.983 134.508C342.178 134.976 342.279 135.478 342.28 135.985Z" fill="#EBEBEB"/>
<path d="M331.8 171.242C331.802 171.996 331.579 172.735 331.161 173.363C330.743 173.991 330.148 174.482 329.452 174.772C328.755 175.062 327.988 175.14 327.247 174.994C326.507 174.848 325.826 174.486 325.291 173.954C324.757 173.421 324.392 172.742 324.243 172.002C324.094 171.262 324.168 170.495 324.455 169.797C324.743 169.099 325.231 168.502 325.857 168.081C326.484 167.661 327.221 167.435 327.976 167.434C328.477 167.433 328.974 167.53 329.437 167.721C329.9 167.912 330.322 168.192 330.677 168.546C331.032 168.899 331.314 169.319 331.506 169.782C331.699 170.244 331.799 170.74 331.8 171.242Z" fill="#DBDBDB"/>
<path d="M336.504 171.226C336.506 171.98 336.284 172.718 335.866 173.347C335.448 173.975 334.854 174.465 334.158 174.756C333.461 175.046 332.695 175.124 331.954 174.979C331.214 174.834 330.533 174.473 329.998 173.941C329.463 173.409 329.098 172.731 328.948 171.991C328.798 171.252 328.871 170.485 329.157 169.787C329.443 169.089 329.93 168.491 330.556 168.069C331.181 167.648 331.918 167.421 332.672 167.418C333.174 167.416 333.671 167.513 334.135 167.703C334.6 167.893 335.022 168.173 335.378 168.527C335.734 168.881 336.016 169.301 336.21 169.764C336.403 170.228 336.503 170.724 336.504 171.226Z" fill="#0094DA"/>
<path d="M285.525 139.309L278.485 139.327C276.629 139.332 275.129 140.84 275.134 142.696L275.141 145.488C275.146 147.344 276.654 148.844 278.51 148.839L285.55 148.821C287.406 148.816 288.906 147.308 288.901 145.452L288.894 142.66C288.889 140.804 287.381 139.304 285.525 139.309Z" fill="#0094DA"/>
<path d="M333.824 144.402H327.6C327.257 144.403 326.917 144.336 326.6 144.205C326.282 144.075 325.994 143.883 325.751 143.641C325.508 143.398 325.315 143.11 325.183 142.793C325.052 142.477 324.984 142.137 324.984 141.794C324.983 141.451 325.049 141.113 325.18 140.796C325.31 140.48 325.501 140.192 325.743 139.95C325.984 139.708 326.271 139.515 326.587 139.384C326.903 139.253 327.242 139.186 327.584 139.186H333.808C334.151 139.183 334.491 139.249 334.808 139.379C335.125 139.509 335.414 139.7 335.657 139.941C335.9 140.183 336.093 140.47 336.225 140.787C336.356 141.103 336.424 141.443 336.424 141.786C336.425 142.128 336.359 142.467 336.229 142.784C336.098 143.101 335.907 143.389 335.666 143.632C335.424 143.875 335.137 144.068 334.821 144.2C334.505 144.332 334.166 144.401 333.824 144.402Z" fill="white"/>
<path d="M310.016 167.86L275.2 167.951L275.204 169.663L310.02 169.572L310.016 167.86Z" fill="#DBDBDB"/>
<path d="M299.866 171.695L275.218 171.76L275.222 173.472L299.87 173.407L299.866 171.695Z" fill="#DBDBDB"/>
<path d="M322.589 139.212L305.221 139.258L305.225 140.97L322.593 140.924L322.589 139.212Z" fill="#DBDBDB"/>
<path d="M276.744 158.754H276.504V161.354H276.744V158.754Z" fill="#C7C7C7"/>
<path d="M277.92 159.938H275.32V160.178H277.92V159.938Z" fill="#C7C7C7"/>
<path d="M277.459 159.046L275.615 160.891L275.785 161.06L277.629 159.216L277.459 159.046Z" fill="#C7C7C7"/>
<path d="M275.793 159.055L275.623 159.225L277.467 161.069L277.637 160.899L275.793 159.055Z" fill="#C7C7C7"/>
<path d="M279.872 158.754H279.632V161.354H279.872V158.754Z" fill="#C7C7C7"/>
<path d="M281.056 159.938H278.456V160.178H281.056V159.938Z" fill="#C7C7C7"/>
<path d="M280.591 159.05L278.753 160.889L278.922 161.058L280.761 159.22L280.591 159.05Z" fill="#C7C7C7"/>
<path d="M278.916 159.043L278.746 159.213L280.584 161.052L280.754 160.882L278.916 159.043Z" fill="#C7C7C7"/>
<path d="M283.008 158.754H282.768V161.354H283.008V158.754Z" fill="#C7C7C7"/>
<path d="M284.184 159.938H281.584V160.178H284.184V159.938Z" fill="#C7C7C7"/>
<path d="M282.048 161.057L281.88 160.889L283.72 159.049L283.896 159.217L282.048 161.057Z" fill="#C7C7C7"/>
<path d="M283.72 161.057L281.88 159.217L282.048 159.049L283.896 160.889L283.72 161.057Z" fill="#C7C7C7"/>
<path d="M286.136 158.754H285.896V161.354H286.136V158.754Z" fill="#C7C7C7"/>
<path d="M287.32 159.938H284.72V160.178H287.32V159.938Z" fill="#C7C7C7"/>
<path d="M285.184 161.057L285.016 160.889L286.856 159.049L287.024 159.217L285.184 161.057Z" fill="#C7C7C7"/>
<path d="M286.856 161.057L285.016 159.217L285.184 159.049L287.024 160.889L286.856 161.057Z" fill="#C7C7C7"/>
<path d="M292.976 158.754H292.736V161.354H292.976V158.754Z" fill="#C7C7C7"/>
<path d="M294.152 159.938H291.552V160.178H294.152V159.938Z" fill="#C7C7C7"/>
<path d="M292.024 161.057L291.848 160.889L293.688 159.049L293.864 159.217L292.024 161.057Z" fill="#C7C7C7"/>
<path d="M293.688 161.057L291.848 159.217L292.024 159.049L293.864 160.889L293.688 161.057Z" fill="#C7C7C7"/>
<path d="M296.104 158.754H295.864V161.354H296.104V158.754Z" fill="#C7C7C7"/>
<path d="M297.288 159.938H294.688V160.178H297.288V159.938Z" fill="#C7C7C7"/>
<path d="M295.152 161.057L294.984 160.889L296.824 159.049L296.992 159.217L295.152 161.057Z" fill="#C7C7C7"/>
<path d="M296.824 161.057L294.984 159.217L295.152 159.049L296.992 160.889L296.824 161.057Z" fill="#C7C7C7"/>
<path d="M299.24 158.754H299V161.354H299.24V158.754Z" fill="#C7C7C7"/>
<path d="M300.416 159.938H297.816V160.178H300.416V159.938Z" fill="#C7C7C7"/>
<path d="M298.288 161.057L298.112 160.889L299.952 159.049L300.128 159.217L298.288 161.057Z" fill="#C7C7C7"/>
<path d="M299.952 161.057L298.112 159.217L298.288 159.049L300.128 160.889L299.952 161.057Z" fill="#C7C7C7"/>
<path d="M302.376 158.754H302.136V161.354H302.376V158.754Z" fill="#C7C7C7"/>
<path d="M303.552 159.938H300.952V160.178H303.552V159.938Z" fill="#C7C7C7"/>
<path d="M301.416 161.057L301.248 160.889L303.088 159.049L303.256 159.217L301.416 161.057Z" fill="#C7C7C7"/>
<path d="M303.088 161.057L301.248 159.217L301.416 159.049L303.256 160.889L303.088 161.057Z" fill="#C7C7C7"/>
<path d="M309.208 158.754H308.968V161.354H309.208V158.754Z" fill="#C7C7C7"/>
<path d="M310.392 159.938H307.792V160.178H310.392V159.938Z" fill="#C7C7C7"/>
<path d="M308.256 161.057L308.088 160.889L309.928 159.049L310.096 159.217L308.256 161.057Z" fill="#C7C7C7"/>
<path d="M309.928 161.057L308.088 159.217L308.256 159.049L310.096 160.889L309.928 161.057Z" fill="#C7C7C7"/>
<path d="M312.344 158.754H312.104V161.354H312.344V158.754Z" fill="#C7C7C7"/>
<path d="M313.52 159.938H310.92V160.178H313.52V159.938Z" fill="#C7C7C7"/>
<path d="M311.384 161.057L311.216 160.889L313.056 159.049L313.232 159.217L311.384 161.057Z" fill="#C7C7C7"/>
<path d="M313.056 161.057L311.216 159.217L311.384 159.049L313.232 160.889L313.056 161.057Z" fill="#C7C7C7"/>
<path d="M315.472 158.754H315.232V161.354H315.472V158.754Z" fill="#C7C7C7"/>
<path d="M316.656 159.938H314.056V160.178H316.656V159.938Z" fill="#C7C7C7"/>
<path d="M314.52 161.057L314.352 160.889L316.192 159.049L316.36 159.217L314.52 161.057Z" fill="#C7C7C7"/>
<path d="M316.192 161.057L314.352 159.217L314.52 159.049L316.36 160.889L316.192 161.057Z" fill="#C7C7C7"/>
<path d="M318.608 158.754H318.368V161.354H318.608V158.754Z" fill="#C7C7C7"/>
<path d="M319.784 159.938H317.184V160.178H319.784V159.938Z" fill="#C7C7C7"/>
<path d="M317.648 161.057L317.48 160.889L319.32 159.049L319.496 159.217L317.648 161.057Z" fill="#C7C7C7"/>
<path d="M319.32 161.057L317.48 159.217L317.648 159.049L319.496 160.889L319.32 161.057Z" fill="#C7C7C7"/>
<path d="M325.44 158.754H325.2V161.354H325.44V158.754Z" fill="#C7C7C7"/>
<path d="M326.624 159.938H324.024V160.178H326.624V159.938Z" fill="#C7C7C7"/>
<path d="M324.488 161.057L324.32 160.889L326.16 159.049L326.328 159.217L324.488 161.057Z" fill="#C7C7C7"/>
<path d="M326.16 161.057L324.32 159.217L324.488 159.049L326.328 160.889L326.16 161.057Z" fill="#C7C7C7"/>
<path d="M328.576 158.754H328.336V161.354H328.576V158.754Z" fill="#C7C7C7"/>
<path d="M329.752 159.938H327.152V160.178H329.752V159.938Z" fill="#C7C7C7"/>
<path d="M327.624 161.057L327.448 160.889L329.296 159.049L329.464 159.217L327.624 161.057Z" fill="#C7C7C7"/>
<path d="M329.296 161.057L327.448 159.217L327.624 159.049L329.464 160.889L329.296 161.057Z" fill="#C7C7C7"/>
<path d="M331.712 158.754H331.472V161.354H331.712V158.754Z" fill="#C7C7C7"/>
<path d="M332.888 159.938H330.288V160.178H332.888V159.938Z" fill="#C7C7C7"/>
<path d="M330.752 161.057L330.584 160.889L332.424 159.049L332.592 159.217L330.752 161.057Z" fill="#C7C7C7"/>
<path d="M332.424 161.057L330.584 159.217L330.752 159.049L332.592 160.889L332.424 161.057Z" fill="#C7C7C7"/>
<path d="M334.84 158.754H334.6V161.354H334.84V158.754Z" fill="#C7C7C7"/>
<path d="M336.016 159.938H333.416V160.178H336.016V159.938Z" fill="#C7C7C7"/>
<path d="M333.888 161.057L333.712 160.889L335.552 159.049L335.728 159.217L333.888 161.057Z" fill="#C7C7C7"/>
<path d="M335.552 161.057L333.712 159.217L333.888 159.049L335.728 160.889L335.552 161.057Z" fill="#C7C7C7"/>
<path d="M349.474 182.262C350.112 178.337 347.448 174.638 343.523 174C339.598 173.361 335.899 176.025 335.261 179.95C334.622 183.875 337.286 187.574 341.211 188.213C345.136 188.851 348.835 186.187 349.474 182.262Z" fill="#C7C7C7"/>
<path d="M345.952 179.299H338.816V185.779H345.952V179.299Z" fill="white"/>
<path d="M345.24 181.299H344.52V178.403C344.487 177.86 344.248 177.35 343.851 176.978C343.455 176.605 342.932 176.398 342.388 176.398C341.844 176.398 341.321 176.605 340.925 176.978C340.528 177.35 340.289 177.86 340.256 178.403V181.299H339.528V178.403C339.528 177.645 339.829 176.919 340.365 176.383C340.9 175.848 341.627 175.547 342.384 175.547C343.141 175.547 343.868 175.848 344.404 176.383C344.939 176.919 345.24 177.645 345.24 178.403V181.299Z" fill="white"/>
<path d="M342.688 182.617L342.984 184.033H341.72L342.016 182.617C341.926 182.56 341.851 182.481 341.8 182.387C341.748 182.293 341.721 182.188 341.72 182.081C341.72 181.914 341.787 181.753 341.905 181.634C342.024 181.516 342.184 181.449 342.352 181.449C342.52 181.449 342.68 181.516 342.799 181.634C342.917 181.753 342.984 181.914 342.984 182.081C342.983 182.188 342.956 182.293 342.904 182.387C342.853 182.481 342.778 182.56 342.688 182.617Z" fill="#C7C7C7"/>
<path d="M172.466 112.045L221.031 120.172L226.926 84.9418L178.362 76.8148L172.466 112.045Z" fill="#EBEBEB"/>
<path d="M174.816 110.362L219.349 117.814L224.569 86.6242L180.036 79.1719L174.816 110.362Z" fill="white"/>
<path d="M183.8 88.9056C183.679 89.6342 183.777 90.3824 184.081 91.0556C184.385 91.7288 184.881 92.2968 185.508 92.6877C186.135 93.0787 186.863 93.2751 187.602 93.2522C188.34 93.2293 189.055 92.988 189.656 92.5589C190.257 92.1298 190.718 91.5321 190.979 90.8413C191.241 90.1505 191.292 89.3977 191.126 88.678C190.96 87.9583 190.584 87.3039 190.046 86.7976C189.508 86.2913 188.833 85.9559 188.104 85.8336C187.126 85.6715 186.124 85.904 185.317 86.4798C184.51 87.0557 183.965 87.9281 183.8 88.9056Z" fill="#DBDBDB"/>
<path d="M195.72 106.954L220.488 111.106L210.912 92.2422L195.72 106.954Z" fill="#DBDBDB"/>
<path d="M186.016 105.337L206.456 108.761L198.064 96.1211L186.016 105.337Z" fill="#EBEBEB"/>
<path d="M220.489 111.087L175.956 103.635L174.831 110.357L219.364 117.81L220.489 111.087Z" fill="#EBEBEB"/>
<path d="M158.52 123.178H207.76V87.4577H158.52V123.178Z" fill="#EBEBEB"/>
<path d="M160.56 121.121H205.712V89.4971H160.56V121.121Z" fill="white"/>
<path d="M165.832 98.4899C165.83 99.2307 166.049 99.9554 166.459 100.572C166.87 101.189 167.454 101.67 168.138 101.955C168.822 102.239 169.575 102.314 170.302 102.171C171.028 102.027 171.696 101.671 172.221 101.148C172.745 100.625 173.102 99.9578 173.248 99.2313C173.393 98.5048 173.319 97.7516 173.036 97.067C172.753 96.3824 172.273 95.7972 171.657 95.3854C171.041 94.9737 170.317 94.7539 169.576 94.7539C168.584 94.7539 167.633 95.1473 166.931 95.8477C166.23 96.5481 165.834 97.4983 165.832 98.4899Z" fill="#DBDBDB"/>
<path d="M180.608 114.323H205.72L193.16 97.2988L180.608 114.323Z" fill="#DBDBDB"/>
<path d="M170.76 114.33H191.496L181.128 103.242L170.76 114.33Z" fill="#EBEBEB"/>
<path d="M205.712 114.314H160.56V121.13H205.712V114.314Z" fill="#EBEBEB"/>
<path d="M234.8 256.891H164.208V354.579H234.8V256.891Z" fill="#EBEBEB"/>
<path d="M238.224 253.266H160.792V256.89H238.224V253.266Z" fill="#DBDBDB"/>
<path d="M262.568 253.266H238.216V256.89H262.568V253.266Z" fill="#EBEBEB"/>
<path d="M258.72 256.891H234.8V354.579H258.72V256.891Z" fill="#DBDBDB"/>
<path d="M227.208 302.113H171.8V270.801H227.208V302.113ZM172.008 301.913H227V270.985H172L172.008 301.913Z" fill="#C7C7C7"/>
<path d="M202.56 279.947H191.776V286.147H202.56V279.947Z" fill="#C7C7C7"/>
<path d="M205.848 285.778H194.864V280.314H205.848V285.778ZM195.064 285.578H205.648V280.514H195.064V285.578Z" fill="#C7C7C7"/>
<path d="M227.208 341.441H171.8V310.113H227.208V341.441ZM172.008 341.241H227V310.313H172L172.008 341.241Z" fill="#C7C7C7"/>
<path d="M202.56 319.273H191.776V325.473H202.56V319.273Z" fill="#C7C7C7"/>
<path d="M205.848 325.107H194.864V319.643H205.848V325.107ZM195.064 324.907H205.648V319.843H195.064V324.907Z" fill="#C7C7C7"/>
<path d="M120.232 354.609L159.928 354.409L199.616 354.345L279 354.209L358.384 354.337L398.072 354.409L437.768 354.609L398.072 354.801L358.384 354.873L279 355.009L199.616 354.873L159.928 354.801L120.232 354.609Z" fill="#1C2126"/>
<path d="M161.64 389.711C181.204 389.711 197.064 386.667 197.064 382.911C197.064 379.156 181.204 376.111 161.64 376.111C142.076 376.111 126.216 379.156 126.216 382.911C126.216 386.667 142.076 389.711 161.64 389.711Z" fill="#EBEBEB"/>
<path d="M293.376 395.951C369.821 395.951 431.792 389.873 431.792 382.375C431.792 374.877 369.821 368.799 293.376 368.799C216.931 368.799 154.96 374.877 154.96 382.375C154.96 389.873 216.931 395.951 293.376 395.951Z" fill="#EBEBEB"/>
<path d="M331.504 263.963L329.176 277.947L313.376 363.251H310.832L322.32 277.947L324.016 263.963H331.504Z" fill="#C7C7C7"/>
<path d="M324.016 263.963H331.504L329.176 277.947H322.32L324.016 263.963Z" fill="#A6A6A6"/>
<path d="M381.112 363.251H378.568L362.768 277.947L360.44 263.963H367.928L369.624 277.947L381.112 363.251Z" fill="#C7C7C7"/>
<path d="M367.928 263.963L369.624 277.947H362.768L360.44 263.963H367.928Z" fill="#A6A6A6"/>
<path d="M428.496 363.251H425.944L410.152 277.947L407.816 263.963H415.304L417.008 277.947L428.496 363.251Z" fill="#C7C7C7"/>
<path d="M417.008 277.947H410.152L407.816 263.963H415.304L417.008 277.947Z" fill="#A6A6A6"/>
<path d="M424.456 270.53H308.704V258.338H352.032L374.6 131.922H436.04L424.456 270.53Z" fill="#C7C7C7"/>
<path d="M423.96 258.338H308.704V270.53H424.392L423.96 258.338Z" fill="#DBDBDB"/>
<path d="M424.456 270.53H418.144L430.032 131.922H436.04L424.456 270.53Z" fill="#DBDBDB"/>
<path d="M425.888 114.225C424.104 112.265 416.8 106.785 410.488 103.825C407.432 102.361 398.2 99.1054 396.888 101.369C395.576 103.633 398.208 104.825 398.208 104.825C398.208 104.825 394.096 104.025 393 106.425C391.904 108.825 396.024 110.545 396.024 110.545C396.024 110.545 391.752 110.041 390.824 112.505C389.896 114.969 394.336 116.009 394.336 116.009C394.336 116.009 390.448 115.369 390.544 117.721C390.656 120.553 397.952 120.921 401.256 122.721C402.008 123.121 415.88 132.009 415.88 132.009L425.888 114.225Z" fill="#EB9481"/>
<path d="M394.392 116.033C399.76 116.321 402.064 117.385 406.392 120.449C406.48 120.505 406.584 120.393 406.504 120.321C402.552 116.937 399.856 115.193 394.408 115.769C394.128 115.801 394.136 116.017 394.392 116.033Z" fill="#1C2126"/>
<path d="M395.8 110.425C401.352 111.225 403.856 112.337 408.6 115.225C408.672 115.225 408.744 115.153 408.68 115.105C404.248 111.905 401.528 110.217 395.88 110.161C395.648 110.145 395.568 110.385 395.8 110.425Z" fill="#1C2126"/>
<path d="M398.664 104.874C403.984 106.026 406.784 107.138 411.04 110.522C411.144 110.602 411.272 110.466 411.176 110.378C407.176 106.498 403.688 105.082 398.72 104.714C398.376 104.69 398.328 104.802 398.664 104.874Z" fill="#1C2126"/>
<path d="M418.2 135.019C418.2 135.019 411.512 134.163 408.656 133.139C405.8 132.115 396.6 124.403 398.144 122.307C400.152 119.611 406.36 123.019 409.184 125.083C409.184 125.083 413.824 118.843 418.784 120.323C423.744 121.803 418.2 135.019 418.2 135.019Z" fill="#EB9481"/>
<path d="M398.936 121.745C402.544 120.609 406.072 123.561 408.96 125.361C409.002 125.39 409.05 125.408 409.1 125.414C409.15 125.42 409.201 125.413 409.248 125.395C409.296 125.377 409.338 125.348 409.371 125.31C409.404 125.272 409.428 125.226 409.44 125.177C411.56 122.689 415.272 119.801 418.704 120.137C418.725 120.137 418.746 120.129 418.761 120.114C418.776 120.099 418.784 120.078 418.784 120.057C418.784 120.036 418.776 120.015 418.761 120C418.746 119.985 418.725 119.977 418.704 119.977C415.072 119.121 411.192 121.665 409.04 124.537C406.112 122.641 402.44 119.841 398.896 121.713C398.904 121.721 398.92 121.753 398.936 121.745Z" fill="#1C2126"/>
<path d="M361.664 107.458C364.064 106.394 373.384 103.562 380.368 103.378C383.752 103.29 393.512 104.066 393.784 106.666C394.056 109.266 391.176 109.29 391.176 109.29C391.176 109.29 395.248 110.234 395.28 112.866C395.312 115.498 390.84 115.402 390.84 115.402C390.84 115.402 394.952 116.674 394.8 119.306C394.648 121.938 390.16 121.082 390.16 121.082C390.16 121.082 393.976 122.074 392.936 124.186C391.68 126.73 384.856 124.106 381.112 124.394C380.264 124.458 363.984 126.938 363.984 126.938L361.664 107.458Z" fill="#EB9481"/>
<path d="M390.096 121.114C385.072 119.202 382.536 119.234 377.352 120.314C377.248 120.314 377.192 120.194 377.296 120.162C382.288 118.674 385.456 118.178 390.2 120.922C390.432 121.01 390.336 121.202 390.096 121.114Z" fill="#1C2126"/>
<path d="M391.064 115.411C385.672 113.875 382.928 113.883 377.416 114.611C377.336 114.611 377.312 114.491 377.416 114.475C382.768 113.339 385.936 112.875 391.128 115.163C391.336 115.227 391.312 115.483 391.064 115.411Z" fill="#1C2126"/>
<path d="M390.728 109.201C385.4 108.089 382.392 107.969 377.128 109.329C377.116 109.333 377.103 109.335 377.09 109.334C377.078 109.334 377.065 109.33 377.054 109.325C377.042 109.319 377.032 109.312 377.023 109.302C377.015 109.292 377.008 109.281 377.004 109.269C377 109.257 376.998 109.244 376.999 109.232C376.999 109.219 377.003 109.206 377.008 109.195C377.014 109.183 377.022 109.173 377.031 109.164C377.041 109.156 377.052 109.149 377.064 109.145C382.304 107.233 386.056 107.353 390.752 109.033C391.064 109.129 391.064 109.249 390.728 109.201Z" fill="#1C2126"/>
<path d="M360.6 128.776C360.6 128.776 367.056 130.712 370.072 130.936C373.088 131.16 384.672 127.864 384.104 125.336C383.36 122.056 376.304 122.648 372.904 123.392C372.904 123.392 371.2 115.8 366.048 115.128C360.896 114.456 360.6 128.776 360.6 128.776Z" fill="#EB9481"/>
<path d="M383.616 124.489C380.784 121.977 376.36 123.241 372.992 123.689C372.942 123.699 372.891 123.696 372.842 123.682C372.794 123.667 372.749 123.641 372.713 123.606C372.677 123.57 372.65 123.527 372.634 123.478C372.619 123.43 372.615 123.379 372.624 123.329C371.704 120.201 369.488 116.049 366.224 114.961C366.128 114.961 366.16 114.785 366.224 114.809C369.896 115.497 372.408 119.393 373.2 122.897C376.648 122.353 381.144 121.297 383.6 124.433C383.656 124.481 383.64 124.505 383.616 124.489Z" fill="#1C2126"/>
<path d="M380.064 156.57C361.76 151.626 332.936 135.074 335.584 127.106C338.152 119.362 348.96 111.266 362.784 106.962C364.8 106.33 364.384 110.562 365.32 117.938C365.776 121.426 371.896 130.826 368.944 130.802C367.401 130.849 365.881 131.189 364.464 131.802C363.384 132.218 376.368 140.89 383.624 146.33C393.4 153.626 387.88 158.674 380.064 156.57Z" fill="#EB9481"/>
<path d="M353.64 150.954L373.928 138.25C373.928 138.25 386.112 145.658 389.128 149.762C392.144 153.866 389.768 158.306 380.328 158.314C369.472 158.322 353.64 150.954 353.64 150.954Z" fill="#0094DA"/>
<g opacity="0.1">
<path d="M379.12 141.592H368.6L370.472 140.424H377.368L379.12 141.592Z" fill="black"/>
<path d="M384.472 145.432H362.456L364.32 144.264H382.928L384.472 145.432Z" fill="black"/>
<path d="M388.72 149.264H356.336L358.2 148.096H387.608C388.032 148.504 388.408 148.896 388.72 149.264Z" fill="black"/>
<path d="M390.344 153.104H358.76C357.648 152.672 356.672 152.304 355.88 151.936H390.2C390.305 152.316 390.354 152.709 390.344 153.104Z" fill="black"/>
<path d="M389.192 155.775C388.726 156.247 388.185 156.639 387.592 156.935H370.6C369.176 156.583 367.768 156.191 366.4 155.775H389.192Z" fill="black"/>
</g>
<path d="M359 152.512C367.168 147.52 375.256 141.888 376.6 140.792C376.656 140.744 376.6 140.656 376.52 140.688C370.424 144.239 364.547 148.153 358.92 152.408C358.906 152.419 358.897 152.435 358.895 152.452C358.893 152.469 358.897 152.487 358.908 152.5C358.919 152.514 358.934 152.523 358.951 152.526C358.969 152.528 358.986 152.523 359 152.512Z" fill="#1C2126"/>
<path d="M380.312 158.314C376.326 158.187 372.373 157.544 368.552 156.402C373.856 152.842 380.16 148.642 384.776 145.674C386.384 146.856 387.842 148.229 389.12 149.762C392.128 153.858 389.76 158.306 380.312 158.314Z" fill="#1C2126"/>
<path d="M313.184 379.506C315.44 379.722 376.728 365.106 378.656 363.138C378.896 362.914 377.688 357.346 375.92 349.746V349.594C374.808 344.794 356.96 305.834 356.96 305.834L317.232 316.906L335.28 353.042C335.28 353.042 327.8 358.442 321.4 363.602C317.44 366.754 314.024 369.578 313.304 370.498C311.376 372.874 310.944 379.306 313.184 379.506Z" fill="#EB9481"/>
<path d="M313.192 379.498C315.432 379.714 376.72 365.098 378.664 363.138C378.896 362.914 377.688 357.346 375.92 349.746V349.602C375.52 347.81 372.768 341.258 369.52 333.762C362.984 335.514 339.544 341.85 331.032 344.482L335.312 353.05C335.312 353.05 327.8 358.45 321.4 363.602C317.44 366.746 314.024 369.578 313.304 370.49C311.376 372.874 310.936 379.314 313.192 379.498Z" fill="#EBEBEB"/>
<path d="M312.984 379.792C315.304 379.992 376.632 365.232 378.584 363.192C379.336 362.392 377.984 352.744 374.624 342.488L335.096 352.088C335.096 352.088 314.912 368.088 312.976 370.536C311.04 372.984 310.672 379.6 312.984 379.792Z" fill="#0094DA"/>
<path d="M313.272 377.129C323.496 374.401 364.976 364.329 375.28 362.449C375.368 362.449 375.384 362.489 375.28 362.513C365.216 365.433 323.656 375.137 313.296 377.297C313.096 377.345 313.056 377.201 313.272 377.129Z" fill="#1C2126"/>
<path d="M316.416 367.353C317.552 367.047 318.74 366.98 319.903 367.157C321.067 367.333 322.181 367.748 323.176 368.377C324.969 369.499 326.263 371.265 326.792 373.313C326.792 373.377 326.696 373.409 326.672 373.313C325.831 371.361 324.38 369.735 322.537 368.678C320.694 367.62 318.557 367.189 316.448 367.449C316.439 367.446 316.43 367.441 316.424 367.434C316.417 367.427 316.412 367.418 316.408 367.409C316.405 367.4 316.404 367.39 316.406 367.38C316.407 367.37 316.41 367.361 316.416 367.353Z" fill="#1C2126"/>
<path d="M332.152 353.856C336.256 352.808 341.376 353.112 344.744 355.864C344.872 355.976 344.744 356.152 344.584 356.12C340.53 355.102 336.378 354.52 332.2 354.384C332.139 354.376 332.083 354.347 332.04 354.302C331.998 354.258 331.971 354.2 331.966 354.139C331.96 354.078 331.976 354.016 332.009 353.965C332.043 353.913 332.093 353.875 332.152 353.856Z" fill="#1C2126"/>
<path d="M329.272 355.866C333.376 354.818 338.496 355.122 341.864 357.874C341.992 357.978 341.864 358.162 341.704 358.13C337.652 357.115 333.503 356.536 329.328 356.402C329.293 356.405 329.257 356.402 329.223 356.392C329.189 356.382 329.158 356.365 329.13 356.343C329.103 356.321 329.08 356.293 329.063 356.262C329.046 356.231 329.036 356.197 329.032 356.162C329.028 356.126 329.032 356.091 329.042 356.057C329.052 356.023 329.068 355.991 329.091 355.964C329.113 355.936 329.14 355.914 329.172 355.897C329.203 355.88 329.237 355.869 329.272 355.866Z" fill="#1C2126"/>
<path d="M326.392 357.866C330.496 356.818 335.616 357.122 338.984 359.874C339.112 359.978 338.984 360.162 338.824 360.13C334.773 359.108 330.624 358.526 326.448 358.394C326.386 358.387 326.329 358.359 326.286 358.315C326.242 358.271 326.215 358.214 326.208 358.152C326.202 358.091 326.216 358.029 326.25 357.977C326.283 357.925 326.333 357.885 326.392 357.866Z" fill="#1C2126"/>
<path d="M323.52 359.874C327.616 358.826 332.736 359.13 336.104 361.874C336.232 361.986 336.104 362.17 335.944 362.138C331.892 361.12 327.743 360.539 323.568 360.402C323.498 360.408 323.428 360.386 323.374 360.341C323.32 360.296 323.286 360.232 323.28 360.162C323.274 360.092 323.295 360.022 323.34 359.968C323.385 359.914 323.45 359.88 323.52 359.874Z" fill="#1C2126"/>
<path d="M370.312 353.313C374.936 352.217 376.648 359.393 372.024 360.513C367.4 361.633 365.688 354.409 370.312 353.313Z" fill="#1C2126"/>
<path d="M326.84 349.906C329.752 352.234 333.568 353.226 336.984 354.546C337.062 354.568 337.145 354.572 337.225 354.557C337.305 354.541 337.381 354.508 337.446 354.458C337.51 354.408 337.562 354.343 337.597 354.27C337.633 354.196 337.65 354.115 337.648 354.034C337.665 354.034 337.682 354.029 337.697 354.021C337.712 354.013 337.725 354.001 337.734 353.987C337.744 353.973 337.75 353.957 337.751 353.94C337.753 353.923 337.751 353.905 337.744 353.89C336.535 350.193 334.371 346.882 331.472 344.29C329.76 342.802 326.728 341.746 325.072 343.978C323.488 346.058 325.144 348.546 326.84 349.906ZM325.832 346.538C325.16 341.962 330.032 344.434 331.248 345.578C332.027 346.328 332.754 347.129 333.424 347.978C334.777 349.758 336.04 351.606 337.208 353.514C335.568 352.762 333.88 352.154 332.216 351.466C330.2 350.658 326.2 349.066 325.832 346.538Z" fill="#1C2126"/>
<path d="M351.728 347.746C350.76 345.138 347.552 345.29 345.488 346.234C341.971 347.908 338.958 350.48 336.752 353.69C336.742 353.704 336.736 353.721 336.734 353.737C336.732 353.754 336.733 353.772 336.739 353.788C336.744 353.804 336.753 353.819 336.765 353.831C336.777 353.843 336.792 353.852 336.808 353.858C336.783 353.936 336.776 354.018 336.789 354.098C336.802 354.179 336.833 354.255 336.88 354.321C336.928 354.388 336.99 354.442 337.062 354.479C337.135 354.517 337.215 354.537 337.296 354.538C340.944 354.234 344.888 354.362 348.336 352.938C350.352 352.122 352.648 350.21 351.728 347.746ZM342.736 352.946C340.944 353.138 339.152 353.242 337.368 353.498C339.028 351.998 340.764 350.582 342.568 349.258C343.447 348.622 344.372 348.052 345.336 347.554C346.824 346.802 352.192 345.81 350.256 350.01C349.192 352.322 344.872 352.714 342.736 352.946Z" fill="#1C2126"/>
<path d="M331.736 348.337L373.92 337.041C373.92 337.041 336.848 260.169 339.84 255.937C341.336 253.825 380.872 252.041 393.136 240.993C409.064 226.649 397.472 205.793 397.472 205.793H353.264C353.264 205.793 354.064 215.017 352.384 216.457C351.28 217.417 298.784 223.409 293.528 241.345C287.088 263.337 331.736 348.337 331.736 348.337Z" fill="#1C2126"/>
<path d="M331 342.152C332.119 341.633 333.274 341.194 334.456 340.84C335.68 340.416 336.912 339.992 338.136 339.584C340.536 338.784 343 338.032 345.448 337.328C350.384 335.904 355.32 334.512 360.296 333.216C362.888 332.544 368.432 331.08 368.784 331.128C368.944 331.128 368.984 331.432 368.84 331.488C364.04 333.232 359.16 334.728 354.288 336.248C349.416 337.768 344.544 339.248 339.608 340.52C338.24 340.872 336.864 341.192 335.496 341.528C334.064 341.951 332.605 342.272 331.128 342.488C331 342.496 330.84 342.224 331 342.152Z" fill="#455A64"/>
<path d="M332.176 252.498C333.048 251.698 334.376 251.586 335.48 251.362L354.512 247.602C360.448 246.426 366.424 245.354 372.328 244.026C377.216 242.93 382.176 241.506 386.352 238.706C390.438 235.955 393.4 231.826 394.696 227.074C396.048 222.346 396 217.306 395.392 212.466C395.24 211.282 394.984 210.106 394.728 208.938C394.728 208.85 394.856 208.818 394.872 208.938C396.76 217.946 397.216 228.458 390.648 235.874C387.448 239.49 382.96 241.698 378.368 243.17C373.176 244.842 367.736 245.722 362.368 246.778L343.336 250.538C340.28 251.138 337.176 251.634 334.152 252.362C333.538 252.459 332.967 252.738 332.512 253.162C332.301 253.489 332.172 253.862 332.138 254.249C332.103 254.637 332.163 255.027 332.312 255.386C332.664 256.874 333.112 258.354 333.584 259.81C337.424 271.602 364.32 327.434 365.048 328.722C365.128 328.858 364.912 328.97 364.832 328.834C358.672 318.578 338.624 275.474 334.432 264.338C333.33 261.488 332.414 258.57 331.688 255.602C331.432 254.53 331.272 253.33 332.176 252.498Z" fill="#455A64"/>
<path d="M205.232 381.041C207.328 381.881 270.248 385.097 272.664 383.729C272.952 383.585 273.36 377.897 273.792 370.129L274.112 362.785C274.224 360.305 306.616 324.201 306.616 324.201L261.456 321.473L233.84 361.865C233.84 361.865 225.144 364.945 217.552 368.065C212.848 370.001 208.784 371.721 207.8 372.401C205.4 374.169 203.128 380.225 205.232 381.041Z" fill="#EB9481"/>
<path d="M282.368 351.93C277.664 357.53 274.152 361.954 274.12 362.77L273.792 370.114C273.36 377.898 272.952 383.586 272.664 383.714C270.264 385.082 207.328 381.866 205.224 381.034C203.12 380.202 205.352 374.154 207.832 372.386C208.784 371.714 212.856 369.986 217.536 368.042C225.12 364.93 233.816 361.85 233.816 361.85L241.816 350.186L282.368 351.93Z" fill="#EBEBEB"/>
<path d="M204.952 381.265C207.12 382.113 270.128 385.169 272.608 383.769C273.552 383.241 275.008 373.577 274.624 362.793L234 360.865C234 360.865 210.136 370.529 207.6 372.353C205.064 374.177 202.792 380.401 204.952 381.265Z" fill="#0094DA"/>
<path d="M205.984 378.801C216.56 379.049 259.184 381.073 269.616 382.129C269.704 382.129 269.704 382.193 269.616 382.193C259.128 382.193 216.52 379.793 205.976 378.993C205.752 378.945 205.76 378.801 205.984 378.801Z" fill="#1C2126"/>
<path d="M211.744 370.289C212.921 370.314 214.08 370.584 215.148 371.081C216.215 371.578 217.167 372.292 217.944 373.177C219.352 374.755 220.098 376.815 220.024 378.929C220.024 378.993 219.904 378.985 219.896 378.929C219.639 376.821 218.706 374.853 217.236 373.32C215.766 371.787 213.839 370.771 211.744 370.425C211.726 370.425 211.709 370.418 211.696 370.405C211.683 370.392 211.676 370.375 211.676 370.357C211.676 370.339 211.683 370.322 211.696 370.309C211.709 370.296 211.726 370.289 211.744 370.289Z" fill="#1C2126"/>
<path d="M230.64 361.762C234.864 361.906 239.696 363.642 242.152 367.226C242.248 367.362 242.048 367.498 241.928 367.426C238.325 365.31 234.506 363.585 230.536 362.282C230.48 362.256 230.434 362.213 230.406 362.158C230.377 362.103 230.369 362.041 230.381 361.98C230.393 361.92 230.425 361.865 230.472 361.826C230.519 361.786 230.578 361.763 230.64 361.762Z" fill="#1C2126"/>
<path d="M227.312 362.874C231.544 363.026 236.368 364.754 238.832 368.338C238.92 368.474 238.728 368.61 238.6 368.538C235 366.422 231.183 364.697 227.216 363.394C227.147 363.381 227.086 363.341 227.046 363.283C227.006 363.226 226.991 363.155 227.004 363.086C227.017 363.017 227.056 362.956 227.114 362.916C227.172 362.876 227.243 362.861 227.312 362.874Z" fill="#1C2126"/>
<path d="M223.984 363.994C228.216 364.138 233.048 365.866 235.504 369.45C235.6 369.594 235.4 369.722 235.28 369.658C231.679 367.537 227.859 365.809 223.888 364.506C223.829 364.485 223.78 364.443 223.749 364.389C223.718 364.335 223.707 364.271 223.719 364.209C223.73 364.148 223.763 364.093 223.812 364.053C223.86 364.014 223.921 363.993 223.984 363.994Z" fill="#1C2126"/>
<path d="M220.656 365.105C224.888 365.249 229.72 366.977 232.176 370.569C232.272 370.705 232.072 370.841 231.952 370.769C228.362 368.654 224.556 366.927 220.6 365.617C220.543 365.598 220.495 365.56 220.463 365.509C220.431 365.459 220.417 365.399 220.423 365.339C220.43 365.28 220.456 365.224 220.499 365.181C220.541 365.139 220.596 365.112 220.656 365.105Z" fill="#1C2126"/>
<path d="M267.416 371.961C272.16 372.201 271.784 379.577 267.032 379.329C262.28 379.081 262.664 371.713 267.416 371.961Z" fill="#1C2126"/>
<path d="M226.648 356.475C228.792 359.531 232.176 361.547 235.088 363.779C235.157 363.827 235.237 363.857 235.321 363.867C235.404 363.877 235.489 363.867 235.568 363.837C235.646 363.807 235.717 363.758 235.772 363.695C235.828 363.632 235.868 363.557 235.888 363.475C235.905 363.478 235.922 363.478 235.938 363.474C235.955 363.47 235.97 363.463 235.983 363.452C235.996 363.441 236.007 363.427 236.014 363.412C236.021 363.397 236.024 363.38 236.024 363.363C235.888 359.48 234.735 355.7 232.68 352.403C231.456 350.499 228.84 348.627 226.616 350.299C224.392 351.971 225.4 354.691 226.648 356.475ZM226.648 352.963C227.296 348.387 231.272 352.115 232.12 353.563C232.656 354.502 233.127 355.478 233.528 356.483C234.328 358.58 235.023 360.716 235.608 362.883C234.248 361.699 232.792 360.643 231.392 359.515C229.696 358.147 226.272 355.483 226.624 352.963H226.648Z" fill="#1C2126"/>
<path d="M251.144 361.393C250.944 358.617 247.824 357.865 245.544 358.193C241.699 358.816 238.085 360.438 235.064 362.897C235.051 362.907 235.04 362.921 235.033 362.936C235.025 362.951 235.021 362.968 235.021 362.985C235.021 363.002 235.025 363.018 235.033 363.034C235.04 363.049 235.051 363.062 235.064 363.073C235.014 363.14 234.982 363.218 234.969 363.301C234.956 363.384 234.964 363.468 234.992 363.547C235.02 363.626 235.066 363.697 235.127 363.754C235.189 363.81 235.263 363.851 235.344 363.873C238.936 364.617 242.68 365.849 246.384 365.473C248.6 365.201 251.328 364.017 251.144 361.393ZM241.056 363.857C239.28 363.537 237.528 363.129 235.744 362.881C237.76 361.905 239.824 361.032 241.928 360.265C242.95 359.908 243.995 359.622 245.056 359.409C246.704 359.105 252.136 359.665 249.096 363.153C247.424 365.073 243.168 364.241 241.056 363.857Z" fill="#1C2126"/>
<path d="M231.912 353.4L282.368 359.6C282.368 359.6 332.264 299.904 336.296 295.928C348.792 283.608 393.592 262.328 406.96 242.568C418.96 224.8 406.808 205.816 406.808 205.816H357.544C358.807 211.065 360.487 216.204 362.568 221.184C362.568 221.184 321.648 251.992 299.84 273.984C285.784 288.168 231.912 353.4 231.912 353.4Z" fill="#1C2126"/>
<path d="M353.808 218.002C355.247 218.279 356.658 218.686 358.024 219.218C359.448 219.714 360.856 220.29 362.24 220.906C364.951 222.153 367.593 223.547 370.152 225.082C370.232 225.13 370.152 225.242 370.08 225.202C367.376 223.898 364.592 222.738 361.8 221.626L357.8 220.026C356.415 219.545 355.056 218.992 353.728 218.37C353.528 218.322 353.616 218.002 353.808 218.002Z" fill="#455A64"/>
<path d="M356.4 205.801C357.032 208.033 357.592 210.281 358.296 212.489C358.624 213.497 358.944 214.529 359.36 215.513C359.712 216.313 360.232 217.273 361.208 217.433C362.328 217.617 362.624 216.633 362.504 215.737C362.335 214.707 362.113 213.687 361.84 212.681C361.576 211.521 360.24 205.889 360.24 205.857C360.24 205.825 360.24 205.753 360.296 205.689C360.309 205.677 360.326 205.67 360.344 205.67C360.362 205.67 360.379 205.677 360.392 205.689C360.608 205.801 361.992 210.129 362.28 211.201C362.568 212.273 362.88 213.353 363.176 214.401C363.48 215.192 363.582 216.048 363.472 216.889C363.381 217.289 363.164 217.649 362.853 217.917C362.542 218.185 362.153 218.346 361.744 218.377C361.784 218.449 361.832 218.513 361.872 218.593C361.976 218.809 362.056 219.041 362.144 219.265C362.232 219.489 362.32 219.729 362.4 219.961C362.432 220.074 362.456 220.189 362.472 220.305C362.472 220.441 362.472 220.569 362.472 220.697C362.49 220.742 362.489 220.793 362.47 220.838C362.45 220.883 362.414 220.919 362.368 220.937C362.322 220.955 362.271 220.954 362.226 220.934C362.181 220.915 362.146 220.878 362.128 220.833C362.064 220.721 361.976 220.633 361.904 220.521C361.835 220.404 361.779 220.281 361.736 220.153C361.656 219.929 361.584 219.705 361.52 219.481C361.456 219.257 361.376 219.025 361.328 218.801C361.301 218.663 361.283 218.524 361.272 218.385C360.801 218.356 360.347 218.198 359.96 217.929C359.312 217.406 358.827 216.709 358.56 215.921C358.192 214.993 357.904 214.033 357.608 213.081C356.85 210.734 356.302 208.324 355.968 205.881C355.957 205.823 355.97 205.764 356.003 205.716C356.036 205.668 356.087 205.635 356.144 205.625C356.201 205.614 356.26 205.627 356.308 205.66C356.356 205.693 356.389 205.743 356.4 205.801Z" fill="#455A64"/>
<path d="M385.832 210.434C386.072 211.538 386.232 212.658 386.52 213.762C386.808 214.866 387.128 215.906 387.52 216.962C387.866 217.979 388.356 218.941 388.976 219.818C389.615 220.644 390.373 221.372 391.224 221.978C392.847 223.189 394.658 224.127 396.584 224.754C397.552 225.084 398.541 225.352 399.544 225.554C400.064 225.65 400.584 225.73 401.144 225.778C401.578 225.782 402.007 225.869 402.408 226.034C402.446 226.057 402.478 226.089 402.5 226.127C402.522 226.166 402.533 226.21 402.533 226.254C402.533 226.298 402.522 226.342 402.5 226.381C402.478 226.419 402.446 226.451 402.408 226.474C401.657 226.722 400.855 226.771 400.08 226.618C397.518 226.435 395.029 225.678 392.8 224.402C391.297 223.607 389.944 222.556 388.8 221.298C387.712 219.973 386.943 218.415 386.552 216.746C385.975 214.713 385.682 212.611 385.68 210.498C385.685 210.483 385.693 210.47 385.704 210.459C385.715 210.448 385.728 210.439 385.742 210.433C385.756 210.427 385.772 210.424 385.787 210.424C385.803 210.424 385.818 210.428 385.832 210.434Z" fill="#455A64"/>
<path d="M243 346.003C244.362 345.968 245.725 346.021 247.08 346.163C248.512 346.259 249.936 346.347 251.36 346.459C254.168 346.691 256.96 346.947 259.76 347.259C265.36 347.899 271.024 348.563 276.632 349.339C279.56 349.747 285.84 350.587 286.176 350.771C286.21 350.793 286.236 350.825 286.25 350.863C286.264 350.901 286.266 350.942 286.255 350.981C286.245 351.02 286.222 351.055 286.191 351.08C286.159 351.106 286.12 351.12 286.08 351.123C280.48 350.827 274.88 350.283 269.28 349.755C263.68 349.227 258.08 348.675 252.48 347.899C250.944 347.683 249.408 347.427 247.864 347.195C246.226 347.022 244.601 346.742 243 346.355C242.848 346.291 242.816 346.003 243 346.003Z" fill="#455A64"/>
<path d="M351.616 284.401C349 286.081 346.472 287.889 343.936 289.681C341.515 291.257 339.191 292.978 336.976 294.833C335.884 295.86 334.856 296.953 333.896 298.105L330.888 301.585C328.88 303.897 326.888 306.233 324.912 308.577C323.792 309.894 322.68 311.227 321.576 312.577C320.424 313.961 319.352 315.417 318.192 316.801C318.178 316.818 318.171 316.84 318.173 316.862C318.175 316.884 318.184 316.905 318.201 316.92C318.217 316.935 318.238 316.944 318.26 316.944C318.282 316.944 318.304 316.936 318.32 316.921C320.368 314.609 322.544 312.393 324.592 310.073C326.64 307.753 328.688 305.433 330.712 303.081C332.736 300.729 334.544 298.465 336.624 296.313C338.751 294.302 341.06 292.491 343.52 290.905C346.32 288.905 349.12 286.905 351.864 284.817C352.096 284.641 351.88 284.257 351.616 284.401Z" fill="#455A64"/>
<path d="M361.776 221.529C353.36 227.433 344.656 234.033 336.744 240.585C328.832 247.137 321 253.825 313.352 260.705C311.219 262.625 309.085 264.572 306.952 266.545C304.824 268.529 302.744 271.017 300.616 273.001C300.504 273.105 300.68 273.273 300.792 273.169C304.64 269.721 308.616 265.969 312.512 262.577C316.408 259.185 320.272 255.857 324.168 252.521C331.997 245.817 339.925 239.228 347.952 232.753C352.4 229.145 357.552 225.497 361.952 221.777C362.12 221.657 361.92 221.417 361.776 221.529Z" fill="#455A64"/>
<path d="M405.312 211.602C404.832 210.186 404.32 208.778 403.792 207.37C403.792 207.29 403.632 207.37 403.664 207.41C405.648 213.266 407.664 219.266 407.888 225.506C408.027 228.494 407.592 231.481 406.608 234.306C405.58 237.006 404.055 239.488 402.112 241.626C398.192 246.05 393.208 249.538 388.512 253.066C383.392 256.901 378.189 260.634 372.904 264.266C367.64 267.882 362.24 271.33 356.784 274.666C351.328 278.002 345.808 281.01 340.384 284.266C337.754 285.82 335.293 287.643 333.04 289.706C330.768 291.834 328.736 294.194 326.688 296.538C322.304 301.546 317.963 306.591 313.664 311.674C305.029 321.807 296.568 332.093 288.28 342.53C287.267 343.799 286.253 345.077 285.24 346.362C285.192 346.426 285.24 346.514 285.328 346.45C293.861 336.002 302.488 325.629 311.208 315.33C315.539 310.21 319.893 305.117 324.272 300.05C328.472 295.202 332.512 290.058 337.872 286.45C340.456 284.69 343.216 283.194 345.928 281.65C348.771 280.05 351.587 278.402 354.376 276.706C359.939 273.362 365.411 269.896 370.792 266.306C376.144 262.722 381.424 259.05 386.608 255.218C389.189 253.309 391.755 251.362 394.304 249.378C396.509 247.71 398.621 245.924 400.632 244.026C402.62 242.147 404.328 239.991 405.704 237.626C407.087 235.125 407.945 232.367 408.224 229.522C408.832 223.418 407.24 217.314 405.312 211.602Z" fill="#455A64"/>
<path d="M349.576 214.474C350.456 216.154 411.976 230.378 412.408 230.098C413.48 229.298 417.008 172.962 400.776 147.762C397.92 143.322 390.976 142.498 387.4 143.426C385.616 143.89 378.28 150.138 374.92 156.386C371.56 162.634 349.032 213.402 349.576 214.474Z" fill="#0094DA"/>
<g opacity="0.1">
<path d="M398.496 145.434H384.328C384.888 144.97 385.408 144.578 385.864 144.266H396.384C397.132 144.57 397.84 144.962 398.496 145.434Z" fill="black"/>
<path d="M401.696 149.266H380.248C380.624 148.858 381.008 148.466 381.384 148.098H400.984C401.232 148.482 401.464 148.866 401.696 149.266Z" fill="black"/>
<path d="M403.728 153.106H377.024C377.312 152.706 377.616 152.306 377.92 151.938H403.152C403.352 152.322 403.536 152.714 403.728 153.106Z" fill="black"/>
<path d="M405.4 156.937H374.64L374.92 156.385C375.032 156.185 375.144 155.977 375.264 155.777H404.912C405.072 156.161 405.232 156.545 405.4 156.937Z" fill="black"/>
<path d="M406.776 160.777H372.776C372.976 160.361 373.16 159.977 373.328 159.609H406.376C406.512 159.993 406.648 160.401 406.776 160.777Z" fill="black"/>
<path d="M407.96 164.617H371L371.536 163.449H407.616C407.736 163.833 407.848 164.225 407.96 164.617Z" fill="black"/>
<path d="M408.968 168.449H369.248C369.424 168.049 369.6 167.649 369.776 167.281H408.68L408.968 168.449Z" fill="black"/>
<path d="M409.84 172.289H367.504C367.68 171.897 367.864 171.489 368.032 171.121H409.584C409.672 171.505 409.76 171.897 409.84 172.289Z" fill="black"/>
<path d="M410.576 176.129H365.776C365.952 175.737 366.12 175.329 366.296 174.961H410.36C410.44 175.345 410.512 175.737 410.576 176.129Z" fill="black"/>
<path d="M411.224 179.961H364.072C364.248 179.569 364.416 179.161 364.592 178.793H411L411.224 179.961Z" fill="black"/>
<path d="M411.8 183.803H362.368C362.536 183.419 362.712 183.003 362.88 182.635H411.608C411.664 183.027 411.712 183.411 411.8 183.803Z" fill="black"/>
<path d="M412.224 187.602H360.68C360.848 187.21 361.016 186.802 361.192 186.434H412.088C412.136 186.858 412.176 187.242 412.224 187.602Z" fill="black"/>
<path d="M412.6 191.475H359C359.16 191.091 359.336 190.675 359.504 190.307H412.488C412.528 190.699 412.6 191.083 412.6 191.475Z" fill="black"/>
<path d="M412.904 195.313H357.328C357.488 194.929 357.664 194.513 357.832 194.145H412.816C412.848 194.537 412.88 194.921 412.904 195.313Z" fill="black"/>
<path d="M413.144 199.147H355.672L356.168 197.979H413.08C413.104 198.371 413.12 198.803 413.144 199.147Z" fill="black"/>
<path d="M413.312 202.984H354.032L354.528 201.816H413.272C413.288 202.208 413.304 202.6 413.312 202.984Z" fill="black"/>
<path d="M413.4 206.803H352.424L352.912 205.635H413.4V206.803Z" fill="black"/>
<path d="M413.48 210.656H350.872C351.008 210.288 351.168 209.896 351.328 209.488H413.472C413.48 209.88 413.48 210.272 413.48 210.656Z" fill="black"/>
<path d="M413.48 213.33C413.48 213.722 413.48 214.13 413.48 214.498H349.592C349.616 214.102 349.714 213.714 349.88 213.354L413.48 213.33Z" fill="black"/>
<path d="M413.4 217.201C413.4 217.601 413.4 218.001 413.4 218.369H362.2C360.6 217.961 359.152 217.569 357.8 217.201H413.4Z" fill="black"/>
<path d="M413.304 221.002C413.304 221.402 413.304 221.802 413.256 222.17H377.64C376.04 221.778 374.44 221.37 372.84 221.002H413.304Z" fill="black"/>
<path d="M413.096 224.834C413.096 225.242 413.04 225.634 413.008 226.002H393.808L388.808 224.834H413.096Z" fill="black"/>
<path d="M412.728 228.674C412.689 229.068 412.62 229.459 412.52 229.842H410.92C409.72 229.602 407.856 229.194 405.512 228.674H412.728Z" fill="black"/>
</g>
<path d="M398 160.723C409.064 159.827 427.4 155.859 437.376 150.323C443.36 146.979 444.264 142.491 444.576 139.355C445.376 131.243 431.856 118.075 424.752 113.163C423.816 112.515 422.456 117.283 418.152 122.635C414.512 127.171 407.648 132.291 408.68 133.163C410.2 134.443 417.248 139.299 416.912 139.883C416.336 140.883 409.8 143.659 400.008 148.403C386.872 154.739 390.2 161.363 398 160.723Z" fill="#EB9481"/>
<path d="M427.104 157.594L408.128 143.002C408.128 143.002 395.288 149.21 391.904 153.002C388.52 156.794 390.448 161.442 399.856 162.362C410.64 163.41 427.104 157.594 427.104 157.594Z" fill="#0094DA"/>
<path d="M422.328 158.05C415.128 151.706 407.408 145.626 405.96 144.65C405.896 144.61 405.832 144.706 405.88 144.754C411.064 149.546 416.533 154.021 422.256 158.154C422.312 158.194 422.384 158.098 422.328 158.05Z" fill="#1C2126"/>
<path d="M410.832 160.881C409.4 161.125 408.037 161.671 406.832 162.481C406.26 162.908 405.746 163.408 405.304 163.969C405.075 164.238 404.872 164.527 404.696 164.833C404.517 165.123 404.364 165.428 404.24 165.745C404.24 165.817 404.32 165.857 404.36 165.809C404.592 165.577 404.784 165.305 405.024 165.073C405.264 164.841 405.48 164.593 405.728 164.369C406.231 163.894 406.766 163.453 407.328 163.049C408.387 162.181 409.592 161.509 410.888 161.065C410.9 161.061 410.911 161.055 410.921 161.047C410.931 161.039 410.939 161.03 410.945 161.018C410.951 161.007 410.954 160.995 410.956 160.982C410.957 160.97 410.956 160.957 410.952 160.945C410.948 160.933 410.942 160.922 410.934 160.912C410.926 160.902 410.916 160.894 410.905 160.888C410.894 160.882 410.882 160.879 410.869 160.877C410.857 160.876 410.844 160.877 410.832 160.881Z" fill="#1C2126"/>
<g opacity="0.1">
<path d="M411.288 145.434H403.384C404.184 145.002 404.984 144.634 405.608 144.266H409.768L411.288 145.434Z" fill="black"/>
<path d="M416.272 149.266H396.76C397.368 148.874 398.008 148.466 398.648 148.098H414.752L416.272 149.266Z" fill="black"/>
<path d="M421.264 153.106H391.8L391.888 153.002C392.236 152.622 392.611 152.266 393.008 151.938H419.736L421.264 153.106Z" fill="black"/>
<path d="M426.248 156.937H390.376C390.332 156.551 390.348 156.159 390.424 155.777H424.744L426.248 156.937Z" fill="black"/>
<path d="M420.488 159.602C419.064 159.986 417.472 160.402 415.784 160.77H393.592C392.959 160.459 392.37 160.066 391.84 159.602H420.488Z" fill="black"/>
</g>
<path d="M385.752 153.834C388.952 155.162 395.424 151.066 398.344 147.354C398.536 147.098 399.248 135.706 399.624 133.458C399.696 133.002 384.976 134.53 384.976 134.53C385.311 137.469 385.285 140.438 384.896 143.37C384.84 143.698 382.688 152.546 385.752 153.834Z" fill="#EB9481"/>
<path d="M384.648 144.274C384.648 144.322 384.648 144.37 384.6 144.426H384.672C385.118 144.568 385.576 144.669 386.04 144.73C393.72 145.834 397.864 136.858 399.184 133.362C396.784 133.29 384.976 134.514 384.976 134.514C385.311 137.453 385.285 140.422 384.896 143.354C384.896 143.466 384.856 143.57 384.84 143.666C384.795 143.875 384.731 144.078 384.648 144.274Z" fill="#1C2126"/>
<path d="M383.048 108.299C383.048 108.299 378.248 110.235 377.32 115.083C376.392 119.931 377.448 125.035 377.864 125.291C378.28 125.547 383.048 108.299 383.048 108.299Z" fill="#1C2126"/>
<path d="M401.552 115.545C403.08 120.609 400.384 135.217 396.752 138.473C391.528 143.185 382.992 143.617 378.992 137.337C375.112 131.257 378.992 112.281 382.992 109.337C388.944 104.977 399.28 108.073 401.552 115.545Z" fill="#EB9481"/>
<path d="M377.976 121.114C377.67 122.455 377.482 123.82 377.416 125.194C377.32 126.61 377.304 128.026 377.312 129.442C377.312 129.522 377.44 129.514 377.44 129.442C377.44 128.05 377.536 126.658 377.656 125.274C377.776 123.89 378 122.514 378.072 121.13C378.08 121.066 377.992 121.066 377.976 121.114Z" fill="#1C2126"/>
<path d="M387 124.402C387 124.362 387.072 124.458 387.064 124.498C386.856 125.482 386.784 126.634 387.616 127.122C387.616 127.122 387.616 127.186 387.616 127.178C386.552 126.802 386.664 125.266 387 124.402Z" fill="#1C2126"/>
<path d="M388.088 123.498C389.688 123.666 389.24 126.858 387.752 126.698C386.264 126.538 386.736 123.362 388.088 123.498Z" fill="#1C2126"/>
<path d="M381.528 123.752C381.528 123.712 381.44 123.752 381.44 123.824C381.328 124.824 381.04 125.944 380.096 126.152V126.208C381.216 126.2 381.584 124.712 381.528 123.752Z" fill="#1C2126"/>
<path d="M380.784 122.592C379.184 122.248 378.64 125.424 380.096 125.744C381.552 126.064 382.104 122.88 380.784 122.592Z" fill="#1C2126"/>
<path d="M389.552 122.21C389.149 122.03 388.756 121.827 388.376 121.602C387.931 121.445 387.549 121.147 387.288 120.754C387.233 120.615 387.225 120.461 387.266 120.317C387.306 120.172 387.393 120.045 387.512 119.954C387.779 119.811 388.078 119.742 388.381 119.753C388.683 119.764 388.977 119.856 389.232 120.018C389.797 120.267 390.248 120.718 390.496 121.282C390.543 121.413 390.552 121.555 390.521 121.691C390.49 121.827 390.421 121.951 390.322 122.049C390.222 122.147 390.097 122.214 389.96 122.243C389.824 122.271 389.682 122.26 389.552 122.21Z" fill="#1C2126"/>
<path d="M379.8 120.81C380.24 120.783 380.678 120.732 381.112 120.658C381.585 120.669 382.048 120.526 382.432 120.25C382.525 120.14 382.582 120.004 382.595 119.861C382.608 119.718 382.576 119.574 382.504 119.45C382.309 119.226 382.059 119.057 381.778 118.96C381.497 118.863 381.196 118.842 380.904 118.898C380.285 118.93 379.7 119.193 379.264 119.634C379.182 119.739 379.13 119.864 379.114 119.997C379.098 120.129 379.119 120.263 379.175 120.385C379.23 120.506 379.317 120.61 379.428 120.685C379.538 120.76 379.667 120.803 379.8 120.81Z" fill="#1C2126"/>
<path d="M386.92 133.714C386.648 133.914 386.368 134.202 386 134.186C385.633 134.123 385.282 133.987 384.968 133.786C384.968 133.786 384.904 133.786 384.92 133.826C385.033 134.042 385.203 134.223 385.412 134.35C385.621 134.477 385.86 134.544 386.104 134.546C386.317 134.517 386.517 134.426 386.678 134.284C386.839 134.141 386.954 133.954 387.008 133.746C387 133.722 386.952 133.69 386.92 133.714Z" fill="#1C2126"/>
<path d="M386.288 130.602C385.982 130.96 385.605 131.251 385.181 131.457C384.757 131.662 384.295 131.777 383.824 131.794C383.415 131.812 383.006 131.774 382.608 131.682L382.376 131.618C382.305 131.604 382.235 131.582 382.168 131.554C382.115 131.539 382.069 131.506 382.039 131.46C382.008 131.415 381.994 131.36 382 131.306C381.996 131.274 381.996 131.242 382 131.21V131.122C382.08 130.322 382.32 129.202 382.32 129.202C382.024 129.306 380.512 129.746 380.592 129.354C381.159 125.926 382.073 122.564 383.32 119.322C383.36 119.218 383.528 119.266 383.504 119.37C382.992 122.57 381.904 125.602 381.368 128.778C381.907 128.61 382.468 128.521 383.032 128.514C383.136 128.562 382.536 130.73 382.52 131.082C383.135 131.233 383.775 131.259 384.4 131.157C385.026 131.056 385.624 130.828 386.16 130.49C386.288 130.458 386.36 130.538 386.288 130.602Z" fill="#1C2126"/>
<path d="M383.112 131.354C383.452 131.957 383.943 132.462 384.536 132.818C384.866 133.006 385.247 133.084 385.624 133.042C386.424 132.946 386.568 132.242 386.504 131.578C386.474 131.237 386.401 130.901 386.288 130.578C385.339 131.168 384.226 131.44 383.112 131.354Z" fill="#1C2126"/>
<path d="M384.536 132.817C384.866 133.004 385.247 133.083 385.624 133.041C386.424 132.945 386.568 132.241 386.504 131.577C386.084 131.533 385.662 131.631 385.305 131.856C384.948 132.081 384.677 132.419 384.536 132.817Z" fill="#FF98B9"/>
<path d="M400.368 127.395C398.696 127.635 397.608 122.547 397.376 120.611C397.168 118.915 397.448 113.667 397.424 113.299C397.4 112.931 389.744 116.787 385.896 114.979C382.048 113.171 379.928 109.131 380.136 107.435C380.344 105.739 386.016 102.243 390.376 102.699C394.736 103.155 399.736 109.571 399.736 109.571C399.155 108.655 398.646 107.695 398.216 106.699C398.32 106.515 400.936 108.067 401.144 110.139C401.144 110.139 400.976 107.555 401.2 107.539C401.424 107.523 403.256 110.011 402.512 111.539C402.512 111.539 404.68 114.107 404.544 116.531C404.408 118.955 402.336 127.115 400.368 127.395Z" fill="#1C2126"/>
<path d="M383.168 113.69C384.261 114.517 385.472 115.175 386.76 115.642C388.222 116.01 389.753 116.01 391.216 115.642C392.683 115.317 394.087 114.758 395.376 113.986C396.512 113.314 397.56 112.45 398.752 111.882C399.048 111.738 399.304 112.17 399.096 112.394C396.905 114.647 394.046 116.134 390.944 116.634C389.505 116.869 388.029 116.724 386.663 116.215C385.297 115.706 384.087 114.85 383.152 113.73C383.152 113.73 383.152 113.674 383.168 113.69Z" fill="#1C2126"/>
<path d="M387.624 129.121C386.529 128.823 385.596 128.104 385.03 127.12C384.463 126.137 384.309 124.97 384.6 123.873C384.808 123.099 385.229 122.4 385.815 121.854C386.401 121.308 387.128 120.937 387.914 120.784C388.701 120.631 389.514 120.701 390.262 120.987C391.01 121.274 391.663 121.764 392.146 122.403C392.629 123.041 392.924 123.803 392.996 124.6C393.068 125.398 392.914 126.2 392.553 126.915C392.192 127.63 391.638 128.229 390.953 128.644C390.268 129.06 389.481 129.275 388.68 129.265C388.323 129.264 387.968 129.216 387.624 129.121ZM385.152 124.017C384.961 124.726 384.984 125.475 385.218 126.171C385.453 126.866 385.889 127.477 386.47 127.925C387.052 128.373 387.753 128.638 388.486 128.688C389.218 128.737 389.949 128.568 390.585 128.203C391.222 127.837 391.736 127.291 392.062 126.633C392.388 125.975 392.511 125.235 392.417 124.507C392.323 123.779 392.014 123.096 391.532 122.543C391.049 121.99 390.413 121.592 389.704 121.401C389.403 121.323 389.094 121.281 388.784 121.273C387.96 121.263 387.157 121.528 386.499 122.024C385.842 122.521 385.368 123.222 385.152 124.017Z" fill="#0094DA"/>
<path d="M378.664 127.921C376.92 127.689 375.752 125.601 376.056 123.257C376.173 122.196 376.624 121.199 377.344 120.409C377.63 120.05 378.004 119.77 378.43 119.597C378.856 119.425 379.32 119.365 379.775 119.425C380.231 119.484 380.664 119.661 381.031 119.937C381.399 120.213 381.688 120.58 381.872 121.001C382.36 121.953 382.536 123.033 382.376 124.089C382.088 126.305 380.584 127.961 378.944 127.937L378.664 127.921ZM377.76 120.801C377.125 121.507 376.727 122.394 376.624 123.337C376.36 125.361 377.304 127.161 378.736 127.337C380.168 127.513 381.544 126.025 381.816 123.993C381.953 123.057 381.797 122.101 381.368 121.257C381.213 120.925 380.98 120.636 380.689 120.413C380.398 120.19 380.057 120.041 379.696 119.977H379.48C379.152 119.987 378.829 120.065 378.533 120.207C378.236 120.349 377.973 120.552 377.76 120.801Z" fill="#0094DA"/>
<path d="M384.68 124.402L385.104 124.01C384.528 123.386 383.136 122.466 381.952 123.442L382.312 123.882C383.376 122.986 384.6 124.33 384.68 124.402Z" fill="#0094DA"/>
<path d="M403.456 127.953L404 127.761C403.904 127.505 403.072 125.297 401.832 124.921C400.592 124.545 392.968 124.297 392.64 124.281V124.857C394.848 124.937 400.792 125.201 401.68 125.473C402.568 125.745 403.24 127.345 403.456 127.953Z" fill="#0094DA"/>
<path d="M398.4 127.45C398.4 127.45 401.808 122.802 403.928 124.026C406.048 125.25 403.408 132.026 400.872 132.93C400.554 133.065 400.212 133.135 399.866 133.134C399.521 133.134 399.179 133.064 398.861 132.928C398.543 132.792 398.256 132.593 398.018 132.343C397.779 132.093 397.593 131.797 397.472 131.474L398.4 127.45Z" fill="#EB9481"/>
<path d="M403.128 125.953V126.017C401.352 126.697 400.384 128.313 399.696 130.017C399.802 129.843 399.945 129.693 400.115 129.58C400.284 129.466 400.477 129.391 400.678 129.359C400.88 129.327 401.086 129.339 401.283 129.395C401.479 129.45 401.661 129.548 401.816 129.681C401.864 129.681 401.816 129.785 401.768 129.769C401.46 129.667 401.128 129.662 400.816 129.753C400.505 129.845 400.228 130.029 400.024 130.281C399.692 130.714 399.403 131.177 399.16 131.665C399.08 131.825 398.792 131.729 398.856 131.553C398.888 129.201 400.704 126.129 403.128 125.953Z" fill="#1C2126"/>
<path d="M404.304 124.08C404.063 123.903 403.782 123.788 403.486 123.746C403.19 123.704 402.888 123.737 402.608 123.84C402.528 123.84 402.52 123.912 402.608 123.888C402.945 123.788 403.303 123.788 403.64 123.888C403.92 123.976 404.712 124.304 404.704 125.96C404.582 127.268 404.222 128.542 403.64 129.72C403.64 129.76 403.688 129.8 403.712 129.76C404.099 129.023 404.41 128.248 404.64 127.448C404.864 126.552 405.16 124.808 404.304 124.08Z" fill="#1C2126"/>
<path d="M399.536 148.457C398.968 149.089 398.464 149.753 397.864 150.353C397.26 150.962 396.625 151.539 395.96 152.081C394.674 153.134 393.28 154.046 391.8 154.801C390.271 155.712 388.491 156.11 386.72 155.937C385.917 155.801 385.166 155.448 384.549 154.916C383.931 154.385 383.471 153.695 383.216 152.921C382.472 150.921 382.976 148.793 383.464 146.697C383.464 146.625 383.368 146.593 383.344 146.697C382.792 148.849 382.376 150.617 382.752 152.641C382.875 153.431 383.193 154.178 383.678 154.814C384.163 155.449 384.799 155.954 385.528 156.281C389.072 157.753 392.848 155.201 395.472 153.017C396.24 152.376 396.969 151.689 397.656 150.961C398.391 150.221 399.06 149.418 399.656 148.561C399.68 148.465 399.584 148.401 399.536 148.457Z" fill="#1C2126"/>
<path d="M428.816 226.158H141.984V236.358H428.816V226.158Z" fill="#37474F"/>
<path d="M428.816 232.373H141.984V236.357H428.816V232.373Z" fill="#455A64"/>
<path d="M152.272 379.477H148.152L160.152 236.357H170.672L152.272 379.477Z" fill="#455A64"/>
<path d="M170.672 236.357L169.44 245.933H159.352L160.152 236.357H170.672Z" fill="#1C2126"/>
<path d="M418.528 379.477H422.648L410.648 236.357H400.128L418.528 379.477Z" fill="#455A64"/>
<path d="M400.128 236.357L401.36 245.933H411.448L410.648 236.357H400.128Z" fill="#1C2126"/>
<path d="M319.264 226.151H363.576V222.703L319.264 221.271V226.151Z" fill="#455A64"/>
<path d="M284.432 226.088H313.672C316.168 226.088 312.552 218.984 303.448 216.264C294.344 213.544 281.568 223.424 284.432 226.088Z" fill="#37474F"/>
<path d="M295.904 226.088C295.428 224.593 294.79 223.155 294 221.8C293.61 221.137 293.154 220.515 292.64 219.944C292.109 219.367 291.534 218.832 290.92 218.344C291.712 218.576 292.445 218.975 293.072 219.512C293.708 220.05 294.248 220.691 294.672 221.408C295.099 222.119 295.425 222.886 295.64 223.688C295.864 224.467 295.954 225.279 295.904 226.088Z" fill="#1C2126"/>
<path d="M292.44 219.326C290.904 220.326 289.368 221.222 287.928 222.254C287.207 222.754 286.528 223.31 285.896 223.918C285.248 224.519 284.747 225.261 284.432 226.086C284.452 225.137 284.806 224.225 285.432 223.51C286.013 222.78 286.697 222.138 287.464 221.606C288.221 221.077 289.024 220.616 289.864 220.23C290.688 219.838 291.552 219.535 292.44 219.326Z" fill="#1C2126"/>
<path d="M263.456 212.336H334.52L323.224 159.432H252.152L263.456 212.336Z" fill="#455A64"/>
<path d="M260.832 212.336H331.896L320.592 159.432H249.528L260.832 212.336Z" fill="#37474F"/>
<path d="M299.16 193.368H300.824L298.296 181.504H296.632L299.16 193.368Z" fill="#1C2126"/>
<path d="M295.872 193.368H297.536L295.008 181.504H293.336L295.872 193.368Z" fill="#1C2126"/>
<path d="M292.584 193.368H294.248L291.72 181.504H290.048L292.584 193.368Z" fill="#1C2126"/>
<path d="M289.296 193.368H290.96L288.432 181.504H286.76L289.296 193.368Z" fill="#1C2126"/>
<path d="M286 193.368H287.672L285.144 181.504H283.472L286 193.368Z" fill="#1C2126"/>
<path d="M282.712 193.368H284.384L281.848 181.504H280.184L282.712 193.368Z" fill="#1C2126"/>
<path d="M279.424 193.368H281.096L278.56 181.504H276.896L279.424 193.368Z" fill="#1C2126"/>
<path d="M280.928 226.159H315.88V223.439L280.928 222.311V226.159Z" fill="#455A64"/>
<path d="M271.424 226.152H290.192L301.496 196.504H282.728L271.424 226.152Z" fill="#455A64"/>
<path d="M268.336 226.152H287.104L298.4 196.504H279.64L268.336 226.152Z" fill="#1C2126"/>
<path d="M264.92 116.93C264.92 116.93 260.6 151.802 253.4 159.65C244.808 169.058 238.576 167.65 235.104 172.538C231.64 167.674 225.4 169.058 216.8 159.642C209.6 151.794 205.296 116.922 205.296 116.922C224.16 107.77 235.104 97.5059 235.104 97.5059C235.44 97.8339 246.344 107.922 264.92 116.93Z" fill="#0094DA"/>
<path opacity="0.2" d="M235.104 97.5219V172.538C231.64 167.674 225.4 169.058 216.8 159.642C209.6 151.794 205.296 116.922 205.296 116.922C224.16 107.77 235.104 97.5059 235.104 97.5059V97.5219Z" fill="black"/>
<path opacity="0.1" d="M264.92 116.929C264.92 116.929 260.6 151.801 253.4 159.649C244.808 169.057 238.576 167.649 235.104 172.537V97.5215C235.44 97.8335 246.344 107.921 264.92 116.929Z" fill="black"/>
<path d="M260.288 119.738C260.288 119.738 256.6 149.202 250.568 155.826C243.304 163.826 238.032 162.618 235.096 166.722C232.168 162.618 226.896 163.794 219.632 155.826C213.584 149.194 209.912 119.738 209.912 119.738C225.848 112.002 235.096 103.338 235.096 103.338C235.096 103.338 244.36 112.002 260.288 119.738Z" fill="#0094DA"/>
<path d="M242.656 130.85H227.544V144.562H242.656V130.85Z" fill="white"/>
<path d="M241.144 135.075H239.608V128.955C239.559 127.792 239.063 126.693 238.223 125.888C237.383 125.083 236.264 124.633 235.1 124.633C233.936 124.633 232.817 125.083 231.977 125.888C231.137 126.693 230.641 127.792 230.592 128.955V135.075H229.056V128.955C229.113 127.39 229.775 125.908 230.902 124.821C232.029 123.734 233.534 123.127 235.1 123.127C236.666 123.127 238.171 123.734 239.298 124.821C240.425 125.908 241.087 127.39 241.144 128.955V135.075Z" fill="white"/>
<path d="M235.744 137.875L236.376 140.875H233.688L234.32 137.875C234.072 137.72 233.882 137.489 233.777 137.216C233.673 136.944 233.66 136.645 233.74 136.364C233.82 136.084 233.99 135.837 234.223 135.661C234.456 135.486 234.74 135.391 235.032 135.391C235.324 135.391 235.608 135.486 235.841 135.661C236.074 135.837 236.244 136.084 236.324 136.364C236.404 136.645 236.391 136.944 236.287 137.216C236.182 137.489 235.992 137.72 235.744 137.875Z" fill="#37474F"/>
<path d="M185.744 213.113H141.984V176.105L163.856 162.209L185.744 176.105V213.113Z" fill="#0094DA"/>
<path opacity="0.2" d="M185.744 213.113H141.984V176.105L163.856 162.209L185.744 176.105V213.113Z" fill="black"/>
<path d="M183.272 207.225H144.448V157.393H173.272L183.272 166.889V207.225Z" fill="#EBEBEB"/>
<path d="M173.272 157.393L183.272 166.889H173.272V157.393Z" fill="#DBDBDB"/>
<path d="M148.24 167.033H169.824V165.753H148.24V167.033Z" fill="#DBDBDB"/>
<path d="M148.24 170.264H169.824V168.984H148.24V170.264Z" fill="#DBDBDB"/>
<path d="M148.24 173.488H169.824V172.208H148.24V173.488Z" fill="#DBDBDB"/>
<path d="M148.24 176.729H179.864V175.449H148.24V176.729Z" fill="#DBDBDB"/>
<path d="M148.24 179.951H179.864V178.671H148.24V179.951Z" fill="#DBDBDB"/>
<path d="M148.24 183.186H179.864V181.906H148.24V183.186Z" fill="#DBDBDB"/>
<path d="M148.24 186.408H179.864V185.128H148.24V186.408Z" fill="#DBDBDB"/>
<path d="M148.24 189.648H179.864V188.368H148.24V189.648Z" fill="#DBDBDB"/>
<path d="M148.24 192.873H179.864V191.593H148.24V192.873Z" fill="#DBDBDB"/>
<path d="M148.24 196.105H179.864V194.825H148.24V196.105Z" fill="#DBDBDB"/>
<path d="M148.24 199.328H179.864V198.048H148.24V199.328Z" fill="#DBDBDB"/>
<path d="M148.24 202.561H179.864V201.281H148.24V202.561Z" fill="#DBDBDB"/>
<path d="M185.744 185.369V213.113H141.984V185.369C143.864 186.433 145.712 187.545 147.584 188.641C149.456 189.737 151.288 190.857 153.128 191.993C155.181 193.241 157.229 194.505 159.272 195.785H159.344L159.288 195.833L163.88 198.705C165.408 197.745 166.936 196.777 168.472 195.833L168.416 195.785H168.48C170.528 194.513 172.568 193.249 174.624 191.993C176.464 190.868 178.312 189.753 180.168 188.649C182.016 187.545 183.864 186.433 185.744 185.369Z" fill="#0094DA"/>
<path d="M185.744 185.369C183.976 186.609 182.176 187.769 180.392 189.017C178.608 190.265 176.8 191.417 174.992 192.593C173.184 193.769 171.208 195.049 169.32 196.265L169.152 196.385L164.112 199.585L163.856 199.737L163.616 199.585C161.936 198.518 160.259 197.452 158.584 196.385C158.522 196.353 158.464 196.315 158.408 196.273C156.504 195.057 154.616 193.873 152.728 192.593C150.84 191.313 149.128 190.193 147.336 189.025C145.544 187.857 143.752 186.625 141.984 185.377C143.864 186.441 145.712 187.553 147.584 188.649C149.456 189.745 151.288 190.865 153.128 192.001C155.181 193.249 157.229 194.513 159.272 195.793L163.864 198.665C165.392 197.705 166.92 196.737 168.456 195.793C170.504 194.521 172.544 193.257 174.6 192.001C176.44 190.876 178.288 189.761 180.144 188.657C182.016 187.545 183.864 186.433 185.744 185.369Z" fill="white"/>
<path d="M159.328 195.744L159.272 195.792L158.584 196.376C157.488 197.304 156.36 198.192 155.216 199.056C153.824 200.12 152.4 201.136 150.968 202.144C149.536 203.152 148.08 204.128 146.6 205.072C145.12 206.016 143.632 206.944 142.088 207.792C143.416 206.632 144.8 205.544 146.192 204.488C147.584 203.432 149.016 202.4 150.44 201.392C151.864 200.384 153.336 199.408 154.808 198.464C155.984 197.664 157.208 196.96 158.408 196.264L159.256 195.784L159.328 195.744Z" fill="white"/>
<path d="M185.632 207.792C184.088 206.944 182.592 206.016 181.12 205.072C179.648 204.128 178.2 203.136 176.752 202.144C175.304 201.152 173.896 200.12 172.496 199.056C171.36 198.192 170.24 197.312 169.152 196.384C168.912 196.184 168.68 195.992 168.456 195.792L168.4 195.744H168.464L169.32 196.232C170.544 196.928 171.72 197.672 172.912 198.432C174.392 199.376 175.84 200.36 177.28 201.36C178.72 202.36 180.136 203.392 181.528 204.456C182.92 205.52 184.304 206.632 185.632 207.792Z" fill="white"/>
<path d="M185.632 220.209C189.608 220.209 192.832 216.985 192.832 213.009C192.832 209.032 189.608 205.809 185.632 205.809C181.656 205.809 178.432 209.032 178.432 213.009C178.432 216.985 181.656 220.209 185.632 220.209Z" fill="#37474F"/>
<path d="M189.2 211.193H182.064V217.673H189.2V211.193Z" fill="white"/>
<path d="M188.488 213.2H187.8V210.304C187.767 209.761 187.528 209.251 187.131 208.879C186.735 208.506 186.212 208.299 185.668 208.299C185.124 208.299 184.601 208.506 184.204 208.879C183.808 209.251 183.569 209.761 183.536 210.304V213.2H182.816V210.304C182.795 209.917 182.854 209.529 182.988 209.166C183.122 208.802 183.329 208.469 183.596 208.188C183.863 207.906 184.184 207.682 184.54 207.529C184.896 207.376 185.28 207.297 185.668 207.297C186.056 207.297 186.439 207.376 186.796 207.529C187.152 207.682 187.473 207.906 187.74 208.188C188.007 208.469 188.214 208.802 188.348 209.166C188.482 209.529 188.54 209.917 188.52 210.304L188.488 213.2Z" fill="white"/>
<path d="M185.936 214.514L186.24 215.93H184.968L185.264 214.514C185.174 214.456 185.1 214.376 185.049 214.283C184.997 214.189 184.969 214.085 184.968 213.978C184.966 213.865 184.993 213.754 185.047 213.656C185.101 213.557 185.181 213.474 185.277 213.416C185.373 213.358 185.483 213.326 185.596 213.324C185.708 213.322 185.819 213.35 185.918 213.404C186.016 213.459 186.099 213.538 186.156 213.635C186.214 213.731 186.246 213.841 186.248 213.954C186.25 214.066 186.222 214.177 186.167 214.276C186.112 214.374 186.033 214.456 185.936 214.514Z" fill="#37474F"/>
<path d="M218.328 140.184H144.872V151.32H218.328V140.184Z" fill="white"/>
<path d="M218.72 151.719H144.472V139.783H218.72V151.719ZM145.272 150.919H217.92V140.583H145.272V150.919Z" fill="#EBEBEB"/>
<path d="M142.912 152.953C146.888 152.953 150.112 149.729 150.112 145.753C150.112 141.776 146.888 138.553 142.912 138.553C138.936 138.553 135.712 141.776 135.712 145.753C135.712 149.729 138.936 152.953 142.912 152.953Z" fill="#37474F"/>
<path d="M146.48 143.93H139.344V150.41H146.48V143.93Z" fill="white"/>
<path d="M145.768 145.928H145.04V143.04C145.04 142.475 144.816 141.934 144.417 141.535C144.018 141.136 143.476 140.912 142.912 140.912C142.348 140.912 141.806 141.136 141.407 141.535C141.008 141.934 140.784 142.475 140.784 143.04V145.928H140.056V143.04C140.056 142.282 140.357 141.556 140.892 141.02C141.428 140.485 142.155 140.184 142.912 140.184C143.669 140.184 144.396 140.485 144.931 141.02C145.467 141.556 145.768 142.282 145.768 143.04V145.928Z" fill="white"/>
<path d="M143.216 147.249L143.512 148.673H142.24L142.544 147.249C142.451 147.194 142.374 147.116 142.32 147.022C142.267 146.928 142.239 146.821 142.24 146.713C142.258 146.557 142.332 146.412 142.449 146.307C142.567 146.203 142.719 146.145 142.876 146.145C143.033 146.145 143.185 146.203 143.303 146.307C143.42 146.412 143.494 146.557 143.512 146.713C143.512 146.82 143.485 146.926 143.433 147.019C143.381 147.113 143.307 147.192 143.216 147.249Z" fill="#37474F"/>
<path d="M157.608 143.385H156.808V148.481H157.608V143.385Z" fill="#37474F"/>
<path d="M159.752 145.529H154.656V146.329H159.752V145.529Z" fill="#37474F"/>
<path d="M158.724 143.844L155.121 147.447L155.686 148.013L159.29 144.41L158.724 143.844Z" fill="#37474F"/>
<path d="M155.692 143.844L155.126 144.41L158.73 148.014L159.296 147.448L155.692 143.844Z" fill="#37474F"/>
<path d="M166.256 143.385H165.456V148.481H166.256V143.385Z" fill="#37474F"/>
<path d="M168.408 145.529H163.312V146.329H168.408V145.529Z" fill="#37474F"/>
<path d="M167.381 143.844L163.778 147.447L164.343 148.013L167.947 144.41L167.381 143.844Z" fill="#37474F"/>
<path d="M164.343 143.85L163.777 144.416L167.381 148.019L167.947 147.454L164.343 143.85Z" fill="#37474F"/>
<path d="M174.912 143.385H174.112V148.481H174.912V143.385Z" fill="#37474F"/>
<path d="M177.056 145.529H171.96V146.329H177.056V145.529Z" fill="#37474F"/>
<path d="M176.024 143.85L172.421 147.453L172.986 148.019L176.59 144.415L176.024 143.85Z" fill="#37474F"/>
<path d="M172.992 143.848L172.426 144.414L176.03 148.017L176.595 147.452L172.992 143.848Z" fill="#37474F"/>
<path d="M183.568 143.385H182.768V148.481H183.568V143.385Z" fill="#37474F"/>
<path d="M185.712 145.529H180.616V146.329H185.712V145.529Z" fill="#37474F"/>
<path d="M184.681 143.848L181.077 147.451L181.643 148.017L185.246 144.413L184.681 143.848Z" fill="#37474F"/>
<path d="M181.649 143.848L181.083 144.414L184.686 148.017L185.252 147.452L181.649 143.848Z" fill="#37474F"/>
<path d="M192.216 143.385H191.416V148.481H192.216V143.385Z" fill="#37474F"/>
<path d="M194.368 145.529H189.272V146.329H194.368V145.529Z" fill="#37474F"/>
<path d="M193.337 143.848L189.734 147.451L190.3 148.017L193.903 144.413L193.337 143.848Z" fill="#37474F"/>
<path d="M190.3 143.852L189.734 144.418L193.337 148.021L193.903 147.456L190.3 143.852Z" fill="#37474F"/>
<path d="M200.872 143.385H200.072V148.481H200.872V143.385Z" fill="#37474F"/>
<path d="M203.016 145.529H197.92V146.329H203.016V145.529Z" fill="#37474F"/>
<path d="M201.988 143.844L198.385 147.447L198.951 148.013L202.554 144.41L201.988 143.844Z" fill="#37474F"/>
<path d="M198.956 143.844L198.391 144.41L201.994 148.014L202.56 147.448L198.956 143.844Z" fill="#37474F"/>
<path d="M156.24 317.128C156.24 317.128 138.504 313.128 128.784 304.152C119.064 295.176 113.64 279.152 113.64 279.152C120.38 280.453 127.024 282.206 133.528 284.4C135.128 286.096 138.136 289.592 139.544 292.904C139.709 290.882 139.725 288.849 139.592 286.824C141.86 287.809 143.984 289.098 145.904 290.656C153.96 297.688 156.24 317.128 156.24 317.128Z" fill="#93C01F"/>
<path d="M124.712 286.951C122.312 285.271 119.832 283.663 117.424 281.975C117.401 281.952 117.386 281.923 117.382 281.891C117.378 281.859 117.385 281.826 117.402 281.798C117.418 281.771 117.444 281.749 117.474 281.738C117.504 281.726 117.537 281.725 117.568 281.735C122.136 284.463 126.648 287.383 131 290.439C132.52 291.503 134.016 292.615 135.488 293.743L135.184 293.215C134.648 292.327 134.088 291.455 133.528 290.583C132.416 288.803 131.155 287.119 129.76 285.551C129.712 285.495 129.76 285.415 129.848 285.471C131.232 287.071 132.608 288.671 133.848 290.327C134.448 291.127 135 291.927 135.528 292.815C135.808 293.255 136.072 293.703 136.328 294.151L136.592 294.607C138.888 296.407 141.12 298.287 143.248 300.271C144.568 301.503 145.832 302.767 147.056 304.079C146.376 301.935 145.776 299.767 144.976 297.679C144.976 297.607 145.072 297.583 145.096 297.679C145.896 299.895 146.696 302.119 147.312 304.399C148.672 305.86 149.965 307.383 151.192 308.967C151.192 308.871 151.192 308.775 151.128 308.679C150.928 307.879 150.72 307.007 150.496 306.183C150.064 304.583 149.592 302.983 149.048 301.383C148.021 298.113 146.393 295.064 144.248 292.391C144.2 292.327 144.248 292.247 144.336 292.303C147.8 296.407 149.832 301.327 151.128 306.487C151.312 307.247 151.496 307.999 151.664 308.759C151.76 309.159 151.864 309.559 151.936 309.983C152.472 310.711 152.992 311.439 153.536 312.191C156.559 316.814 159.075 321.749 161.04 326.911C163.26 332.706 165.159 338.619 166.728 344.623C166.728 344.743 166.584 344.783 166.544 344.671C163.072 334.271 159.536 323.767 153.592 314.495C152.339 312.537 150.988 310.644 149.544 308.823C146.607 308.634 143.707 308.059 140.92 307.111C137.877 306.085 134.974 304.682 132.28 302.935C130.755 301.898 129.284 300.785 127.872 299.599C127.863 299.595 127.856 299.588 127.85 299.581C127.844 299.573 127.841 299.564 127.839 299.555C127.837 299.545 127.837 299.536 127.839 299.526C127.842 299.517 127.846 299.509 127.852 299.501C127.858 299.494 127.866 299.488 127.875 299.484C127.883 299.48 127.893 299.478 127.903 299.478C127.912 299.478 127.922 299.481 127.93 299.485C127.939 299.489 127.946 299.495 127.952 299.503C130.428 301.494 133.162 303.141 136.08 304.399C138.947 305.713 141.945 306.718 145.024 307.399C146.336 307.687 147.664 307.895 149.024 308.079C147.383 306.052 145.639 304.111 143.8 302.263C143.2 301.671 142.584 301.095 141.968 300.519C139.9 299.072 137.704 297.816 135.408 296.767C132.504 295.359 129.648 293.871 126.768 292.407C125.168 291.607 123.568 290.735 121.896 289.943C121.832 289.903 121.896 289.807 121.96 289.839C124.88 291.247 127.84 292.559 130.76 293.911C133.536 295.175 136.36 296.447 138.992 297.911L139.328 298.111C136.923 296.02 134.445 294.018 131.896 292.103C129.52 290.359 127.136 288.623 124.712 286.951Z" fill="#1C2126"/>
<path d="M125.72 296.087C127.16 296.719 128.632 297.279 130.056 297.951C131.48 298.623 132.912 299.439 134.312 300.263C134.368 300.303 134.312 300.383 134.248 300.359C132.84 299.679 131.408 299.047 130.008 298.343C128.608 297.639 127.152 296.847 125.68 296.207C125.616 296.175 125.648 296.055 125.72 296.087Z" fill="#1C2126"/>
<path d="M213.848 227.76C210.572 231.987 208.718 237.142 208.552 242.488C208.488 244.088 208.744 246.288 208.928 248.888C202.312 252.4 197.352 258.8 197.352 258.8C201.112 256.544 206.264 255.6 209.048 256C208.957 257.78 208.73 259.55 208.368 261.296C207.144 261.224 204.768 261.392 200.848 262.784C203.178 262.76 205.487 263.217 207.632 264.128C204.472 274.192 195.072 284.52 169.128 288.928C166.372 276.588 167.995 263.673 173.72 252.4C181.496 237.096 213.848 227.76 213.848 227.76Z" fill="#93C01F"/>
<path d="M160.144 331.936C160.592 327.637 161.152 323.352 161.824 319.08C163.139 310.533 164.885 302.058 167.056 293.688C168.073 289.758 169.323 285.893 170.8 282.112C170.727 281.421 170.697 280.726 170.712 280.032C170.712 279.232 170.712 278.368 170.712 277.544C170.712 275.88 170.792 274.218 170.952 272.56C171.217 269.279 171.752 266.025 172.552 262.832C173.024 260.984 173.576 259.168 174.152 257.336C174.152 257.264 174.288 257.296 174.264 257.336C173.407 260.526 172.768 263.771 172.352 267.048C171.889 270.278 171.598 273.531 171.48 276.792C171.48 277.68 171.432 278.568 171.432 279.464C171.432 279.84 171.432 280.224 171.432 280.608C172.703 277.519 174.161 274.51 175.8 271.6C178.437 266.963 181.405 262.522 184.68 258.312C184.688 257.822 184.761 257.335 184.896 256.864C185.016 256.28 185.144 255.704 185.272 255.128C185.536 253.944 185.832 252.728 186.16 251.592C186.8 249.24 187.656 246.968 188.392 244.648C188.392 244.568 188.528 244.608 188.504 244.648C187.816 246.944 187.36 249.328 186.84 251.664C186.576 252.824 186.328 253.984 186.04 255.144C185.912 255.72 185.784 256.296 185.664 256.88V257.008C186.712 255.688 187.784 254.376 188.864 253.096C193.816 247.288 199.264 241.896 204.72 236.608C205.392 235.952 206.08 235.312 206.76 234.664C206.772 234.656 206.787 234.653 206.801 234.655C206.815 234.656 206.828 234.663 206.839 234.673C206.849 234.683 206.855 234.696 206.857 234.711C206.859 234.725 206.855 234.739 206.848 234.752C201.624 240.208 196.448 245.72 191.6 251.488C190.448 252.864 189.304 254.248 188.184 255.656C188.776 255.256 189.368 254.856 189.952 254.488C191.464 253.496 192.992 252.536 194.568 251.656C196.144 250.776 197.728 249.912 199.368 249.104C201.008 248.296 202.816 247.608 204.416 246.704C204.488 246.664 204.544 246.776 204.48 246.808C202.839 247.565 201.256 248.442 199.744 249.432C198.144 250.368 196.544 251.312 195.032 252.296C193.52 253.28 191.976 254.216 190.464 255.2C189.2 256 187.96 256.912 186.648 257.672C183.639 261.535 180.864 265.574 178.336 269.768C176.764 272.409 175.33 275.13 174.04 277.92L174.968 277.52L177.368 276.464C178.896 275.784 180.432 275.12 181.96 274.456C184.872 273.192 187.824 272.056 190.68 270.64C192.288 269.884 193.844 269.021 195.336 268.056C195.4 268.008 195.456 268.112 195.4 268.16C190.08 271.824 184.112 274.408 178.224 277.016L175.672 278.144C174.968 278.456 174.264 278.8 173.544 279.072C171.803 282.965 170.336 286.975 169.152 291.072C166.847 299.336 164.978 307.715 163.552 316.176C162.064 324.648 161.056 333.184 160.28 341.776C160.176 342.848 160.08 343.912 159.96 344.976C159.96 345.065 159.925 345.15 159.862 345.213C159.799 345.276 159.713 345.312 159.624 345.312C159.535 345.312 159.449 345.276 159.386 345.213C159.323 345.15 159.288 345.065 159.288 344.976C159.248 340.616 159.688 336.256 160.144 331.936Z" fill="#1C2126"/>
<path d="M175.928 260.28C176.408 257.64 177.112 255.064 177.824 252.48C177.824 252.4 177.952 252.44 177.936 252.48C177.28 255.016 176.808 257.6 176.336 260.176C175.864 262.752 175.416 265.432 175.048 268.072C175.048 268.112 174.976 268.12 174.976 268.072C175.149 265.459 175.467 262.858 175.928 260.28Z" fill="#1C2126"/>
<path d="M187.112 267.431C188.917 266.233 190.804 265.164 192.76 264.231C193.704 263.743 194.664 263.279 195.616 262.815C196.568 262.351 197.632 261.935 198.608 261.447C198.621 261.444 198.635 261.445 198.648 261.45C198.66 261.455 198.671 261.464 198.678 261.476C198.685 261.487 198.689 261.501 198.687 261.515C198.686 261.528 198.681 261.541 198.672 261.551C197.72 262.023 196.824 262.599 195.888 263.111C194.952 263.623 193.976 264.167 193.008 264.711C191.112 265.727 189.248 266.855 187.256 267.687C187.222 267.706 187.182 267.711 187.144 267.701C187.107 267.69 187.075 267.665 187.056 267.631C187.037 267.597 187.032 267.557 187.043 267.52C187.053 267.482 187.078 267.45 187.112 267.431Z" fill="#1C2126"/>
<path opacity="0.1" d="M155.92 286.409C155.92 286.409 139.504 282.489 131.976 271.481C124.776 260.969 122.448 243.049 122.264 241.473C122.56 242.913 125.952 258.577 137.12 265.873C145.672 271.465 153.936 276.057 155.92 286.409Z" fill="#1C2126"/>
<path d="M155.92 286.407C155.92 286.407 139.504 282.487 131.976 271.479C124.776 260.967 122.448 243.047 122.264 241.471C122.261 241.434 122.261 241.397 122.264 241.359C122.264 241.359 130.136 252.559 138.408 255.399C146.68 258.239 158.288 268.119 155.92 286.407Z" fill="#93C01F"/>
<path d="M125.16 247.528C126.618 250.542 128.303 253.441 130.2 256.2C132.114 258.82 134.384 261.16 136.944 263.152C139.176 264.92 141.536 266.528 143.792 268.256L143.736 268.176C143.312 267.552 142.864 266.936 142.392 266.344C141.456 265.144 140.432 264.008 139.392 262.888C137.36 260.672 135.272 258.504 133.448 256.112C132.429 254.792 131.548 253.371 130.816 251.872C130.816 251.8 130.896 251.76 130.928 251.872C133.592 257.416 138.928 260.968 142.704 265.648C143.243 266.316 143.747 267.01 144.216 267.728C144.591 268.247 144.907 268.805 145.16 269.392C147.237 271.057 149.117 272.954 150.76 275.048C150.618 273.967 150.399 272.898 150.104 271.848C149.721 270.389 149.134 268.992 148.36 267.696C148.36 267.632 148.424 267.56 148.464 267.624C149.258 268.925 149.9 270.313 150.376 271.76C150.729 272.904 150.938 274.086 151 275.28C151.811 276.382 152.551 277.534 153.216 278.728C153.144 278.376 153.08 278.024 153.008 277.672C152.688 276.072 152.328 274.408 151.904 272.8C151.13 269.531 149.798 266.418 147.968 263.6C147.965 263.587 147.966 263.573 147.971 263.561C147.976 263.548 147.985 263.537 147.996 263.53C148.008 263.523 148.022 263.52 148.035 263.521C148.049 263.522 148.062 263.528 148.072 263.536C149.952 266.326 151.423 269.37 152.44 272.576C152.968 274.176 153.384 275.824 153.752 277.48C153.936 278.28 154.096 279.08 154.248 279.88C154.328 280.296 154.424 280.728 154.488 281.16C156.118 284.731 157.386 288.456 158.272 292.28C159.887 299.115 161.057 306.047 161.776 313.032C162.62 320.345 162.996 327.704 162.904 335.064C162.904 335.984 162.84 336.904 162.784 337.832C162.784 338.064 162.416 338.104 162.408 337.832C162.248 334.192 162.152 330.552 161.936 326.912C161.72 323.272 161.4 319.64 161.016 316.008C160.267 308.881 159.124 301.801 157.592 294.8C156.264 288.8 154.536 282.76 151.256 277.504C149.625 274.89 147.632 272.519 145.336 270.464C143.04 268.4 140.536 266.592 138.136 264.68C135.678 262.814 133.447 260.666 131.488 258.28C129.458 255.635 127.687 252.801 126.2 249.816C125.816 249.072 125.4 248.336 125.024 247.592C125.016 247.528 125.12 247.464 125.16 247.528Z" fill="#1C2126"/>
<path d="M127.992 249.936C129.063 252.15 130.284 254.289 131.648 256.336C131.648 256.384 131.6 256.432 131.568 256.384C130.161 254.357 128.925 252.216 127.872 249.984C127.84 249.904 127.952 249.864 127.992 249.936Z" fill="#1C2126"/>
<path d="M216.136 279.152C216.136 279.152 216.4 302.472 202.456 309.2C188.512 315.928 181.032 310.328 171.56 312.584C171.928 312.032 178.688 302.312 189.448 299.632C200.52 296.856 212.784 288.864 216.136 279.152Z" fill="#93C01F"/>
<path opacity="0.1" d="M216.136 279.152C216.136 279.152 216.4 302.472 202.456 309.2C188.512 315.928 181.032 310.328 171.56 312.584C176.567 310.204 181.918 308.628 187.416 307.912C196.224 306.8 213.016 301.104 216.136 279.152Z" fill="black"/>
<path d="M170.64 312.999C172.298 311.487 174.166 310.22 176.184 309.239C176.488 309.095 176.792 308.983 177.096 308.855C177.243 308.667 177.4 308.488 177.568 308.319C177.982 307.879 178.42 307.462 178.88 307.071C179.751 306.314 180.688 305.636 181.68 305.047C183.992 303.687 186.528 302.735 188.88 301.479C188.887 301.475 188.894 301.473 188.902 301.472C188.91 301.471 188.917 301.472 188.925 301.474C188.932 301.477 188.939 301.48 188.945 301.485C188.951 301.49 188.956 301.496 188.96 301.503C188.964 301.51 188.966 301.517 188.967 301.525C188.967 301.533 188.967 301.54 188.965 301.548C188.962 301.555 188.959 301.562 188.954 301.568C188.949 301.574 188.943 301.579 188.936 301.583C187.768 302.191 186.64 302.855 185.504 303.519C184.368 304.183 183.272 304.783 182.192 305.471C181.222 306.092 180.299 306.785 179.432 307.543C179.192 307.759 178.952 307.991 178.72 308.231C180.261 307.708 181.835 307.288 183.432 306.975C185.984 306.463 188.56 306.095 191.112 305.551C192.361 305.286 193.595 304.952 194.808 304.551C195.968 303.623 197.12 302.695 198.216 301.687C199.546 300.474 200.755 299.135 201.824 297.687C201.872 297.623 201.976 297.687 201.928 297.751C200.236 300.04 198.32 302.155 196.208 304.063C196.808 303.831 197.408 303.591 197.992 303.319C202.781 301.17 206.892 297.754 209.88 293.439C209.928 293.375 210.032 293.439 209.984 293.495C207.453 297.2 204.185 300.342 200.384 302.727C198.476 303.917 196.435 304.881 194.304 305.599C191.834 306.369 189.313 306.965 186.76 307.383C184.257 307.793 181.787 308.381 179.368 309.143C177.144 309.896 175.054 310.998 173.176 312.407C169.615 315.172 166.75 318.73 164.808 322.799C162.168 328.087 160.912 333.999 160.208 339.847C160.208 340.095 159.792 340.095 159.808 339.847C160.464 329.999 163.088 319.807 170.64 312.999Z" fill="#1C2126"/>
<path d="M186.824 305.392C187.553 304.305 188.536 303.413 189.688 302.792C191.012 302.106 192.173 301.146 193.096 299.976C193.144 299.912 193.248 299.976 193.2 300.04C192.364 301.109 191.346 302.021 190.192 302.736C188.924 303.405 187.808 304.328 186.912 305.448C186.872 305.504 186.784 305.448 186.824 305.392Z" fill="#1C2126"/>
<path d="M179.424 330.209L178.792 343.033L176.848 382.209H147.592L145.648 343.033L145.016 330.209H179.424Z" fill="#37474F"/>
<path d="M179.424 330.209L178.792 343.033H145.648L145.016 330.209H179.424Z" fill="#1C2126"/>
<path d="M181.472 324.855H142.96V337.087H181.472V324.855Z" fill="#37474F"/>
</svg>
