<svg width="32" height="32" viewBox="0 0 32 32" fill="none" xmlns="http://www.w3.org/2000/svg">
<path fill-rule="evenodd" clip-rule="evenodd" d="M16.0001 2.66797C23.3521 2.66797 29.3334 8.6493 29.3334 16.0013C29.3334 23.3533 23.3521 29.3346 16.0001 29.3346C8.64808 29.3346 2.66675 23.3533 2.66675 16.0013C2.66675 8.6493 8.64808 2.66797 16.0001 2.66797ZM16.0001 4.66797C9.75075 4.66797 4.66675 9.75197 4.66675 16.0013C4.66675 22.2506 9.75075 27.3346 16.0001 27.3346C22.2494 27.3346 27.3334 22.2506 27.3334 16.0013C27.3334 9.75197 22.2494 4.66797 16.0001 4.66797ZM15.5483 9.46183C16.1017 9.46183 16.5483 9.90983 16.5483 10.4618V16.3578L21.0883 19.0645C21.5617 19.3485 21.7177 19.9618 21.435 20.4365C21.247 20.7498 20.915 20.9245 20.575 20.9245C20.4003 20.9245 20.2243 20.8792 20.063 20.7845L15.0363 17.7858C14.735 17.6045 14.5483 17.2778 14.5483 16.9258V10.4618C14.5483 9.90983 14.9963 9.46183 15.5483 9.46183Z" fill="#0094DA"/>
</svg>
