<svg width="32" height="32" viewBox="0 0 32 32" fill="none" xmlns="http://www.w3.org/2000/svg">
<path d="M13.2174 22.25C18.878 22.25 21.9736 17.9222 21.9736 14.1695C21.9736 14.0466 21.9709 13.9242 21.9647 13.8024C22.5656 13.4015 23.088 12.9012 23.5 12.3319C22.9486 12.558 22.3552 12.7102 21.7327 12.7789C22.368 12.4273 22.856 11.8709 23.0861 11.2078C22.4914 11.5332 21.8329 11.7697 21.132 11.8972C20.5702 11.3453 19.7704 11 18.8855 11C17.1858 11 15.8075 12.2719 15.8075 13.8397C15.8075 14.0626 15.8346 14.2793 15.8871 14.4872C13.3296 14.3687 11.0616 13.2384 9.54392 11.5202C9.27932 11.9397 9.12697 12.4275 9.12697 12.9475C9.12697 13.9327 9.67034 14.8026 10.4966 15.3116C9.99176 15.2973 9.51748 15.1691 9.10274 14.9562C9.10206 14.9681 9.10206 14.98 9.10206 14.9925C9.10206 16.368 10.163 17.5163 11.571 17.7766C11.3126 17.8416 11.0406 17.8765 10.7598 17.8765C10.5616 17.8765 10.3688 17.8583 10.1813 17.8254C10.573 18.9536 11.7092 19.7748 13.0563 19.7979C12.0028 20.5598 10.6759 21.0136 9.23411 21.0136C8.98588 21.0136 8.74089 21.0006 8.5 20.9743C9.86193 21.7797 11.4791 22.25 13.2174 22.25Z" fill="#1C2126"/>
<rect x="0.5" y="0.5" width="31" height="31" rx="15.5" stroke="#1C2126"/>
</svg>
