<svg width="56" height="56" viewBox="0 0 56 56" fill="none" xmlns="http://www.w3.org/2000/svg">
<path d="M23.9921 37.1094C33.0491 37.1094 38.0021 30.1849 38.0021 24.1806C38.0021 23.9839 37.9977 23.7882 37.9879 23.5932C38.9493 22.9519 39.7851 22.1513 40.4443 21.2404C39.5621 21.6022 38.6127 21.8458 37.6167 21.9556C38.6332 21.3931 39.4139 20.5029 39.7821 19.4419C38.8306 19.9626 37.7769 20.3409 36.6556 20.545C35.7567 19.6618 34.477 19.1094 33.0611 19.1094C30.3416 19.1094 28.1363 21.1445 28.1363 23.6529C28.1363 24.0096 28.1797 24.3562 28.2638 24.689C24.1717 24.4993 20.5429 22.6909 18.1146 19.9417C17.6912 20.613 17.4475 21.3933 17.4475 22.2254C17.4475 23.8018 18.3169 25.1935 19.6389 26.0079C18.8312 25.985 18.0723 25.7799 17.4087 25.4394C17.4076 25.4583 17.4076 25.4774 17.4076 25.4973C17.4076 27.6981 19.1052 29.5355 21.358 29.9519C20.9445 30.0559 20.5093 30.1119 20.06 30.1119C19.7429 30.1119 19.4344 30.0826 19.1344 30.03C19.7611 31.8351 21.5791 33.149 23.7344 33.186C22.0489 34.405 19.9257 35.1312 17.6189 35.1312C17.2217 35.1312 16.8298 35.1103 16.4443 35.0682C18.6234 36.357 21.2109 37.1094 23.9921 37.1094Z" fill="#0094DA"/>
<rect x="0.5" y="0.5" width="55" height="55" rx="27.5" stroke="#0094DA"/>
</svg>
