<svg width="20" height="20" viewBox="0 0 20 20" fill="none" xmlns="http://www.w3.org/2000/svg">
<path fill-rule="evenodd" clip-rule="evenodd" d="M0.833344 10.0026C0.833344 4.91927 4.91668 0.835938 10 0.835938C15.0833 0.835938 19.1667 4.91927 19.1667 10.0026C19.1667 15.0859 15.0833 19.1693 10 19.1693C4.91668 19.1693 0.833344 15.0859 0.833344 10.0026ZM2.5 10C2.5 14.1667 5.83333 17.5 10 17.5C14.1667 17.5 17.5 14.1667 17.5 10C17.5 5.83333 14.1667 2.5 10 2.5C5.83333 2.5 2.5 5.83333 2.5 10ZM10 6.67188C8.16669 6.67188 6.66669 8.17188 6.66669 10.0052C6.66669 11.8385 8.16669 13.3385 10 13.3385C11.8334 13.3385 13.3334 11.8385 13.3334 10.0052C13.3334 8.17188 11.8334 6.67188 10 6.67188ZM8.33334 10.0026C8.33334 10.9193 9.08334 11.6693 10 11.6693C10.9167 11.6693 11.6667 10.9193 11.6667 10.0026C11.6667 9.08594 10.9167 8.33594 10 8.33594C9.08334 8.33594 8.33334 9.08594 8.33334 10.0026Z" fill="#4DC5FF"/>
<mask id="mask0_186_5346" style="mask-type:alpha" maskUnits="userSpaceOnUse" x="0" y="0" width="20" height="20">
<path fill-rule="evenodd" clip-rule="evenodd" d="M0.833344 10.0026C0.833344 4.91927 4.91668 0.835938 10 0.835938C15.0833 0.835938 19.1667 4.91927 19.1667 10.0026C19.1667 15.0859 15.0833 19.1693 10 19.1693C4.91668 19.1693 0.833344 15.0859 0.833344 10.0026ZM2.5 10C2.5 14.1667 5.83333 17.5 10 17.5C14.1667 17.5 17.5 14.1667 17.5 10C17.5 5.83333 14.1667 2.5 10 2.5C5.83333 2.5 2.5 5.83333 2.5 10ZM10 6.67188C8.16669 6.67188 6.66669 8.17188 6.66669 10.0052C6.66669 11.8385 8.16669 13.3385 10 13.3385C11.8334 13.3385 13.3334 11.8385 13.3334 10.0052C13.3334 8.17188 11.8334 6.67188 10 6.67188ZM8.33334 10.0026C8.33334 10.9193 9.08334 11.6693 10 11.6693C10.9167 11.6693 11.6667 10.9193 11.6667 10.0026C11.6667 9.08594 10.9167 8.33594 10 8.33594C9.08334 8.33594 8.33334 9.08594 8.33334 10.0026Z" fill="white"/>
</mask>
<g mask="url(#mask0_186_5346)">
<rect width="20" height="20" fill="#1C2126"/>
</g>
</svg>
