<svg width="24" height="44" viewBox="0 0 24 44" fill="none" xmlns="http://www.w3.org/2000/svg">
<path fill-rule="evenodd" clip-rule="evenodd" d="M14 26.1398C14 24.8089 14.9777 23.7042 16.2234 23.2357C20.7671 21.5269 24 17.141 24 12C24 5.37258 18.6274 0 12 0C5.37258 0 0 5.37258 0 12C0 17.141 3.23288 21.5269 7.77658 23.2357C9.02226 23.7042 10 24.8089 10 26.1398V26.1398C10 27.383 9.12824 28.4277 8.0478 29.0428C5.63026 30.4191 4 33.0192 4 36C4 40.4183 7.58172 44 12 44C16.4183 44 20 40.4183 20 36C20 33.0192 18.3697 30.4191 15.9522 29.0428C14.8718 28.4277 14 27.383 14 26.1398V26.1398Z" fill="#93C01F"/>
</svg>
