<svg width="142" height="28" viewBox="0 0 142 28" fill="none" xmlns="http://www.w3.org/2000/svg">
<path fill-rule="evenodd" clip-rule="evenodd" d="M7.36849 10.7925C7.78249 10.7925 8.11849 11.1285 8.11849 11.5425C8.11849 11.9565 7.78249 12.2925 7.36849 12.2925H6.43549C4.81649 12.2925 3.50049 13.6085 3.50049 15.2265V20.1015C3.50049 21.7205 4.81649 23.0365 6.43549 23.0365H17.5655C19.1835 23.0365 20.5005 21.7205 20.5005 20.1015V15.2175C20.5005 13.6045 19.1885 12.2925 17.5765 12.2925H16.6335C16.2195 12.2925 15.8835 11.9565 15.8835 11.5425C15.8835 11.1285 16.2195 10.7925 16.6335 10.7925H17.5765C20.0155 10.7925 22.0005 12.7775 22.0005 15.2175V20.1015C22.0005 22.5475 20.0105 24.5365 17.5655 24.5365H6.43549C3.99049 24.5365 2.00049 22.5475 2.00049 20.1015V15.2265C2.00049 12.7815 3.99049 10.7925 6.43549 10.7925H7.36849ZM12.5311 4.22006L15.4471 7.14806C15.7391 7.44206 15.7381 7.91606 15.4451 8.20806C15.1511 8.50006 14.6771 8.50006 14.3851 8.20606L12.7495 6.56481L12.7501 17.5394H11.2501L11.2495 6.56481L9.61609 8.20606C9.47009 8.35406 9.27709 8.42706 9.08509 8.42706C8.89409 8.42706 8.70209 8.35406 8.55609 8.20806C8.26309 7.91606 8.26109 7.44206 8.55409 7.14806L11.4691 4.22006C11.7501 3.93706 12.2501 3.93706 12.5311 4.22006Z" fill="#0094DA"/>
<path d="M38.9146 16.858H34.7426L33.9866 19H32.2786L35.9186 9.27H37.7526L41.3786 19H39.6706L38.9146 16.858ZM38.4666 15.626L36.8286 11.006L35.1906 15.626H38.4666ZM43.7116 9.956C43.4036 9.956 43.1516 9.872 42.9556 9.704C42.7689 9.536 42.6756 9.31667 42.6756 9.046C42.6756 8.77533 42.7689 8.55133 42.9556 8.374C43.1516 8.19667 43.4036 8.108 43.7116 8.108C44.0196 8.108 44.2669 8.19667 44.4536 8.374C44.6402 8.55133 44.7336 8.77533 44.7336 9.046C44.7336 9.31667 44.6402 9.536 44.4536 9.704C44.2669 9.872 44.0196 9.956 43.7116 9.956ZM41.4716 21.268H42.0176C42.3256 21.268 42.5496 21.198 42.6896 21.058C42.8389 20.9273 42.9136 20.6987 42.9136 20.372V11.286H44.5236V20.386C44.5236 21.9073 43.7582 22.668 42.2276 22.668H41.4716V21.268ZM50.2336 11.188C50.9803 11.188 51.6523 11.3467 52.2496 11.664C52.8469 11.9813 53.3136 12.4387 53.6496 13.036C53.9856 13.6333 54.1536 14.3333 54.1536 15.136C54.1536 15.948 53.9856 16.6527 53.6496 17.25C53.3136 17.8473 52.8469 18.3047 52.2496 18.622C51.6523 18.9393 50.9803 19.098 50.2336 19.098C49.4869 19.098 48.8149 18.9393 48.2176 18.622C47.6296 18.3047 47.1629 17.8473 46.8176 17.25C46.4816 16.6433 46.3136 15.9387 46.3136 15.136C46.3136 14.3333 46.4816 13.6333 46.8176 13.036C47.1629 12.4387 47.6296 11.9813 48.2176 11.664C48.8149 11.3467 49.4869 11.188 50.2336 11.188ZM50.2336 12.574C49.8229 12.574 49.4449 12.6673 49.0996 12.854C48.7543 13.0407 48.4743 13.33 48.2596 13.722C48.0543 14.1047 47.9516 14.576 47.9516 15.136C47.9516 15.7053 48.0543 16.1813 48.2596 16.564C48.4743 16.9467 48.7543 17.2313 49.0996 17.418C49.4449 17.6047 49.8229 17.698 50.2336 17.698C50.6443 17.698 51.0223 17.6047 51.3676 17.418C51.7129 17.2313 51.9883 16.9467 52.1936 16.564C52.4083 16.1813 52.5156 15.7053 52.5156 15.136C52.5156 14.576 52.4083 14.1047 52.1936 13.722C51.9883 13.33 51.7129 13.0407 51.3676 12.854C51.0223 12.6673 50.6443 12.574 50.2336 12.574ZM63.08 11.286V19H61.47V17.32C61.274 17.8893 60.9334 18.3327 60.448 18.65C59.9627 18.958 59.398 19.112 58.754 19.112C57.858 19.112 57.1394 18.8227 56.598 18.244C56.0567 17.6653 55.786 16.8393 55.786 15.766V11.286H57.382V15.598C57.382 16.298 57.5594 16.8393 57.914 17.222C58.2687 17.5953 58.754 17.782 59.37 17.782C60.0047 17.782 60.5134 17.5767 60.896 17.166C61.2787 16.7553 61.47 16.158 61.47 15.374V11.286H63.08ZM69.1495 17.614V19H68.1695C67.3481 19 66.7228 18.804 66.2935 18.412C65.8735 18.0107 65.6635 17.348 65.6635 16.424V12.644H64.5575V11.286H65.6635V9.368H67.2735V11.286H69.1355V12.644H67.2735V16.452C67.2735 16.8907 67.3528 17.194 67.5115 17.362C67.6795 17.53 67.9688 17.614 68.3795 17.614H69.1495ZM78.0925 14.772C78.0925 15.0333 78.0739 15.262 78.0365 15.458H72.1005C72.1285 16.2513 72.3479 16.8393 72.7585 17.222C73.1692 17.6047 73.6779 17.796 74.2845 17.796C74.8165 17.796 75.2645 17.6607 75.6285 17.39C76.0019 17.1193 76.2305 16.76 76.3145 16.312H78.0225C77.9199 16.8533 77.7052 17.334 77.3785 17.754C77.0519 18.174 76.6272 18.5053 76.1045 18.748C75.5819 18.9813 74.9985 19.098 74.3545 19.098C73.6079 19.098 72.9452 18.9393 72.3665 18.622C71.7972 18.3047 71.3492 17.8473 71.0225 17.25C70.6959 16.6527 70.5325 15.948 70.5325 15.136C70.5325 14.3333 70.6959 13.6333 71.0225 13.036C71.3492 12.4387 71.7972 11.9813 72.3665 11.664C72.9452 11.3467 73.6079 11.188 74.3545 11.188C75.1105 11.188 75.7685 11.3467 76.3285 11.664C76.8979 11.972 77.3319 12.4013 77.6305 12.952C77.9385 13.4933 78.0925 14.1 78.0925 14.772ZM76.4825 14.73C76.5012 14.226 76.4125 13.806 76.2165 13.47C76.0299 13.1247 75.7685 12.8727 75.4325 12.714C75.1059 12.546 74.7465 12.462 74.3545 12.462C73.7292 12.462 73.2065 12.6533 72.7865 13.036C72.3665 13.4187 72.1379 13.9833 72.1005 14.73H76.4825ZM81.5095 12.798C81.7708 12.294 82.1442 11.8973 82.6295 11.608C83.1148 11.3093 83.6748 11.16 84.3095 11.16V12.896H83.8335C83.1335 12.896 82.5688 13.0687 82.1395 13.414C81.7195 13.75 81.5095 14.31 81.5095 15.094V19H79.9135V11.286H81.5095V12.798ZM90.9426 8.64V19H89.3466V8.64H90.9426ZM94.1899 7.744C94.3206 8.18267 94.3859 8.64933 94.3859 9.144C94.3859 9.704 94.2506 10.1333 93.9799 10.432C93.7186 10.7307 93.3312 10.88 92.8179 10.88V10.208C93.0512 10.208 93.2239 10.1427 93.3359 10.012C93.4479 9.872 93.5039 9.66667 93.5039 9.396V9.102H92.7479V7.744H94.1899ZM95.9716 9.046C95.9716 8.77533 96.0649 8.55133 96.2516 8.374C96.4383 8.19667 96.6856 8.108 96.9936 8.108C97.3016 8.108 97.5489 8.19667 97.7356 8.374C97.9316 8.55133 98.0296 8.77533 98.0296 9.046C98.0296 9.31667 97.9316 9.536 97.7356 9.704C97.5489 9.872 97.3016 9.956 96.9936 9.956C96.6856 9.956 96.4383 9.872 96.2516 9.704C96.0649 9.536 95.9716 9.31667 95.9716 9.046ZM97.7916 11.286V19H96.1956V11.286H97.7916ZM109.649 11.16C110.564 11.16 111.292 11.4493 111.833 12.028C112.384 12.6067 112.659 13.4327 112.659 14.506V19H111.063V14.674C111.063 14.002 110.895 13.484 110.559 13.12C110.223 12.7467 109.761 12.56 109.173 12.56C108.548 12.56 108.048 12.7607 107.675 13.162C107.311 13.554 107.129 14.1327 107.129 14.898V19H105.533V14.674C105.533 14.002 105.365 13.484 105.029 13.12C104.693 12.7467 104.231 12.56 103.643 12.56C103.018 12.56 102.518 12.7607 102.145 13.162C101.781 13.554 101.599 14.1327 101.599 14.898V19H100.003V11.286H101.599V12.896C101.795 12.336 102.122 11.9067 102.579 11.608C103.036 11.3093 103.573 11.16 104.189 11.16C104.833 11.16 105.388 11.3187 105.855 11.636C106.331 11.9533 106.676 12.4107 106.891 13.008C107.115 12.4293 107.474 11.9767 107.969 11.65C108.464 11.3233 109.024 11.16 109.649 11.16ZM117.896 11.188C118.596 11.188 119.194 11.3607 119.688 11.706C120.183 12.0513 120.533 12.5087 120.738 13.078V11.286H122.334V19H120.738V17.208C120.533 17.7773 120.183 18.2347 119.688 18.58C119.194 18.9253 118.596 19.098 117.896 19.098C117.224 19.098 116.622 18.9393 116.09 18.622C115.568 18.3047 115.157 17.8473 114.858 17.25C114.56 16.6527 114.41 15.948 114.41 15.136C114.41 14.3333 114.56 13.6333 114.858 13.036C115.157 12.4387 115.568 11.9813 116.09 11.664C116.622 11.3467 117.224 11.188 117.896 11.188ZM118.386 12.588C117.677 12.588 117.108 12.8167 116.678 13.274C116.258 13.722 116.048 14.3427 116.048 15.136C116.048 15.9293 116.258 16.5547 116.678 17.012C117.108 17.46 117.677 17.684 118.386 17.684C118.834 17.684 119.236 17.5813 119.59 17.376C119.945 17.1613 120.225 16.8627 120.43 16.48C120.636 16.0973 120.738 15.6493 120.738 15.136C120.738 14.632 120.636 14.1887 120.43 13.806C120.225 13.414 119.945 13.1153 119.59 12.91C119.236 12.6953 118.834 12.588 118.386 12.588ZM127.624 11.188C128.324 11.188 128.921 11.3607 129.416 11.706C129.91 12.0513 130.26 12.5087 130.466 13.078V11.286H132.062V19.084C132.062 19.8027 131.912 20.4373 131.614 20.988C131.324 21.548 130.904 21.9867 130.354 22.304C129.803 22.6213 129.15 22.78 128.394 22.78C127.311 22.78 126.434 22.5233 125.762 22.01C125.099 21.4967 124.684 20.8013 124.516 19.924H126.098C126.228 20.3813 126.48 20.736 126.854 20.988C127.227 21.2493 127.703 21.38 128.282 21.38C128.916 21.38 129.439 21.184 129.85 20.792C130.26 20.4 130.466 19.8307 130.466 19.084V17.208C130.26 17.7773 129.91 18.2347 129.416 18.58C128.921 18.9253 128.324 19.098 127.624 19.098C126.952 19.098 126.35 18.9393 125.818 18.622C125.295 18.3047 124.884 17.8473 124.586 17.25C124.287 16.6527 124.138 15.948 124.138 15.136C124.138 14.3333 124.287 13.6333 124.586 13.036C124.884 12.4387 125.295 11.9813 125.818 11.664C126.35 11.3467 126.952 11.188 127.624 11.188ZM128.114 12.588C127.404 12.588 126.835 12.8167 126.406 13.274C125.986 13.722 125.776 14.3427 125.776 15.136C125.776 15.9293 125.986 16.5547 126.406 17.012C126.835 17.46 127.404 17.684 128.114 17.684C128.562 17.684 128.963 17.5813 129.318 17.376C129.672 17.1613 129.952 16.8627 130.158 16.48C130.363 16.0973 130.466 15.6493 130.466 15.136C130.466 14.632 130.363 14.1887 130.158 13.806C129.952 13.414 129.672 13.1153 129.318 12.91C128.963 12.6953 128.562 12.588 128.114 12.588ZM141.425 14.772C141.425 15.0333 141.406 15.262 141.369 15.458H135.433C135.461 16.2513 135.68 16.8393 136.091 17.222C136.502 17.6047 137.01 17.796 137.617 17.796C138.149 17.796 138.597 17.6607 138.961 17.39C139.334 17.1193 139.563 16.76 139.647 16.312H141.355C141.252 16.8533 141.038 17.334 140.711 17.754C140.384 18.174 139.96 18.5053 139.437 18.748C138.914 18.9813 138.331 19.098 137.687 19.098C136.94 19.098 136.278 18.9393 135.699 18.622C135.13 18.3047 134.682 17.8473 134.355 17.25C134.028 16.6527 133.865 15.948 133.865 15.136C133.865 14.3333 134.028 13.6333 134.355 13.036C134.682 12.4387 135.13 11.9813 135.699 11.664C136.278 11.3467 136.94 11.188 137.687 11.188C138.443 11.188 139.101 11.3467 139.661 11.664C140.23 11.972 140.664 12.4013 140.963 12.952C141.271 13.4933 141.425 14.1 141.425 14.772ZM139.815 14.73C139.834 14.226 139.745 13.806 139.549 13.47C139.362 13.1247 139.101 12.8727 138.765 12.714C138.438 12.546 138.079 12.462 137.687 12.462C137.062 12.462 136.539 12.6533 136.119 13.036C135.699 13.4187 135.47 13.9833 135.433 14.73H139.815Z" fill="#1C2126"/>
</svg>
