<?xml version="1.0" encoding="utf-8"?>
<!-- Generator: Adobe Illustrator 24.1.0, SVG Export Plug-In . SVG Version: 6.00 Build 0)  -->
<svg version="1.1" id="Layer_1" xmlns="http://www.w3.org/2000/svg" xmlns:xlink="http://www.w3.org/1999/xlink" x="0px" y="0px"
	 viewBox="0 0 380 380" style="enable-background:new 0 0 380 380;" xml:space="preserve">
<style type="text/css">
	.st0{fill-rule:evenodd;clip-rule:evenodd;fill:url(#SVGID_1_);}
	.st1{fill:#FFFFFF;}
</style>
<linearGradient id="SVGID_1_" gradientUnits="userSpaceOnUse" x1="25.4277" y1="-4412.9844" x2="354.5723" y2="-4603.0161" gradientTransform="matrix(1 0 0 -1 0 -4318)">
	<stop  offset="0" style="stop-color:#00D8FF"/>
	<stop  offset="1" style="stop-color:#367AD8"/>
</linearGradient>
<circle class="st0" cx="190" cy="190" r="190"/>
<g>
	<g>
		<g>
			<path class="st1" d="M238.9,130.8c-6.7,0-12.1,5.4-12.1,12.1c0,6.7,5.4,12.1,12.1,12.1s12.1-5.4,12.1-12.1
				C251,136.2,245.6,130.8,238.9,130.8z M238.9,146.9c-2.2,0-4-1.8-4-4c0-2.2,1.8-4,4-4s4,1.8,4,4
				C242.9,145.1,241.1,146.9,238.9,146.9z"/>
		</g>
	</g>
	<g>
		<g>
			<path class="st1" d="M292.5,284.9c14.9-18.5,23-41.5,23-65.5c0-36.9-18.8-70.3-50.4-89.6l-1.7-0.9c-4.8-8.4-13.8-14.1-24.1-14.2
				l17.2-29.7l-34.9-20.2l-21.2,36.8c-13-21.6-36.7-35.3-62.2-35.3c-40,0-72.6,32.6-72.6,72.6s32.6,72.6,72.6,72.6
				c11.6,0,23-2.8,33.2-8.1l16.1,9.3l8.1-14l7.2,4.2l18.8-37.8c4.8,3.8,10.8,6.1,17.4,6.1c2,0,3.9-0.2,5.8-0.6
				c11.7,12.3,18.4,30.1,18.4,49c0,4.2-0.4,8.3-1.1,12.4c-1-0.2-2-0.3-3-0.3c-4.1,0-7.7,1.6-10.6,4h-94.3c-6.7,0-12.1,5.4-12.1,12.1
				c0,6.7,5.4,12.1,12.1,12.1h94.3c0.6,0.6,1.3,1.1,2,1.5c-9.9,14.3-24.5,22.7-39.8,22.7H134c-8.9,0-16.1,7.2-16.1,16.1
				c0,8.9,7.2,16.1,16.1,16.1h153.2c8.9,0,16.1-7.2,16.1-16.1C303.4,293.1,298.8,287.1,292.5,284.9z M243.5,251.7h-89.3
				c-2.2,0-4-1.8-4-4c0-2.2,1.8-4,4-4h89.3c-0.3,1.3-0.6,2.6-0.6,4C242.9,249.1,243.2,250.4,243.5,251.7z M224.5,75.8l20.9,12.1
				l-4,7l-20.9-12.1L224.5,75.8z M138.1,203.3c-35.6,0-64.5-28.9-64.5-64.5s28.9-64.5,64.5-64.5c24.2,0,46.6,13.9,57.5,35.4
				l-2.3,3.9l-6.8-3.9l-40.2,60.6l7.2,4.2l-8.1,14l17.2,10C155,201.6,146.6,203.3,138.1,203.3z M184.5,201.6l-27.9-16.1l4-7
				l27.9,16.1L184.5,201.6z M199.3,191.6l-41.5-23.9l31.3-47.1l23.1,13.3c-1,2.8-1.5,5.9-1.5,9c0,5.9,1.8,11.4,4.9,15.9L199.3,191.6
				z M200.3,117.7l16.1-27.9l20.9,12.1l-8.4,14.6c-5.3,2-9.9,5.6-13.1,10.2L200.3,117.7z M238.9,163c-11.1,0-20.2-9-20.2-20.2
				c0-11.1,9-20.2,20.2-20.2c11.1,0,20.2,9,20.2,20.2C259,154,250,163,238.9,163z M259,239.6c4.4,0,8.1,3.6,8.1,8.1
				c0,4.4-3.6,8.1-8.1,8.1c-4.4,0-8.1-3.6-8.1-8.1C251,243.2,254.6,239.6,259,239.6z M258.6,263.8c0.2,0,0.3,0,0.5,0
				c8.9,0,16.1-7.2,16.1-16.1c0-4.8-2.2-9.1-5.6-12.1c1-5.3,1.5-10.7,1.5-16.1c0-19.7-6.7-38.4-18.4-52c4.1-2.3,7.5-5.6,10-9.5
				c18.2,15.3,28.6,37.6,28.6,61.6c0,13.4-3.4,26.7-9.7,38.4l7.1,3.8c7-12.9,10.7-27.5,10.7-42.2c0-27.2-12.1-52.4-33.3-69.3
				c0.6-2.4,1-4.8,1-7.4c0-0.7-0.1-1.4-0.1-2.1c25.4,18.2,40.4,47.1,40.4,78.7c0,23.9-8.8,46.7-24.7,64.5h-44.4
				C246.2,279.2,253.1,272.3,258.6,263.8z M287.3,308.2H134c-4.4,0-8.1-3.6-8.1-8.1s3.6-8.1,8.1-8.1h153.2c4.4,0,8.1,3.6,8.1,8.1
				S291.7,308.2,287.3,308.2z"/>
		</g>
	</g>
	<g>
		<g>
			<path class="st1" d="M113.9,118.7c-11.1,0-20.2,9-20.2,20.2s9,20.2,20.2,20.2s20.2-9,20.2-20.2S125,118.7,113.9,118.7z
				 M113.9,150.9c-6.7,0-12.1-5.4-12.1-12.1c0-6.7,5.4-12.1,12.1-12.1c6.7,0,12.1,5.4,12.1,12.1C126,145.5,120.6,150.9,113.9,150.9z
				"/>
		</g>
	</g>
	<g>
		<g>
			<path class="st1" d="M126,86.4c0,6.7-5.4,12.1-12.1,12.1v8.1c11.1,0,20.2-9,20.2-20.2H126z"/>
		</g>
	</g>
	<g>
		<g>
			<path class="st1" d="M113.9,171.1h-8.1c0,11.1,9,20.2,20.2,20.2v-8.1C119.3,183.2,113.9,177.7,113.9,171.1z"/>
		</g>
	</g>
	<g>
		<g>
			<rect x="93.7" y="106.6" class="st1" width="8.1" height="8.1"/>
		</g>
	</g>
	<g>
		<g>
			<rect x="158.2" y="94.5" class="st1" width="8.1" height="8.1"/>
		</g>
	</g>
	<g>
		<g>
			<rect x="154.2" y="126.7" class="st1" width="8.1" height="8.1"/>
		</g>
	</g>
	<g>
		<g>
			<rect x="130" y="167" class="st1" width="8.1" height="8.1"/>
		</g>
	</g>
	<g>
		<g>
			<rect x="109.9" y="134.8" class="st1" width="8.1" height="8.1"/>
		</g>
	</g>
</g>
</svg>
