<?xml version="1.0" encoding="utf-8"?>
<!-- Generator: Adobe Illustrator 24.1.0, SVG Export Plug-In . SVG Version: 6.00 Build 0)  -->
<svg version="1.1" id="Capa_1" xmlns="http://www.w3.org/2000/svg" xmlns:xlink="http://www.w3.org/1999/xlink" x="0px" y="0px"
	 viewBox="0 0 380 380" style="enable-background:new 0 0 380 380;" xml:space="preserve">
<style type="text/css">
	.st0{fill-rule:evenodd;clip-rule:evenodd;fill:url(#SVGID_1_);}
	.st1{fill:#FFFFFF;}
</style>
<linearGradient id="SVGID_1_" gradientUnits="userSpaceOnUse" x1="25.4277" y1="-1982.9841" x2="354.5723" y2="-2173.0159" gradientTransform="matrix(1 0 0 -1 0 -1888)">
	<stop  offset="0" style="stop-color:#E4729F"/>
	<stop  offset="1" style="stop-color:#78104D"/>
</linearGradient>
<circle class="st0" cx="190" cy="190" r="190"/>
<g>
	<g>
		<path class="st1" d="M106.4,159.6c0,13.4-3.1,19.7-6.8,27c-3.3,6.6-6.8,14.1-7.9,26.2h196.5c-1.1-12.1-4.6-19.6-7.9-26.2
			c-3.7-7.3-6.8-13.6-6.8-27c0-15.4,3.6-29.1,7.4-43.7c3.9-14.9,7.9-30.3,7.8-47.7c0-4.1-3.5-7.4-7.6-7.4h-83.6v7.6
			c0,12.6,10.2,22.8,22.8,22.8h15.2c4.2,0,7.6,3.4,7.6,7.6s-3.4,7.6-7.6,7.6h-15.2c-12.4,0-23.5-6-30.4-15.2
			c-6.9,9.2-18,15.2-30.4,15.2h-15.2c-4.2,0-7.6-3.4-7.6-7.6s3.4-7.6,7.6-7.6h15.2c12.6,0,22.8-10.2,22.8-22.8v-7.6H98.8
			c-4.1,0-7.6,3.3-7.6,7.4c0,17.4,4,32.8,7.8,47.7C102.9,130.5,106.4,144.2,106.4,159.6L106.4,159.6z M201.8,122.4
			c3.8-1.9,8.3-0.4,10.2,3.4c2.3,4.6,8,6.5,12.6,4.2c3.8-1.9,8.3-0.4,10.2,3.4c1.9,3.8,0.4,8.3-3.4,10.2c-12,6-26.9,1.2-33-11
			C196.5,128.9,198,124.3,201.8,122.4L201.8,122.4z M201.8,152.8c3.8-1.9,8.3-0.4,10.2,3.4c2.3,4.6,8,6.5,12.6,4.2
			c3.8-1.9,8.3-0.4,10.2,3.4c1.9,3.8,0.4,8.3-3.4,10.2c-12,6-26.9,1.2-33-11C196.5,159.3,198,154.7,201.8,152.8L201.8,152.8z
			 M145.2,133.4c1.9-3.8,6.4-5.3,10.2-3.4c4.6,2.3,10.3,0.4,12.6-4.2c1.9-3.8,6.4-5.3,10.2-3.4s5.3,6.4,3.4,10.2
			c-6.1,12.2-20.9,17-33,11C144.9,141.7,143.3,137.2,145.2,133.4L145.2,133.4z M145.2,163.8c1.9-3.8,6.4-5.3,10.2-3.4
			c4.6,2.3,10.3,0.4,12.6-4.2c1.9-3.8,6.4-5.3,10.2-3.4c3.8,1.9,5.3,6.4,3.4,10.2c-6.1,12.2-20.9,17-33,11
			C144.9,172.1,143.3,167.6,145.2,163.8L145.2,163.8z M91.2,311.6c0,4.2,3.4,7.6,7.6,7.6h60.8c4.2,0,7.6-3.4,7.6-7.6v-29.2l-4.7-14
			c-1.3-4,0.8-8.3,4.8-9.6c4-1.4,8.3,0.8,9.6,4.8l3.3,10h19.4l3.3-10c1.3-4,5.6-6.2,9.6-4.8c4,1.3,6.1,5.6,4.8,9.6l-4.7,14v29.2
			c0,4.2,3.4,7.6,7.6,7.6H281c4.2,0,7.6-3.4,7.6-7.6V228H91.2V311.6z"/>
	</g>
</g>
</svg>
