<?xml version="1.0" encoding="utf-8"?>
<!-- Generator: Adobe Illustrator 24.1.0, SVG Export Plug-In . SVG Version: 6.00 Build 0)  -->
<svg version="1.1" id="Capa_1" xmlns="http://www.w3.org/2000/svg" xmlns:xlink="http://www.w3.org/1999/xlink" x="0px" y="0px"
	 viewBox="0 0 380 380" style="enable-background:new 0 0 380 380;" xml:space="preserve">
<style type="text/css">
	.st0{fill-rule:evenodd;clip-rule:evenodd;fill:url(#SVGID_1_);}
	.st1{fill:#FFFFFF;}
</style>
<linearGradient id="SVGID_1_" gradientUnits="userSpaceOnUse" x1="25.4277" y1="-1982.9841" x2="354.5723" y2="-2173.0159" gradientTransform="matrix(1 0 0 -1 0 -1888)">
	<stop  offset="0" style="stop-color:#E4729F"/>
	<stop  offset="1" style="stop-color:#78104D"/>
</linearGradient>
<circle class="st0" cx="190" cy="190" r="190"/>
<g>
	<g>
		<path class="st1" d="M170.1,184.6c1.3-1.9,0.8-4.4-1-5.7c-1.9-1.3-4.4-0.8-5.7,1c-1.5,2.2-4.4,3.6-7.1,3.3
			c-2.2-0.2-4.3-1.5-5.6-3.4s-3.8-2.3-5.7-1s-2.3,3.8-1,5.7c2.7,3.9,7,6.4,11.6,6.9C161.1,191.9,166.9,189.2,170.1,184.6
			L170.1,184.6z"/>
		<path class="st1" d="M194.6,221.7c-1.9-1.3-4.4-0.8-5.7,1c-1.7,2.4-4.5,4.1-7.3,4.4c-3.5,0.4-7.2-1.4-9.2-4.3
			c-1.3-1.9-3.8-2.3-5.7-1s-2.3,3.8-1,5.7c1.7,2.4,4,4.4,6.6,5.8c3.4,1.7,6.5,2.4,10.2,2c5.2-0.5,10.2-3.5,13.2-7.9
			C196.9,225.5,196.4,223,194.6,221.7L194.6,221.7z"/>
		<path class="st1" d="M315.9,271.5c-1.6-1.6-4.2-1.7-5.8-0.2l-4,3.8l-18.6-19.6l5.7-5.4c1.5-1.4,2.3-3.3,2.4-5.4
			c0.1-2-0.7-4-2.1-5.5l-5.3-5.6c-1.4-1.5-3.3-2.3-5.4-2.4c-2-0.1-4,0.7-5.5,2.1l-0.4,0.4l-8-8.4c-1.6-1.6-4.2-1.7-5.8-0.2
			c-1.6,1.6-1.7,4.1-0.2,5.8l8,8.4l-15.6,14.8l-32.3-34l15.6-14.8l11.6,12.2c1.6,1.6,4.2,1.7,5.8,0.2c1.6-1.6,1.7-4.1,0.2-5.8
			l-7.7-8.1c0.5-2.9,0.8-5.8,0.9-8.8c0.1-1.2,0.1-2.6,0.1-4.3l5.1-8.5c2.2-3.6,4.1-7.3,5.7-10.9c9.3-21.2,1.9-47.4-9.6-64
			c-9.3-13.5-22.2-23.2-38.1-28.7c0.5-7.7-1.3-14.2-5.4-19.4C198.3,48.1,182,48,180.6,48s-17.7,0.1-26.6,11.2
			c-4,4.9-5.8,11.2-5.5,18.6c-2,0.7-3.9,1.5-5.8,2.4c-11.9,5.3-30.4,17.1-40.6,42c0,0,0,0,0,0.1c-2.9,7.5-4.8,16.1-5.2,24.3
			c-0.5,9.4,0.8,17.9,3.8,24.8c1.6,3.6,3.5,7.3,5.7,10.9l5.4,9c0,1.3,0.1,2.6,0.1,3.8c1.1,20.7,9.7,40.1,26.5,59.3
			c3.6,4.2,8,8.2,12.9,12.2l0.9,9.8c0,0.1,0,0.1,0,0.2c0.6,4.6-2.3,9-6.7,10.3l-43.5,12c-11.2,3.1-19,13.4-19,25
			c0,2.3,1.8,4.1,4.1,4.1h187c2.3,0,4.1-1.8,4.1-4.1c0-11.6-7.8-21.9-19-25l-43.4-12.2c-4.5-1.3-7.4-5.7-6.7-10.3c0-0.1,0-0.1,0-0.2
			l0.9-9.8c4.9-3.9,9.2-8,12.9-12.2c3.6-4.1,6.8-8.2,9.6-12.3l16.9,17.9l-0.4,0.4c-1.5,1.4-2.3,3.3-2.4,5.4c-0.1,2,0.7,4,2.1,5.5
			l5.3,5.6c1.4,1.5,3.3,2.3,5.4,2.4c0.1,0,0.1,0,0.2,0c2,0,3.8-0.7,5.3-2.1l5.7-5.4l18.6,19.6l-4,3.8c-1.6,1.6-1.7,4.1-0.2,5.8
			c0.8,0.8,1.9,1.3,3,1.3c1,0,2-0.4,2.8-1.1l24.9-23.6C317.4,275.7,317.4,273.1,315.9,271.5L315.9,271.5z M217.4,214.1l-11.7-12.4
			l15.6-14.8l11.7,12.4L217.4,214.1z M204.3,191.7l-5.9-6.3c-0.3-0.4-0.3-0.9,0-1.3l5.6-5.3c0.2-0.2,0.4-0.2,0.6-0.2
			c0.2,0,0.5,0.1,0.6,0.3l5.9,6.3L204.3,191.7z M160.4,64.3c6.4-8,19.3-8.2,20.1-8.2l0,0h0.1c0.1,0,13.6,0,20.1,8.1
			c2.5,3.1,3.7,7,3.7,11.8c-4.2-1-8.5-1.8-13.1-2.3c-5.7-0.6-11.3-0.8-16.6-0.7c-6.3,0.2-12.4,1-18.1,2.3
			C156.8,71,158.1,67.3,160.4,64.3z M151.2,85.5c7.1-2.4,14.5-3.7,22-4.1c26.9-1.4,54.9,7.4,70.8,30.4c14.1,20.5,14.6,42.9,8.8,56.1
			c-1.6,3.6-3.4,7.1-5.5,10.4c-3.4-13-9.8-25.4-19-36.8c-10.3-12.7-24.4-24.2-40.6-33.3c-14.9-8.3-31.9-13.1-49.2-14
			c-1.1-0.1-2.2-0.1-3.2-0.1C140.4,90.7,145.5,87.4,151.2,85.5L151.2,85.5z M213.6,294.6l43.4,12.2c6.3,1.8,11,6.9,12.5,13H91.7
			c1.5-6.2,6.2-11.3,12.5-13l43.4-12.2c8.4-2.4,13.8-10.6,12.6-19.2l-0.3-2.8c6.4,3.5,13.5,5.3,20.6,5.3s14.2-1.8,20.6-5.3l-0.3,2.8
			C199.8,284,205.3,292.2,213.6,294.6L213.6,294.6z M216.7,248.9c-4.2,4.8-9.5,9.6-15.6,14.1c-12.3,9-28.7,9-41,0
			c-6.2-4.5-11.4-9.2-15.6-14.1C129,231.1,121,213.4,120,194.5c-0.1-1.8-0.1-3.7-0.2-5.7c2.8-18.5,11.5-36.4,24.8-50.5
			c1.5-1.6,1.5-4.2-0.2-5.8c-1.7-1.5-4.2-1.5-5.8,0.2c-12.2,13-20.8,28.9-25.1,45.7l-0.2-0.4c-2-3.3-3.7-6.7-5.2-10
			c-5.5-12.6-3.2-30.5,1.6-42.8c3.5-8.5,8.3-15.9,14.4-22.1c1.4-0.4,5-0.9,13.9-0.5c11.4,0.6,22.7,3,33.3,7.1
			c-6.1,2.6-12.1,5.9-17.7,9.9c-1.8,1.3-2.3,3.9-1,5.7s3.9,2.3,5.7,1c7.4-5.3,15.3-9.2,23.6-11.7c0.6,0.3,1.2,0.6,1.8,1
			c44.8,25,55.4,57.6,57.6,74.7c0.1,0.8,0.1,1.6,0,2.4c-0.1,1.1-0.1,2.3-0.3,3.4c-2.9-3-14.2-15-14.2-15c-2.5-2.7-6.5-3.1-9.5-1.3
			l-6.1-6.4c-3.4-3.6-9-3.8-12.7-0.5l-16.2-17.1c-1.6-1.6-4.2-1.7-5.8-0.2c-1.6,1.6-1.7,4.1-0.2,5.8l16.2,17.1
			c-3.5,3.5-3.6,9.1-0.2,12.7l6.1,6.4c-0.8,1.2-1.2,2.6-1.3,4c-0.1,2.1,0.7,4,2.1,5.5l27.3,28.8
			C223.7,240.4,220.3,244.7,216.7,248.9z M259.7,270.6l-4.6-4.8l27.4-26l4.6,4.8L259.7,270.6z M295.2,285.5l-18.6-19.6l4.9-4.7
			l18.6,19.6L295.2,285.5z"/>
	</g>
</g>
</svg>
