<?xml version="1.0" encoding="utf-8"?>
<!-- Generator: Adobe Illustrator 24.1.0, SVG Export Plug-In . SVG Version: 6.00 Build 0)  -->
<svg version="1.1" id="Capa_1" xmlns="http://www.w3.org/2000/svg" xmlns:xlink="http://www.w3.org/1999/xlink" x="0px" y="0px"
	 viewBox="0 0 380 380" style="enable-background:new 0 0 380 380;" xml:space="preserve">
<style type="text/css">
	.st0{fill-rule:evenodd;clip-rule:evenodd;fill:url(#SVGID_1_);}
	.st1{fill:#FFFFFF;}
</style>
<linearGradient id="SVGID_1_" gradientUnits="userSpaceOnUse" x1="25.4277" y1="-1982.9841" x2="354.5723" y2="-2173.0159" gradientTransform="matrix(1 0 0 -1 0 -1888)">
	<stop  offset="0" style="stop-color:#E4729F"/>
	<stop  offset="1" style="stop-color:#78104D"/>
</linearGradient>
<circle class="st0" cx="190" cy="190" r="190"/>
<g>
	<g>
		<g>
			<path class="st1" d="M218,155c-3.9,0-7,3.1-7,7s3.1,7,7,7s7-3.1,7-7S221.9,155,218,155z M162,169c-1.9,0-3.6,0.7-4.9,2l-14,14
				c-1.3,1.3-2.1,3.1-2.1,4.9c0,5.7,7.9,9,11.9,5l14-14c1.3-1.3,2.1-3.1,2.1-4.9C169,172.1,165.9,169,162,169L162,169z M204,225h-14
				c-3.9,0-7,3.1-7,7s3.1,7,7,7h14c3.9,0,7-3.1,7-7S207.9,225,204,225z M190,113c-42.5,0-77,34.5-77,77s34.5,77,77,77s77-34.5,77-77
				S232.5,113,190,113L190,113z M176,127c3.9,0,7,3.1,7,7s-3.1,7-7,7s-7-3.1-7-7S172.1,127,176,127z M148,211c-11.6,0-21-9.4-21-21
				c0-5.6,2.2-10.9,6.2-14.9l14-14c4-4,9.2-6.2,14.9-6.2c11.6,0,21,9.4,21,21c0,5.6-2.2,10.9-6.2,14.9l-14,14
				C158.9,208.8,153.6,211,148,211L148,211z M204,253h-14c-11.6,0-21-9.4-21-21s9.4-21,21-21h14c11.6,0,21,9.4,21,21
				S215.6,253,204,253z M232,211c-3.9,0-7-3.1-7-7s3.1-7,7-7s7,3.1,7,7S235.9,211,232,211z M218,183c-11.6,0-21-9.4-21-21
				s9.4-21,21-21s21,9.4,21,21S229.6,183,218,183z M190,71c-65.6,0-119,53.4-119,119s53.4,119,119,119s119-53.4,119-119
				S255.6,71,190,71L190,71z M190,281c-50.2,0-91-40.8-91-91s40.8-91,91-91s91,40.8,91,91S240.2,281,190,281z"/>
		</g>
	</g>
</g>
</svg>
