<?xml version="1.0" encoding="utf-8"?>
<!-- Generator: Adobe Illustrator 24.1.0, SVG Export Plug-In . SVG Version: 6.00 Build 0)  -->
<svg version="1.1" id="Layer_1" xmlns="http://www.w3.org/2000/svg" xmlns:xlink="http://www.w3.org/1999/xlink" x="0px" y="0px"
	 viewBox="0 0 380 380" style="enable-background:new 0 0 380 380;" xml:space="preserve">
<style type="text/css">
	.st0{fill:#2B79C2;}
	.st1{fill:#3B4652;}
	.st2{fill-rule:evenodd;clip-rule:evenodd;fill:url(#SVGID_1_);}
	.st3{fill:#FFFFFF;}
</style>
<g>
	<path class="st0" d="M6076,3150.3h116v8h-116V3150.3L6076,3150.3z M6110.3,3088.1c-2.2-2.5-1.9-6.3,0.6-8.4
		c2.5-2.2,6.3-1.9,8.4,0.6l16.3,18.5l45.5-40.7c2.5-2.2,6.2-2,8.4,0.5c2.2,2.5,2,6.2-0.5,8.4l-49.8,44.5c-2.6,2.4-6.4,2.2-8.6-0.4
		L6110.3,3088.1L6110.3,3088.1z M6134,3060.4c10.5-10.6,25.6-12.3,37.7-4.4c-2,1.9-4.1,3.8-6.2,5.6c-10-5.2-21.2-2.2-28.4,7.3
		c-1.6,2.1-4.7,2.1-6.3,0c-15.2-19.9-40.9-6.9-40.9,13c0,7.4,5.3,15.9,12.5,23.9c9.4,10.3,22,19.3,31.5,24.1
		c9.5-4.7,22.1-13.8,31.5-24.1c5.1-5.5,9.1-11.3,11.2-16.8c3.1-2.6,6.2-5.3,9.3-8.1c0.7,23.2-32.9,48.9-50.3,57
		c-1.1,0.5-2.3,0.5-3.3,0l0,0c-17.1-8-50.3-33.5-50.3-56C6082,3055.7,6113.9,3039.8,6134,3060.4L6134,3060.4z M6076,3171.3h116v8
		h-116V3171.3L6076,3171.3z"/>
	<path class="st1" d="M6054.9,2997.3h26.1v12h-26.1c-2.2,0-4.2,0.9-5.6,2.4c-1.5,1.5-2.4,3.5-2.4,5.6v188c0,4.4,3.6,8,8,8H6213
		c4.4,0,8-3.6,8-8v-188c0-2.2-0.9-4.2-2.4-5.6c-1.5-1.5-3.5-2.4-5.6-2.4h-26v-12h26.1c5.5,0,10.5,2.2,14.1,5.9
		c3.6,3.6,5.9,8.6,5.9,14.1v188c0,11-9,20-20,20H6055c-11,0-20-9-20-20v-188c0-5.5,2.2-10.5,5.9-14.1
		C6044.4,2999.5,6049.4,2997.3,6054.9,2997.3L6054.9,2997.3z M6134,2969.3c5.8,0,11,0.4,14.8,4.2s6.2,9.1,6.2,14.8l0,0h24v30h-90
		v-30h24l0,0c0-5.8,2.4-11,6.2-14.8C6123,2969.6,6128.2,2969.3,6134,2969.3L6134,2969.3z M6140.4,2981.9c-1.6-1.6-3.9-2.6-6.4-2.6
		s-4.7,1-6.4,2.6s-2.6,3.9-2.6,6.4s1,4.7,2.6,6.4c1.5,1.5,3.6,2.5,5.9,2.6h0.9c2.3-0.1,4.4-1.1,5.9-2.6c1.6-1.6,2.6-3.9,2.6-6.4
		S6142,2983.6,6140.4,2981.9L6140.4,2981.9z"/>
</g>
<g>
	<linearGradient id="SVGID_1_" gradientUnits="userSpaceOnUse" x1="94.9841" y1="25.4277" x2="285.0159" y2="354.5723">
		<stop  offset="0" style="stop-color:#34BE82"/>
		<stop  offset="1" style="stop-color:#105652"/>
	</linearGradient>
	<circle class="st2" cx="190" cy="190" r="190"/>
</g>
<g>
	<path class="st3" d="M297.6,142.1h-16.7c-2,0-3.7,1.7-3.7,3.7s1.7,3.7,3.7,3.7h16.7c6.1,0,11.1,5,11.1,11.1v147.8
		c0,0.1-0.1,0.2-0.2,0.2h-41.1v-14.8h18.9c4.2,0,7.6-3.4,7.6-7.6L294,268c0-4.2-3.5-7.7-7.6-7.7h-18.9v-14.6h18.9
		c4.2,0,7.6-3.4,7.6-7.6l0.1-18.2c0-4.2-3.5-7.7-7.6-7.7h-18.9v-14.8h18.9c4.2,0,7.6-3.4,7.6-7.6l0.1-18.2c0-4.2-3.5-7.7-7.6-7.7
		h-18.9V126c0-10.2-8.3-18.5-18.5-18.5h-11.7C235.3,83.2,214.9,64,190.1,64s-45.2,19.2-47.1,43.6h-12c-10.2,0-18.5,8.3-18.5,18.5
		v16.1h-30c-10.2,0-18.5,8.3-18.5,18.5v147.8c0,4.2,3.4,7.6,7.6,7.6h236.7c4.2,0,7.6-3.4,7.6-7.6v-148
		C316.1,150.3,307.8,142.1,297.6,142.1L297.6,142.1z M267.4,171.6h18.9c0,0,0.1,0,0.2,0.1s0.1,0.1,0.1,0.2l-0.1,18.2
		c0,0.1-0.1,0.2-0.2,0.2h-18.9V171.6z M267.4,219.8h18.9c0,0,0.1,0,0.2,0.1s0.1,0.1,0.1,0.2l-0.1,18.2c0,0.1-0.1,0.2-0.2,0.2h-18.9
		V219.8z M267.4,267.8h18.9c0,0,0.1,0,0.2,0.1s0.1,0.1,0.1,0.2l-0.1,18.2c0,0.1-0.1,0.2-0.2,0.2h-18.9V267.8z M112.6,286.5H94
		c-0.1,0-0.2-0.1-0.2-0.2L93.6,268c0,0,0-0.1,0.1-0.2s0.1-0.1,0.2-0.1h18.7C112.6,267.7,112.6,286.5,112.6,286.5z M112.6,238.4H94
		c-0.1,0-0.2-0.1-0.2-0.2L93.7,220c0,0,0-0.1,0.1-0.2c0.1-0.1,0.1-0.1,0.2-0.1h18.7L112.6,238.4L112.6,238.4z M112.6,190.3H94
		c-0.1,0-0.2-0.1-0.2-0.2l-0.1-18.2c0,0,0-0.1,0.1-0.2c0.1-0.1,0.1-0.1,0.2-0.1h18.7L112.6,190.3L112.6,190.3z M112.6,164.1H93.9
		c-4.2,0-7.7,3.5-7.6,7.7l0.1,18.2c0,4.2,3.4,7.6,7.6,7.6h18.6v14.8H93.9c-4.2,0-7.7,3.5-7.6,7.7l0.1,18.2c0,4.2,3.4,7.6,7.6,7.6
		h18.6v14.6H93.9c-4.2,0-7.7,3.5-7.6,7.7l0.1,18.2c0,4.2,3.4,7.6,7.6,7.6h18.6v14.8H71.7c-0.1,0-0.2-0.1-0.2-0.2V160.4
		c0-6.1,5-11.1,11.1-11.1h30V164.1z M190.1,71.3c22,0,39.9,17.9,39.9,39.9S212.1,151,190.1,151s-39.9-17.9-39.9-39.9
		S168.1,71.3,190.1,71.3z M223.1,308.5h-29.3v-65h29.3V308.5z M149.7,236.1v-7.4h80.7v7.4H149.7z M260,308.5h-29.5v-65
		c3.9,0.2,7.4-2.6,7.4-6.6V228c0-3.7-3-6.6-6.6-6.6h-82.2c-3.7,0-6.6,3-6.6,6.6v8.9c0,3.9,3.5,7,7.4,6.6v26.1c0,2,1.7,3.7,3.7,3.7
		s3.7-1.7,3.7-3.7v-26.1h29.3v65h-29.5V287c0-2-1.7-3.7-3.7-3.7s-3.7,1.7-3.7,3.7v21.6h-29.8V125.9c0-6.1,5-11.1,11.1-11.1h12
		c1.9,24.3,22.3,43.6,47.1,43.6s45.2-19.2,47.1-43.6h11.7c6.1,0,11.1,5,11.1,11.1L260,308.5L260,308.5z M175.3,283.5
		c2,0,3.7-1.7,3.7-3.7v-7.6c0-2-1.7-3.7-3.7-3.7s-3.7,1.7-3.7,3.7v7.6C171.6,281.8,173.3,283.5,175.3,283.5z M175.1,173.3h-32.6
		c-4.2,0-7.6,3.4-7.6,7.6l-0.1,18.2c0,4.2,3.5,7.7,7.6,7.7h32.7c4.2,0,7.6-3.4,7.6-7.6V181C182.7,176.6,179.3,173.3,175.1,173.3
		L175.1,173.3z M175.3,199.1c0,0.1-0.1,0.2-0.2,0.2h-32.7c-0.1,0-0.3-0.1-0.2-0.2l0.1-18.2c0-0.1,0.1-0.2,0.2-0.2h32.6
		c0.1,0,0.2,0.1,0.2,0.2V199.1z M204.9,283.5c2,0,3.7-1.7,3.7-3.7v-7.6c0-2-1.7-3.7-3.7-3.7s-3.7,1.7-3.7,3.7v7.6
		C201.2,281.8,202.8,283.5,204.9,283.5z M237.7,173.3h-32.6c-4.2,0-7.6,3.4-7.6,7.6v18.2c0,4.2,3.4,7.6,7.6,7.6h32.5
		c4.2,0,7.6-3.4,7.6-7.6l0.1-18.2C245.4,176.8,241.9,173.1,237.7,173.3z M237.9,199.1c0,0.1-0.1,0.2-0.2,0.2h-32.6
		c-0.1,0-0.2-0.1-0.2-0.2v-18.2c0-0.1,0.1-0.2,0.2-0.2h32.6c0,0,0.1,0,0.2,0.1c0.1,0.1,0.1,0.1,0.1,0.2L237.9,199.1z"/>
</g>
<g>
	<path class="st3" d="M208.5,132.2c-2.1,1.5-7.3,4.5-17,4.5c-13.9,0-26-8.9-26-25.4c0-16.3,11.6-25.8,25.8-25.8
		c13.6,0,16.9,5.3,16.9,7.7c0,2.4-2.3,4.6-3.4,5.2c-1.9-2.1-6.7-5.3-13.3-5.3c-9.7,0-17,6.9-17,18.2c0,11.6,7.9,17.7,17.9,17.7
		c4.1,0,7.5-0.9,9.9-1.9c1.5-0.6,3.2-0.1,4.1,1.3L208.5,132.2L208.5,132.2z"/>
</g>
</svg>
