<?xml version="1.0" encoding="utf-8"?>

<svg version="1.1" id="Layer_1" xmlns="http://www.w3.org/2000/svg" xmlns:xlink="http://www.w3.org/1999/xlink" x="0px" y="0px"
	 viewBox="0 0 380 380" style="enable-background:new 0 0 380 380;" xml:space="preserve">
<style type="text/css">
	.st0{fill:#2B79C2;}
	.st1{fill:#3B4652;}
	.st2{fill-rule:evenodd;clip-rule:evenodd;fill:url(#SVGID_1_);}
	.st3{fill:#FFFFFF;}
	.st4{fill-rule:evenodd;clip-rule:evenodd;fill:#FFFFFF;}
</style>
<g>
	<path class="st0" d="M6076,3150.3h116v8h-116V3150.3L6076,3150.3z M6110.3,3088.1c-2.2-2.5-1.9-6.3,0.6-8.4
		c2.5-2.2,6.3-1.9,8.4,0.6l16.3,18.5l45.5-40.7c2.5-2.2,6.2-2,8.4,0.5c2.2,2.5,2,6.2-0.5,8.4l-49.8,44.5c-2.6,2.4-6.4,2.2-8.6-0.4
		L6110.3,3088.1L6110.3,3088.1z M6134,3060.4c10.5-10.6,25.6-12.3,37.7-4.4c-2,1.9-4.1,3.8-6.2,5.6c-10-5.2-21.2-2.2-28.4,7.3
		c-1.6,2.1-4.7,2.1-6.3,0c-15.2-19.9-40.9-6.9-40.9,13c0,7.4,5.3,15.9,12.5,23.9c9.4,10.3,22,19.3,31.5,24.1
		c9.5-4.7,22.1-13.8,31.5-24.1c5.1-5.5,9.1-11.3,11.2-16.8c3.1-2.6,6.2-5.3,9.3-8.1c0.7,23.2-32.9,48.9-50.3,57
		c-1.1,0.5-2.3,0.5-3.3,0l0,0c-17.1-8-50.3-33.5-50.3-56C6082,3055.7,6113.9,3039.8,6134,3060.4L6134,3060.4z M6076,3171.3h116v8
		h-116V3171.3L6076,3171.3z"/>
	<path class="st1" d="M6054.9,2997.3h26.1v12h-26.1c-2.2,0-4.2,0.9-5.6,2.4c-1.5,1.5-2.4,3.5-2.4,5.6v188c0,4.4,3.6,8,8,8H6213
		c4.4,0,8-3.6,8-8v-188c0-2.2-0.9-4.2-2.4-5.6c-1.5-1.5-3.5-2.4-5.6-2.4h-26v-12h26.1c5.5,0,10.5,2.2,14.1,5.9
		c3.6,3.6,5.9,8.6,5.9,14.1v188c0,11-9,20-20,20H6055c-11,0-20-9-20-20v-188c0-5.5,2.2-10.5,5.9-14.1
		C6044.4,2999.5,6049.4,2997.3,6054.9,2997.3L6054.9,2997.3z M6134,2969.3c5.8,0,11,0.4,14.8,4.2s6.2,9.1,6.2,14.8l0,0h24v30h-90
		v-30h24l0,0c0-5.8,2.4-11,6.2-14.8C6123,2969.6,6128.2,2969.3,6134,2969.3L6134,2969.3z M6140.4,2981.9c-1.6-1.6-3.9-2.6-6.4-2.6
		s-4.7,1-6.4,2.6s-2.6,3.9-2.6,6.4s1,4.7,2.6,6.4c1.5,1.5,3.6,2.5,5.9,2.6h0.9c2.3-0.1,4.4-1.1,5.9-2.6c1.6-1.6,2.6-3.9,2.6-6.4
		S6142,2983.6,6140.4,2981.9L6140.4,2981.9z"/>
</g>
<g>
	<linearGradient id="SVGID_1_" gradientUnits="userSpaceOnUse" x1="25.4277" y1="94.9841" x2="354.5723" y2="285.0159">
		<stop  offset="0" style="stop-color:#E4729F"/>
		<stop  offset="1" style="stop-color:#78104D"/>
	</linearGradient>
	<circle class="st2" cx="190" cy="190" r="190"/>
	<g>
		<path class="st3" d="M198.7,144.1l-49.9,9.2c-3.2,11.7-8.3,25.1-17.7,33.3c-2.5,2.2-6.3,1.9-8.4-0.6c-2.2-2.5-1.9-6.3,0.6-8.4
			c8-7,12.4-20.7,14.9-30.7c0.5-2.3,2.3-4.2,4.8-4.6l56.4-10.4c5.4-1,8.3-4.1,9.2-7.5c0.3-1.3,0.4-2.7,0.2-4s-0.7-2.6-1.4-3.7
			c-1.6-2.5-4.6-4.1-8.8-3.4l-67.5,11.1c-35.5,5.8-47.6,33.8-43.1,67.1c0.4,3.3-1.9,6.3-5.1,6.7s-6.3-1.9-6.7-5.1
			c-1.4-10.3-1.3-20,0.1-28.9L62,164.8v-12l17.4-0.7c8-22.6,26.3-35.6,49.8-39.5l67.5-11.1c9.5-1.6,16.7,2.5,20.7,8.7
			c1.6,2.5,2.7,5.3,3.2,8.2c0.5,2.9,0.4,6-0.4,8.9c-0.4,1.7-1.1,3.3-1.9,4.9H295c25.6,0,24.9,41,0,41h-37.9l0.1,0.1
			c4.4,10.3-0.1,22.7-10.7,27.1c6.3,10,3.1,25.3-8.6,29.7c6.6,13.1-2.9,29.1-18.5,28.2l-31.3-1.9c-2.6-0.2-4.9-0.7-7-1.5l-10.3,0.5
			l-46.6,2.1c-9.1,0.4-16.4-0.3-22.7-3.4c-2.6-1.3-4.9-3-7.1-5.1L62,252.2v-12l24.7-2.5c-0.3-0.6-0.6-1.2-0.9-1.9
			c-1.3-3,0.1-6.6,3.1-7.9c3-1.3,6.6,0.1,7.9,3.1c2.9,6.6,6,10.4,9.9,12.3c4.1,2.1,9.6,2.5,16.8,2.2l46.4-2.1
			c-0.8-2.5-1.2-5.1-1-7.6c0.2-2.7,0.9-5.3,2.1-7.8c0.3-0.6,0.6-1.2,1-1.7c-3.4-2.2-5.7-5.5-7.1-9.2c-0.9-2.5-1.3-5.1-1.2-7.8
			s0.6-5.3,1.7-7.7c0.4-1,1-2,1.6-3c-3.1-2.2-5.4-5.2-6.7-8.7c-1-2.6-1.5-5.4-1.5-8.2s0.5-5.5,1.6-8.1c2.8-7,9.1-12.6,18.7-12.6h116
			c9.1,0,9.7-17,0-17L198.7,144.1L198.7,144.1z M238,173.1h-59c-3.9,0-6.5,2.2-7.6,5c-0.5,1.2-0.7,2.5-0.7,3.8s0.2,2.5,0.7,3.7
			c1,2.6,3.5,4.6,7.6,4.6h58C250.1,190.1,249.8,173.1,238,173.1L238,173.1z M230.6,219.3c9.2,0.4,10-15.6-1.2-15.8l-47.1-0.9
			c-3-0.1-5,1.6-5.9,3.8c-0.4,1-0.7,2.2-0.7,3.3c0,1.2,0.1,2.3,0.5,3.4c0.8,2.3,2.9,4.2,6.2,4.3L230.6,219.3L230.6,219.3z
			 M188.7,244.4l31.3,1.9c9.6,0.6,11.8-14.1-0.4-14.8l-30.7-1.9c-3.6-0.1-6,1.6-7.2,3.8c-0.5,0.9-0.8,2-0.8,3.1
			c-0.1,1.1,0.1,2.2,0.4,3.2C182.3,242.1,184.7,244.1,188.7,244.4L188.7,244.4z"/>
		<path class="st4" d="M291,278.9c14.9,0,27-12.1,27-27c0-5.5-1.7-10.7-4.5-14.9l0,0l-0.1-0.1l-0.1-0.1L291,203.7l-22.3,33l-0.1,0.1
			l-0.1,0.1l0,0c-2.9,4.3-4.5,9.4-4.5,14.9C264,266.8,276.1,278.9,291,278.9L291,278.9z"/>
	</g>
</g>
</svg>
