<?xml version="1.0" encoding="utf-8"?>

<svg version="1.1" id="Layer_1" xmlns="http://www.w3.org/2000/svg" xmlns:xlink="http://www.w3.org/1999/xlink" x="0px" y="0px"
	 viewBox="0 0 380 380" style="enable-background:new 0 0 380 380;" xml:space="preserve">
<style type="text/css">
	.st0{fill-rule:evenodd;clip-rule:evenodd;fill:url(#SVGID_1_);}
	.st1{fill:#FFFFFF;}
</style>
<g>
	
		<linearGradient id="SVGID_1_" gradientUnits="userSpaceOnUse" x1="25.4277" y1="-2062.9841" x2="354.5723" y2="-2253.0159" gradientTransform="matrix(1 0 0 -1 0 -1968)">
		<stop  offset="0" style="stop-color:#E4729F"/>
		<stop  offset="1" style="stop-color:#78104D"/>
	</linearGradient>
	<circle class="st0" cx="190" cy="190" r="190"/>
	<g>
		<path class="st1" d="M117.5,116.8h12.1c10.9,0,19.9-8.9,19.9-19.9s-8.9-19.9-19.9-19.9s-19.9,8.9-19.9,19.9v8.7
			c-16.1,7.1-24.8,20.2-24.7,37.2c0.3,32.8,34,74,64.4,79.6v20.9c0,32.8,26.7,59.6,59.6,59.6s59.6-26.7,59.6-59.6v-7.7
			c15.1-3.1,26.5-16.4,26.5-32.4c0-18.2-14.8-33.1-33.1-33.1s-33.1,14.8-33.1,33.1c0,16,11.4,29.3,26.5,32.4v7.7
			c0,25.5-20.8,46.3-46.3,46.3s-46.3-20.8-46.3-46.3v-20.9c28.4-5.1,58.5-40.7,63.6-70.7c3.6-21.1-5.1-37.6-23.9-46v-8.8
			c0-10.9-8.9-19.9-19.9-19.9s-19.9,8.9-19.9,19.9s8.9,19.9,19.9,19.9h11.9c15.2,5.7,21.5,16.7,18.8,32.8
			c-5,29.5-36.7,60.3-57.1,60.3c-23.6,0-57.5-38.4-57.8-67.1C98.1,130.3,104.6,121.6,117.5,116.8z M122.9,96.9c0-3.6,3-6.6,6.6-6.6
			s6.6,3,6.6,6.6c0,3.6-3,6.6-6.6,6.6h-6.6V96.9z M242.1,203.2c0-10.9,8.9-19.9,19.9-19.9c10.9,0,19.9,8.9,19.9,19.9
			s-8.9,19.9-19.9,19.9C251,223.1,242.1,214.2,242.1,203.2z M189.1,103.5h-6.6c-3.6,0-6.6-3-6.6-6.6c0-3.6,3-6.6,6.6-6.6
			s6.6,3,6.6,6.6V103.5z"/>
		<path class="st1" d="M255.3,196.6h13.2v13.2h-13.2V196.6z"/>
	</g>
</g>
</svg>
