<?xml version="1.0" encoding="utf-8"?>

<svg version="1.1" id="Layer_1" xmlns="http://www.w3.org/2000/svg" xmlns:xlink="http://www.w3.org/1999/xlink" x="0px" y="0px"
	 viewBox="0 0 256 256" style="enable-background:new 0 0 256 256;" xml:space="preserve">
<style type="text/css">
	.st0{fill-rule:evenodd;clip-rule:evenodd;fill:url(#SVGID_1_);}
	.st1{fill-rule:evenodd;clip-rule:evenodd;fill:#FFFFFF;}
</style>
<g>
	
		<linearGradient id="SVGID_1_" gradientUnits="userSpaceOnUse" x1="17.1275" y1="194.0122" x2="238.8725" y2="65.9878" gradientTransform="matrix(1 0 0 -1 0 258)">
		<stop  offset="0" style="stop-color:#E4729F"/>
		<stop  offset="1" style="stop-color:#78104D"/>
	</linearGradient>
	<path class="st0" d="M128,0c70.7,0,128,57.3,128,128s-57.3,128-128,128S0,198.7,0,128S57.3,0,128,0L128,0z"/>
	<path class="st1" d="M153,158.1c-3.2-7.4-11.9-10.9-19.3-7.6c-7.4,3.2-10.9,11.9-7.6,19.3c3.2,7.4,11.9,10.9,19.3,7.6
		C152.8,174.1,156.2,165.5,153,158.1L153,158.1z M110.5,147.6c-2.2-2.1-4.5-3.8-6.8-5.2c2.5-3.7,4.7-7.3,3.8-11.6
		c-0.9-4.4-8.3-10.2-10.3-15.3c-0.9-2.3,2.9-7.6,1.5-7.6c-2,0-10.4,5.8-11.2,8.3c-0.7,2.2,5.9,12.8,4.8,15.2
		c-1.8,4-8.9,7.7-11.4,12.2c-3.8,6.7-0.3,18.3,8.7,27.5c10,10.3,23.1,13.6,29.2,7.5c2-2,3-4.7,3.1-7.8c0.2-4.4-1.3-11.7-1.9-16.3
		c-0.2-1.2,0.4-2.5,1.5-3.1l9.8-6.2c3.6-2.3,0.9-8.3-3.6-6.6l-13,4.8c-1.3,0.5-2.2,1.4-2.9,2.5L110.5,147.6z"/>
	<path class="st1" d="M77.1,41.8h127.1C203,55.3,198.3,69,193.8,82c-5.5,16-10.7,31-7.9,42.2c1.5,6.1,4.2,12.3,6.9,18.7
		c8.6,20.1,18,41.9,0,71.3H86.6c0.6-3.5,1.2-7.1,1.9-10.6c-9.8-5.8-17.6-13-23.5-21.1c-8.4-11.5-12.8-24.9-13.2-38.9
		c-0.4-13.9,3.2-28.3,10.9-42.2c6.2-11.2,15-22,26.6-31.7C76.7,65.7,70.2,53.9,77.1,41.8L77.1,41.8z M111.6,96.7
		c27.4,0,52.3,22,55.7,49.2c3.3,27.2-16.2,49.2-43.6,49.2s-52.3-22-55.7-49.2C64.7,118.8,84.2,96.7,111.6,96.7z"/>
</g>
</svg>
