<?xml version="1.0" encoding="utf-8"?>
<!-- Generator: Adobe Illustrator 24.1.0, SVG Export Plug-In . SVG Version: 6.00 Build 0)  -->
<svg version="1.1" id="Capa_1" xmlns="http://www.w3.org/2000/svg" xmlns:xlink="http://www.w3.org/1999/xlink" x="0px" y="0px"
	 viewBox="0 0 380 380" style="enable-background:new 0 0 380 380;" xml:space="preserve">
<style type="text/css">
	.st0{fill-rule:evenodd;clip-rule:evenodd;fill:url(#SVGID_1_);}
	.st1{fill:#FFFFFF;}
</style>
<linearGradient id="SVGID_1_" gradientUnits="userSpaceOnUse" x1="25.4277" y1="-1982.9841" x2="354.5723" y2="-2173.0159" gradientTransform="matrix(1 0 0 -1 0 -1888)">
	<stop  offset="0" style="stop-color:#E4729F"/>
	<stop  offset="1" style="stop-color:#78104D"/>
</linearGradient>
<circle class="st0" cx="190" cy="190" r="190"/>
<g>
	<g>
		<path class="st1" d="M216,58.2c-58.8,0-110.2,38.9-126.5,95H32.3v10.2H159c18.1,0,32.9,14.8,32.9,32.9c0,18-14.6,32.7-32.6,32.8
			H33.5v35.6h74c24.6,35.8,64.7,57,108.5,57c72.6-0.1,131.8-59.2,131.8-131.8S288.6,58.2,216,58.2z M159,153.2h-25
			c14.4-32,46.5-53.1,82-53.1c49.5,0,89.8,40.3,89.8,89.8c0,13.7-3,26.9-9,39.2h-34c9.3-7.9,15.3-19.7,15.3-32.8
			c0-23.8-19.3-43.1-43.1-43.1c-16.4,0-30.7,9.3-38,22.8C189.7,162.4,175.3,153.2,159,153.2z M235.3,229.1h-0.6
			c-18-0.2-32.6-14.8-32.6-32.8c0-18.1,14.8-32.9,32.9-32.9s32.9,14.8,32.9,32.9C267.9,214.3,253.3,229,235.3,229.1z M197,216.7
			c2.5,4.8,6,9,10.2,12.5h-20.3C190.9,225.7,194.3,221.4,197,216.7z M43.7,254.5v-15.1h0.1H291c-3.6,5.5-7.8,10.6-12.6,15.1H43.7z
			 M265.7,264.7c-14.7,9.7-31.9,15.1-49.7,15.1s-35.1-5.3-49.7-15.1H265.7z M216,311.5c-37.9,0-72.8-17.3-95.8-46.8h29.4
			C167.9,281,191.4,290,216,290c25.3,0,50.2-8.8,68-26.7c22.2-22.1,32.1-45.7,32.1-73.4c0-55.2-44.9-100.1-100.1-100.1
			c-41,0-78,25.3-93,63.3h-22.7C116.1,103,162.7,68.5,216,68.5c67,0,121.5,54.5,121.5,121.5S282.9,311.5,216,311.5z"/>
	</g>
</g>
</svg>
