<?xml version="1.0" encoding="utf-8"?>
<!-- Generator: Adobe Illustrator 24.1.0, SVG Export Plug-In . SVG Version: 6.00 Build 0)  -->
<svg version="1.1" id="Capa_1" xmlns="http://www.w3.org/2000/svg" xmlns:xlink="http://www.w3.org/1999/xlink" x="0px" y="0px"
	 viewBox="0 0 380 380" style="enable-background:new 0 0 380 380;" xml:space="preserve">
<style type="text/css">
	.st0{fill-rule:evenodd;clip-rule:evenodd;fill:url(#SVGID_1_);}
	.st1{fill:#FFFFFF;}
</style>
<linearGradient id="SVGID_1_" gradientUnits="userSpaceOnUse" x1="25.4277" y1="-1982.9841" x2="354.5723" y2="-2173.0159" gradientTransform="matrix(1 0 0 -1 0 -1888)">
	<stop  offset="0" style="stop-color:#E4729F"/>
	<stop  offset="1" style="stop-color:#78104D"/>
</linearGradient>
<circle class="st0" cx="190" cy="190" r="190"/>
<g id="XMLID_1497_">
	<g id="XMLID_1687_">
		<path id="XMLID_898_" class="st1" d="M202,326.8h-24c-8.8,0-16-7.2-16-16c0-7.5,5.1-13.7,12-15.5v-6.7c0-1.5-1.1-2.8-2.6-3.1
			c-12.8-2.5-24.8-7.5-35.6-14.8c-1.3-0.9-3-0.7-4.1,0.3l-4.7,4.7c3.3,5.8,2.9,13.2-1.5,18.4c-2.9,3.5-7.1,5.5-11.6,5.7
			s-8.9-1.5-12-4.7l-17-17c-3-3-4.7-7.1-4.7-11.3s1.7-8.3,4.7-11.3c3-3,7.1-4.7,11.3-4.7c2.9,0,5.7,0.8,8.1,2.2l4.7-4.7
			c1.1-1.1,1.2-2.8,0.3-4.1c-7.3-10.8-12.3-22.8-14.8-35.6c-0.3-1.5-1.6-2.6-3.1-2.6h-6.6c-0.7,2.8-2.2,5.4-4.4,7.5
			c-3.2,3-7.3,4.6-11.7,4.5c-8.7-0.3-15.5-7.5-15.5-16.3V178c0-4.4,1.7-8.5,4.9-11.5s7.3-4.6,11.7-4.5c7.1,0.2,13.1,5.3,14.9,12h6.7
			c1.5,0,2.8-1.1,3.1-2.6c2.5-12.8,7.5-24.8,14.8-35.6c0.9-1.3,0.7-3-0.3-4.1l-4.7-4.7c-2.4,1.4-5.2,2.2-8.1,2.2
			c-4.3,0-8.3-1.7-11.3-4.7c-6.3-6.3-6.3-16.4,0-22.7l17-17c6.3-6.3,16.4-6.3,22.7,0c3,3,4.7,7.1,4.7,11.3c0,2.9-0.8,5.7-2.2,8.1
			l4.7,4.7c1.1,1.1,2.8,1.2,4.1,0.3c10.8-7.3,22.8-12.3,35.6-14.8c1.5-0.3,2.6-1.6,2.6-3.1v-6.7c-6.9-1.8-12-8.1-12-15.5
			c0-8.8,7.2-16,16-16H202c8.8,0,16,7.2,16,16c0,7.5-5.1,13.7-12,15.5v6.7c0,1.5,1.1,2.8,2.6,3.1c12.8,2.5,24.8,7.5,35.6,14.8
			c1.3,0.9,3,0.7,4.1-0.3l4.7-4.7c-3.6-6.1-2.8-14.2,2.5-19.5c6.3-6.3,16.4-6.3,22.7,0l17,17c6.3,6.3,6.3,16.4,0,22.7
			c-3,3-7.1,4.7-11.3,4.7c-2.9,0-5.7-0.8-8.1-2.2l-4.7,4.7c-1.1,1.1-1.2,2.8-0.3,4.1c7.3,10.8,12.3,22.8,14.8,35.6
			c0.3,1.5,1.6,2.6,3.1,2.6h6.7c1.7-6.4,7.3-11.4,14-12l0,0c4.5-0.4,9,1.1,12.3,4.1s5.2,7.3,5.2,11.8V202c0,4.5-1.9,8.8-5.2,11.8
			c-3.3,3-7.8,4.5-12.3,4.1c-6.8-0.6-12.3-5.5-14-12h-6.7c-1.5,0-2.8,1.1-3.1,2.6c-2.5,12.8-7.5,24.8-14.8,35.6
			c-0.9,1.3-0.7,3,0.3,4.1l4.7,4.7c2.4-1.4,5.2-2.2,8.1-2.2c4.3,0,8.3,1.7,11.3,4.7c3,3,4.7,7.1,4.7,11.3c0,4.3-1.7,8.3-4.7,11.3
			l-17,17c-3.2,3.2-7.6,4.9-12,4.7c-4.5-0.2-8.7-2.3-11.6-5.7c-4.4-5.2-4.8-12.6-1.5-18.4l-4.7-4.7c-1.1-1.1-2.8-1.2-4.1-0.3
			c-10.8,7.3-22.8,12.3-35.6,14.8c-1.5,0.3-2.6,1.6-2.6,3.1v6.7c6.9,1.8,12,8.1,12,15.5C218.1,319.6,210.9,326.8,202,326.8
			L202,326.8z M133.9,259.5c2.7,0,5.4,0.8,7.8,2.4c9.6,6.5,20.3,10.9,31.7,13.1c6.5,1.3,11.3,7,11.3,13.6v10.2c0,3.7-3,6.7-6.7,6.7
			c-2.9,0-5.3,2.4-5.3,5.3s2.4,5.3,5.3,5.3h24c2.9,0,5.3-2.4,5.3-5.3s-2.4-5.3-5.3-5.3c-3.7,0-6.7-3-6.7-6.7v-10.2
			c0-6.6,4.7-12.4,11.3-13.6c11.4-2.2,22.1-6.6,31.7-13.1c5.5-3.7,12.9-3,17.6,1.7l7.4,7.4c2.5,2.5,2.5,6.6,0,9.1
			c-2,2-2.3,5.3-0.5,7.4c1,1.2,2.4,1.9,3.9,1.9c1.5,0.1,2.9-0.5,4-1.6l17-17c1-1,1.6-2.4,1.6-3.8s-0.6-2.8-1.6-3.8
			c-2.1-2.1-5.5-2.1-7.6,0l-0.2,0.2c-2.5,2.5-6.6,2.5-9.1,0l-7.4-7.4c-4.7-4.7-5.4-12.1-1.7-17.6c6.5-9.6,10.9-20.3,13.1-31.7
			c1.3-6.5,7-11.3,13.6-11.3H299c3.6,0,6.4,2.9,6.4,6.4c0,2.9,2.1,5.3,4.8,5.6c1.5,0.1,3-0.4,4.1-1.4s1.7-2.4,1.7-3.9V178
			c0-1.5-0.6-2.9-1.7-3.9s-2.6-1.5-4.1-1.4c-2.7,0.2-4.8,2.7-4.8,5.6c0,3.6-2.9,6.4-6.4,6.4h-10.4c-6.6,0-12.4-4.7-13.6-11.3
			c-2.2-11.4-6.6-22.1-13.1-31.7c-3.7-5.5-3-12.9,1.7-17.6l7.2-7.2c2.6-2.6,6.8-2.6,9.4,0c2.1,2.1,5.5,2.1,7.6,0s2.1-5.5,0-7.6
			l-17-17c-2.1-2.1-5.5-2.1-7.6,0s-2.1,5.5,0,7.6c2.6,2.6,2.6,6.8,0,9.4l-7.2,7.2c-4.7,4.7-12.1,5.4-17.6,1.7
			c-9.6-6.5-20.3-10.9-31.7-13.1c-6.5-1.3-11.3-7-11.3-13.6V81.2c0-3.7,3-6.7,6.7-6.7c2.9,0,5.3-2.4,5.3-5.3s-2.4-5.3-5.3-5.3H178
			c-2.9,0-5.3,2.4-5.3,5.3s2.4,5.3,5.3,5.3c3.7,0,6.7,3,6.7,6.7v10.2c0,6.6-4.7,12.4-11.3,13.6c-11.4,2.2-22.1,6.6-31.7,13.1
			c-5.5,3.7-12.9,3-17.6-1.7l-7.2-7.2c-1.3-1.3-2-2.9-2-4.7c0-1.8,0.7-3.5,2-4.7c2.1-2.1,2.1-5.5,0-7.6s-5.5-2.1-7.6,0l-17,17
			c-2.1,2.1-2.1,5.5,0,7.6c1,1,2.4,1.6,3.8,1.6s2.8-0.6,3.8-1.6c2.6-2.6,6.8-2.6,9.4,0l7.2,7.2c4.7,4.7,5.4,12.1,1.7,17.6
			c-6.5,9.6-10.9,20.3-13.1,31.7c-1.3,6.5-7,11.3-13.6,11.3H81c-3.5,0-6.4-2.9-6.4-6.4c0-3-2.3-5.5-5.2-5.6
			c-1.5-0.1-2.9,0.5-3.9,1.5c-1.1,1-1.6,2.4-1.6,3.8v23.8c0,3,2.3,5.5,5.1,5.6c1.5,0.1,2.9-0.5,3.9-1.5c1.1-1,1.6-2.4,1.6-3.8
			c0-3.7,3-6.7,6.7-6.7h10.2c6.6,0,12.4,4.7,13.6,11.3c2.2,11.4,6.6,22.1,13.1,31.7c3.7,5.5,3,12.9-1.7,17.6l-7.4,7.4
			c-2.5,2.5-6.6,2.5-9.1,0l-0.2-0.2c-1-1-2.4-1.6-3.8-1.6s-2.8,0.6-3.8,1.6s-1.6,2.4-1.6,3.8s0.6,2.8,1.6,3.8l17,17
			c1.1,1.1,2.5,1.6,4,1.6c1.5-0.1,2.9-0.8,3.9-1.9c1.8-2.1,1.5-5.3-0.5-7.4c-2.5-2.5-2.5-6.6,0-9.1l7.4-7.4
			C126.7,260.8,130.3,259.5,133.9,259.5L133.9,259.5z"/>
	</g>
	<g id="XMLID_1654_">
		<path id="XMLID_895_" class="st1" d="M169.4,167.5c-12.4,0-22.4-10.1-22.4-22.4s10.1-22.4,22.4-22.4s22.4,10.1,22.4,22.4
			S181.7,167.5,169.4,167.5z M169.4,133.3c-6.5,0-11.8,5.3-11.8,11.8s5.3,11.8,11.8,11.8s11.8-5.3,11.8-11.8
			S175.8,133.3,169.4,133.3z"/>
	</g>
	<g id="XMLID_1656_">
		<path id="XMLID_892_" class="st1" d="M154.2,243.3c-10.7,0-19.4-8.7-19.4-19.4s8.7-19.4,19.4-19.4s19.4,8.7,19.4,19.4
			S164.9,243.3,154.2,243.3z M154.2,215.2c-4.8,0-8.7,3.9-8.7,8.7s3.9,8.7,8.7,8.7s8.7-3.9,8.7-8.7
			C162.9,219.1,159,215.2,154.2,215.2z"/>
	</g>
	<g id="XMLID_1104_">
		<path id="XMLID_891_" class="st1" d="M227.3,238c-16.8,0-30.8-12.5-32.8-29.1c-0.3-2.9,1.8-5.6,4.7-5.9c2.9-0.3,5.6,1.8,5.9,4.7
			c1.3,11.2,10.8,19.7,22.2,19.7c12.3,0,22.3-10,22.3-22.3c0-11.4-8.5-20.9-19.8-22.2c-2.9-0.3-5.1-3-4.7-5.9c0.3-2.9,3-5,5.9-4.7
			c16.7,1.8,29.4,16,29.4,32.8C260.3,223.2,245.5,238,227.3,238L227.3,238z"/>
	</g>
	<g id="XMLID_1101_">
		<path id="XMLID_890_" class="st1" d="M220.5,150.4c-1.4,0-2.8-0.6-3.8-1.6s-1.6-2.4-1.6-3.8c0-1.4,0.6-2.8,1.6-3.8
			s2.4-1.6,3.8-1.6s2.8,0.6,3.8,1.6s1.6,2.4,1.6,3.8s-0.6,2.8-1.6,3.8C223.3,149.8,221.9,150.4,220.5,150.4z"/>
	</g>
	<g id="XMLID_1094_">
		<path id="XMLID_889_" class="st1" d="M190,258.9c-1.4,0-2.8-0.6-3.8-1.6s-1.6-2.4-1.6-3.8s0.6-2.8,1.6-3.8s2.4-1.6,3.8-1.6
			c1.4,0,2.8,0.6,3.8,1.6s1.6,2.4,1.6,3.8s-0.6,2.8-1.6,3.8C192.8,258.4,191.4,258.9,190,258.9z"/>
	</g>
	<g id="XMLID_1660_">
		<path id="XMLID_888_" class="st1" d="M130,195.4c-1.4,0-2.8-0.6-3.8-1.6s-1.6-2.4-1.6-3.8c0-1.4,0.6-2.8,1.6-3.8s2.4-1.6,3.8-1.6
			c1.4,0,2.8,0.6,3.8,1.6s1.6,2.4,1.6,3.8s-0.6,2.8-1.6,3.8C132.7,194.8,131.4,195.4,130,195.4z"/>
	</g>
	<g id="XMLID_1493_">
		<path id="XMLID_887_" class="st1" d="M207.7,190.9c-1.4,0-2.8-0.6-3.8-1.6s-1.6-2.4-1.6-3.8c0-1.4,0.6-2.8,1.6-3.8
			s2.4-1.6,3.8-1.6s2.8,0.6,3.8,1.6s1.6,2.4,1.6,3.8c0,1.4-0.6,2.8-1.6,3.8C210.5,190.3,209.1,190.9,207.7,190.9z"/>
	</g>
</g>
</svg>
