<?xml version="1.0" encoding="utf-8"?>
<!-- Generator: Adobe Illustrator 24.1.0, SVG Export Plug-In . SVG Version: 6.00 Build 0)  -->
<svg version="1.1" id="Layer_1" xmlns="http://www.w3.org/2000/svg" xmlns:xlink="http://www.w3.org/1999/xlink" x="0px" y="0px"
	 viewBox="0 0 380 380" style="enable-background:new 0 0 380 380;" xml:space="preserve">
<style type="text/css">
	.st0{fill-rule:evenodd;clip-rule:evenodd;fill:url(#SVGID_1_);}
	.st1{fill:#FFFFFF;}
</style>
<g>
	
		<linearGradient id="SVGID_1_" gradientUnits="userSpaceOnUse" x1="25.4277" y1="-4414.9844" x2="354.5723" y2="-4605.0161" gradientTransform="matrix(1 0 0 -1 0 -4320)">
		<stop  offset="0" style="stop-color:#00D8FF"/>
		<stop  offset="1" style="stop-color:#367AD8"/>
	</linearGradient>
	<circle class="st0" cx="190" cy="190" r="190"/>
</g>
<g>
	<g>
		<path class="st1" d="M268.4,276.2h-16.2v-9.1c0-9.5-3.5-18.5-9.7-25.5c0.8-0.7,1.6-1.4,2.3-2.2c12.1-12.1,18.7-28,18.7-45
			c0-8.5-1.7-16.7-4.9-24.5c0.4-1.7,0.6-3.5,0.6-5.3c0-7.3-3.2-13.8-8.3-18.3l1.5-2.6c3.2-5.5,2.4-12.3-1.6-16.9l6-10.4
			c0.8,0,1.7-0.1,2.5-0.3c2.5-0.7,4.6-2.3,5.9-4.6l7.3-12.7c1.4-2.3,0.5-5.3-1.8-6.7l-46.7-26.9c-1.1-0.6-2.5-0.8-3.7-0.5
			c-1.3,0.3-2.3,1.2-3,2.3l-7.3,12.7c-1.8,3.1-1.7,6.9,0,9.8l-6,10.4c-2.1-0.4-4.3-0.3-6.5,0.3c-3.8,1-7,3.4-8.9,6.8l-26.9,46.7
			c-2,3.4-2.5,7.3-1.5,11.1c0.6,2.2,1.6,4.1,3,5.8l-5.3,9.2c-1.3,2.3-1.7,4.9-1,7.4c0.7,2.5,2.3,4.6,4.6,5.9l29.7,17.1
			c1.5,0.9,3.2,1.3,4.9,1.3c3.4,0,6.7-1.8,8.5-4.9l5.3-9.2c0.9,0.2,1.8,0.2,2.6,0.2c1.3,0,2.6-0.2,3.8-0.5c3.8-1,7-3.4,8.9-6.8
			l1.5-2.6c2.1,0.7,4.4,1.1,6.8,1.2c0.3,1.7,0.4,3.5,0.4,5.3c0,9.1-3.6,17.7-10.1,24.2c-6.5,6.5-15.1,10.1-24.2,10.1h-17.1
			c-2.7,0-4.9,2.2-4.9,4.9s2.2,4.9,4.9,4.9h17.1c2.7,0,4.9,2.2,4.9,4.9s-2.2,4.9-4.9,4.9h-78.4c-2.7,0-4.9-2.2-4.9-4.9
			s2.2-4.9,4.9-4.9h17.1c2.7,0,4.9-2.2,4.9-4.9s-2.2-4.9-4.9-4.9h-17.1c-8.1,0-14.7,6.6-14.7,14.7s6.6,14.7,14.7,14.7h12.4v18.1
			h-22.2c-8.1,0-14.7,6.6-14.7,14.7v19.6c0,2.7,2.2,4.9,4.9,4.9h176.3c2.7,0,4.9-2.2,4.9-4.9v-19.6
			C283.1,282.8,276.5,276.2,268.4,276.2L268.4,276.2z M242.4,267.1v9.1h-9.8v-9.1c0-5.9-2.7-11.1-6.9-14.6c3.1-1.4,6.1-3,9-4.9
			C239.6,252.9,242.4,259.9,242.4,267.1L242.4,267.1z M199.8,258.1h14c5,0,9.1,4.1,9.1,9.1v9.1h-35.1v-18.1H199.8z M234.6,179.3
			c-8.1,0-14.7-6.6-14.7-14.7c0-8.1,6.6-14.7,14.7-14.7s14.7,6.6,14.7,14.7C249.3,172.7,242.7,179.3,234.6,179.3z M213,104.1
			l4.9-8.5l29.7,17.1l-4.9,8.5L213,104.1z M223.5,76.2l38.2,22l-4.9,8.5l-38.2-22L223.5,76.2z M166.5,184.7l4.9-8.5l29.7,17.1
			l-4.9,8.5L166.5,184.7z M216.9,185.5c-0.6,1.1-1.7,1.9-3,2.3c-1.3,0.3-2.6,0.2-3.7-0.5l-38.2-22c0,0,0,0,0,0c0,0,0,0,0,0
			c-1.1-0.6-1.9-1.7-2.3-3c-0.3-1.3-0.2-2.6,0.5-3.7l26.9-46.7c0.6-1.1,1.7-1.9,3-2.3c1.3-0.3,2.6-0.2,3.7,0.5l38.2,22
			c2.3,1.4,3.1,4.4,1.8,6.7l-1.5,2.6c-2.4-0.8-5-1.3-7.8-1.3c-13.5,0-24.5,11-24.5,24.5c0,7.3,3.2,13.8,8.3,18.3L216.9,185.5z
			 M212.8,236.5c6.8-2.1,13-5.8,18.1-11c8.4-8.4,13-19.4,13-31.1c0-2.3-0.2-4.6-0.5-6.9c3.4-1.3,6.4-3.3,8.8-5.8
			c1,4.1,1.5,8.4,1.5,12.7c0,14.3-5.6,27.8-15.8,38.1c-6.7,6.7-14.8,11.4-23.7,13.9c0.2-1,0.3-1.9,0.3-2.9
			C214.5,240.9,213.9,238.6,212.8,236.5L212.8,236.5z M143.6,258.1h34.3v18.1h-34.3L143.6,258.1z M273.3,305.6H106.7v-14.7
			c0-2.7,2.2-4.9,4.9-4.9h156.7c2.7,0,4.9,2.2,4.9,4.9V305.6z"/>
		<path class="st1" d="M165.5,233.6c0-2.7-2.2-4.9-4.9-4.9h0c-2.7,0-4.9,2.2-4.9,4.9s2.2,4.9,4.9,4.9S165.5,236.3,165.5,233.6z"/>
	</g>
</g>
</svg>
