<?xml version="1.0" encoding="utf-8"?>

<svg version="1.1" id="Layer_1" xmlns="http://www.w3.org/2000/svg" xmlns:xlink="http://www.w3.org/1999/xlink" x="0px" y="0px"
	 viewBox="0 0 380 380" style="enable-background:new 0 0 380 380;" xml:space="preserve">
<style type="text/css">
	.st0{fill:#2B79C2;}
	.st1{fill:#3B4652;}
	.st2{fill-rule:evenodd;clip-rule:evenodd;fill:url(#SVGID_1_);}
	.st3{fill:#FFFFFF;}
</style>
<g>
	<path class="st0" d="M6076,3150.3h116v8h-116V3150.3L6076,3150.3z M6110.3,3088.1c-2.2-2.5-1.9-6.3,0.6-8.4
		c2.5-2.2,6.3-1.9,8.4,0.6l16.3,18.5l45.5-40.7c2.5-2.2,6.2-2,8.4,0.5c2.2,2.5,2,6.2-0.5,8.4l-49.8,44.5c-2.6,2.4-6.4,2.2-8.6-0.4
		L6110.3,3088.1L6110.3,3088.1z M6134,3060.4c10.5-10.6,25.6-12.3,37.7-4.4c-2,1.9-4.1,3.8-6.2,5.6c-10-5.2-21.2-2.2-28.4,7.3
		c-1.6,2.1-4.7,2.1-6.3,0c-15.2-19.9-40.9-6.9-40.9,13c0,7.4,5.3,15.9,12.5,23.9c9.4,10.3,22,19.3,31.5,24.1
		c9.5-4.7,22.1-13.8,31.5-24.1c5.1-5.5,9.1-11.3,11.2-16.8c3.1-2.6,6.2-5.3,9.3-8.1c0.7,23.2-32.9,48.9-50.3,57
		c-1.1,0.5-2.3,0.5-3.3,0l0,0c-17.1-8-50.3-33.5-50.3-56C6082,3055.7,6113.9,3039.8,6134,3060.4L6134,3060.4z M6076,3171.3h116v8
		h-116V3171.3L6076,3171.3z"/>
	<path class="st1" d="M6054.9,2997.3h26.1v12h-26.1c-2.2,0-4.2,0.9-5.6,2.4c-1.5,1.5-2.4,3.5-2.4,5.6v188c0,4.4,3.6,8,8,8H6213
		c4.4,0,8-3.6,8-8v-188c0-2.2-0.9-4.2-2.4-5.6c-1.5-1.5-3.5-2.4-5.6-2.4h-26v-12h26.1c5.5,0,10.5,2.2,14.1,5.9
		c3.6,3.6,5.9,8.6,5.9,14.1v188c0,11-9,20-20,20H6055c-11,0-20-9-20-20v-188c0-5.5,2.2-10.5,5.9-14.1
		C6044.4,2999.5,6049.4,2997.3,6054.9,2997.3L6054.9,2997.3z M6134,2969.3c5.8,0,11,0.4,14.8,4.2s6.2,9.1,6.2,14.8l0,0h24v30h-90
		v-30h24l0,0c0-5.8,2.4-11,6.2-14.8C6123,2969.6,6128.2,2969.3,6134,2969.3L6134,2969.3z M6140.4,2981.9c-1.6-1.6-3.9-2.6-6.4-2.6
		s-4.7,1-6.4,2.6s-2.6,3.9-2.6,6.4s1,4.7,2.6,6.4c1.5,1.5,3.6,2.5,5.9,2.6h0.9c2.3-0.1,4.4-1.1,5.9-2.6c1.6-1.6,2.6-3.9,2.6-6.4
		S6142,2983.6,6140.4,2981.9L6140.4,2981.9z"/>
</g>
<g>
	
		<linearGradient id="SVGID_1_" gradientUnits="userSpaceOnUse" x1="25.4277" y1="2444.9841" x2="354.5723" y2="2635.0159" gradientTransform="matrix(1 0 0 1 0 -2350)">
		<stop  offset="0" style="stop-color:#00D8FF"/>
		<stop  offset="1" style="stop-color:#367AD8"/>
	</linearGradient>
	<circle class="st2" cx="190" cy="190" r="190"/>
	<g>
		<path class="st3" d="M136.4,162.7c0.5-1.1,0.9-2.2,1.2-3.3c2-6.1,2.7-12.8,1.5-18.9c-1.2-5.9-4.3-11.3-9.6-15.5
			c-2.7-2-6.1-3.9-10.1-5.2c-3-1-5.8-1.6-8.7-1.8c-10.3-0.8-20.2,3.1-28.4,10.1c-8.6,7.4-15.4,18-19.5,30.2
			c-1.9,5.9-3.3,12.1-3.9,18.6c-1.1,14.1,1.1,29.2,6,42.7c4.2,11.8,10.3,22.5,17.8,30.3c6.9,7.3,14.9,12,23.3,12.7
			c3.7,0.3,7.6-0.2,11.5-1.6c9.9-3.5,15.9-9.5,18.6-16.1c1.1-2.7,1.7-5.6,1.8-8.3s-0.3-5.4-1.2-7.8c-0.9-2.6-2.4-4.9-4.3-6.8
			c1.8-1.1,3.7-2,5.6-2.7c2.5-0.8,5.6-1.4,7.9-0.1c0.3,0.2,0.7,0.5,1,0.7c0.7,1.1,1.5,2.4,2.2,3.6c0.1,0.2,0.2,0.6,0.3,0.8
			c1.5,4,2.2,8.4,2,12.7c-0.1,4.4-1,8.9-2.8,13.2c-4.1,9.8-12.6,18.6-26.6,23.6c-5.9,2.2-11.6,2.8-17.1,2.4c-11.9-1-22.9-7.3-32-17
			c-8.6-9.2-15.8-21.4-20.7-34.9C46.6,209,44,192,45.4,176c0.6-7.5,2.2-14.9,4.5-21.8c4.9-14.4,13.2-27.2,23.6-36.2
			c10.9-9.3,24.1-14.5,38.2-13.4c3.9,0.3,7.9,1.1,11.9,2.5c5.6,1.8,10.2,4.4,14.2,7.4c8.2,6.4,12.8,14.6,14.6,23.6
			c1.8,8.6,0.9,17.7-1.9,26c-0.6,1.6-1.1,3.1-1.8,4.7c-3.6-1.7-7.4-3.3-11-5C137.3,163.1,136.8,162.9,136.4,162.7L136.4,162.7z
			 M231.3,168.2c-0.7-1.5-1.2-3.1-1.8-4.7c-2.7-8.3-3.6-17.4-1.9-26c1.8-9,6.5-17.2,14.6-23.6c3.9-3,8.6-5.6,14.2-7.4
			c4.1-1.4,8.1-2.2,11.9-2.5c14.2-1.1,27.3,4.1,38.2,13.4c10.4,9,18.7,21.8,23.6,36.2c2.4,7,3.9,14.3,4.5,21.8
			c1.2,15.9-1.4,32.9-6.8,48.3c-4.9,13.5-12,25.9-20.7,34.9c-9.2,9.6-20.1,16-32,17c-5.6,0.5-11.2-0.2-17.1-2.4
			c-14-5-22.5-13.8-26.6-23.6c-1.8-4.3-2.7-8.7-2.8-13.2c-0.1-4.4,0.6-8.7,2-12.7c0.1-0.3,0.2-0.6,0.3-0.8c0.7-1.2,1.4-2.4,2.2-3.6
			c0.3-0.2,0.7-0.5,1-0.7c2.4-1.4,5.6-0.8,7.9,0.1c1.9,0.7,3.9,1.6,5.6,2.7c-1.9,1.9-3.3,4.3-4.3,6.8c-0.9,2.5-1.4,5.1-1.2,7.8
			c0.1,2.7,0.7,5.6,1.8,8.3c2.7,6.5,8.7,12.5,18.6,16.1c3.9,1.4,7.7,1.9,11.5,1.6c8.4-0.7,16.3-5.4,23.3-12.7
			c7.4-7.8,13.5-18.5,17.8-30.3c4.9-13.6,7.3-28.6,6-42.7c-0.6-6.4-1.8-12.7-3.9-18.6c-4.1-12.1-10.9-22.8-19.5-30.2
			c-8.2-7-18-11-28.4-10.1c-2.8,0.2-5.8,0.8-8.7,1.8c-4.1,1.4-7.4,3.2-10.1,5.2c-5.4,4.2-8.5,9.6-9.6,15.5
			c-1.2,6.2-0.6,12.8,1.5,18.9c0.3,1.1,0.8,2.3,1.2,3.3c-0.5,0.2-0.9,0.5-1.4,0.6C238.7,164.9,235,166.5,231.3,168.2L231.3,168.2z"
			/>
		<path class="st3" d="M160.5,270.6c0-33.8,0-4.9,0-31.5c0-11.3-2.7-19.5-6.8-25.4c-1.1-1-2.3-1.9-3.5-2.6
			c-4.8-2.6-10.2-2.4-15.3-0.6c-5.6,1.9-10.7,5.4-14.3,9.1c-1.7,1.7-3,3.3-3.7,4.8c-1.2,2.2-4,3-6.1,1.7c-2.2-1.2-3-4-1.7-6.1
			c1.2-2.2,3.1-4.5,5.3-6.8c4.4-4.4,10.8-8.9,17.8-11.2c1.9-0.7,4-1.1,6-1.5c-0.8-0.5-1.6-0.9-2.4-1.2c-4.8-2.4-13.7-2-22.9,0.1
			c-9.8,2.3-19.5,6.4-25.2,11.5c-1.8,1.7-4.8,1.5-6.4-0.3c-1.7-1.8-1.5-4.8,0.3-6.4c6.8-6,18.2-11,29.2-13.5
			c0.7-0.1,1.5-0.3,2.2-0.5c-11.8-4.7-23.9-11-34.7-26.3l0,0c-1.5-2-0.9-4.9,1.1-6.4s4.9-0.9,6.4,1.1c11.3,16.1,25,21.1,37.4,25.5
			c4.1,1.5,8.1,3,11.8,4.7c7.4,3.4,15.9,7.6,22.7,15.2c6.9,7.7,12,18.6,12,35.2c0,36.2,0,25.8,0,31.5 M210.3,270.7
			c0-5.8,0,4.7,0-31.5c0-16.5,5-27.5,12-35.2c6.8-7.6,15.3-11.8,22.7-15.2c3.7-1.7,7.7-3.2,11.8-4.7c12.5-4.5,26-9.4,37.4-25.5
			c1.5-2,4.3-2.5,6.4-1.1c2,1.5,2.5,4.3,1.1,6.4c-10.8,15.3-22.9,21.7-34.6,26.2c0.7,0.1,1.5,0.3,2.2,0.5
			c11.1,2.5,22.4,7.5,29.2,13.5c1.8,1.7,2,4.5,0.3,6.4c-1.7,1.8-4.5,2-6.4,0.3c-5.7-5.1-15.4-9.2-25.2-11.5
			c-9.2-2.2-18.2-2.5-22.9-0.1c-0.8,0.5-1.6,0.8-2.4,1.2c2,0.3,4.1,0.8,6,1.5c6.9,2.4,13.3,6.8,17.8,11.2c2.3,2.3,4.1,4.7,5.3,6.8
			c1.2,2.2,0.5,5-1.7,6.1c-2.2,1.2-5,0.5-6.1-1.7c-0.8-1.5-2.2-3.1-3.7-4.8c-3.6-3.6-8.7-7.1-14.3-9.1c-5.1-1.7-10.7-2-15.3,0.6
			c-1.2,0.7-2.4,1.5-3.5,2.6c-4.1,6-6.8,14.1-6.8,25.4c0,26.7,0-2.2,0,31.5 M196.7,270.5v-31.6l0,0c0-32.1,11.7-46.7,26.1-55.9
			c-0.5-0.2-0.8-0.5-1.1-0.7c-4.1-2.7-6.9-6.6-7.8-10.3c-0.6-2.4,0.9-4.9,3.4-5.4c2.4-0.6,4.9,0.9,5.4,3.4c0.3,1.6,1.8,3.4,4,4.9
			c1.9,1.2,4.3,2.2,7,2.4c2.7-1.2,5.4-2.5,8.1-3.7c12.1-5.4,23.7-10.6,28.5-22.4c0.9-2.3,3.6-3.4,5.9-2.5s3.4,3.6,2.5,5.9
			c-6.1,15.2-19.3,21.1-33.1,27.2c-19.1,8.5-39.7,17.7-39.7,57.3l0,0v31.6L196.7,270.5z M174,270.9V239l0,0
			c0-39.6-20.7-48.8-39.7-57.3c-13.8-6.1-26.9-12-33.1-27.1l0,0c-0.9-2.3,0.2-5,2.5-5.9s5,0.2,5.9,2.5c4.8,11.8,16.3,16.9,28.5,22.4
			c2.7,1.2,5.4,2.4,8.1,3.7c2.8-0.2,5.2-1.1,7-2.4c2.2-1.5,3.6-3.3,4-4.9c0.6-2.4,3.1-4,5.4-3.4c2.4,0.6,4,3.1,3.4,5.4
			c-0.9,3.7-3.6,7.6-7.8,10.3c-0.3,0.2-0.8,0.5-1.1,0.7c14.5,9.2,26.1,23.9,26.1,55.9l0,0v31.9L174,270.9z"/>
	</g>
</g>
</svg>
