<?xml version="1.0" encoding="utf-8"?>

<svg version="1.1" id="Layer_1" xmlns="http://www.w3.org/2000/svg" xmlns:xlink="http://www.w3.org/1999/xlink" x="0px" y="0px"
	 viewBox="0 0 256 256" style="enable-background:new 0 0 256 256;" xml:space="preserve">
<style type="text/css">
	.st0{fill:url(#SVGID_1_);}
	.st1{fill:#FFFFFF;}
</style>
<g>
	<linearGradient id="SVGID_1_" gradientUnits="userSpaceOnUse" x1="17.1276" y1="63.9878" x2="238.8725" y2="192.0122">
		<stop  offset="0" style="stop-color:#E4729F"/>
		<stop  offset="1" style="stop-color:#78104D"/>
	</linearGradient>
	<path class="st0" d="M128,0c70.7,0,128,57.3,128,128s-57.3,128-128,128S0,198.7,0,128S57.3,0,128,0L128,0z"/>
	<path class="st1" d="M78.2,176.1c0.3,3.7-2.4,6.9-6.1,7.3c-3.7,0.3-6.9-2.4-7.3-6.1c-0.1-0.9-0.1-1.7-0.1-2.6c0-2-0.6-3-1.3-4.1
		c-1.4-2.2-3-4.7-4-9.6c-0.9-4-0.4-7.8,0.1-11c-1.7-0.5-3.6-1.1-5.1-2c-3-1.7-4.8-4.3-5.4-7.4c-0.6-2.6-0.3-5.5,0.9-8.3
		c0.3-0.8,0.7-1.6,1.2-2.5c2.4-4.1,5-7.5,7.5-10.8c1.3-1.7,2.5-3.3,3.6-4.8c2.2-3,6.3-3.7,9.4-1.6c3,2.2,3.7,6.3,1.6,9.4
		c-1.3,1.8-2.6,3.5-3.8,5.2c-2.2,2.9-5.1,6.5-6.8,9.7c2.7,0.9,5.1,1.1,7.6,2.7c4.4,2.8,3.8,6.3,3,11.1c-0.1,0.9-0.3,1.8-0.4,2.8
		l13.7-0.6c20.1-0.8,30-1.3,39.1,4.8c8.6,5.7,14.2,16.1,25.3,36.7l2,3.8c1.8,3.3,0.5,7.3-2.7,9.1c-3.3,1.8-7.3,0.5-9.1-2.7l-2-3.8
		c-10-18.6-15.1-28-20.9-31.9c-5.5-3.7-14-3.3-31.1-2.6L77,166.7c0.9,2,1.5,4.3,1.5,8C78.1,175.1,78.1,175.6,78.2,176.1L78.2,176.1z
		 M132.9,141.4c0-2.2,1.8-4,4-4s4,1.8,4,4c0,1,0.4,1.8,1,2.3c0.4,0.4,1,0.6,1.5,0.7c0.5,0.1,1.1,0.1,1.7-0.1
		c0.9-0.3,1.8-1.1,2.4-2.6c2.7-6.2,4.3-7.9,6.7-10.4c0.9-0.9,2-2,3.3-3.6c1.7-2.1,2.4-4.4,2.3-6.7c0-1.4-0.4-2.7-1-3.9
		c-0.6-1.2-1.4-2.3-2.4-3.1c-1.5-1.3-3.6-2-5.9-1.9c-1.7,0-3.3,0.5-4.6,1.4c-1.3,0.8-2.4,2-3,3.5c-0.9,2-3.3,2.9-5.4,1.9
		c-2-0.9-2.9-3.3-1.9-5.4c1.3-2.9,3.4-5.2,6-6.9c2.6-1.6,5.6-2.6,8.7-2.7c4.4-0.1,8.3,1.3,11.2,3.7c2,1.6,3.5,3.6,4.6,5.8
		c1.1,2.2,1.7,4.7,1.8,7.2c0.1,4.1-1.2,8.3-4.1,12c-1.6,1.9-2.7,3.1-3.8,4.2c-1.8,1.8-3,3-5,7.9c-1.6,3.8-4.3,6.1-7.3,7.1
		c-1.9,0.7-3.9,0.7-5.9,0.4c-1.9-0.4-3.7-1.2-5.1-2.5C134.5,147.9,132.9,145,132.9,141.4z"/>
	<path class="st1" d="M118.7,204.8c1.5,3.4,0,7.4-3.4,8.9s-7.4,0-8.9-3.4l-1.6-3.8c-5-11.4-4.9-10-18.5-11.3
		c-3.7-0.3-6.4-3.6-6.1-7.3s3.6-6.4,7.3-6.1C110.9,184,108.9,182.7,118.7,204.8L118.7,204.8z M190.1,137.8
		c-8.4,14.9-13.6,25.7-6.5,42.3l5.7,13.3c1.4,3.4-0.2,7.4-3.6,8.8c-3.4,1.4-7.3-0.2-8.8-3.6l-6-14.1c-10.2-24.1-0.8-38.7,7.5-53.4
		c5.1-9,10.3-18.3,10.3-30.6c0-29.1-22.4-45.3-48.9-45.3c-23.2,0-57.7,16-59.6,42.5c-0.2,3.7-3.5,6.5-7.2,6.3s-6.5-3.5-6.3-7.2
		c2.4-34.5,43.2-55.1,73-55.1c33.7,0,62.3,22,62.4,58.8C202.1,116.4,196,127.2,190.1,137.8z"/>
</g>
</svg>
