<?xml version="1.0" encoding="utf-8"?>
<!-- Generator: Adobe Illustrator 24.1.0, SVG Export Plug-In . SVG Version: 6.00 Build 0)  -->
<svg version="1.1" id="Capa_1" xmlns="http://www.w3.org/2000/svg" xmlns:xlink="http://www.w3.org/1999/xlink" x="0px" y="0px"
	 viewBox="0 0 380 380" style="enable-background:new 0 0 380 380;" xml:space="preserve">
<style type="text/css">
	.st0{fill-rule:evenodd;clip-rule:evenodd;fill:url(#SVGID_1_);}
	.st1{fill:#FFFFFF;}
</style>
<linearGradient id="SVGID_1_" gradientUnits="userSpaceOnUse" x1="25.4277" y1="-1982.9841" x2="354.5723" y2="-2173.0159" gradientTransform="matrix(1 0 0 -1 0 -1888)">
	<stop  offset="0" style="stop-color:#E4729F"/>
	<stop  offset="1" style="stop-color:#78104D"/>
</linearGradient>
<circle class="st0" cx="190" cy="190" r="190"/>
<g>
	<path class="st1" d="M54,151.5c0,43,14.4,63.8,24.9,79c6.2,9,10.7,15.4,10.7,23.8V318c0,4.4,3.6,8,8,8h98.8c4.4,0,8-3.6,8-8v-15.9
		H241c4.4,0,8-3.6,8-8v-23.9c0-2.7-1.3-5.1-3.5-6.6c-3-2-7.1-6.4-7.1-9.3c0-3.2,4.7-7.7,7.1-9.3c2.2-1.5,3.5-4,3.5-6.6v-15.9h13.3
		c2.7,0,5.1-1.3,6.6-3.5s1.8-5,0.8-7.4l-20.7-51v-9.1c0-53.8-43.7-97.5-97.5-97.5S54,97.7,54,151.5L54,151.5z M69.9,151.5
		c0-45,36.6-81.5,81.5-81.5s81.5,36.6,81.5,81.5v10.6c0,1,0.2,2,0.6,3l16.8,41.4H241c-4.4,0-8,3.6-8,8v20
		c-4.2,3.7-10.6,10.8-10.6,19.8c0,9,6.4,16.1,10.6,19.8v12.1h-36.7c-4.4,0-8,3.6-8,8v15.9h-82.9v-55.8c0-13.3-6.6-22.8-13.5-32.9
		C82.2,207.2,69.9,189.5,69.9,151.5z"/>
	<path class="st1" d="M309.7,219.4c4.1-1.6,8.7,0.3,10.4,4.4c4,9.8,6,20.2,6,30.8c0,10.6-2,21-6,30.8c-1.3,3.1-4.2,5-7.4,5
		c-1,0-2-0.2-3-0.6c-4.1-1.6-6.1-6.3-4.4-10.4c3.2-7.9,4.8-16.3,4.8-24.9s-1.6-16.9-4.8-24.9C303.6,225.7,305.6,221,309.7,219.4z"/>
	<path class="st1" d="M280.1,231.3c4.1-1.6,8.7,0.3,10.4,4.4c2.4,6,3.7,12.4,3.7,18.9c0,6.5-1.2,12.9-3.7,18.9c-1.2,3.1-4.2,5-7.4,5
		c-1,0-2-0.2-3-0.6c-4.1-1.6-6.1-6.3-4.4-10.4s2.5-8.5,2.5-13s-0.8-8.8-2.5-13C274,237.5,276,232.9,280.1,231.3z"/>
</g>
</svg>
