<?xml version="1.0" encoding="utf-8"?>

<svg version="1.1" id="Layer_1" xmlns="http://www.w3.org/2000/svg" xmlns:xlink="http://www.w3.org/1999/xlink" x="0px" y="0px"
	 viewBox="0 0 256 256" style="enable-background:new 0 0 256 256;" xml:space="preserve">
<style type="text/css">
	.st0{fill-rule:evenodd;clip-rule:evenodd;fill:url(#SVGID_1_);}
	.st1{fill:#FFFFFF;}
	.st2{fill-rule:evenodd;clip-rule:evenodd;fill:#FFFFFF;}
</style>
<g>
	<linearGradient id="SVGID_1_" gradientUnits="userSpaceOnUse" x1="0" y1="128" x2="256" y2="128">
		<stop  offset="0" style="stop-color:#00D8FF"/>
		<stop  offset="1" style="stop-color:#367AD8"/>
	</linearGradient>
	<path class="st0" d="M128,0c70.7,0,128,57.3,128,128s-57.3,128-128,128S0,198.7,0,128S57.3,0,128,0L128,0z"/>
	<path class="st1" d="M98.6,139.2c-8.3,0-16.1-4.2-19.8-12c-1-2-0.1-4.4,1.9-5.4s4.4-0.1,5.4,1.9c2.3,4.9,7.4,7.4,12.5,7.4
		c5.2,0,10.2-2.5,12.5-7.4c1-2,3.4-2.9,5.4-1.9s2.9,3.4,1.9,5.4C114.8,135,106.8,139.2,98.6,139.2L98.6,139.2z"/>
	<path class="st2" d="M137.1,126.5c-0.3-0.1-0.6-0.3-0.9-0.4c-3.4-1.3-6.8-2.6-9.4-3.3c2.6,22.3-19.4,16.1-28.1,33.5
		C90,139,68,145.2,70.6,122.8c-2.6,0.8-6,2.1-9.4,3.3c-3.7,1.4-6.3,4-8.1,7.4c-5.4,10.4-8.6,44.1-9.9,55.5c-0.3,3.4,2,6.4,5.4,7
		c16.7,2.8,33.2,4.1,50.1,4.1c8.7,0,17.3-0.4,25.8-1.1c1.3-9.2,4.1-17.5,8-26.1c3.4-7.5,9.3-10.9,16.1-13.1
		c-1.3-1.7-2.4-3.5-3.4-5.4c-1.5-1.1-2.9-2.4-4.1-3.8c-2.6-3.2-4.6-7.3-5.4-11.3c-0.9-4.3-0.8-8.7,1.2-12.6
		C137,126.7,137,126.6,137.1,126.5L137.1,126.5z M98.6,109.7c8.3,0,14.2-11.7,16.8-18.2c1.4-3.4,2.3-7.3,2.6-11.2
		c-20,1.2-28.5-5.5-33.6-13.1c0.1,2-3,11.2-5.1,15.1c0.5,3.2,1.3,6.4,2.4,9.3C84.4,98,90.4,109.7,98.6,109.7z M85.4,112
		c-5.9,2.4-17.6,4.6-26,2c14.7-6-5.1-65.8,23.8-66.2c3.8-5.8,10-6.7,15.5-6.7c12.8,0,24.6,5.8,29.3,16c8.4,18.4-1.7,52.1,10.1,57
		c-8.5,2.6-20.3,0.3-26.2-2.1c-3.7,3.4-8.1,5.8-13.3,5.8C93.5,117.7,89.1,115.4,85.4,112z M77.9,99.5c1.8,0,3.2-1.4,3.2-3.2
		c0-1.8-1.4-3.2-3.2-3.2c-1.8,0-3.2,1.4-3.2,3.2C74.7,98,76.2,99.5,77.9,99.5z M119.3,99.5c-1.8,0-3.2-1.4-3.2-3.2
		c0-1.8,1.4-3.2,3.2-3.2c1.8,0,3.2,1.4,3.2,3.2C122.6,98,121.1,99.5,119.3,99.5z M146.8,127.8c-2-15.1,7.2-24,18.6-26.9
		c-0.4-1.3-1.3-2.4-2.4-3c2.4-0.1,5.8,0.5,7.1,2.2h0.1c1.5-2.4,6.4-5.1,11.3-4.5c-2.1,0.6-3.8,2.6-4.7,4.4
		c7.2,0.6,14.2,3.4,18.7,8.4c4.6,5.1,6.4,11.9,5.6,19.5c5.7,3.1,3.1,13-0.8,17.6c-1.2,1.4-2.6,2.6-4.2,3.3c-1.8,4.5-4.6,8-7.9,10.6
		c-8.5,6.5-20.3,6.5-28.8,0c-3.3-2.6-6.1-6.1-7.9-10.6c-1.6-0.7-3-1.8-4.2-3.3C143.3,140.7,140.9,130.8,146.8,127.8z M166.4,116.7
		c-0.5,4.3-5.7,18.6-11.7,17.1l0,0c-2-0.6-4.6-0.3-4.2,2.7c0.5,4.6,4.3,7.2,8.1,8.1c5.2,15.5,25.3,15.6,30.5,0
		c3.8-0.8,7.6-3.4,8.1-8.1c0.3-2.8-2-3.2-3.9-2.7l0,0l0,0c-5.5,0.8-15.6-9.6-17-12.8c0.4,3.6,1.7,7.7,4.7,11.1
		C176.6,130.3,169.1,123.4,166.4,116.7z M215.6,203.5c-1-9.9-3.7-18.3-7.7-27.2c-3.4-7.4-11.5-9-17.8-10.4c-0.7,4.6-3.8,12-5.7,14.4
		c-3.2-3.8-5.4-5.6-10.6-8.8c-5.2,3.3-7.4,5-10.6,8.8c-1.9-2.4-5-9.8-5.7-14.4c-6.3,1.3-14.4,2.9-17.8,10.4
		c-4,8.9-6.8,17.3-7.7,27.2c-0.3,3.1,1.6,5.8,4.3,6.3c13.2,2.5,24.1,3.7,37.5,3.7s24.3-1.2,37.5-3.7
		C213.9,209.3,215.8,206.5,215.6,203.5z M173.8,184.1c3,0,5.4,2.4,5.4,5.4s-2.4,5.4-5.4,5.4s-5.4-2.4-5.4-5.4
		C168.4,186.5,170.8,184.1,173.8,184.1z"/>
	<path class="st2" d="M137.1,126.5c-0.3-0.1-0.6-0.3-0.9-0.4c-3.4-1.3-6.8-2.6-9.4-3.3c2.6,22.3-19.4,16.1-28.1,33.5
		C90,139,68,145.2,70.6,122.8c-2.6,0.8-6,2.1-9.4,3.3c-3.7,1.4-6.3,4-8.1,7.4c-5.4,10.4-8.6,44.1-9.9,55.5c-0.3,3.4,2,6.4,5.4,7
		c16.7,2.8,33.2,4.1,50.1,4.1c8.7,0,17.3-0.4,25.8-1.1c1.3-9.2,4.1-17.5,8-26.1c3.4-7.5,9.3-10.9,16.1-13.1
		c-1.3-1.7-2.4-3.5-3.4-5.4c-1.5-1.1-2.9-2.4-4.1-3.8c-2.6-3.2-4.6-7.3-5.4-11.3c-0.9-4.3-0.8-8.7,1.2-12.6
		C137,126.7,137,126.6,137.1,126.5L137.1,126.5z M98.6,109.7c8.3,0,14.2-11.7,16.8-18.2c1.4-3.4,2.3-7.3,2.6-11.2
		c-20,1.2-28.5-5.5-33.6-13.1c0.1,2-3,11.2-5.1,15.1c0.5,3.2,1.3,6.4,2.4,9.3C84.4,98,90.4,109.7,98.6,109.7z M111.9,112
		c-3.7,3.4-8.1,5.8-13.3,5.8c-5.2,0-9.6-2.3-13.2-5.7c-5.9,2.4-17.6,4.6-26,2c14.7-6-5.1-65.8,23.8-66.2c3.8-5.8,10-6.7,15.5-6.7
		c12.8,0,24.6,5.8,29.3,16c8.4,18.4-1.7,52.1,10.1,57C129.6,116.7,117.8,114.3,111.9,112z M77.9,99.5c1.8,0,3.2-1.4,3.2-3.2
		c0-1.8-1.4-3.2-3.2-3.2c-1.8,0-3.2,1.4-3.2,3.2C74.7,98,76.2,99.5,77.9,99.5z M119.3,99.5c-1.8,0-3.2-1.4-3.2-3.2
		c0-1.8,1.4-3.2,3.2-3.2c1.8,0,3.2,1.4,3.2,3.2C122.6,98,121.1,99.5,119.3,99.5z M181.5,95.5c-2.1,0.6-3.8,2.6-4.7,4.4
		c7.2,0.6,14.2,3.4,18.7,8.4c4.6,5.1,6.4,11.9,5.6,19.5c5.7,3.1,3.1,13-0.8,17.6c-1.2,1.4-2.6,2.6-4.2,3.3c-1.8,4.5-4.6,8-7.9,10.6
		c-8.5,6.5-20.3,6.5-28.8,0c-3.3-2.6-6.1-6.1-7.9-10.6c-1.6-0.7-3-1.8-4.2-3.3c-4-4.8-6.4-14.7-0.5-17.7c-2-15.1,7.2-24,18.6-26.9
		c-0.4-1.3-1.3-2.4-2.4-3c2.4-0.1,5.8,0.5,7.1,2.2h0.1C171.6,97.6,176.6,94.9,181.5,95.5z M189.1,144.5c3.8-0.8,7.6-3.4,8.1-8.1
		c0.3-2.8-2-3.2-3.9-2.7l0,0l0,0c-5.5,0.8-15.6-9.6-17-12.8c0.4,3.6,1.7,7.7,4.7,11.1c-4.4-1.7-11.9-8.6-14.6-15.3
		c-0.5,4.3-5.7,18.6-11.7,17.1l0,0c-2-0.6-4.6-0.3-4.2,2.7c0.5,4.6,4.3,7.2,8.1,8.1C163.7,160.1,183.9,160.1,189.1,144.5z
		 M215.6,203.5c-1-9.9-3.7-18.3-7.7-27.2c-3.4-7.4-11.5-9-17.8-10.4c-0.7,4.6-3.8,12-5.7,14.4c-3.2-3.8-5.4-5.6-10.6-8.8
		c-5.2,3.3-7.4,5-10.6,8.8c-1.9-2.4-5-9.8-5.7-14.4c-6.3,1.3-14.4,2.9-17.8,10.4c-4,8.9-6.8,17.3-7.7,27.2c-0.3,3.1,1.6,5.8,4.3,6.3
		c13.2,2.5,24.1,3.7,37.5,3.7s24.3-1.2,37.5-3.7C213.9,209.3,215.8,206.5,215.6,203.5z M173.8,184.1c3,0,5.4,2.4,5.4,5.4
		s-2.4,5.4-5.4,5.4s-5.4-2.4-5.4-5.4C168.4,186.5,170.8,184.1,173.8,184.1z"/>
</g>
</svg>
