<?xml version="1.0" encoding="utf-8"?>
<!-- Generator: Adobe Illustrator 24.1.0, SVG Export Plug-In . SVG Version: 6.00 Build 0)  -->
<svg version="1.1" id="Layer_1" xmlns="http://www.w3.org/2000/svg" xmlns:xlink="http://www.w3.org/1999/xlink" x="0px" y="0px"
	 viewBox="0 0 380 380" style="enable-background:new 0 0 380 380;" xml:space="preserve">
<style type="text/css">
	.st0{fill-rule:evenodd;clip-rule:evenodd;fill:url(#SVGID_1_);}
	.st1{fill:#FFFFFF;}
</style>
<desc>Created with Sketch.</desc>
<g>
	
		<linearGradient id="SVGID_1_" gradientUnits="userSpaceOnUse" x1="25.4277" y1="-4414.9844" x2="354.5723" y2="-4605.0161" gradientTransform="matrix(1 0 0 -1 0 -4320)">
		<stop  offset="0" style="stop-color:#00D8FF"/>
		<stop  offset="1" style="stop-color:#367AD8"/>
	</linearGradient>
	<circle class="st0" cx="190" cy="190" r="190"/>
</g>
<g id="Page-1">
	<g id="_x30_01---Thinking" transform="translate(-1.000000, -1.000000)">
		<path id="Shape" class="st1" d="M65.3,223.6c1.4,1,3,1.9,4.6,2.6c1.9,1,5.1,2.6,5.3,3.7c0.3,1.5,0.1,3.1-0.5,4.5
			c-0.7,1.4-1.3,2.6-1.9,3.7c-1.6,2.8-4.3,7.6-0.2,10.9c1,0.9,2.6,2.2,4.1,3.3c-1.1,1.9-1.6,4.1-1.4,6.4c0.2,1.7,1.2,3.3,2.6,4.3
			c1,0.7,2.1,1.3,3.1,1.9c2.6,1.5,3.6,2.2,4,3.5c0.2,1.8,0.1,3.6-0.5,5.3c-0.3,1.1-0.5,2.3-0.7,3.5c-0.4,4,0.1,8.1,1.5,11.9
			c2,7,8.3,11.9,15.6,12c1.2,0,2.4-0.1,3.6-0.4c12.6-3,25-6.7,37.1-11.1c9.9,5.8,16.2,23.5,17.8,30.2c0.5,2,2.3,3.3,4.3,3.3
			l110.6-0.3c1.4,0,2.7-0.7,3.5-1.8c0.8-1.1,1.1-2.6,0.6-3.9c-1.1-3-2.6-5.8-4.5-8.4c-1.1-1.5-2-3.1-2.9-4.8c-2-4-3.7-8.2-5-12.5
			c-2.5-8.5-4.3-17.2-5.2-26.1c-1.5-13.2,0.5-26.5,5.8-38.7c3.3-6.7,7.3-13.1,12-18.9c2.6-3.6,5.4-7.3,7.8-11.1
			c4.2-6.6,7.3-13.8,9.1-21.5c0.5-2.4-1-4.7-3.3-5.2c-2.3-0.5-4.7,0.9-5.3,3.2c-1.5,6.6-4.2,13-7.9,18.7c-2.3,3.6-4.9,7.2-7.5,10.6
			c-5.1,6.4-9.4,13.3-13,20.6c-6,13.6-8.2,28.5-6.5,43.3c1,9.4,2.9,18.6,5.6,27.6c1.4,4.7,3.3,9.4,5.5,13.8c1,2,2.1,3.9,3.4,5.7
			l0.3,0.4l-99.9,0.3c-2.9-10.4-8.2-20.1-15.5-28.1l4-1.4c3-1,5.2-1.8,6.3-2.2c18.9-6,28.3-14.6,28-25.5c0-1.2-0.5-2.3-1.3-3.1
			c-0.8-0.8-2-1.2-3.2-1.2c-2.4,0.1-4.4,2.1-4.3,4.5c0.1,4.5-3.6,11.1-21.9,16.9c-1.2,0.4-3.5,1.2-6.6,2.3c-3.3,1.1-7.4,2.6-12,4.1
			h0c-12.4,4.5-25,8.4-37.9,11.5c-4.1,0.8-8.1-1.8-9.1-5.9c-0.9-2.5-1.3-5.2-1.1-7.8c0.1-0.9,0.3-1.8,0.5-2.7
			c0.9-3.1,1.1-6.3,0.4-9.5c-1.3-4-4.2-7.3-8.1-9l-0.9-0.5c0.5-1,1-1.9,1.7-2.7c0.7-0.9,1.1-2.1,0.9-3.3c-0.2-1.2-0.8-2.2-1.8-3
			c-1.1-0.8-3.5-2.6-5.4-4.1c0.2-0.4,0.4-0.8,0.7-1.2c0.7-1.2,1.5-2.6,2.3-4.3c1.4-3.1,1.8-6.5,1.2-9.9c-1.1-5.4-6.2-8-10-9.9
			c-1.3-0.6-2.5-1.3-3.6-2.1c-0.9-0.6-1.8-1.3-2.6-2.1c0-0.7,0.7-2.3,4.1-6.4c7.9-10.2,14.6-21.1,20.2-32.8c1-1.8,1.6-3.9,1.7-6
			c-0.5-4.4-2.8-8.4-6.5-11c-1.8-1.6-3.5-3.2-3.7-4.5c0-1.1,0.3-2.1,0.7-3.1c0.7-1.9,1.6-3.7,2.4-5.6c1.9-3.8,3.3-7.8,4.4-11.9
			c1-4.9,2.3-9.8,4-14.6c3.5-9.6,8.8-18.4,15.8-25.8c8.4-8.9,21.7-15.2,39.5-18.8c13.6-3,27.4-5,41.3-6c4.7-0.2,9.4-0.1,14,0.3
			c1.6,0.1,3.1-0.6,4-1.8s1.1-3,0.4-4.4c-0.7-1.4-2-2.4-3.6-2.6c-5.1-0.5-10.2-0.6-15.3-0.3c-14.3,1-28.6,3-42.6,6.1
			c-19.9,4-34.3,10.9-44.1,21.3c-7.8,8.3-13.8,18.1-17.7,28.8c-1.8,5.2-3.2,10.5-4.3,15.9c-0.9,3.5-2.2,6.8-3.8,10
			c-0.9,2-1.8,4-2.6,6.1c-1,2.3-1.4,4.9-1.2,7.4c0.9,3.9,3.2,7.4,6.4,9.8c2.2,2,3.6,3.4,3.6,4.6c-0.2,0.7-0.4,1.3-0.7,1.9
			c-5.3,11.1-11.7,21.6-19.3,31.3c-3.2,3.9-6.5,8.4-5.8,13C59.9,218.8,62.2,221.8,65.3,223.6z"/>
		<path id="Shape_1_" class="st1" d="M111.4,124.4c2.7-7.4,6.8-14.1,12.1-19.8c5.9-6.2,16-10.8,30.2-13.6c2.4-0.5,3.9-2.8,3.5-5.2
			c-0.5-2.4-2.8-3.9-5.2-3.5c-16,3.2-27.7,8.6-34.9,16.2c-6.1,6.6-10.9,14.4-14,22.9c-1.5,4.4-2.7,8.9-3.6,13.4l8.6,1.9
			C109,132.6,110.1,128.5,111.4,124.4z"/>
		<path id="Shape_2_" class="st1" d="M203.6,83.5L201,96.7c-2.5,0.8-5,1.9-7.4,3.1l-11.2-7.5c-3.5-2.3-8.1-1.8-11.1,1.1l-7.3,7.3
			c-3,3-3.5,7.6-1.2,11.2l7.5,11.1c-1.2,2.4-2.2,4.9-3.1,7.4l-13.2,2.6c-4.1,0.8-7.1,4.4-7.1,8.6v10.4c0,4.2,2.9,7.8,7,8.6l13.2,2.6
			c0.8,2.5,1.9,5,3.1,7.4l-7.5,11.2c-2.3,3.5-1.8,8.1,1.1,11.1l7.3,7.3c3,3,7.6,3.5,11.2,1.2l11.1-7.5c2.4,1.2,4.9,2.2,7.4,3.1
			l2.6,13.2c0.8,4.1,4.4,7.1,8.6,7.1h10.4c4.2,0,7.8-2.9,8.6-7l2.6-13.2c2.5-0.8,5-1.9,7.4-3.1l11.2,7.5c3.5,2.3,8.1,1.8,11.1-1.1
			l7.3-7.3c3-3,3.5-7.6,1.2-11.2l-7.5-11.1c1.2-2.4,2.2-4.9,3.1-7.4l13.2-2.6c2.6-0.5,4.8-2.2,6.1-4.6l6.6,4.4
			c1.3,0.8,2.8,1.2,4.3,1.2c2.1,0,4.1-0.8,5.6-2.3l5.9-5.9c2.7-2.7,3.1-6.9,1-10l-5.7-8.5c0.8-1.7,1.5-3.4,2.1-5.1l10-2
			c3.7-0.7,6.4-4,6.4-7.8V112c0-3.8-2.7-7.1-6.4-7.8l-10-2c-0.6-1.8-1.3-3.5-2.1-5.1l5.8-8.6c2-3.2,1.5-7.3-1.1-9.9l-5.9-5.9
			c-2.7-2.7-6.9-3.1-10-1l-8.5,5.7c-1.7-0.8-3.4-1.5-5.1-2.1l-2-10c-0.7-3.7-4-6.4-7.8-6.4h-8.3c-3.8,0-7.1,2.7-7.8,6.4l-2,10
			c-1.8,0.6-3.5,1.3-5.1,2.1l-8.6-5.8c-3.2-2-7.3-1.5-9.9,1.1l-4,4c-0.6-0.1-1.1-0.2-1.7-0.2h-10.4C208,76.5,204.4,79.4,203.6,83.5z
			 M270.9,100.8l-2.1-2.1c7.6,1,13.7,6.9,15,14.5c1.3,7.6-2.6,15.1-9.5,18.6l-6.7-1.3c-0.8-2.5-1.9-5-3.1-7.4l7.5-11.2
			C274.4,108.4,273.9,103.8,270.9,100.8L270.9,100.8z M234.1,79.4l10.1,6.8c1.4,0.9,3.2,1,4.7,0.1c2.5-1.5,5.2-2.6,8.1-3.4
			c1.6-0.4,2.8-1.8,3.2-3.4l2.4-11.9h6.9l2.4,11.9c0.3,1.6,1.6,3,3.2,3.4c2.8,0.8,5.5,1.9,8.1,3.4c1.5,0.9,3.3,0.8,4.7-0.2l10.1-6.8
			l4.9,4.9l-6.8,10.1c-0.9,1.4-1,3.2-0.1,4.7c1.5,2.5,2.6,5.2,3.4,8.1c0.4,1.6,1.8,2.8,3.4,3.2l11.9,2.4v6.9l-11.9,2.4
			c-1.6,0.3-3,1.6-3.4,3.2c-0.8,2.8-1.9,5.5-3.4,8.1c-0.9,1.5-0.8,3.3,0.1,4.7l6.8,10.1l-4.9,4.9l-9.8-6.6v-4.5c0-2.6-1.1-5-3.1-6.7
			c7.8-7.5,10.2-18.9,6.1-28.9s-13.7-16.5-24.5-16.5c-2.7,0-5.3,0.5-7.8,1.3c-2.2-0.3-4.3,0.2-6.2,1.4l-11.1,7.5
			c-2.4-1.2-4.9-2.2-7.4-3.1l-2.6-13.2c-0.1-0.4-0.2-0.7-0.3-1L234.1,79.4z M209.1,101l3.2-15.8h10.4l3.2,15.8
			c0.3,1.6,1.6,2.9,3.2,3.4c3.6,1,7.1,2.4,10.4,4.3c1.5,0.8,3.3,0.8,4.7-0.1l13.3-8.9l7.4,7.3l-8.9,13.3c-0.9,1.4-1,3.2-0.1,4.7
			c1.9,3.3,3.3,6.8,4.3,10.4c0.4,1.6,1.7,2.8,3.4,3.2l15.8,3.1v10.4l-15.8,3.2c-1.6,0.3-2.9,1.6-3.4,3.2c-1,3.6-2.4,7.1-4.3,10.4
			c-0.8,1.5-0.8,3.3,0.1,4.7l8.9,13.3l-7.3,7.4l-13.3-8.9c-1.4-0.9-3.2-1-4.7-0.1c-3.3,1.9-6.8,3.3-10.4,4.3
			c-1.6,0.4-2.8,1.7-3.2,3.4l-3.2,15.8h-10.4l-3.2-15.8c-0.3-1.6-1.6-2.9-3.2-3.4c-3.6-1-7.1-2.4-10.4-4.3c-1.5-0.8-3.3-0.8-4.7,0.1
			l-13.3,8.9l-7.4-7.3l8.9-13.3c0.9-1.4,1-3.2,0.1-4.7c-1.9-3.3-3.3-6.8-4.3-10.4c-0.4-1.6-1.7-2.8-3.4-3.2l-15.8-3.2v-10.4
			l15.8-3.2c1.6-0.3,2.9-1.6,3.4-3.2c1-3.6,2.4-7.1,4.3-10.4c0.8-1.5,0.8-3.3-0.1-4.7l-8.9-13.3l7.3-7.4l13.3,8.9
			c1.4,0.9,3.2,1,4.7,0.1c3.3-1.9,6.8-3.3,10.4-4.3C207.5,104,208.7,102.7,209.1,101z"/>
		<path id="Shape_3_" class="st1" d="M217.4,177.8c17,0,30.8-13.8,30.8-30.8s-13.8-30.8-30.8-30.8s-30.8,13.8-30.8,30.8
			C186.6,164,200.4,177.8,217.4,177.8z M217.4,124.9c12.2,0,22,9.9,22,22s-9.9,22-22,22c-12.2,0-22-9.9-22-22
			C195.4,134.8,205.3,124.9,217.4,124.9z"/>
		<circle id="Oval" class="st1" cx="217.4" cy="147" r="4.4"/>
		<circle id="Oval_1_" class="st1" cx="98.5" cy="151.4" r="4.4"/>
	</g>
</g>
</svg>
