<?xml version="1.0" encoding="utf-8"?>

<svg version="1.1" id="Layer_1" xmlns="http://www.w3.org/2000/svg" xmlns:xlink="http://www.w3.org/1999/xlink" x="0px" y="0px"
	 viewBox="0 0 256 256" style="enable-background:new 0 0 256 256;" xml:space="preserve">
<style type="text/css">
	.st0{fill:url(#SVGID_1_);}
	.st1{fill:#FFFFFF;}
	.st2{fill-rule:evenodd;clip-rule:evenodd;fill:#FFFFFF;}
</style>
<g>
	<linearGradient id="SVGID_1_" gradientUnits="userSpaceOnUse" x1="17.1276" y1="63.9878" x2="238.8725" y2="192.0122">
		<stop  offset="0" style="stop-color:#E4729F"/>
		<stop  offset="1" style="stop-color:#78104D"/>
	</linearGradient>
	<path class="st0" d="M128,0c70.7,0,128,57.3,128,128s-57.3,128-128,128S0,198.7,0,128S57.3,0,128,0L128,0z"/>
	<path class="st1" d="M183.6,180.1l5.7,13.3c3.4,8.1-8.9,13.4-12.4,5.2l-5.8-13.7c-10.4-24.5-0.9-39.1,7.3-53.8
		c5.1-9,10.3-18.3,10.3-30.6c0-28.4-21.6-45.3-49-45.3c-22,0-48.2,11.3-57.2,32.5c-2.4,5.6-2.4,11.3-2.5,15.4c0,3.4-0.1,6.1-1.1,8.5
		c-4.2,10.1-11.8,16.3-16.5,25.1c2.7,0.9,5.1,1.1,7.6,2.7c4.4,2.8,3.8,6.3,3,11.1c-0.9,5.3-1.2,8,1.8,12.8c1.8,2.9,3.4,5.4,3.4,11.3
		c0,2.8,0.6,4.3,1.7,5.1c2.4,1.8,8,2.1,11.3,2.4c18.2,1.6,18.4,1.6,26,19c0.8,1.8,0.8,1.8,1.6,3.7c3.6,8.1-8.8,13.5-12.3,5.4
		c-0.6-1.4-0.9-2-1.6-3.8c-4.4-10-4.5-10.1-14.8-11c-1.5-0.1-2.9-0.2-4.4-0.4c-5.3-0.6-10-1.7-13.8-4.5c-4.5-3.3-7.1-8.3-7.1-15.9
		c0-2-0.6-3-1.3-4.1c-1.4-2.2-3-4.7-4-9.6c-0.9-4-0.4-7.8,0.1-11c-9.6-2.7-14.3-10.3-8.4-20.2c4.5-7.7,12.3-15.3,15.5-23.2
		c0-0.1,0.1-1.6,0.1-3.5c0.1-5.3,0.2-12.5,3.6-20.5c11.2-26.3,42.2-40.7,69.6-40.7c34.8,0,62.3,23,62.4,58.8
		c0,15.8-6.1,26.7-12,37.2C183.4,149.7,175.8,161.6,183.6,180.1L183.6,180.1z"/>
	<path class="st2" d="M155.3,87.5c2.2-0.1,4.1,1.6,4.3,3.8c0.2,3.9,0.3,5.2,0.5,9.1c0.1,2.8-3.5,3.9-5.1,1.5
		c-3.2-4.6-10.5-2.4-10.5,3.3c0,5.7,7.3,7.9,10.5,3.3c1.7-2.4,5.3-1.3,5.1,1.5c-0.2,3.9-0.4,9.2-0.6,13.2c-0.1,2.2-1.6,3.8-3.8,3.9
		c-3.9,0.2-9.2,0.4-13.1,0.6c-2.8,0.1-3.9-3.5-1.5-5.1c4.6-3.2,2.3-10.5-3.3-10.5s-7.9,7.3-3.3,10.5c2.4,1.7,1.3,5.3-1.5,5.1
		c-3.9-0.2-5.1-0.3-9.1-0.5c-2.2-0.1-3.9-2-3.8-4.2c0.2-3.9,0.4-7.8,0.6-11.7c0.1-1.4-1.8-2-2.7-0.7c-3.9,5.7-12.9,2.9-12.9-4.1
		c0-6.9,9-9.7,12.9-4.1c0.9,1.3,2.8,0.7,2.7-0.7c-0.2-3.8-0.4-7.6-0.6-11.5c-0.1-1.6,1.2-2.9,2.8-2.8c3.8,0.2,7.6,0.4,11.5,0.6
		c1.4,0.1,2-1.8,0.7-2.7c-5.7-3.9-2.9-12.9,4.1-12.9c6.9,0,9.7,9,4.1,12.9c-1.3,0.9-0.7,2.8,0.7,2.7
		C147.7,87.9,151.5,87.7,155.3,87.5L155.3,87.5z"/>
</g>
</svg>
