<?xml version="1.0" encoding="utf-8"?>

<svg version="1.1" id="Layer_1" xmlns="http://www.w3.org/2000/svg" xmlns:xlink="http://www.w3.org/1999/xlink" x="0px" y="0px"
	 viewBox="0 0 380 380" style="enable-background:new 0 0 380 380;" xml:space="preserve">
<style type="text/css">
	.st0{fill:#2B79C2;}
	.st1{fill:#3B4652;}
	.st2{fill-rule:evenodd;clip-rule:evenodd;fill:url(#SVGID_1_);}
	.st3{fill:#FFFFFF;}
</style>
<g>
	<path class="st0" d="M6076,3150.3h116v8h-116V3150.3L6076,3150.3z M6110.3,3088.1c-2.2-2.5-1.9-6.3,0.6-8.4
		c2.5-2.2,6.3-1.9,8.4,0.6l16.3,18.5l45.5-40.7c2.5-2.2,6.2-2,8.4,0.5c2.2,2.5,2,6.2-0.5,8.4l-49.8,44.5c-2.6,2.4-6.4,2.2-8.6-0.4
		L6110.3,3088.1L6110.3,3088.1z M6134,3060.4c10.5-10.6,25.6-12.3,37.7-4.4c-2,1.9-4.1,3.8-6.2,5.6c-10-5.2-21.2-2.2-28.4,7.3
		c-1.6,2.1-4.7,2.1-6.3,0c-15.2-19.9-40.9-6.9-40.9,13c0,7.4,5.3,15.9,12.5,23.9c9.4,10.3,22,19.3,31.5,24.1
		c9.5-4.7,22.1-13.8,31.5-24.1c5.1-5.5,9.1-11.3,11.2-16.8c3.1-2.6,6.2-5.3,9.3-8.1c0.7,23.2-32.9,48.9-50.3,57
		c-1.1,0.5-2.3,0.5-3.3,0l0,0c-17.1-8-50.3-33.5-50.3-56C6082,3055.7,6113.9,3039.8,6134,3060.4L6134,3060.4z M6076,3171.3h116v8
		h-116V3171.3L6076,3171.3z"/>
	<path class="st1" d="M6054.9,2997.3h26.1v12h-26.1c-2.2,0-4.2,0.9-5.6,2.4c-1.5,1.5-2.4,3.5-2.4,5.6v188c0,4.4,3.6,8,8,8H6213
		c4.4,0,8-3.6,8-8v-188c0-2.2-0.9-4.2-2.4-5.6c-1.5-1.5-3.5-2.4-5.6-2.4h-26v-12h26.1c5.5,0,10.5,2.2,14.1,5.9
		c3.6,3.6,5.9,8.6,5.9,14.1v188c0,11-9,20-20,20H6055c-11,0-20-9-20-20v-188c0-5.5,2.2-10.5,5.9-14.1
		C6044.4,2999.5,6049.4,2997.3,6054.9,2997.3L6054.9,2997.3z M6134,2969.3c5.8,0,11,0.4,14.8,4.2s6.2,9.1,6.2,14.8l0,0h24v30h-90
		v-30h24l0,0c0-5.8,2.4-11,6.2-14.8C6123,2969.6,6128.2,2969.3,6134,2969.3L6134,2969.3z M6140.4,2981.9c-1.6-1.6-3.9-2.6-6.4-2.6
		s-4.7,1-6.4,2.6s-2.6,3.9-2.6,6.4s1,4.7,2.6,6.4c1.5,1.5,3.6,2.5,5.9,2.6h0.9c2.3-0.1,4.4-1.1,5.9-2.6c1.6-1.6,2.6-3.9,2.6-6.4
		S6142,2983.6,6140.4,2981.9L6140.4,2981.9z"/>
</g>
<g>
	<linearGradient id="SVGID_1_" gradientUnits="userSpaceOnUse" x1="25.4277" y1="94.9841" x2="354.5723" y2="285.0159">
		<stop  offset="0" style="stop-color:#E4729F"/>
		<stop  offset="1" style="stop-color:#78104D"/>
	</linearGradient>
	<circle class="st2" cx="190" cy="190" r="190"/>
	<g>
		<path class="st3" d="M137.9,117C72.1,141.4,73.4,226.5,74,270.6c0,2.1,0.1,4,0.1,5.8c22,3,38.2,3.5,50.1,1
			c11.5-2.5,18.8-8.2,23.4-17.9c7.4-15.3,8-42.5,7.8-60.6l11.8-7.8c0.4,18,0.9,53.5-8.8,73.6c-6.4,13.3-16.2,21-31.7,24.4
			c-14.2,3.1-33.2,2.2-59.1-1.5c-3.1-0.3-5.5-2.8-5.5-6c0-4.8,0-7.7-0.1-10.8c-0.7-47-2-137.7,71.7-165c13.6-5.1,22-3,27.3,3.1
			c4.8,5.5,6,14,6,23.1v11.3l-12,7.9v-19.3c0-6.6-0.6-12.4-3-15.2C150,114.4,145.8,114.1,137.9,117L137.9,117z"/>
		<path class="st3" d="M246.3,105.8c73.6,27.3,72.3,118,71.7,165c0,3.1-0.1,6-0.1,10.8c0,3.1-2.4,5.7-5.5,6
			c-25.9,3.7-44.9,4.6-59.1,1.5c-15.5-3.4-25.3-11.1-31.7-24.4c-9.7-20.1-9.3-55.6-8.8-73.6l11.8,7.8c-0.2,18.1,0.4,45.3,7.8,60.6
			c4.7,9.7,11.9,15.4,23.4,17.9c11.8,2.6,28.1,2,50.1-1c0-1.7,0.1-3.7,0.1-5.8c0.6-44.1,1.9-129.2-63.9-153.6
			c-7.9-2.9-12.1-2.6-14.1-0.3c-2.4,2.8-3,8.6-3,15.2v19.3l-12-7.9V132c0-9.1,1.2-17.5,6-23.1C224.2,102.8,232.7,100.7,246.3,105.8
			L246.3,105.8z"/>
		<path class="st3" d="M193.3,159c48.1,31.9,54.8,36.2,91.3,82c1.4,1.7,1.1,4.2-0.6,5.6c-1.7,1.4-4.2,1.1-5.6-0.6
			c-8.8-11.1-15.9-19.7-22.2-26.8c0,2-0.1,3.9-0.3,5.8c-0.6,5.8-2,11.3-4.2,16.2c-0.9,2-3.3,2.9-5.3,2s-2.9-3.3-2-5.3
			c1.8-4.1,3-8.7,3.5-13.7c0.5-4.7,0.3-9.6-0.5-14.4c-14.9-15.2-28.3-24.1-57.5-43.4c-29.2,19.3-42.6,28.3-57.5,43.4
			c-0.8,4.8-0.9,9.7-0.5,14.4c0.5,4.9,1.7,9.6,3.5,13.7c0.9,2,0,4.4-2,5.3c-2,0.9-4.4,0-5.3-2c-2.2-4.8-3.6-10.4-4.2-16.2
			c-0.2-1.9-0.3-3.8-0.3-5.8c-6.3,7.1-13.4,15.8-22.2,26.8c-1.4,1.7-3.9,2-5.6,0.6s-2-3.9-0.6-5.6c36.5-45.8,43.2-50.2,91.3-82
			C189.6,157.1,190.4,157.1,193.3,159L193.3,159z M179.5,154.2c-42.2,27.9-51.9,34.3-78.8,67.1c-1.4,1.7-3.9,1.9-5.6,0.5
			s-1.9-3.9-0.5-5.6c12-14.6,20.7-24.1,30.1-32.5c-0.9,0.1-1.8,0.2-2.7,0.2c-8.5,0.4-16.4-1.5-22.1-5.1c-1.9-1.2-2.4-3.6-1.3-5.5
			c1.2-1.9,3.6-2.4,5.5-1.3c4.4,2.8,10.7,4.2,17.6,3.9c6.4-0.3,13.4-2.1,20-5.7c8.8-6.4,19.3-13.4,33.5-22.7
			c1.6-1.1,2.9-1.8,2.9-4.1V77v-3.9c0-2.2,1.8-4,4-4s4,1.8,4,4V77v66.4C186,148.6,183.5,151.5,179.5,154.2L179.5,154.2z M194,143.4
			c0-23.4,0-46.9,0-70.3c0-2.2,1.8-4,4-4s4,1.8,4,4V77l0,0v66.4c0,2.3,1.2,3,2.9,4.1c14.1,9.4,24.7,16.3,33.5,22.7
			c6.6,3.6,13.6,5.4,20,5.7c6.9,0.3,13.1-1.1,17.6-3.9c1.9-1.2,4.3-0.6,5.5,1.3c1.2,1.9,0.6,4.3-1.3,5.5c-5.8,3.6-13.6,5.5-22.1,5.1
			c-0.9,0-1.8-0.1-2.7-0.2c9.5,8.4,18.1,17.9,30.1,32.5c1.4,1.7,1.2,4.2-0.5,5.6c-1.7,1.4-4.2,1.2-5.6-0.5
			c-26.9-32.8-36.6-39.2-78.8-67.1C196.5,151.5,194,148.5,194,143.4L194,143.4z"/>
	</g>
</g>
</svg>
