<?xml version="1.0" encoding="utf-8"?>
<!-- Generator: Adobe Illustrator 24.1.0, SVG Export Plug-In . SVG Version: 6.00 Build 0)  -->
<svg version="1.1" id="Layer_1" xmlns="http://www.w3.org/2000/svg" xmlns:xlink="http://www.w3.org/1999/xlink" x="0px" y="0px"
	 viewBox="0 0 380 380" style="enable-background:new 0 0 380 380;" xml:space="preserve">
<style type="text/css">
	.st0{fill:#2B79C2;}
	.st1{fill:#3B4652;}
	.st2{fill-rule:evenodd;clip-rule:evenodd;fill:url(#SVGID_1_);}
	.st3{fill:#FFFFFF;}
	.st4{fill-rule:evenodd;clip-rule:evenodd;fill:#FFFFFF;}
</style>
<g>
	<path class="st0" d="M6076,3150.3h116v8h-116V3150.3L6076,3150.3z M6110.3,3088.1c-2.2-2.5-1.9-6.3,0.6-8.4
		c2.5-2.2,6.3-1.9,8.4,0.6l16.3,18.5l45.5-40.7c2.5-2.2,6.2-2,8.4,0.5c2.2,2.5,2,6.2-0.5,8.4l-49.8,44.5c-2.6,2.4-6.4,2.2-8.6-0.4
		L6110.3,3088.1L6110.3,3088.1z M6134,3060.4c10.5-10.6,25.6-12.3,37.7-4.4c-2,1.9-4.1,3.8-6.2,5.6c-10-5.2-21.2-2.2-28.4,7.3
		c-1.6,2.1-4.7,2.1-6.3,0c-15.2-19.9-40.9-6.9-40.9,13c0,7.4,5.3,15.9,12.5,23.9c9.4,10.3,22,19.3,31.5,24.1
		c9.5-4.7,22.1-13.8,31.5-24.1c5.1-5.5,9.1-11.3,11.2-16.8c3.1-2.6,6.2-5.3,9.3-8.1c0.7,23.2-32.9,48.9-50.3,57
		c-1.1,0.5-2.3,0.5-3.3,0l0,0c-17.1-8-50.3-33.5-50.3-56C6082,3055.7,6113.9,3039.8,6134,3060.4L6134,3060.4z M6076,3171.3h116v8
		h-116V3171.3L6076,3171.3z"/>
	<path class="st1" d="M6054.9,2997.3h26.1v12h-26.1c-2.2,0-4.2,0.9-5.6,2.4c-1.5,1.5-2.4,3.5-2.4,5.6v188c0,4.4,3.6,8,8,8H6213
		c4.4,0,8-3.6,8-8v-188c0-2.2-0.9-4.2-2.4-5.6c-1.5-1.5-3.5-2.4-5.6-2.4h-26v-12h26.1c5.5,0,10.5,2.2,14.1,5.9
		c3.6,3.6,5.9,8.6,5.9,14.1v188c0,11-9,20-20,20H6055c-11,0-20-9-20-20v-188c0-5.5,2.2-10.5,5.9-14.1
		C6044.4,2999.5,6049.4,2997.3,6054.9,2997.3L6054.9,2997.3z M6134,2969.3c5.8,0,11,0.4,14.8,4.2s6.2,9.1,6.2,14.8l0,0h24v30h-90
		v-30h24l0,0c0-5.8,2.4-11,6.2-14.8C6123,2969.6,6128.2,2969.3,6134,2969.3L6134,2969.3z M6140.4,2981.9c-1.6-1.6-3.9-2.6-6.4-2.6
		s-4.7,1-6.4,2.6s-2.6,3.9-2.6,6.4s1,4.7,2.6,6.4c1.5,1.5,3.6,2.5,5.9,2.6h0.9c2.3-0.1,4.4-1.1,5.9-2.6c1.6-1.6,2.6-3.9,2.6-6.4
		S6142,2983.6,6140.4,2981.9L6140.4,2981.9z"/>
</g>
<g>
	<linearGradient id="SVGID_1_" gradientUnits="userSpaceOnUse" x1="55.6497" y1="55.6497" x2="324.3503" y2="324.3503">
		<stop  offset="0" style="stop-color:#00D8FF"/>
		<stop  offset="1" style="stop-color:#367AD8"/>
	</linearGradient>
	<circle class="st2" cx="190" cy="190" r="190"/>
	<g>
		<path class="st3" d="M118.4,317.3c0.1,1.1-10.4,0.5-12,0.5c-1.8-19.4-2.5-42.2-2.4-61.7c0.1-18,5-58.9,12.9-75.9
			c1.2-2.5,2-3.7,3.9-5.9c9.6-10.9,30.4-21.8,42.4-26.3c2.7-1,5.7,0.1,7.1,2.4c4.3,6.4,13,13.1,19.6,17.5c7-4.7,15-10.8,19.7-17.7
			c1.6-2.3,4.5-3.2,7-2.2l0,0c13.3,4.9,37.2,17.7,45,29.6c0.2,0.3,0.4,0.7,0.5,1c8.6,17.7,13.6,57,13.7,77.3
			c0.1,19.8-1,41.8-2.4,61.7h-12c0.5-20.7,2.5-40.6,2.5-61.7c-0.1-17.7-4.9-56.8-12.3-71.8c-5.9-8.7-25.3-19.2-35-23.3
			c-6.6,7.9-14.8,13.5-23.3,19.2c-1.9,1.3-4.5,1.4-6.6,0.1c-8.3-5.4-17-11.6-23.4-19.2c-9.8,4.1-29.2,14.6-35,23.3
			c-7.4,15-12.2,54.2-12.3,71.8C115.9,274.7,116.2,299.1,118.4,317.3L118.4,317.3z M190,62c24.2,0,36.9,22.1,33.7,44.1
			c-1.7,11.5-5.8,22-11.4,29.6c-12.8,17.1-31.8,17.1-44.6,0c-6.5-8.7-11.9-23.7-11.9-36.3C155.8,79.4,168.7,62,190,62L190,62z
			 M193.6,74.3c-18.1-2.6-27.9,13.2-25.4,30.2c1.4,9.6,4.7,18.1,9.1,24.1c7.9,10.6,17.5,10.6,25.3,0c5-6.7,9.5-19,9.5-29.2
			C212.2,87.6,206.1,76.1,193.6,74.3L193.6,74.3z"/>
		<path class="st4" d="M245,197.8H135V318h110V197.8L245,197.8z M156,279.8c0-2.2,1.8-4,4-4h26v-8h-32c-2.2,0-4-1.8-4-4s1.8-4,4-4
			h32v-8h-37c-2.2,0-4-1.8-4-4s1.8-4,4-4h37v-8h-32c-2.2,0-4-1.8-4-4s1.8-4,4-4h32v-8h-19c-2.2,0-4-1.8-4-4s1.8-4,4-4h19v-3
			c0-2.2,1.8-4,4-4s4,1.8,4,4v3h19.1c2.2,0,4,1.8,4,4s-1.8,4-4,4H194v8h32.1c2.2,0,4,1.8,4,4s-1.8,4-4,4H194v8h37.1c2.2,0,4,1.8,4,4
			s-1.8,4-4,4H194v8h32.1c2.2,0,4,1.8,4,4s-1.8,4-4,4H194v8h26h0.1c2.2,0,4,1.8,4,4c0,0.3,0,0.6-0.1,0.8v9.2c0,4.9-2,8.6-4.8,10.9
			c-1.6,1.3-3.5,2.1-5.4,2.5c-2,0.3-4,0.1-6-0.6c-3.3-1.2-6.1-4-7.6-8.5l-3.3-10.2H194v16c0,2.2-1.8,4-4,4s-4-1.8-4-4v-16h-2.9
			l-3.3,10.2c-1.5,4.5-4.3,7.3-7.6,8.5c-1.9,0.7-4,0.9-6,0.6s-3.8-1.2-5.4-2.5c-2.8-2.3-4.8-6-4.8-10.9V279.8L156,279.8z
			 M174.7,283.8H164v6c0,2.2,0.8,3.8,1.8,4.6c0.5,0.4,1.1,0.7,1.7,0.8c0.6,0.1,1.2,0,1.8-0.2c1.1-0.4,2.2-1.6,2.8-3.5L174.7,283.8
			L174.7,283.8z M216,283.8h-10.7l2.5,7.8c0.6,1.9,1.7,3,2.8,3.5c0.6,0.2,1.2,0.3,1.8,0.2c0.6-0.1,1.2-0.4,1.8-0.8
			c1.1-0.9,1.8-2.4,1.8-4.6L216,283.8L216,283.8z"/>
	</g>
</g>
</svg>
