<?xml version="1.0" encoding="utf-8"?>
<!-- Generator: Adobe Illustrator 24.1.0, SVG Export Plug-In . SVG Version: 6.00 Build 0)  -->
<svg version="1.1" id="Layer_1" xmlns="http://www.w3.org/2000/svg" xmlns:xlink="http://www.w3.org/1999/xlink" x="0px" y="0px"
	 viewBox="0 0 380 380" style="enable-background:new 0 0 380 380;" xml:space="preserve">
<style type="text/css">
	.st0{fill:#2B79C2;}
	.st1{fill:#3B4652;}
	.st2{fill:url(#SVGID_1_);}
	.st3{fill:#CC0001;}
</style>
<g>
	<path class="st0" d="M6076,3150.3h116v8h-116V3150.3L6076,3150.3z M6110.3,3088.1c-2.2-2.5-1.9-6.3,0.6-8.4
		c2.5-2.2,6.3-1.9,8.4,0.6l16.3,18.5l45.5-40.7c2.5-2.2,6.2-2,8.4,0.5c2.2,2.5,2,6.2-0.5,8.4l-49.8,44.5c-2.6,2.4-6.4,2.2-8.6-0.4
		L6110.3,3088.1L6110.3,3088.1z M6134,3060.4c10.5-10.6,25.6-12.3,37.7-4.4c-2,1.9-4.1,3.8-6.2,5.6c-10-5.2-21.2-2.2-28.4,7.3
		c-1.6,2.1-4.7,2.1-6.3,0c-15.2-19.9-40.9-6.9-40.9,13c0,7.4,5.3,15.9,12.5,23.9c9.4,10.3,22,19.3,31.5,24.1
		c9.5-4.7,22.1-13.8,31.5-24.1c5.1-5.5,9.1-11.3,11.2-16.8c3.1-2.6,6.2-5.3,9.3-8.1c0.7,23.2-32.9,48.9-50.3,57
		c-1.1,0.5-2.3,0.5-3.3,0l0,0c-17.1-8-50.3-33.5-50.3-56C6082,3055.7,6113.9,3039.8,6134,3060.4L6134,3060.4z M6076,3171.3h116v8
		h-116V3171.3L6076,3171.3z"/>
	<path class="st1" d="M6054.9,2997.3h26.1v12h-26.1c-2.2,0-4.2,0.9-5.6,2.4c-1.5,1.5-2.4,3.5-2.4,5.6v188c0,4.4,3.6,8,8,8H6213
		c4.4,0,8-3.6,8-8v-188c0-2.2-0.9-4.2-2.4-5.6c-1.5-1.5-3.5-2.4-5.6-2.4h-26v-12h26.1c5.5,0,10.5,2.2,14.1,5.9
		c3.6,3.6,5.9,8.6,5.9,14.1v188c0,11-9,20-20,20H6055c-11,0-20-9-20-20v-188c0-5.5,2.2-10.5,5.9-14.1
		C6044.4,2999.5,6049.4,2997.3,6054.9,2997.3L6054.9,2997.3z M6134,2969.3c5.8,0,11,0.4,14.8,4.2s6.2,9.1,6.2,14.8l0,0h24v30h-90
		v-30h24l0,0c0-5.8,2.4-11,6.2-14.8C6123,2969.6,6128.2,2969.3,6134,2969.3L6134,2969.3z M6140.4,2981.9c-1.6-1.6-3.9-2.6-6.4-2.6
		s-4.7,1-6.4,2.6s-2.6,3.9-2.6,6.4s1,4.7,2.6,6.4c1.5,1.5,3.6,2.5,5.9,2.6h0.9c2.3-0.1,4.4-1.1,5.9-2.6c1.6-1.6,2.6-3.9,2.6-6.4
		S6142,2983.6,6140.4,2981.9L6140.4,2981.9z"/>
</g>
<g>
	<linearGradient id="SVGID_1_" gradientUnits="userSpaceOnUse" x1="25.4277" y1="285.0159" x2="354.5723" y2="94.9841">
		<stop  offset="0" style="stop-color:#C8C6C6"/>
		<stop  offset="2.148926e-03" style="stop-color:#C8C6C6"/>
		<stop  offset="0.3901" style="stop-color:#E2E1E1"/>
		<stop  offset="0.7352" style="stop-color:#F1F1F1"/>
		<stop  offset="1" style="stop-color:#F7F7F7"/>
	</linearGradient>
	<circle class="st2" cx="190" cy="190" r="190"/>
</g>
<g>
	<path class="st3" d="M40,216.4c1.8-5.7,5.7-9.3,11.2-11.4c6.6-2.5,11.2-7,15.1-12.8c6-9,12.5-17.7,18.8-26.5
		c0.4-0.6,0.8-1.1,1.2-1.7c1.8-2.2,4.3-2.7,6.5-1.3c2.2,1.5,2.9,4.3,1.2,6.7c-8.4,11.8-16.7,23.6-25.3,35.2
		c-3.8,5.2-10,6.9-15.4,9.9c-1.3,0.7-2.5,1.8-3.8,2.7c0.1,0.2,0.3,0.5,0.4,0.7c31,0,61.9,0,93,0c0-2.9,0-5.8,0-9.2c-0.9,0-2,0-3,0
		c-18.7,0-37.3,0-56,0c-2.5,0-4.7-0.2-6-2.7c-1.2-2.4,0-4.3,1.4-6.2c11-15.1,22-30.1,32.9-45.2c3.4-4.7,7.8-7.1,13.7-6.9
		c5.6,0.1,11.3,0,17,0c0-1.6,0-3,0-4.5c-0.6-0.1-1.1-0.2-1.7-0.2c-7,0-14.1,0-21.1,0c-4.9,0-8.9,2-11.8,6c-1.4,2-2.8,4-4.3,5.9
		c-1.9,2.4-4.5,2.8-6.7,1.2c-2-1.5-2.5-4.2-0.9-6.5c3.5-5,6.7-10.3,12.5-13.3c0.7-0.3,1.1-1.6,1.2-2.5c0.3-2.8,0-5.7,0.6-8.4
		c1.6-6.8,8.1-11.1,15-10.4c6.8,0.7,12.2,6.4,12.5,13.3c0.1,1.6,0,3.3,0,5.1c1.6,0,3,0,4.7,0c0-1.4,0-2.9,0-4.3
		c0.1-8.2,6.1-14.2,14.3-14.2c17.4-0.1,34.8,0,52.1,0c37.5,0,75,0.1,112.5-0.1c8.8-0.1,14.9,2.7,17.9,11.2c0,48.8,0,97.7,0,146.5
		c-0.2,0.2-0.4,0.4-0.5,0.7c-2.6,7.2-7.1,10.4-14.8,10.5c-4.5,0-9,0.1-13.5,0c-1.9-0.1-2.9,0.5-3.8,2.2c-12.6,22-44,22.1-56.7,0.2
		c-1.1-1.9-2.3-2.4-4.3-2.4c-28.6,0.1-57.2,0-85.8,0.1c-4.7,0-9.2-0.3-12.9-3.7c-4,3.7-8.8,3.9-13.6,3.6c-2.5-0.2-3.9,0.5-5.3,2.9
		c-12.5,21-43,21.2-55.7,0.3c-1.6-2.6-3.2-3.4-6-3.2c-3.1,0.2-6.3-0.2-9.4,0.1c-8.8,0.7-14.9-2.6-17.9-11.2
		C40,253.9,40,235.1,40,216.4z M330.6,218.1c0-1.4,0-2.4,0-3.3c0-27.8,0-55.7,0-83.5c0-5.6-1.3-6.9-6.8-6.9c-54.8,0-109.6,0-164.3,0
		c-5.6,0-6.9,1.3-6.9,6.8c0,27.8,0,55.7,0,83.5c0,1,0,2.1,0,3.4c1.3,0,2.4,0,3.4,0c11.9,0,23.8,0,35.7,0c1.1,0,2.2-0.1,3.2,0
		c2.6,0.2,4.4,2.1,4.5,4.5c0.1,2.5-1.8,4.5-4.6,4.8c-0.8,0.1-1.6,0-2.3,0c-12.2,0-24.4,0-36.6,0c-1,0-2.1,0-3.1,0c0,3.3,0,6.3,0,9.2
		c59.4,0,118.5,0,177.7,0c0-3.1,0-6.1,0-9.2c-1.3,0-2.5,0-3.6,0c-37,0-74,0-111,0c-1,0-2,0.1-2.9-0.1c-2.5-0.5-4-2-4-4.6
		s1.5-4.1,4.1-4.6c0.9-0.2,1.9-0.1,2.9-0.1c37,0,74,0,111,0C328,218.1,329.1,218.1,330.6,218.1z M255.8,246.5c-34.7,0-69,0-103.3,0
		c0,7.1,0,14.1,0,21c0,5.6,1.3,6.9,6.8,6.9c28,0,56.1,0,84.1,0c1,0,1.9,0,3.1,0C245.3,263.6,248.3,254.5,255.8,246.5z M143,157.2
		c-5.8,0-11.2,0.1-16.7-0.1c-3.1-0.1-5.1,1.1-6.8,3.5c-8.8,12.2-17.6,24.3-26.4,36.4c-0.4,0.6-0.8,1.2-1.4,2c17.3,0,34.3,0,51.3,0
		C143,185.2,143,171.3,143,157.2z M77.5,269.7c0,12.8,10.5,23.4,23.2,23.4c13.1,0.1,23.7-10.5,23.6-23.6c0-12.8-10.6-23.2-23.4-23.3
		C88,246.2,77.5,256.8,77.5,269.7z M279.2,246.3c-13,0-23.5,10.5-23.6,23.4c0,12.8,10.4,23.4,23.2,23.5
		c13.1,0.1,23.7-10.5,23.7-23.5C302.5,256.8,292,246.3,279.2,246.3z M143,227.7c-31.3,0-62.4,0-93.4,0c0,3.2,0,6.1,0,9
		c31.2,0,62.2,0,93.4,0C143,233.7,143,230.8,143,227.7z M49.4,246.4c0,7.9,0,15.5,0,23.1c0,2.7,1.5,4.6,4.2,4.8
		c4.8,0.2,9.7,0.1,14.8,0.1c-1.3-10.8,1.9-19.9,9.3-28C68,246.4,58.9,246.4,49.4,246.4z M311.6,274.4c4.8,0,9.1,0,13.5,0
		c3.8,0,5.5-1.8,5.5-5.6c0-6.6,0-13.3,0-19.9c0-0.8-0.1-1.7-0.2-2.4c-9.4,0-18.6,0-28.2,0C309.7,254.4,312.8,263.6,311.6,274.4z
		 M143.1,246.5c-6.4,0-12.5,0-18.9,0c7.5,8,10.5,17.2,9.3,27.9c1.8,0,3.3,0.1,4.8,0c2.9-0.2,4.7-1.9,4.8-4.9
		C143.2,261.9,143.1,254.3,143.1,246.5z M119.8,133.6c3.2,0,6.1,0,9.2,0c-0.1-3.1,1.1-6.4-2.1-8.3c-1.3-0.7-3.8-0.7-5.1,0
		C118.6,127.2,119.8,130.6,119.8,133.6z"/>
	<path class="st3" d="M119.7,86.8c0-1.6-0.1-3.1,0-4.7c0.2-2.8,2.1-4.7,4.7-4.6c2.4,0,4.5,1.8,4.6,4.4c0.2,3.3,0.2,6.6,0,10
		c-0.1,2.6-2.2,4.4-4.7,4.3c-2.4,0-4.3-1.8-4.6-4.4c0-0.2,0-0.4,0-0.6C119.7,89.8,119.7,88.3,119.7,86.8z"/>
	<path class="st3" d="M143.9,105.6c-0.8,0.2-1.7,0.1-2.4-0.4c-0.8-0.5-1.8-1.1-2.2-2c-0.6-1.3-0.7-3.5,0-4.6
		c1.7-2.3,3.9-4.4,6.1-6.2c1.7-1.4,3.7-1.1,5.4,0.4c1.6,1.4,2.6,3.5,1.2,5.2c-2,2.6-4.6,4.9-7.1,7.2
		C144.7,105.4,144.3,105.4,143.9,105.6z"/>
	<path class="st3" d="M97.5,93.6c1.7-2,4.8-2.3,6.8-0.5c0,0,0,0,0,0c1.6,1.4,3.1,2.9,4.5,4.5c1.9,2.1,1.8,4.7,0,6.6s-4.4,2-6.5,0.1
		c-1.7-1.5-3.6-3.1-4.8-5c-0.8-1.3-1.1-3.4-0.6-4.8C97,94.2,97.2,93.9,97.5,93.6z"/>
	<path class="st3" d="M272.1,161.9c-1-1.4-2-2.8-3.1-4.2c-4.4-5.1-10-8.2-16.6-9.1c-9.5-1.3-17.8,1.4-24.4,8.4
		c-4.9,5.2-7.3,11.6-6.8,18.7c0.6,9,5,15.9,12.7,20.6c11.2,6.8,25.8,4.7,34.6-4.8c1.2-1.4,2.2-3,3.3-4.4c0.1-0.2,0.2-0.3,0.4-0.4
		c-0.1,0.3-0.2,0.5-0.3,0.8c-5,10.8-13.3,17.5-25,19.7c-15.3,2.9-30.7-5.3-37-19.4c-7.9-17.8,1.1-38.6,19.6-45
		c16.9-5.9,35.4,2.1,42.5,18.4C271.9,161.4,272,161.7,272.1,161.9z"/>
	<path class="st3" d="M115,269.6c0,7.8-6.4,14.2-14.1,14.1c-7.6,0-13.9-6.3-14-14c0-7.8,6.3-14.1,14.1-14.1
		C108.7,255.6,115,262,115,269.6z M101,265c-2.5,0-4.7,2-4.7,4.5c-0.1,2.5,1.9,4.7,4.5,4.8c2.6,0.1,4.9-2.1,4.9-4.7
		C105.6,267.2,103.5,265.1,101,265z"/>
	<path class="st3" d="M279.1,283.7c-7.7,0-14-6.2-14.1-13.8c-0.1-7.8,6.2-14.2,14-14.2c7.6-0.1,14,6.2,14.1,13.8
		C293.2,277.3,286.9,283.7,279.1,283.7z M283.7,269.6c0-2.5-2.1-4.6-4.7-4.6c-2.5,0-4.6,2.1-4.7,4.6c0,2.6,2.2,4.8,4.8,4.7
		C281.7,274.3,283.8,272.1,283.7,269.6z"/>
</g>
</svg>
