<?xml version="1.0" encoding="utf-8"?>

<svg version="1.1" id="Layer_1" xmlns="http://www.w3.org/2000/svg" xmlns:xlink="http://www.w3.org/1999/xlink" x="0px" y="0px"
	 viewBox="0 0 380 380" style="enable-background:new 0 0 380 380;" xml:space="preserve">
<style type="text/css">
	.st0{fill:#2B79C2;}
	.st1{fill:#3B4652;}
	.st2{fill-rule:evenodd;clip-rule:evenodd;fill:url(#SVGID_1_);}
	.st3{fill:#FFFFFF;}
</style>
<g>
	<path class="st0" d="M6076,3150.3h116v8h-116V3150.3L6076,3150.3z M6110.3,3088.1c-2.2-2.5-1.9-6.3,0.6-8.4
		c2.5-2.2,6.3-1.9,8.4,0.6l16.3,18.5l45.5-40.7c2.5-2.2,6.2-2,8.4,0.5c2.2,2.5,2,6.2-0.5,8.4l-49.8,44.5c-2.6,2.4-6.4,2.2-8.6-0.4
		L6110.3,3088.1L6110.3,3088.1z M6134,3060.4c10.5-10.6,25.6-12.3,37.7-4.4c-2,1.9-4.1,3.8-6.2,5.6c-10-5.2-21.2-2.2-28.4,7.3
		c-1.6,2.1-4.7,2.1-6.3,0c-15.2-19.9-40.9-6.9-40.9,13c0,7.4,5.3,15.9,12.5,23.9c9.4,10.3,22,19.3,31.5,24.1
		c9.5-4.7,22.1-13.8,31.5-24.1c5.1-5.5,9.1-11.3,11.2-16.8c3.1-2.6,6.2-5.3,9.3-8.1c0.7,23.2-32.9,48.9-50.3,57
		c-1.1,0.5-2.3,0.5-3.3,0l0,0c-17.1-8-50.3-33.5-50.3-56C6082,3055.7,6113.9,3039.8,6134,3060.4L6134,3060.4z M6076,3171.3h116v8
		h-116V3171.3L6076,3171.3z"/>
	<path class="st1" d="M6054.9,2997.3h26.1v12h-26.1c-2.2,0-4.2,0.9-5.6,2.4c-1.5,1.5-2.4,3.5-2.4,5.6v188c0,4.4,3.6,8,8,8H6213
		c4.4,0,8-3.6,8-8v-188c0-2.2-0.9-4.2-2.4-5.6c-1.5-1.5-3.5-2.4-5.6-2.4h-26v-12h26.1c5.5,0,10.5,2.2,14.1,5.9
		c3.6,3.6,5.9,8.6,5.9,14.1v188c0,11-9,20-20,20H6055c-11,0-20-9-20-20v-188c0-5.5,2.2-10.5,5.9-14.1
		C6044.4,2999.5,6049.4,2997.3,6054.9,2997.3L6054.9,2997.3z M6134,2969.3c5.8,0,11,0.4,14.8,4.2s6.2,9.1,6.2,14.8l0,0h24v30h-90
		v-30h24l0,0c0-5.8,2.4-11,6.2-14.8C6123,2969.6,6128.2,2969.3,6134,2969.3L6134,2969.3z M6140.4,2981.9c-1.6-1.6-3.9-2.6-6.4-2.6
		s-4.7,1-6.4,2.6s-2.6,3.9-2.6,6.4s1,4.7,2.6,6.4c1.5,1.5,3.6,2.5,5.9,2.6h0.9c2.3-0.1,4.4-1.1,5.9-2.6c1.6-1.6,2.6-3.9,2.6-6.4
		S6142,2983.6,6140.4,2981.9L6140.4,2981.9z"/>
</g>
<g>
	
		<linearGradient id="SVGID_1_" gradientUnits="userSpaceOnUse" x1="25.4277" y1="2444.9841" x2="354.5723" y2="2635.0159" gradientTransform="matrix(1 0 0 1 0 -2350)">
		<stop  offset="0" style="stop-color:#E4729F"/>
		<stop  offset="1" style="stop-color:#78104D"/>
	</linearGradient>
	<circle class="st2" cx="190" cy="190" r="190"/>
</g>
<g id="Cow_3_">
	<path class="st3" d="M29.8,158.7c1.5,2.1,4.6,3.5,9.6,4.3c3.7,0.6,8.3,0.9,14.6,0.8c2.9,0,5.8-0.1,8.6-0.2
		c6.5-0.2,12.6-0.3,14.3,0.5c1,0.5,3.5,2.9,9.6,13.1c3.7,6.3,7.2,12.9,8.9,16.3c0.5,1,1,2.1,1.4,3.2c3.3,9.4,6.9,16.8,10.8,22
		c3.1,4.1,6.3,6.8,9.5,8.1c2.9,1.1,5.1,0.9,6.4,0.6c0,4.2,0.2,19.3,0.9,21.4c0.4,1.1,0.8,2,1.2,2.6c0.4,0.7,0.7,1.3,0.8,2
		c0.1,1.4,0,13.5-3.1,19.1c-1.4,2.5-4.2,5.5-6.7,8.2c-3.3,3.5-4.9,5.3-4.7,6.5c0.1,0.4,0.3,0.7,0.7,0.9c1.3,0.6,5.9,0.8,9.7,0.7
		c2.3-0.1,4.3-0.2,5.9-0.5c2.1-0.3,3.3-0.8,3.9-1.5c0.4-0.5,0.6-1.2,0.8-2c0.2-0.7,0.4-1.4,0.8-2c0.6-0.9,1.4-1.8,2.3-2.7
		c1.2-1.2,1.8-2.7,1.8-4.3c0.2-15.2,0.7-25.5,1.5-27c1.6-3.3,2.4-7.1,2.9-10c1.3,5,3.5,12.9,5.6,16.9c3,5.5,1.8,20.2,0.8,23.5
		c-0.4,1.4-2.5,3.6-4.3,5.6c-2.8,3.1-4.8,5.3-3.7,6.8c0.5,0.6,1.5,1,3.5,1.2c1.4,0.2,3.2,0.3,5.4,0.3c3.7,0,7.9-0.2,9.6-0.4
		c1.4-0.1,2.7-1.6,3.9-4.5c0.4-1,0.4-1.7,0.4-2.4c0-0.5,0-0.9,0.2-1.4c0.2-0.5,0.4-1.1,0.8-1.8c0.7-1.3,0.9-2.8,0.7-4.3l-2-18.7
		l-0.1-16.3c0-5.6-0.7-16-1-19.6c2.9,1.6,13.7,6.1,42.9,5.7c28.1-0.4,37.5-6.9,43.6-13.6c3.3,5.5,9.5,8.5,12.3,9.9
		c0.3,0.2,0.7,0.4,1,0.5c0,1-0.1,2-0.1,3c-0.1,1.5-0.2,3.1-0.1,4.6c0.1,2.4,0.5,4.9,3.5,5.2c1,0.1,2-0.3,2.8-1
		c0.9-0.8,1.4-2.1,1.4-3.4l0-0.1c-0.1-1.4,0-4,0.8-4.8c0.2-0.2,0.4-0.3,0.8-0.2c0.5,0.1,0.9,0.9,1.2,2.3c0.3,1.5,0.4,3.5,0.4,5
		c0,4,2.6,4.6,4.1,4.6c0.7,0,1.5-0.3,2.1-0.8c-1.1,24-13.7,36.2-18,39.6c-4,3.3-5.2,4.6-4.8,5.8c0.3,1.1,1.7,1.2,2.2,1.3
		c0.2,0,0.5,0.1,0.9,0.2c2.3,0.4,7.8,1.5,15.7-0.1c1.8-0.4,4.8-3.8,6.7-6.9c0.2-0.4,0.8-0.7,1.3-1.1c1.2-0.8,2.9-1.9,2.3-4.4
		c-0.7-2.7,3.4-12.8,7.4-22.5c2.8-6.9,5.7-14,7.6-20c1.5,1.3,5.1,6.5,6,25.1c1.1,22.6-7.1,29.3-10.2,31.8c-0.3,0.2-0.5,0.4-0.7,0.6
		c-0.6,0.6-0.6,1.2-0.3,1.6c0.2,0.4,0.9,1.5,8.8,1.6c0.4,0,0.7,0,1.1,0c3.3,0,7.1-0.2,8.5-0.8c2.3-0.9,3.2-4.2,4-6.7
		c0.3-1,0.5-1.9,0.8-2.5c0.4-0.7,0.8-1.2,1.3-1.7c0.8-0.8,1.8-1.8,1.1-3.7c-1.2-3.6-0.7-18.9,1.3-38.9c0.2-1.7,0.6-3.7,1-5.9
		c0.9-4.4,2-9.4,1.1-13.2c-0.7-3.3-2.1-6.9-3.5-10.7c-2.2-6-4.5-12.2-4.9-18.2c-0.7-9.7,1.4-20.4,3.5-30.7c0.7-3.5,1.4-6.9,1.9-10.2
		c0.6,8.4,0.4,17.7,0.2,26.5c-0.2,7.5,1.7,14.7,3.3,21c0.1,0.4,0.2,0.8,0.3,1.1c-0.6,1.5-1,3.4-1,4.8c0,1.7,1.5,7.5,3.2,13
		c1,2.9,1.9,5.4,2.8,7.2c1.2,2.6,2.1,3.6,3.1,3.6c0.3,0,0.7-0.1,1.1-0.6c0.4-0.4,1.4-1.8,1.2-11.9c-0.1-4.9-0.5-10.2-0.8-11.5
		c-0.5-2.1-2-6.1-4.2-7.5c-1.5-5.8-3.1-12.3-3-19.1c0.2-10.7,0.5-21.8-0.6-31.5c-1.3-11.6-4.3-19.4-9.3-23.8c-2.2-2-4.9-3.3-7.8-3.9
		c-4.7-1.8-10.4-2.6-17.6-2.6c-0.1,0-0.3,0-0.4,0c-9.7,0-21.2,1.6-33.4,3.3c-12.6,1.7-26.8,3.7-41.3,4.2
		c-24.5,0.9-46.8-1.5-61.5-3.1c-8.5-0.9-14.6-1.6-17.7-1.3c-16,1.6-29.2,0.7-39-2.7c-7.8-2.7-11.2-6.1-12.6-7.5
		c-0.3-0.3-0.4-0.4-0.6-0.6c-0.4-0.3-0.1-1.3,0.2-2.3c0.5-1.7,1.1-4.1-1.1-5.4c-1.5-0.9-3.6-2.8-5.7-4.7c-4-3.6-6.6-5.8-8.3-5.8
		c-0.8,0-1.2,0.5-1.3,0.7c-0.3,0.6-0.5,1.7,1.3,5.1c0.4,0.7,0.8,1.4,1.1,1.9c-1.1,0-2.7,0.3-4.3,1.2c-0.8,0.5-3.4-0.3-8.4-3.9
		c-3.6-2.6-7-5.7-7.7-6.5c-0.8-0.9-1.7-0.9-2.2-0.5c-1.3,0.9-1.3,4.3,1.3,8.7c1.4,2.4,3.8,4.1,5.8,5.6c3.4,2.5,5.2,3.9,3.9,6.7
		c-9.7,6.7-12.9,11.2-12.1,17c-0.2,0.6-2,3.4-5.2,7.1c-3.5,4.1-6.8,7.2-9.2,8.6c-4.3,2.5-6.4,4.7-6.9,7.3
		C25.1,150.7,26.3,154,29.8,158.7z M327.3,197.1c0.2-0.1,0.3-0.1,0.5-0.1c1.5,0,3.3,3.2,4.1,5.9c-0.5-0.4-1-0.9-1.5-1.3
		c-0.6-0.6-1.1-1.1-1.7-1.7c0.3,0.7,0.6,1.5,1,2.2c0.4,0.7,0.7,1.5,1.1,2.2c0.4,0.7,0.8,1.4,1.3,2.1l0.2,0.3l0.1,0.1
		c0.1,1.2,0.2,2.6,0.3,4.1c-0.4-0.6-0.8-1.2-1.2-1.9c-0.5-0.8-0.9-1.6-1.4-2.4c0.2,0.9,0.3,1.8,0.6,2.7c0.2,0.9,0.5,1.8,0.7,2.7
		c0.3,0.9,0.6,1.8,1,2.7c0.1,0.3,0.3,0.6,0.4,0.9c0,1.4,0,2.6,0,3.7c-0.4-0.6-0.7-1.2-1.1-1.8c-0.4-0.8-0.8-1.5-1.2-2.3
		c0.1,0.9,0.2,1.7,0.4,2.6c0.2,0.9,0.3,1.7,0.6,2.6c0.1,0.2,0.1,0.4,0.2,0.6c0.1,0.2,0.1,0.4,0.2,0.6l0.2,0.7l0.2,0.7
		c0.1,0.2,0.2,0.4,0.3,0.7c-0.1,0.5-0.1,0.9-0.2,1.3C329.5,220.6,325.5,206,327.3,197.1z M323,173.6c0.2-4.7,1.3-23.5,0-35.5
		c0.5,2.2,0.9,4.7,1.2,7.3c1.1,9.6,0.8,20.7,0.6,31.3c-0.1,6.4,1.2,12.4,2.6,17.9c-1.6-0.9-2.9-4.2-3.5-6.8
		c-0.1-0.4-0.1-0.8-0.2-1.1c0-0.1,0-0.2-0.1-0.3C323,181.7,322.9,177.4,323,173.6z M113.8,125.5c0.3,1.6,0.2,3.2-0.2,4.8l0,0.1
		l0,0.1l-0.1,0.3c0,0.1-0.1,0.2-0.1,0.3l-0.1,0.3c-0.1,0.2-0.2,0.4-0.2,0.6c-0.1,0.2-0.2,0.4-0.3,0.5c-0.4,0.7-0.8,1.4-1.3,2
		L111,135c-0.1,0.2-0.3,0.3-0.4,0.5l-0.2,0.2l-0.2,0.2c-0.1,0.1-0.3,0.3-0.4,0.4c-0.3,0.3-0.6,0.6-0.9,0.8c-0.1,0.1-0.3,0.3-0.4,0.4
		l-0.5,0.4l-0.2,0.2l-0.2,0.2l-0.5,0.4l-0.9,0.7c-0.6,0.4-1.3,0.9-1.9,1.3c-0.3,0.2-0.7,0.4-1,0.6l-0.5,0.3l-0.3,0.2l-0.3,0.1
		c-0.7,0.4-1.4,0.7-2.1,1c-0.7,0.3-1.5,0.5-2.3,0.6c-0.8,0.1-1.6,0.2-2.4,0.1c-0.8,0-1.6-0.1-2.3-0.2c-0.4-0.1-0.8-0.1-1.1-0.2
		c-0.4-0.1-0.8-0.1-1.1-0.2c0.4,0,0.8-0.1,1.2-0.1l1.1,0c0.8,0,1.5-0.1,2.3-0.1c0.7-0.1,1.5-0.2,2.2-0.4c0.2-0.1,0.4-0.1,0.5-0.2
		l0.5-0.2l0.5-0.2c0.1,0,0.2-0.1,0.2-0.1l0.2-0.1c0.2-0.1,0.3-0.2,0.5-0.2c0.2-0.1,0.3-0.2,0.5-0.3l0.5-0.3l0.5-0.3l0.2-0.1l0.2-0.2
		l0.5-0.3c0.3-0.2,0.6-0.4,0.9-0.7l0.9-0.7l0.9-0.7l0.9-0.7l0.4-0.3l0.2-0.2l0.2-0.2c1.2-0.9,2.2-1.9,3.2-3.1
		c0.5-0.6,0.9-1.2,1.3-1.8c0.4-0.6,0.7-1.3,0.9-1.9c0.5-1.3,0.7-2.8,0.6-4.3c-0.1-1.5-0.5-3-1.1-4.4c0.5,0.6,0.8,1.3,1.2,2
		C113.4,124,113.6,124.8,113.8,125.5z M260.9,131.6c0.2,0.4,0.4,0.9,0.4,1.4c0,0.2,0,0.5,0,0.7c0,0.2,0,0.5-0.1,0.7
		c-0.1,0.5-0.3,0.9-0.6,1.3c-0.3,0.4-0.6,0.8-0.9,1.1c-0.3,0.3-0.7,0.6-1.1,0.9c-0.7,0.5-1.5,1-2.3,1.3c-0.8,0.4-1.7,0.7-2.5,0.9
		c-0.9,0.2-1.8,0.4-2.7,0.4c-0.4,0-0.9,0-1.3,0.1c-0.4,0-0.9,0-1.3,0l-2.6,0l-0.6,0c-0.2,0-0.4,0-0.6,0c-0.4,0-0.8,0-1.3,0
		c-0.8,0.1-1.7,0.2-2.5,0.3c-0.8,0.2-1.6,0.4-2.4,0.7c-0.8,0.3-1.5,0.6-2.2,1l-0.5,0.3c-0.2,0.1-0.4,0.2-0.5,0.3
		c-0.4,0.2-0.7,0.5-1,0.7c-0.2,0.1-0.3,0.2-0.5,0.4l-0.5,0.4l-1,0.8l-4,3.3c-1.3,1.1-2.7,2.2-4.1,3.2c-0.7,0.5-1.4,1-2.1,1.5
		c-0.7,0.5-1.4,1-2.1,1.5c-2.9,2-5.9,3.8-9.1,5.2c-1.6,0.7-3.2,1.3-4.9,1.7c-0.4,0.1-0.8,0.2-1.3,0.3l-0.2,0l-0.2,0l-0.3,0.1
		c-0.2,0-0.4,0.1-0.6,0.1l-0.6,0.1c-0.2,0-0.4,0-0.6,0c-0.4,0-0.9,0-1.3,0c1.7-0.1,3.4-0.5,5-1c0.8-0.3,1.6-0.6,2.4-0.9
		c0.8-0.3,1.6-0.7,2.3-1.1c1.5-0.8,3-1.6,4.4-2.6c0.4-0.2,0.7-0.5,1.1-0.7c0.4-0.2,0.7-0.5,1.1-0.7l0.5-0.4l0.5-0.4
		c0.3-0.2,0.7-0.5,1-0.8c2.8-2,5.4-4.2,8.1-6.4l2-1.7l2-1.7l1-0.8l0.5-0.4c0.2-0.1,0.3-0.3,0.5-0.4c0.4-0.3,0.7-0.5,1.1-0.8
		c0.2-0.1,0.4-0.2,0.6-0.4l0.6-0.3c1.6-0.9,3.3-1.5,5.1-1.8c0.9-0.2,1.8-0.3,2.7-0.3c0.4,0,0.9,0,1.3,0c0.2,0,0.4,0,0.7,0l0.7,0
		l2.6,0.1l1.3,0c0.4,0,0.8,0,1.3,0c0.8,0,1.6-0.1,2.4-0.3c0.8-0.2,1.6-0.4,2.3-0.8c0.2-0.1,0.4-0.2,0.6-0.3l0.3-0.1l0.3-0.1
		c0.2-0.1,0.4-0.2,0.5-0.3l0.3-0.2c0.1-0.1,0.2-0.1,0.3-0.2c0.3-0.2,0.7-0.5,1-0.7c0.3-0.3,0.6-0.6,0.8-0.9c0.4-0.6,0.7-1.4,0.6-2.1
		c0-0.4-0.1-0.7-0.3-1.1c0-0.1-0.1-0.2-0.1-0.3l-0.2-0.3c-0.1-0.2-0.2-0.4-0.3-0.6c-0.4-0.8-0.7-1.6-0.9-2.5
		c-0.2-0.9-0.3-1.7-0.3-2.6c0-1.8,0.3-3.5,0.8-5.1c-0.1,0.9-0.3,1.7-0.4,2.6c-0.1,0.9-0.1,1.7,0,2.6c0.1,0.8,0.2,1.7,0.5,2.5
		c0.2,0.8,0.6,1.6,1,2.3c0.1,0.2,0.2,0.4,0.3,0.5l0.2,0.3C260.8,131.4,260.8,131.5,260.9,131.6z M317.6,127.8
		c-1.1-1.4-2.4-2.5-3.8-3.5c-1.4-1-2.9-1.8-4.5-2.5c-0.8-0.3-1.6-0.7-2.4-0.9c-0.8-0.3-1.6-0.5-2.5-0.8c-3.4-0.9-6.8-1.5-10.3-1.9
		c-3.5-0.4-7-0.6-10.6-0.9c3.5-0.4,7.1-0.5,10.7-0.3c3.6,0.2,7.2,0.6,10.6,1.6c0.9,0.2,1.7,0.5,2.6,0.8c0.9,0.3,1.7,0.7,2.5,1.1
		c1.6,0.8,3.2,1.7,4.6,2.9c1.4,1.2,2.7,2.5,3.6,4.1c0.5,0.8,0.9,1.6,1.2,2.4c0.1,0.2,0.2,0.4,0.2,0.6c0.1,0.2,0.2,0.4,0.2,0.6
		c0.1,0.2,0.1,0.4,0.2,0.6c0.1,0.2,0.1,0.4,0.2,0.6c-0.1-0.2-0.2-0.4-0.3-0.6c-0.1-0.2-0.2-0.4-0.3-0.6c-0.1-0.2-0.2-0.4-0.3-0.6
		c-0.1-0.2-0.2-0.4-0.3-0.6C318.7,129.2,318.2,128.5,317.6,127.8z M318.9,213.8c-0.7-1.2-1.4-2.5-2-3.7c-0.6-1.2-1.3-2.5-1.9-3.8
		c-0.6-1.3-1.2-2.5-1.7-3.8c-0.1-0.3-0.3-0.7-0.4-1c-0.1-0.3-0.3-0.7-0.4-1c-0.1-0.3-0.2-0.7-0.4-1c-0.1-0.3-0.2-0.7-0.3-1
		c-0.1-0.3-0.2-0.7-0.3-1c0-0.2-0.1-0.3-0.1-0.5c0-0.2-0.1-0.3-0.1-0.5c-0.1-0.4-0.2-0.7-0.2-1.1c0-0.2-0.1-0.4-0.1-0.5l-0.1-0.5
		c0-0.2,0-0.4-0.1-0.5l-0.1-0.5l0-0.5l0-0.3l0-0.3l0-0.5l0-0.5c0-0.4,0-0.7,0-1.1c0.1-1.4,0.3-2.8,0.6-4.2c0.3-1.4,0.6-2.7,1.1-4.1
		c-0.2,2.8-0.5,5.6-0.4,8.3c0,1.4,0.1,2.7,0.4,4.1c0.2,1.3,0.6,2.6,1,4l0.2,0.5c0.1,0.2,0.1,0.3,0.2,0.5c0.1,0.3,0.2,0.7,0.3,1
		c0.2,0.7,0.5,1.3,0.7,1.9l1.5,3.9C317.1,208.4,318.1,211.1,318.9,213.8z M196.8,190.2l0.4,0l0.2,0l0.2,0c0.1,0,0.3,0,0.4,0l0.4,0
		c0.5,0.1,1,0.2,1.5,0.4c0.5,0.2,1,0.5,1.4,0.8c0.4,0.3,0.8,0.6,1.2,1c0.8,0.7,1.5,1.5,2.2,2.2c0.7,0.7,1.4,1.5,2.1,2.2
		c0.4,0.4,0.7,0.7,1.1,1c0.2,0.2,0.4,0.3,0.6,0.5c0.2,0.2,0.4,0.3,0.6,0.5c0.8,0.6,1.6,1.2,2.4,1.7c1.7,1,3.5,1.9,5.4,2.5
		c0.9,0.3,1.9,0.6,2.9,0.9c1,0.3,2,0.5,3,0.7c1,0.2,2,0.4,3,0.6c1,0.2,2,0.4,3,0.7c0.5,0.1,1,0.3,1.5,0.5c0.3,0.1,0.5,0.2,0.8,0.4
		c0.3,0.2,0.5,0.3,0.7,0.6c0.7,1.2,0.4,2.5-0.1,3.4c-0.1,0.2-0.3,0.5-0.4,0.7c-0.1,0.2-0.3,0.5-0.4,0.7c-0.1,0.2-0.3,0.4-0.5,0.6
		c-0.2,0.2-0.3,0.4-0.5,0.6c-0.2,0.2-0.3,0.4-0.5,0.6c-0.2,0.2-0.3,0.4-0.5,0.6c-0.3,0.4-0.7,0.8-1,1.2c0.3-0.4,0.5-0.9,0.8-1.3
		l0.4-0.7c0.1-0.2,0.3-0.4,0.4-0.7c0.1-0.2,0.3-0.4,0.4-0.7c0.1-0.2,0.2-0.4,0.4-0.7c0.1-0.2,0.2-0.5,0.3-0.7
		c0.1-0.2,0.2-0.5,0.3-0.7c0.2-0.5,0.3-0.9,0.3-1.4c0-0.1,0-0.2,0-0.3l0-0.2c0-0.1,0-0.1,0-0.2c0-0.1,0-0.1,0-0.2l-0.1-0.2
		c0-0.1-0.1-0.1-0.1-0.2c-0.1-0.1-0.3-0.2-0.5-0.3c-0.2-0.1-0.4-0.2-0.6-0.3c-0.5-0.2-0.9-0.3-1.4-0.4c-2-0.4-4-0.7-6.1-1.1
		c-1-0.2-2-0.4-3.1-0.7c-1-0.3-2-0.6-3-0.9c-1-0.4-2-0.8-2.9-1.2c-0.5-0.2-0.9-0.5-1.4-0.7c-0.2-0.1-0.5-0.3-0.7-0.4l-0.3-0.2
		c-0.1-0.1-0.2-0.1-0.3-0.2c-0.9-0.6-1.7-1.2-2.5-1.9c-0.8-0.7-1.5-1.5-2.2-2.2c-0.4-0.4-0.7-0.8-1-1.2c-0.3-0.4-0.7-0.8-1-1.2
		c-0.6-0.8-1.3-1.6-2-2.3c-0.3-0.4-0.7-0.7-1.1-1.1c-0.4-0.3-0.8-0.6-1.2-0.9c-0.4-0.3-0.9-0.4-1.4-0.6
		C197.9,190.3,197.4,190.2,196.8,190.2z M27.3,148.2c0.4-2.1,2.3-4.1,6.2-6.3c3.5-2.1,7.6-6.6,9.8-9.1c1.4-1.7,2.8-3.4,3.8-4.8
		c1.6-2.3,1.6-2.9,1.6-3.1l0-0.1l0-0.1c-0.7-5.2,2.3-9.3,11.6-15.7l0.2-0.1c0,0,0,0,0,0c1.2-0.8,3.7-2.7,6.4-4.2
		c0,0-0.4,0.1-1.1,0.3c-0.2,0.1-0.4,0.1-0.7,0.2l0,0c-2.1,0.3-2.6-0.4-3.4-2.3c-1.5-3.6-12.3-7.6-12.7-14.6c0,0,0,0.1,0.1,0.1
		c0.8,1,4.4,4.2,8,6.8c2.1,1.5,4,2.7,5.5,3.4c2.1,1,3.6,1.2,4.6,0.6c2-1.1,3.8-1,4.5-0.9c0.7,0.7,4.9,4.7,7.4,5.8
		c0,0-8.1-10.9-8.5-13.3c1.6,0.8,4.3,3.2,6.3,5.1c2.2,2,4.4,3.9,6,4.9c1,0.6,0.9,1.6,0.4,3.6c0,0.1-0.1,0.2-0.1,0.4
		c-1.2,3.8-5.1,5.3-7.6,6.1c3.8,0.8,6.6-2.5,11.4,0.5c0.8,0.6,1.7,1.2,2.8,1.9c-11.1,6.3-19.3-4.5-27.6-0.2
		c-4.2,2.2-8.8,5.9-8.8,10.4c0,4.6-3.8,7.6-7.2,13.2c-3.2,5.2,8.4,15.4,18.2,14.4c17.4-1.8,20.8-6.2,27.7-5.7
		c6.9,0.5,9.1-0.5,16-5.6c11.4-8.4,7.6-17.2,5.9-19.9c6.9,0.6,14.6,0.4,23.1-0.4c1.2-0.1,3-0.1,5.3,0.1c0,0,0,0,0,0
		c7.4,0.6,15.6,1.5,23.4,2.3c-6.4,0.8-17.9-0.2-24.6,0.2c-2.5,4.9-6.5,11.3-10.1,15.9c-5.7,7.5,1.8,15.7,8.2,22.3
		c6.4,6.6,14,5.9,26.7,2.9c12.7-3,21.6,0.7,33.6,1.9c12.1,1.2,26.5-12.1,35-18.9c8.4-6.8,14.2-1.6,22.1-4.8
		c7.9-3.2,7.5-8.2,5.9-10.7c-1.3-2-2.5-4.8-0.1-11.8c5.4-0.7,10.5-1.4,15.5-1.9c0.8,0.8,2.5,2.3,6.2,4.7c5.9,3.9,11.8,4.2,17.8,5.4
		c10.7,2.1,18.1,12.2,16.2,26.8c-0.4,2-0.8,4-1.2,6c-0.3,1.7-0.7,3.4-1,5.1c0,0,0,0,0,0c-0.5,2.3-1.5,8.2-1.5,8.2s0-4.4-0.3-7.9
		c-2.3,0.4-5.7,1.2-8.5,2.7h0c0,0,0,0,0,0c-0.4,0.2-0.8,0.5-1.1,0.7c-11.4,7.6-4.3,15.1-14.2,22.3c-10.2,7.5,21.4,36.6,26,31.2
		c2.2-2.6,3.7-4.6,4.5-5.9c0.4,1.3,0.8,2.5,1,3.7c0.8,3.4-0.2,8.3-1.1,12.5c-0.5,2.2-0.9,4.3-1.1,6c-1.6,16.1-2.8,35-1.3,39.6
		c0.3,0.8,0.1,1.2-0.5,1.7c-2,1.4-7.3,2.1-7.3,2.1s3.2,0.7,5.3,0.5c-0.3,0.7-0.5,1.5-0.8,2.5c-0.1,0.4-0.2,0.8-0.4,1.3
		c-0.3,0.1-0.7,0.2-1.2,0.3c-1.6,0.3-3.8,0.3-5.9,0.1c-2.2-0.2-4.3-0.5-5.9-0.9c-0.3-0.1-0.5-0.1-0.7-0.2c0,0,0,0,0,0l3.5-0.4
		c0,0,7.1-8.7,4.3-38.5c-0.7-7.6-2.7-14.3-5.7-19.9c-7.3-14-15.7-19.8-31.9-20.5c11.1,1.5,25.8,8.7,27.3,23.6c0,0,0,0,0,0l0,0
		l-0.2,0.7c-1.8,6-4.9,13.5-7.9,20.8c-2.2,5.3-4.2,10.2-5.6,14.3c-1.7,4.8-2.2,7.6-1.8,9.2c0.3,1.3-0.3,1.8-1.6,2.6c0,0,0,0,0,0
		c-2.2,1.2-6.9,1.9-6.9,1.9s2.6,0.6,4.6,0.6c-0.5,0.7-1,1.4-1.5,2.1c-0.2,0-0.3,0.1-0.5,0.1c-0.4,0-0.8,0.1-1.2,0.1
		c-0.9,0-1.9,0-3,0c-1.1-0.1-2.3-0.2-3.5-0.3c-2.4-0.3-4.7-0.8-6.4-1.2c-0.4-0.1-0.7-0.2-1-0.3c0,0,2.9,0,3.6-0.5
		c0.6-0.5,0.9-0.8,1.6-1.4c13.4-11.7,16.3-33.3,15.5-48.5c5.4-2.7,8.6-6.6,8.6-6.6c-7.2,4.2-13.2,3.9-13.2,3.9s0,0.3,0.1,2.4l0,0v0
		l0.1,1.5c0.1,1.7,0.2,3.3,0.2,4.9c0,0.1,0,0.3,0,0.4c0,0.1,0,0.2,0,0.3c-0.4,1.2-3.2,1.2-3.4-0.5c-0.1-1.8-0.2-4.4-0.6-5.8
		c-0.5-1.8-2-3.1-3.6-3.3c0,0,0,0,0,0c-0.8-0.1-1.5,0.1-2.1,0.7c-1.3,1.3-1.4,3.9-1.3,5.3l0,0c0,3.1-3.2,2.8-3.2,1.2
		c0-1.3,0.1-3.8,0.1-5.3c0-0.3,0-0.7,0-1c0.1-2.6-0.1-4.8-0.7-6.7c-4.9-2.9-8.2-4.3-11.7-8.8c-1.3,0.7-2.4,1.2-2.5,1.2c0,0,0,0,0,0
		l0.4-0.5l0.1-0.1l0.1-0.1l0.2-0.3c0.3-0.4,0.6-0.8,0.8-1.2l0.2-0.3l0.2-0.3l0.4-0.6c0.2-0.4,0.5-0.8,0.7-1.2l1.3-2.5
		c0.4-0.8,0.9-1.6,1.3-2.4c0.2-0.4,0.4-0.8,0.7-1.2c0.2-0.4,0.5-0.8,0.7-1.1l0.4-0.6l0.4-0.6c0.1-0.1,0.1-0.2,0.2-0.3l0.2-0.3
		c0.1-0.1,0.1-0.2,0.2-0.3l0.2-0.3l0.2-0.3c0.1-0.1,0.1-0.2,0.2-0.2l0.2-0.2l0.1-0.1c0,0,0,0,0.1-0.1l0.1-0.1l0.5-0.5
		c0.2-0.1,0.4-0.3,0.5-0.4c0.2-0.1,0.4-0.3,0.6-0.4c0.2-0.1,0.4-0.2,0.6-0.4c0.2-0.1,0.4-0.2,0.6-0.3l0.6-0.3l-0.7,0.2
		c-0.2,0.1-0.4,0.2-0.7,0.2c-0.2,0.1-0.4,0.2-0.6,0.3c-0.2,0.1-0.4,0.2-0.6,0.3c-0.2,0.1-0.4,0.2-0.6,0.3l-0.6,0.4l-0.1,0.1
		c0,0,0,0-0.1,0.1l-0.1,0.1l-0.3,0.2c-0.1,0.1-0.2,0.1-0.3,0.2l-0.3,0.2l-0.3,0.2c-0.1,0.1-0.2,0.2-0.3,0.2l-0.3,0.2
		c-0.1,0.1-0.2,0.2-0.3,0.3l-0.5,0.5l-0.5,0.5c-0.3,0.4-0.6,0.7-0.9,1.1c-0.2,0.2-0.3,0.4-0.5,0.6l0,0c-6,8.3-12.8,12.4-23.2,14.3
		c-2.1,1.5-3.8,2.6-3.8,2.6s2-2.1,3.3-3.9l0,0c3-4.2,4.9-6.9,3.6-9.9c-1.8-4.2-11.8-2.6-20.6-7.5c-8.8-5-9.2-14.4-20.4-11.3
		c-11.2,3.1-22.3,14.3-16.8,20.2c3.8,4.1,5.5,7.7,4.9,10.3c0,0,0,0,0,0v0c-0.4,1.6-1.2,2.4-3.2,3.2c0,0,1.5-1.5,1.6-3.5
		c-11.5-2.1-17.7-6.5-18.2-14.4c0,0-0.1,0.3-0.2,0.9c-0.1,0.3-0.1,0.6-0.2,1c-0.1,0.4-0.2,0.8-0.3,1.3c-0.1,0.5-0.2,1-0.3,1.6
		c-0.1,0.6-0.2,1.1-0.2,1.8c0,0.3-0.1,0.6-0.1,0.9c0,0.3-0.1,0.6-0.1,1c-0.1,0.6-0.1,1.3-0.1,2c0,0.7-0.1,1.3-0.1,2
		c0,0.6,0,1.3,0,1.9c0,0.6,0,1.2,0.1,1.8c0,0.6,0.1,1.1,0.1,1.6c0,0,0,0.1,0,0.1l0,0l0.1,1c0,0.1,1.1,14.1,1.2,21.2l0.1,16.4l2,18.8
		c0.2,1.1,0,2.3-0.5,3.3c0,0,0,0.1-0.1,0.1l0,0c-1.4,1.9-8.1,2.9-8.1,2.9s3.8,0.6,7.1,0c0,0.3,0,0.7,0,1c0,0.6,0,1.1-0.3,1.8
		c-0.5,0.1-1,0.2-1.7,0.2c-1.7,0-4-0.2-6.2-0.6c-2.2-0.4-4.5-0.9-6.1-1.3c-0.6-0.1-1-0.3-1.4-0.4l3.7-0.3c0,0,2.9-1.8,3.6-7.5
		c0.6-5.6,0.5-10.8,0.2-15.4c-0.4-4.6-0.1-5.5-4.3-14.9c-4.2-9.4-7.5-27-9.6-34.2c-1.1,8.2,0,22.7,0.6,28.1
		c-0.5,2.2-1.2,4.7-2.2,6.8c-0.3,0.7-0.9,2.8-1.2,12.4c-0.2,5.8-0.3,12-0.4,15.3c0,0.3,0,0.7-0.1,1c-0.8,1.9-6.9,3.8-9.6,3.4
		c0,0,3,1.4,6.8,0.6c-0.4,0.4-0.7,0.8-0.9,1.2c-0.3,0.5-0.5,0.9-0.7,1.4c-0.3,0-0.7,0.1-1,0.1c-0.8,0-1.8,0-2.8,0
		c-1-0.1-2.1-0.2-3.2-0.3c-2.2-0.3-4.3-0.7-5.9-1.1c-0.3-0.1-0.7-0.2-0.9-0.3l3.5-0.7c0,0,4.9-4.3,6.5-10c1.6-5.7,2.3-14.3,2.2-18.1
		c-0.1-3.8-1.5-4.6-2-6.6c-0.5-2-0.5-11.4-0.5-15.4c0-1,0-1.9,0.1-2.7c0-0.2,0.1-0.4,0.1-0.6c0-0.3,0.1-0.5,0.1-0.8
		c0.8-3,4.8-5.7,5.1-7.9c0,0-5.1,6.1-11,3.8c-3.4-1.3-7.6-5.6-11.3-11.9l0,0c-1.4-2.3-2.7-4.9-4-7.7c1.4,2,4.3,5.6,7.2,7.7
		c2.1,0.1,4.6,0.4,7.2,1.1c7.4,1.9,15.4-3.4,18.5-8.9c3-5.3,4.7-9.8,9.1-13.9c4.4-4.1-0.2-11.1-5.1-11.5c-3.2-0.3-5-2.5-6.8-4.1
		c-5-5.7-8.2-12.5-16.5-11.1c-8.3,1.4-14.4,2.2-20.7,6.7c-2.5,1.8-5,2-7.2,1.6c-2-3.2-3.9-5.7-5-7.3c-0.8-1.1-0.7-2.6,0.2-3.6
		c1.9-2.1,5-4.3,5-4.3c-14.8,6-56.8,6.1-61.6,1.3C27.8,153.1,26.8,150.4,27.3,148.2z M145.4,182.9c-0.2-0.3-0.5-0.5-0.7-0.7
		c-0.1-0.1-0.1-0.1-0.2-0.2c-0.1-0.1-0.1-0.1-0.2-0.2l-0.2-0.1l-0.2-0.1c-0.3-0.2-0.6-0.3-0.9-0.4c-0.3-0.1-0.5-0.1-1-0.2
		c-0.8-0.1-1.7-0.3-2.4-0.6c-0.8-0.3-1.5-0.7-2.2-1.2c-0.7-0.5-1.3-1-1.9-1.6c-0.3-0.3-0.6-0.5-0.9-0.8c-0.3-0.3-0.5-0.5-0.8-0.8
		l0,0l0,0c-0.9-1.1-1.8-2.3-2.7-3.4c-0.4-0.6-0.9-1.1-1.3-1.7L129,170c-0.2-0.3-0.4-0.6-0.7-0.8c-0.2-0.3-0.5-0.5-0.7-0.8
		c-0.2-0.3-0.5-0.5-0.7-0.8c-0.1-0.1-0.3-0.2-0.4-0.4l-0.2-0.2c-0.1-0.1-0.1-0.1-0.2-0.2c-0.1-0.1-0.3-0.2-0.4-0.3l-0.4-0.3
		c-0.6-0.4-1.2-0.7-1.9-1c-0.3-0.1-0.7-0.2-1-0.3c-0.2,0-0.3-0.1-0.5-0.1l-0.5-0.1c0.4,0,0.7,0,1.1,0c0.4,0,0.7,0.1,1.1,0.1
		c0.7,0.2,1.4,0.4,2.1,0.8l0.5,0.3c0.2,0.1,0.3,0.2,0.5,0.3c0.1,0.1,0.2,0.1,0.2,0.2l0.2,0.2c0.1,0.1,0.3,0.2,0.4,0.3l0.4,0.4
		c0.1,0.1,0.3,0.2,0.4,0.4c0.3,0.2,0.5,0.5,0.8,0.8c1,1,1.9,2.1,2.9,3.2c0.9,1.1,1.8,2.2,2.8,3.2c0.3,0.2,0.6,0.5,0.9,0.8
		c0.3,0.3,0.6,0.5,0.9,0.8c0.6,0.5,1.1,1,1.8,1.4c1.2,0.8,2.6,1.3,4,1.5c0.2,0,0.3,0,0.6,0.1l0.2,0c0.1,0,0.1,0,0.2,0
		c0.1,0,0.2,0.1,0.3,0.1c0.4,0.1,0.9,0.3,1.2,0.6c0.8,0.5,1.4,1,2,1.7c0.3,0.3,0.5,0.7,0.7,1.1c0.2,0.4,0.4,0.8,0.5,1.2
		c0.1,0.4,0.2,0.9,0.2,1.4c0,0.2,0,0.5-0.1,0.7c-0.1,0.2-0.1,0.5-0.2,0.7c-0.1,0.2-0.2,0.4-0.4,0.6c-0.1,0.2-0.3,0.4-0.5,0.5
		L146,189c-0.3,0.3-0.5,0.5-0.8,0.8l-0.4,0.4l-0.4,0.4c-1,1.1-1.9,2.4-2.8,3.7c-0.4,0.6-0.8,1.3-1.2,2c-0.4,0.7-0.8,1.3-1.2,2
		c-0.4,0.7-0.8,1.3-1.2,2c-0.2,0.3-0.4,0.7-0.6,1c-0.2,0.3-0.4,0.7-0.6,1c0.6-1.4,1.3-2.8,2-4.3c0.3-0.7,0.7-1.4,1-2.1
		c0.2-0.3,0.4-0.7,0.5-1l0.3-0.5l0.3-0.5c0.4-0.7,0.8-1.4,1.2-2c0.2-0.3,0.5-0.7,0.7-1c0.1-0.2,0.2-0.3,0.4-0.5
		c0.1-0.2,0.2-0.3,0.4-0.5l0.4-0.5l0.4-0.5c0.3-0.3,0.5-0.6,0.8-0.9c0.1-0.1,0.3-0.3,0.4-0.4l0.2-0.2l0.1-0.1l0.1-0.1
		c0.2-0.2,0.4-0.5,0.5-0.8C146.8,185.4,146.2,184,145.4,182.9z M65.3,124.6c0-0.6-0.2-1.2-0.6-1.6c1.4,0.3,2.4,0.8,3,1.3
		c-0.2,1.5-1.4,2.8-3,2.9c-0.5,0-1-0.1-1.4-0.2C64.4,126.8,65.3,125.8,65.3,124.6z M62.9,122.5c-0.5,0.1-0.9,0.3-1.4,0.5
		c-0.5,0.2-0.9,0.5-1.4,0.7l-0.7,0.4c-0.2,0.1-0.5,0.3-0.7,0.4c0.2-0.5,0.5-1,0.9-1.5c0.3-0.5,0.8-0.9,1.2-1.3
		c0.5-0.4,1-0.7,1.6-0.9c0.1-0.1,0.3-0.1,0.4-0.2c0.1,0,0.3-0.1,0.4-0.1c0.2,0,0.3-0.1,0.5-0.1c0.2,0,0.3,0,0.5-0.1l0.5,0l0.1,0
		l0.1,0l0.2,0c0.3,0,0.6,0.1,0.9,0.1c0.6,0.1,1.2,0.3,1.7,0.6c1.1,0.5,2,1.3,2.6,2.2c-0.3-0.1-0.5-0.2-0.8-0.2
		c-0.3-0.1-0.5-0.2-0.8-0.2c-0.5-0.2-1-0.3-1.5-0.4c-0.5-0.1-1-0.2-1.5-0.2c-0.2,0-0.5,0-0.7,0c-0.2,0-0.5,0-0.7,0
		c-0.1,0-0.2,0-0.4,0c-0.1,0-0.2,0-0.4,0c-0.1,0-0.2,0-0.3,0.1L62.9,122.5z"/>
	<g>
		<path class="st3" d="M244.8,170.7c-2.6,9.7,14.4,11.3,21.1,14.6c6.7,3.3,12.4-5.3,12.8-13.1c0.5-7.8,12.5-9.9,13.9-15.8
			c2.3-9.6-8.1-22.2-15.8-21.5c-6.3,0.6-11,6.4-8.2,12.6C271.5,153.6,247.4,161,244.8,170.7z M273.7,180.3c0.3-0.5,0.6-1,0.8-1.6
			c0.2-0.5,0.4-1.1,0.6-1.6c0.4-1.1,0.6-2.2,0.7-3.4c0.1-0.6,0.1-1.1,0.1-1.7c0-0.6,0.1-1.2,0.2-1.8c0.3-1.2,0.8-2.4,1.4-3.4
			c0.7-1,1.5-2,2.4-2.8c0.9-0.8,1.8-1.6,2.8-2.3c1-0.7,1.9-1.4,2.9-2c1-0.7,1.9-1.3,2.7-2.1c0.4-0.4,0.8-0.8,1-1.2
			c0.1-0.1,0.1-0.2,0.2-0.3l0.1-0.2l0-0.1l0-0.1c0,0,0-0.1,0-0.1l0-0.2c0-0.1,0.1-0.3,0.1-0.4c0.2-1.1,0.1-2.2,0-3.3
			c-0.2-1.1-0.5-2.2-0.9-3.2c-0.1-0.1-0.1-0.3-0.2-0.4l-0.2-0.4c-0.1-0.1-0.1-0.3-0.2-0.4l-0.2-0.4l-0.2-0.4l-0.2-0.4l-0.2-0.4
			c-0.1-0.1-0.1-0.2-0.2-0.4c-1.1-2-2.6-3.8-4.3-5.3c-0.4-0.4-0.9-0.7-1.3-1.1c-0.5-0.3-1-0.6-1.5-0.9c-0.3-0.1-0.5-0.3-0.8-0.4
			c-0.3-0.1-0.5-0.2-0.8-0.3c-0.6-0.2-1.1-0.3-1.7-0.3c0.6-0.1,1.2-0.1,1.8,0c0.3,0,0.6,0.1,0.9,0.2c0.3,0.1,0.6,0.2,0.8,0.3
			c1.1,0.4,2.2,1.1,3.1,1.8c1.9,1.4,3.6,3.3,4.9,5.3c0.7,1,1.2,2.1,1.7,3.2c0.5,1.1,0.8,2.3,1,3.5c0.2,1.2,0.3,2.5,0.1,3.7
			c0,0.2-0.1,0.3-0.1,0.5l0,0.2c0,0,0,0.1,0,0.1l0,0.1l-0.1,0.3c0,0.1-0.1,0.2-0.1,0.3c-0.1,0.2-0.2,0.3-0.2,0.5
			c-0.4,0.6-0.8,1.1-1.3,1.5c-0.5,0.4-0.9,0.8-1.4,1.2c-0.5,0.4-1,0.7-1.5,1c-1,0.7-2,1.3-2.9,2c-1,0.7-1.9,1.3-2.7,2.1
			c-0.8,0.8-1.6,1.6-2.3,2.5c-0.3,0.5-0.6,0.9-0.9,1.4c-0.2,0.5-0.4,1-0.6,1.6c-0.2,0.5-0.3,1.1-0.3,1.6c-0.1,0.6-0.2,1.2-0.3,1.8
			c-0.1,0.6-0.3,1.2-0.5,1.7c-0.2,0.6-0.4,1.1-0.6,1.7C275,178.3,274.4,179.4,273.7,180.3z"/>
		<path class="st3" d="M315.4,252.4c0.1-1.1,0.2-2.2,0.2-3.4l0.1-1.7c0-0.6,0.1-1.1,0.2-1.7c0.1-1.1,0.2-2.2,0.4-3.4
			c0.3-2.2,0.7-4.5,1.1-6.7c0.4-2.2,0.9-4.4,1.4-6.6c0.3-1.1,0.5-2.2,0.7-3.3c0.1-0.5,0.2-1.1,0.3-1.6c0.1-0.6,0.1-1.1,0.1-1.7
			c0.1,0.5,0.1,1.1,0.1,1.7c0,0.6-0.1,1.1-0.1,1.7c-0.1,1.1-0.3,2.2-0.4,3.3c-0.3,2.2-0.7,4.4-1,6.6c-0.2,1.1-0.3,2.2-0.4,3.3
			c-0.1,1.1-0.3,2.2-0.4,3.3l-0.2,1.7c0,0.6-0.1,1.1-0.1,1.7c-0.1,1.1-0.2,2.2-0.3,3.3c-0.1,1.1-0.2,2.2-0.3,3.3l-0.1,1.7l-0.1,1.7
			c-0.2,2.2-0.3,4.5-0.4,6.7c0,0.6-0.1,1.1-0.1,1.7l-0.1,1.7c0,1.1-0.1,2.2-0.1,3.3c-0.1,2.2,0,4.5,0,6.7c-0.4-2.2-0.6-4.5-0.8-6.7
			c0-0.6-0.1-1.1-0.1-1.7l-0.1-1.7c0-1.1-0.1-2.2-0.1-3.4c0-2.2,0-4.5,0.1-6.7C315.2,254.6,315.3,253.5,315.4,252.4z"/>
		<path class="st3" d="M295.9,232.9c-0.2,0.8-0.4,1.5-0.6,2.3c-0.2,0.8-0.5,1.5-0.7,2.3c-0.3,0.8-0.5,1.5-0.8,2.3
			c-0.1,0.4-0.3,0.7-0.4,1.1c-0.1,0.4-0.3,0.7-0.4,1.1c-1.1,3-2.3,5.9-3.5,8.9c-1.2,2.9-2.5,5.8-3.7,8.8c-1.2,2.9-2.4,5.8-3.5,8.8
			c0.1-0.4,0.1-0.8,0.2-1.2c0-0.2,0.1-0.4,0.1-0.6l0.1-0.6l0.3-1.2c0.1-0.4,0.2-0.8,0.3-1.2c0.1-0.4,0.2-0.8,0.3-1.2l0.3-1.1
			c0.1-0.4,0.2-0.8,0.4-1.1l0.4-1.1c1-3,2.2-6,3.4-8.9c1.2-2.9,2.5-5.8,3.8-8.7C293.1,238.6,294.4,235.7,295.9,232.9z"/>
		<path class="st3" d="M159.5,234.1c0.2,4.5,0.3,11.1,0.3,15.6l0,3.4c0,1.1,0,2.3,0,3.4c0,0.6,0,1.1,0.1,1.7c0,0.6,0,1.1,0.1,1.7
			c0.1,1.1,0.2,2.2,0.3,3.4c0.2,2.2,0.5,4.5,0.8,6.7l0.5,3.4l0.5,3.4c-0.3-1.1-0.6-2.2-0.8-3.3l-0.4-1.7l-0.4-1.7
			c-0.5-2.2-0.9-4.5-1.3-6.7c-0.2-1.1-0.3-2.2-0.5-3.4c-0.1-0.6-0.1-1.1-0.2-1.7c0-0.6-0.1-1.1-0.1-1.7c-0.1-1.1-0.1-2.3-0.2-3.4
			c0-1.1-0.1-2.3-0.1-3.4c0-1.1,0-2.3,0-3.4l0-1.7l0-1.7l0-8.8c0-2.3,0-4.5,0-6.8c0-2.3-0.1-4.5-0.1-6.8c0.4,2.2,0.7,4.5,0.9,6.8
			C159.2,229.5,159.3,231.8,159.5,234.1z"/>
		<path class="st3" d="M136.2,247c-0.2,0.6-0.3,1.3-0.5,1.9c-0.1,0.6-0.2,1.3-0.2,2c0,0.3,0,0.7-0.1,1c0,0.3,0,0.7,0,1
			c0,1.4-0.1,2.7-0.1,4.1c-0.1,2.7-0.2,5.5-0.3,8.2c-0.2,2.7-0.4,5.5-0.7,8.2c-0.3-2.7-0.4-5.5-0.5-8.2c-0.1-2.7-0.1-5.5,0-8.2
			c0-1.4,0.1-2.7,0.2-4.1c0.1-1.4,0.2-2.8,0.6-4.2c0.2-0.7,0.4-1.4,0.7-2c0.3-0.6,0.6-1.3,1-1.9c0.4-0.6,0.7-1.2,1.1-1.7
			c0.4-0.6,0.7-1.1,1.1-1.7c-0.4,1.3-1,2.6-1.6,3.8C136.6,245.7,136.4,246.3,136.2,247z"/>
		<path class="st3" d="M29.3,147c0.2-0.2,0.4-0.4,0.7-0.5c0.3-0.1,0.6-0.2,0.9-0.2c0.1,0,0.3,0,0.4,0c0.1,0,0.1,0,0.2,0.1
			c0.1,0,0.1,0,0.2,0.1c0.3,0.1,0.5,0.3,0.7,0.5c0.2,0.2,0.4,0.5,0.5,0.7c0.2,0.5,0.3,1.1,0.3,1.6c0,0.3-0.1,0.5-0.1,0.7
			c-0.1,0.2-0.2,0.5-0.3,0.7c-0.2,0.4-0.5,0.8-0.8,1.2c-0.3,0.3-0.7,0.6-1.1,0.8c0.2-0.4,0.3-0.8,0.5-1.2c0.1-0.4,0.2-0.8,0.3-1.1
			c0.1-0.4,0.1-0.7,0.1-1.1c0-0.3-0.1-0.7-0.2-0.9c-0.1-0.3-0.3-0.5-0.5-0.6c0,0-0.1,0-0.1,0c0,0-0.1,0-0.1,0c-0.1,0-0.1,0-0.2-0.1
			c-0.1,0-0.3,0-0.4,0c-0.3,0-0.6,0.2-0.8,0.4c-0.3,0.2-0.5,0.6-0.7,1c-0.1-0.4-0.1-0.9,0.1-1.4C29,147.5,29.1,147.2,29.3,147z"/>
	</g>
</g>
</svg>
